<svg xmlns="http://www.w3.org/2000/svg" xmlns:xlink="http://www.w3.org/1999/xlink" width="142.698" height="141.855" viewBox="0 0 142.698 141.855">
  <defs>
    <clipPath id="clip-path">
      <ellipse id="Elipse_3994" data-name="Elipse 3994" cx="68.496" cy="68.05" rx="68.496" ry="68.05" transform="translate(0)" fill="#f2f6fe"/>
    </clipPath>
  </defs>
  <g id="Grupo_894604" data-name="Grupo 894604" transform="translate(-363.302 -9103.88)">
    <g id="Grupo_894422" data-name="Grupo 894422" transform="translate(9036.302 7377.398)">
      <path id="Trazado_99503" data-name="Trazado 99503" d="M968.645,321.3A68.266,68.266,0,0,1,900.42,253" transform="translate(-9572.42 1546.033)" fill="none" stroke="#fefefe" stroke-miterlimit="10" stroke-width="2"/>
      <ellipse id="Elipse_3992" data-name="Elipse 3992" cx="69.561" cy="69.138" rx="69.561" ry="69.138" transform="translate(-8669.424 1726.482)" fill="#5f4ad9"/>
      <path id="Trazado_175808" data-name="Trazado 175808" d="M68.5,0c37.829,0,68.5,30.476,68.5,68.069s-30.667,68.069-68.5,68.069S0,105.662,0,68.069,30.667,0,68.5,0Z" transform="translate(-8669.456 1727.77)" fill="#d3e6b1"/>
    </g>
    <g id="Grupo_877834" data-name="Grupo 877834" transform="translate(260.537 8450.264)">
      <path id="Trazado_617794" data-name="Trazado 617794" d="M390.851,910.656a12.942,12.942,0,0,1-7.856,8.243,33.727,33.727,0,0,1-4.036,1.085,3.753,3.753,0,0,0-.386.146h-3.85l-2.037-.491a13.423,13.423,0,0,1-9.487-7.529l-.782-2.242q-.229-1.517-.458-3.034c.072-1.447.045-2.908.235-4.34a33.963,33.963,0,0,1,4.055-11.858,32.512,32.512,0,0,1,4.759-6.812,5.784,5.784,0,0,1-.145.636c-.567,1.649-1.212,3.276-1.7,4.948a23.6,23.6,0,0,0-.912,9.6,13.944,13.944,0,0,0,4.645,9.031,16.087,16.087,0,0,0,9.8,3.935A18.456,18.456,0,0,0,390.851,910.656Z" transform="translate(-180.262 -160.27)" fill="#57b69c"/>
      <path id="Trazado_617795" data-name="Trazado 617795" d="M182.937,786.047a16.128,16.128,0,0,0,3.29,4.429,37.138,37.138,0,0,1-39.746-10.66,34.845,34.845,0,0,1-8.665-18.052c-2.049-13.053,1.681-24.266,11.187-33.5.59-.574,1.277-1.049,1.918-1.57a1.168,1.168,0,0,1-.113.339,36.888,36.888,0,0,0-5.6,11.079,38,38,0,0,0-1.656,10.433,30.028,30.028,0,0,0,.3,5c.263,1.834.751,3.635,1.141,5.45.1.556.2,1.113.307,1.668a29.131,29.131,0,0,0,8.418,15.758,29.577,29.577,0,0,0,16.747,8.2l.5.094.051-.005.047.019a4.838,4.838,0,0,0,.724.305A39.142,39.142,0,0,0,182.937,786.047Z" transform="translate(0 -34.207)" fill="#e33a50"/>
      <path id="Trazado_617796" data-name="Trazado 617796" d="M415.734,891.07a18.456,18.456,0,0,1-8.154,1.321,16.087,16.087,0,0,1-9.8-3.935,13.944,13.944,0,0,1-4.645-9.031,23.6,23.6,0,0,1,.912-9.6c.489-1.672,1.134-3.3,1.7-4.948a5.834,5.834,0,0,0,.145-.636l.75-.956,3.271-2.894c.282-.2.577-.375.844-.589a1.345,1.345,0,0,1,1.866-.024c1.1.862,2.219,1.7,3.33,2.543l2.8,2.984c1.051,1.566,2.174,3.089,3.131,4.71.88,1.491,1.582,3.087,2.363,4.637.574,1.925,1.255,3.826,1.7,5.782a19.759,19.759,0,0,1-.052,10.325A2.006,2.006,0,0,1,415.734,891.07Zm-6.979-2.813c2.956.019,4.4-1.728,4.457-4.443a13.074,13.074,0,0,0-1.262-5.486,12.384,12.384,0,0,0-2.654-4.139,1.56,1.56,0,0,0-2.354-.134,4.872,4.872,0,0,0-.728,1.014A15.345,15.345,0,0,0,404.5,884.4,4.112,4.112,0,0,0,408.755,888.257Z" transform="translate(-205.145 -140.684)" fill="#93cebd"/>
      <path id="Trazado_617797" data-name="Trazado 617797" d="M170.468,724.782c-.39-1.815-.878-3.617-1.141-5.45a30.026,30.026,0,0,1-.3-5,38,38,0,0,1,1.656-10.433,36.886,36.886,0,0,1,5.6-11.079,1.168,1.168,0,0,0,.113-.34l0,.017.156-.23a37.076,37.076,0,0,1,24.787-8.175,36.812,36.812,0,0,1,23.056,9.295,1.288,1.288,0,0,1,.171.235c-.4.386-.788.792-1.21,1.156-1.482,1.278-2.975,2.542-4.465,3.81-.651-.486-1.288-.992-1.954-1.456a28.924,28.924,0,0,0-23.536-4.782,29.472,29.472,0,0,0-23.059,27.776C170.288,721.678,170.419,723.232,170.468,724.782Z" transform="translate(-25.47)" fill="#fc7c66"/>
      <path id="Trazado_617798" data-name="Trazado 617798" d="M450.7,783.817c-.78-1.55-1.482-3.146-2.363-4.637-.957-1.621-2.08-3.144-3.131-4.71a29.3,29.3,0,0,0-6.8-22.538c.407-.489.8-.988,1.221-1.464,1.263-1.43,2.536-2.85,3.806-4.274a34.954,34.954,0,0,1,6.474,9.985,36.875,36.875,0,0,1,2.993,17.36A35.766,35.766,0,0,1,450.7,783.817Z" transform="translate(-241.591 -49.853)" fill="#fc7c66"/>
      <path id="Trazado_617799" data-name="Trazado 617799" d="M356.962,724.524c-1.269,1.424-2.543,2.845-3.806,4.274-.421.476-.815.975-1.222,1.464l-1.984,2.259c-.318.342-.644.676-.951,1.028q-6.391,7.325-12.778,14.654a7.119,7.119,0,0,0-3.382-4.771,22.788,22.788,0,0,0-2.215-.947q4.6-4.014,9.191-8.028,3.2-2.8,6.382-5.614l2.34-2.068c1.489-1.269,2.983-2.532,4.465-3.81.422-.364.807-.769,1.21-1.156.89-.736,1.778-1.476,2.67-2.209a1.58,1.58,0,0,1,1.725-.274,1.373,1.373,0,0,1,.939,1.374,2.688,2.688,0,0,1-.521,1.323C358.384,722.891,357.656,723.694,356.962,724.524Z" transform="translate(-155.123 -28.183)" fill="#962537"/>
      <path id="Trazado_617800" data-name="Trazado 617800" d="M206.452,725.615l-.156.23Z" transform="translate(-55.377 -33.343)" fill="#e33a50"/>
      <path id="Trazado_617801" data-name="Trazado 617801" d="M224.042,786.5q6.388-7.328,12.778-14.654c.307-.352.634-.685.951-1.028.139.2.271.408.419.6a26.253,26.253,0,0,1,5.561,16.692c-1.111-.846-2.231-1.681-3.33-2.543a1.345,1.345,0,0,0-1.866.024c-.267.214-.562.394-.844.589-1.592,0-3.186-.059-4.773.027a1.383,1.383,0,0,0-1.27,1.531,1.449,1.449,0,0,0,1.517,1.311c.418.012.837.017,1.256.026l-.75.956a32.5,32.5,0,0,0-4.76,6.812,33.965,33.965,0,0,0-4.055,11.858c-.19,1.432-.163,2.892-.235,4.34a26.012,26.012,0,0,1-18.848-1.575,26.4,26.4,0,0,1-14.908-26.039,25.854,25.854,0,0,1,4.505-12.725,23.292,23.292,0,0,1,5.438-5.787,4.227,4.227,0,0,1-.111.57c-.477,1.417-1.02,2.814-1.428,4.25-.312,1.1-.456,2.248-.674,3.374-.981.013-1.621.4-1.781,1.078a1.639,1.639,0,0,0,.941,1.928c.292.17.576.353.864.529a3.162,3.162,0,0,0-.165.755,27.333,27.333,0,0,0,1.031,6.658c-1.351,0-2.7-.007-4.053.01a1.484,1.484,0,0,0-1.6,1.6c.037.923.738,1.494,1.9,1.506,1.6.016,3.193.009,4.79.012a28.826,28.826,0,0,0,4.734,7.539c.047.139.1.276.14.416a3.305,3.305,0,0,0,5.1,1.838c1.98-1.453,3.845-3.062,5.761-4.6.3.006.59.017.885.016a6.54,6.54,0,0,0,6.082-3.577A7.6,7.6,0,0,0,224.042,786.5Zm-5.277,20.052h-.019c0-.984.014-1.967,0-2.95a1.417,1.417,0,0,0-1.49-1.551,1.4,1.4,0,0,0-1.457,1.509q-.037,2.987-.019,5.975a1.495,1.495,0,1,0,2.986-.032C218.776,808.516,218.765,807.532,218.765,806.548Zm-10.05-1.28a1.593,1.593,0,0,0-1.011-1.642,1.352,1.352,0,0,0-1.649.45,11.145,11.145,0,0,0-1.14,1.967,1.421,1.421,0,0,0,.37,1.687,1.286,1.286,0,0,0,1.695.194A6.14,6.14,0,0,0,208.715,805.268Zm-11.907-6.734c0,1.017.827,1.824,1.649,1.512a10.737,10.737,0,0,0,2.359-1.313,1.236,1.236,0,0,0,.3-1.6c-.251-.58-.719-.991-1.316-.837a14.243,14.243,0,0,0-2.193.924A1.253,1.253,0,0,0,196.808,798.534Zm40.9-21.68c.015-1.261-.946-1.975-1.943-1.567a6.765,6.765,0,0,0-1.529.873,1.311,1.311,0,0,0-.428,1.588,1.273,1.273,0,0,0,1.342.935,3.415,3.415,0,0,0,2.335-1.248A1.346,1.346,0,0,0,237.709,776.854Z" transform="translate(-42.943 -66.476)" fill="#f7d544"/>
      <path id="Trazado_617802" data-name="Trazado 617802" d="M188.657,731.14a23.293,23.293,0,0,0-5.438,5.787,25.854,25.854,0,0,0-4.505,12.726,26.4,26.4,0,0,0,14.908,26.039,26.013,26.013,0,0,0,18.848,1.575l.458,3.034c-2.276.326-4.545.729-6.831.948a39.089,39.089,0,0,1-4.26-.031l-.047-.019-.051.005-.5-.094a29.577,29.577,0,0,1-16.747-8.2,29.131,29.131,0,0,1-8.418-15.758c-.105-.556-.205-1.112-.307-1.668-.049-1.551-.18-3.1-.132-4.651A29.472,29.472,0,0,1,198.7,723.057a28.924,28.924,0,0,1,23.536,4.782c.666.464,1.3.969,1.954,1.456l-2.34,2.068A26.595,26.595,0,0,0,196,726.976,24.218,24.218,0,0,0,188.657,731.14Z" transform="translate(-30.773 -30.702)" fill="#fef3f2"/>
      <path id="Trazado_617803" data-name="Trazado 617803" d="M308.184,1016.463a39.073,39.073,0,0,0,4.26.031c2.286-.219,4.555-.622,6.831-.948l.782,2.242a39.148,39.148,0,0,1-11.148-1.02A4.838,4.838,0,0,1,308.184,1016.463Z" transform="translate(-137.119 -265.949)" fill="#fb7d68"/>
      <path id="Trazado_617804" data-name="Trazado 617804" d="M305.18,1019.641l.5.094Z" transform="translate(-134.709 -269.234)" fill="#fb7d68"/>
      <path id="Trazado_617805" data-name="Trazado 617805" d="M454.915,945.753a4.112,4.112,0,0,1-4.258-3.857,15.344,15.344,0,0,1,1.717-9.331,4.874,4.874,0,0,1,.728-1.014,1.56,1.56,0,0,1,2.354.134,12.384,12.384,0,0,1,2.654,4.139,13.074,13.074,0,0,1,1.262,5.486C459.317,944.025,457.871,945.772,454.915,945.753Z" transform="translate(-251.306 -198.18)" fill="#afdacd"/>
      <path id="Trazado_617806" data-name="Trazado 617806" d="M434.348,794.77a26.253,26.253,0,0,0-5.561-16.692c-.148-.195-.279-.4-.419-.6l1.984-2.259a29.3,29.3,0,0,1,6.8,22.538Z" transform="translate(-233.541 -73.137)" fill="#fef3f2"/>
      <path id="Trazado_617807" data-name="Trazado 617807" d="M400.236,867.166c-.419-.008-.837-.014-1.256-.026a1.449,1.449,0,0,1-1.517-1.311,1.383,1.383,0,0,1,1.27-1.531c1.587-.086,3.182-.026,4.773-.027Z" transform="translate(-208.74 -144.569)" fill="#d98a02"/>
      <path id="Trazado_617808" data-name="Trazado 617808" d="M231.973,743.576a24.217,24.217,0,0,1,7.344-4.164,26.594,26.594,0,0,1,25.846,4.387q-3.19,2.807-6.382,5.614-4.591,4.02-9.191,8.028a3.293,3.293,0,0,1-.642.066,6.194,6.194,0,0,0-3.655.747l-.149.182-.012-.027a7.505,7.505,0,0,0-1.109.654,6.952,6.952,0,0,0-2.416,6.207c-1.342,1.658-2.661,3.336-4.035,4.967a4.223,4.223,0,0,0-1.15,3.153,28.825,28.825,0,0,1-4.734-7.538c.27-.014.542-.013.81-.045a1.575,1.575,0,0,0,1.545-1.649,1.609,1.609,0,0,0-1.691-1.417c-.566-.016-1.133-.016-1.7-.022a27.331,27.331,0,0,1-1.031-6.658,3.172,3.172,0,0,1,.165-.755q1.69.682,2.334-.582c.415-.819.052-1.606-1.011-2.2-.45-.25-.9-.5-1.347-.756.218-1.126.362-2.274.674-3.374.407-1.436.951-2.834,1.428-4.251A4.217,4.217,0,0,0,231.973,743.576Zm14.949,1.762c0,.985-.009,1.969,0,2.954a1.49,1.49,0,1,0,2.977.04q.02-2.991,0-5.982a1.488,1.488,0,1,0-2.975.034C246.911,743.369,246.922,744.354,246.922,745.339Zm-7.235,1.013A4.725,4.725,0,0,0,238.237,744a1.349,1.349,0,0,0-1.718.079,1.4,1.4,0,0,0-.467,1.722,8.555,8.555,0,0,0,.978,1.73,1.391,1.391,0,0,0,1.722.467A1.462,1.462,0,0,0,239.687,746.351Zm17.74.051a1.463,1.463,0,0,0,.841,1.491,1.327,1.327,0,0,0,1.575-.215,12.085,12.085,0,0,0,1.238-1.268,1.384,1.384,0,0,0,.149-1.655,1.473,1.473,0,0,0-1.4-.8A3.463,3.463,0,0,0,257.427,746.4Z" transform="translate(-74.089 -43.139)" fill="#fcef61"/>
      <path id="Trazado_617809" data-name="Trazado 617809" d="M306.52,837.851a6.194,6.194,0,0,1,3.655-.747,3.28,3.28,0,0,0,.642-.066,22.88,22.88,0,0,1,2.215.947,7.119,7.119,0,0,1,3.382,4.771,7.6,7.6,0,0,1-.8,4.322c-.237.059-.48.1-.709.179a6.709,6.709,0,0,1-4.529-.013,6.565,6.565,0,0,1-4.436-6.215c.062-1.013.272-2.016.414-3.023l.012.027Z" transform="translate(-135.315 -122.736)" fill="#e33950"/>
      <path id="Trazado_617810" data-name="Trazado 617810" d="M263.966,884.755a4.223,4.223,0,0,1,1.15-3.153c1.374-1.631,2.693-3.309,4.036-4.967a6.875,6.875,0,0,0,5.819,5.772c-1.915,1.541-3.781,3.15-5.761,4.6a3.306,3.306,0,0,1-5.1-1.838C264.064,885.031,264.013,884.894,263.966,884.755Z" transform="translate(-101.634 -154.503)" fill="#962537"/>
      <path id="Trazado_617811" data-name="Trazado 617811" d="M295.948,854.565a6.875,6.875,0,0,1-5.819-5.772,6.952,6.952,0,0,1,2.416-6.207,7.506,7.506,0,0,1,1.109-.654c-.143,1.007-.353,2.01-.414,3.023a6.565,6.565,0,0,0,4.436,6.215,6.708,6.708,0,0,0,4.529.013c.229-.081.472-.12.709-.179a6.539,6.539,0,0,1-6.082,3.577C296.538,854.582,296.243,854.57,295.948,854.565Z" transform="translate(-122.612 -126.661)" fill="#ab2638"/>
      <path id="Trazado_617812" data-name="Trazado 617812" d="M211.895,863.728c.566.007,1.133.007,1.7.022a1.609,1.609,0,0,1,1.691,1.417,1.576,1.576,0,0,1-1.545,1.649c-.268.032-.54.031-.81.045-1.6,0-3.193,0-4.79-.012-1.16-.012-1.862-.583-1.9-1.506a1.484,1.484,0,0,1,1.6-1.6C209.193,863.721,210.544,863.73,211.895,863.728Z" transform="translate(-55.333 -144.148)" fill="#d98a02"/>
      <path id="Trazado_617813" data-name="Trazado 617813" d="M320.1,949.111c0,.984.011,1.967,0,2.951a1.495,1.495,0,1,1-2.986.032q-.013-2.987.019-5.975a1.4,1.4,0,0,1,1.457-1.509,1.417,1.417,0,0,1,1.49,1.551c.018.983,0,1.967,0,2.95Z" transform="translate(-144.276 -209.038)" fill="#d88800"/>
      <path id="Trazado_617814" data-name="Trazado 617814" d="M265.44,953.791a6.141,6.141,0,0,1-1.735,2.656,1.286,1.286,0,0,1-1.695-.194,1.421,1.421,0,0,1-.37-1.687,11.148,11.148,0,0,1,1.14-1.967,1.352,1.352,0,0,1,1.649-.45A1.593,1.593,0,0,1,265.44,953.791Z" transform="translate(-99.668 -214.998)" fill="#d98a02"/>
      <path id="Trazado_617815" data-name="Trazado 617815" d="M221.179,917.606a1.253,1.253,0,0,1,.8-1.32,14.243,14.243,0,0,1,2.193-.924c.6-.154,1.065.257,1.316.837a1.236,1.236,0,0,1-.3,1.6,10.737,10.737,0,0,1-2.359,1.313C222.006,919.43,221.181,918.622,221.179,917.606Z" transform="translate(-67.314 -185.548)" fill="#d98a02"/>
      <path id="Trazado_617816" data-name="Trazado 617816" d="M222.882,808.36c.449.252.9.506,1.347.756,1.063.591,1.426,1.378,1.011,2.2q-.641,1.264-2.334.582c-.288-.177-.572-.359-.864-.529a1.639,1.639,0,0,1-.941-1.928C221.261,808.761,221.9,808.373,222.882,808.36Z" transform="translate(-67.21 -99.728)" fill="#d98a02"/>
      <path id="Trazado_617817" data-name="Trazado 617817" d="M411.811,810.364a1.345,1.345,0,0,1-.223.582,3.414,3.414,0,0,1-2.335,1.248,1.273,1.273,0,0,1-1.342-.935,1.311,1.311,0,0,1,.428-1.588,6.763,6.763,0,0,1,1.529-.873C410.865,808.389,411.827,809.1,411.811,810.364Z" transform="translate(-217.045 -99.986)" fill="#d88800"/>
      <path id="Trazado_617818" data-name="Trazado 617818" d="M317.113,757.516c0-.984-.011-1.969,0-2.954a1.488,1.488,0,1,1,2.975-.034q.022,2.991,0,5.982a1.49,1.49,0,1,1-2.977-.04C317.1,759.486,317.113,758.5,317.113,757.516Z" transform="translate(-144.28 -55.317)" fill="#d88800"/>
      <path id="Trazado_617819" data-name="Trazado 617819" d="M265.294,770.312a1.462,1.462,0,0,1-.934,1.651,1.391,1.391,0,0,1-1.722-.467,8.555,8.555,0,0,1-.978-1.73,1.4,1.4,0,0,1,.467-1.722,1.349,1.349,0,0,1,1.718-.079A4.724,4.724,0,0,1,265.294,770.312Z" transform="translate(-99.696 -67.1)" fill="#d98a02"/>
      <path id="Trazado_617820" data-name="Trazado 617820" d="M370.258,771.266a3.463,3.463,0,0,1,2.405-2.449,1.473,1.473,0,0,1,1.4.8,1.384,1.384,0,0,1-.149,1.654,12.081,12.081,0,0,1-1.238,1.268,1.327,1.327,0,0,1-1.575.215A1.463,1.463,0,0,1,370.258,771.266Z" transform="translate(-186.92 -68.002)" fill="#d98a02"/>
      <path id="Trazado_617821" data-name="Trazado 617821" d="M308.286,841.148l-.15.182Z" transform="translate(-137.082 -126.033)" fill="#ab2638"/>
    </g>
  </g>
</svg>
