<svg xmlns="http://www.w3.org/2000/svg" xmlns:xlink="http://www.w3.org/1999/xlink" width="142.698" height="141.855" viewBox="0 0 142.698 141.855">
  <defs>
    <clipPath id="clip-path">
      <ellipse id="Elipse_3994" data-name="Elipse 3994" cx="68.496" cy="68.05" rx="68.496" ry="68.05" transform="translate(0)" fill="#f2f6fe"/>
    </clipPath>
  </defs>
  <g id="Grupo_894599" data-name="Grupo 894599" transform="translate(-359 -8495.313)">
    <g id="Grupo_894416" data-name="Grupo 894416" transform="translate(9032 6768.831)">
      <path id="Trazado_99503" data-name="Trazado 99503" d="M968.645,321.3A68.266,68.266,0,0,1,900.42,253" transform="translate(-9572.42 1546.033)" fill="none" stroke="#fefefe" stroke-miterlimit="10" stroke-width="2"/>
      <ellipse id="Elipse_3992" data-name="Elipse 3992" cx="69.561" cy="69.138" rx="69.561" ry="69.138" transform="translate(-8669.424 1726.482)" fill="#5f4ad9"/>
      <path id="Trazado_175808" data-name="Trazado 175808" d="M68.5,0c37.829,0,68.5,30.476,68.5,68.069s-30.667,68.069-68.5,68.069S0,105.662,0,68.069,30.667,0,68.5,0Z" transform="translate(-8669.456 1727.77)" fill="#d3e6b1"/>
    </g>
    <g id="Grupo_877828" data-name="Grupo 877828" transform="translate(273.483 7874.383)">
      <path id="Trazado_617664" data-name="Trazado 617664" d="M168.289,656.874c2.231-3.427,8.23-3.247,10.427-.659,1.52,1.791,3.305,3.357,4.935,4.985l4.417-4.41-2.462-2.383c.808-.8,1.488-1.476,2.162-2.152,1.133-1.137,2.263-2.277,3.354-3.375l10.395,10.4-5.4,5.392-2.2-2.3-4.423,4.416a16.6,16.6,0,0,1,1.482,2.9,5.493,5.493,0,0,1-1.6,5.692q-4.508,4.529-9.034,9.04-7.025,7.026-14.061,14.043a4.7,4.7,0,0,1-1.338.88,24.344,24.344,0,0,1-2.526,1,15.281,15.281,0,0,0-5.335,3.209c-5.137,4.539-10.316,9.033-15.574,13.432a34.631,34.631,0,0,1-4.457,2.627,14.506,14.506,0,0,0-2.121,1.519c-.892.791-1.695,1.684-2.548,2.52a10.458,10.458,0,0,1-8.477,2.974,10.452,10.452,0,0,1,2.734-8.234,4.1,4.1,0,0,1,.382-.39,19.829,19.829,0,0,0,5.575-7.733,4.541,4.541,0,0,1,.769-1.155q7.59-8.784,15.191-17.557a4.638,4.638,0,0,0,.644-1.048,10.412,10.412,0,0,0,.637-1.584,17.432,17.432,0,0,1,4.675-7.366c5.816-5.973,11.5-12.079,17.231-18.132,1.073-1.133,1.06-2.043-.056-3.164C170.556,659.123,169.416,658,168.289,656.874Zm-13.852,28.454,10.635,10.629,17.248-17.244-11.1-11.106Zm2.388,15.191L150.01,693.7l-14.367,16.58,4.568,4.637ZM173.218,665.5l11.264,11.268c1-1.01,2.064-2.072,3.117-3.144a3.26,3.26,0,0,0-.024-4.954q-5.39-5.409-10.8-10.8a4.6,4.6,0,0,0-4.731-.8c1.128,1.24,2.617,2.214,2.912,4.024A4.675,4.675,0,0,1,173.218,665.5ZM198,659.361l-6.792-6.8-1.737,1.76,6.765,6.778Zm-71.466,64.591c2.56-.3,4.053-1.887,6.625-4.726l-1.932-1.905C129.417,719.285,126.974,720.889,126.537,723.953Zm59.119-60.886,1.735,1.78,4.26-4.256-1.73-1.793ZM132.869,715.2c.76.749,1.455,1.448,2.169,2.126.127.121.386.265.5.213.808-.368,1.593-.783,2.246-1.113l-3.673-3.707Zm23.359-19.158,2.516-2.4-1.749-1.846-2.576,2.448Zm-3.616-3.6c.445-.459.85-.9,1.276-1.311s.863-.8,1.184-1.093l-2.089-2.227c-.34.838-.669,1.647-1,2.457C151.5,691.483,151.5,691.483,152.612,692.445Zm5.444,5.642c.434.285.924.853,1.234.768a31.915,31.915,0,0,0,3.363-1.288l-2.013-2.107Z" transform="translate(0 0)" fill="#040404"/>
      <path id="Trazado_617665" data-name="Trazado 617665" d="M270.7,756.558l16.787-17.721,11.1,11.106L281.34,767.187ZM288.811,743.9l-12.825,12.824,5.3,5.308,12.824-12.826Z" transform="translate(-116.268 -71.23)" fill="#cacfd7"/>
      <path id="Trazado_617666" data-name="Trazado 617666" d="M201.607,871l-16.614,14.4-4.568-4.637,14.367-16.58Z" transform="translate(-44.782 -170.483)" fill="#fad56f"/>
      <path id="Trazado_617667" data-name="Trazado 617667" d="M356.464,695.394a4.675,4.675,0,0,0,1.741-4.409c-.3-1.81-1.784-2.784-2.912-4.024a4.6,4.6,0,0,1,4.731.8q5.406,5.393,10.8,10.8a3.26,3.26,0,0,1,.024,4.954c-1.053,1.072-2.115,2.134-3.117,3.144Z" transform="translate(-183.246 -29.896)" fill="#cacfd7"/>
      <path id="Trazado_617668" data-name="Trazado 617668" d="M447.535,673.385l-1.764,1.743-6.765-6.778,1.737-1.76Z" transform="translate(-249.532 -14.024)" fill="#fad56f"/>
      <path id="Trazado_617669" data-name="Trazado 617669" d="M136.687,984.275c.437-3.064,2.88-4.668,4.693-6.631l1.932,1.905C140.74,982.388,139.247,983.978,136.687,984.275Z" transform="translate(-10.15 -260.322)" fill="#fbe6a4"/>
      <path id="Trazado_617670" data-name="Trazado 617670" d="M420.664,700.792l4.265-4.27,1.73,1.794-4.26,4.256Z" transform="translate(-235.008 -37.725)" fill="#fde8a5"/>
      <path id="Trazado_617671" data-name="Trazado 617671" d="M167.1,958.014l1.242-2.48,3.673,3.707c-.653.33-1.438.745-2.246,1.113-.113.052-.372-.093-.5-.213C168.555,959.462,167.86,958.763,167.1,958.014Z" transform="translate(-34.231 -242.815)" fill="#fbe6a4"/>
      <path id="Trazado_617672" data-name="Trazado 617672" d="M272.424,859.269l-1.809-1.8,2.576-2.448,1.749,1.846Z" transform="translate(-116.196 -163.229)" fill="#e4e7eb"/>
      <path id="Trazado_617673" data-name="Trazado 617673" d="M258.367,840.533c-1.115-.962-1.116-.962-.626-2.174.327-.81.657-1.619,1-2.457l2.089,2.227c-.32.294-.762.683-1.184,1.093S258.813,840.074,258.367,840.533Z" transform="translate(-105.755 -148.088)" fill="#e4e7eb"/>
      <path id="Trazado_617674" data-name="Trazado 617674" d="M288.085,875.259l2.584-2.627,2.013,2.107a31.916,31.916,0,0,1-3.363,1.288C289.009,876.113,288.519,875.544,288.085,875.259Z" transform="translate(-130.029 -177.172)" fill="#e4e7eb"/>
      <path id="Trazado_617675" data-name="Trazado 617675" d="M308.9,763.177l5.3,5.306-12.824,12.826-5.3-5.308Zm-1.9,5.3,1.887,1.886,1.8-1.806-1.832-1.919Zm-1.911,5.656,1.863-1.823-1.833-1.835-1.883,1.8Zm-3.717.037-1.8,1.788,1.749,1.781,1.827-1.786Z" transform="translate(-136.354 -90.503)" fill="#030404"/>
      <path id="Trazado_617676" data-name="Trazado 617676" d="M348.544,781.634l1.854-1.84,1.832,1.919-1.8,1.806Z" transform="translate(-177.902 -103.661)" fill="#68d4f1"/>
      <path id="Trazado_617677" data-name="Trazado 617677" d="M332.319,801.882l-1.852-1.862,1.883-1.8,1.833,1.835Z" transform="translate(-163.588 -118.254)" fill="#68d4f1"/>
      <path id="Trazado_617678" data-name="Trazado 617678" d="M314.661,815.975l1.775,1.783-1.827,1.786-1.749-1.781Z" transform="translate(-149.647 -132.31)" fill="#68d4f1"/>
    </g>
  </g>
</svg>
