<svg xmlns="http://www.w3.org/2000/svg" width="133.722" height="137.678" viewBox="0 0 133.722 137.678">
  <g id="Grupo_883423" data-name="Grupo 883423" transform="translate(-741.964 -14841.141)">
    <circle id="Elipse_5217" data-name="Elipse 5217" cx="62.5" cy="62.5" r="62.5" transform="translate(741.964 14846.804)" fill="#148d80"/>
    <g id="Grupo_877835" data-name="Grupo 877835" transform="translate(581.364 14217.57)">
      <path id="Trazado_617822" data-name="Trazado 617822" d="M260.2,682.2a19.5,19.5,0,0,1-.919,2.228,6.729,6.729,0,0,1-5.461,3.555,10.431,10.431,0,0,1-1.085.042q-29.635,0-59.269.006a7.007,7.007,0,0,1-6.789-4.047A17.714,17.714,0,0,1,186,682.2V666.551c.108-.253.2-.511.327-.756a14.254,14.254,0,0,1,1.125-2.162,7.09,7.09,0,0,1,6.12-2.8q21.447.023,42.894.007,8.151,0,16.3,0a6.964,6.964,0,0,1,6.733,4.017,18.335,18.335,0,0,1,.7,1.842Zm-37.179,3.349q14.924,0,29.847,0a4.518,4.518,0,0,0,4.86-4.824c.009-4.2.025-8.4-.019-12.606a5.522,5.522,0,0,0-.465-2.237,4.433,4.433,0,0,0-4.4-2.573q-9.49.021-18.981.005c-13.4,0-26.8.042-40.206-.029a4.84,4.84,0,0,0-5.215,5.257c.107,4.03,0,8.065.048,12.1a5.869,5.869,0,0,0,.483,2.377,4.391,4.391,0,0,0,4.345,2.54Q208.17,685.539,223.021,685.551Z" fill="#030404"/>
      <path id="Trazado_617823" data-name="Trazado 617823" d="M265.065,931.748c.523-.564.963-1.078,1.445-1.547a1.241,1.241,0,0,1,1.86-.124,1.26,1.26,0,0,1-.1,1.863c-.53.561-1.091,1.093-1.632,1.644-.6.614-.482,1.082.207,1.579a6.84,6.84,0,0,1,1.436,1.476.918.918,0,0,0,1.462.208c.574-.552,1.121-1.132,1.7-1.683a1.24,1.24,0,0,1,1.861-.155,1.281,1.281,0,0,1-.12,1.915c-.452.469-.928.914-1.5,1.475.517.474,1.028.908,1.5,1.383a1.255,1.255,0,1,1-1.733,1.779c-.56-.532-1.091-1.093-1.643-1.634-.584-.572-1.073-.442-1.544.2a7.447,7.447,0,0,1-1.528,1.481.89.89,0,0,0-.2,1.419c.55.576,1.13,1.122,1.685,1.694a1.28,1.28,0,0,1,.165,1.914,1.306,1.306,0,0,1-1.921-.157c-.245-.232-.486-.47-.715-.718-.213-.23-.409-.476-.687-.8-.534.571-.975,1.077-1.452,1.545a1.275,1.275,0,0,1-1.863.148,1.247,1.247,0,0,1,.13-1.912c.519-.538,1.059-1.056,1.585-1.588.59-.6.463-1.111-.2-1.594a6.74,6.74,0,0,1-1.441-1.473c-.412-.564-.934-.711-1.446-.218-.574.552-1.121,1.132-1.693,1.685a1.3,1.3,0,0,1-1.919.171,1.285,1.285,0,0,1,.148-1.917c.447-.473.908-.933,1.361-1.4a.608.608,0,0,0,.051-.129c-.467-.449-.971-.9-1.436-1.39a1.247,1.247,0,1,1,1.77-1.734c.542.515,1.059,1.057,1.59,1.584.624.619,1.121.5,1.636-.208a7.039,7.039,0,0,1,1.488-1.428.887.887,0,0,0,.2-1.4c-.549-.576-1.131-1.122-1.683-1.7-.655-.682-.7-1.369-.152-1.915s1.245-.491,1.913.162C264.105,930.7,264.536,931.187,265.065,931.748Zm-.02,5.377a1.305,1.305,0,0,0-1.226,1.2,1.262,1.262,0,0,0,1.235,1.247,1.242,1.242,0,0,0,1.216-1.256A1.275,1.275,0,0,0,265.046,937.125Z" transform="translate(-56.79 -216.928)" fill="#030404"/>
      <path id="Trazado_617824" data-name="Trazado 617824" d="M457.076,944.537c.493-.541.911-1.039,1.37-1.5.675-.672,1.363-.725,1.914-.191s.486,1.281-.185,1.969c-.506.519-1.026,1.023-1.535,1.539-.61.62-.491,1.09.2,1.583a6.792,6.792,0,0,1,1.44,1.472.918.918,0,0,0,1.466.212c.574-.552,1.122-1.131,1.7-1.684.672-.647,1.377-.686,1.913-.126a1.287,1.287,0,0,1-.15,1.865c-.232.246-.474.482-.716.718s-.484.456-.816.768c.55.509,1.066.947,1.535,1.431a1.249,1.249,0,1,1-1.746,1.76c-.579-.547-1.124-1.13-1.7-1.684-.547-.528-1.049-.38-1.5.224a7.646,7.646,0,0,1-1.525,1.486.9.9,0,0,0-.214,1.417c.55.577,1.131,1.123,1.686,1.7a1.257,1.257,0,1,1-1.748,1.756c-.465-.456-.9-.943-1.419-1.495-.5.534-.929,1.018-1.386,1.473a1.294,1.294,0,0,1-1.916.2c-.571-.55-.51-1.256.183-1.964.506-.518,1.027-1.022,1.536-1.537.585-.592.454-1.108-.212-1.593a6.809,6.809,0,0,1-1.438-1.478.88.88,0,0,0-1.459-.2c-.644.618-1.255,1.272-1.915,1.873a1.154,1.154,0,0,1-1.469.123,1.107,1.107,0,0,1-.528-1.309,1.922,1.922,0,0,1,.494-.775c.452-.467.944-.894,1.467-1.381-.551-.549-1.034-1.011-1.494-1.494a1.253,1.253,0,1,1,1.769-1.737c.54.519,1.058,1.059,1.591,1.585.583.574,1.117.445,1.593-.213a6.256,6.256,0,0,1,1.42-1.4c.629-.448.758-.977.2-1.543-.506-.518-1.028-1.021-1.535-1.539-.71-.725-.787-1.4-.237-1.969s1.271-.511,2.018.234C456.153,943.539,456.556,943.987,457.076,944.537Zm1.191,6.574a1.27,1.27,0,0,0-1.213-1.2,1.285,1.285,0,0,0-1.236,1.255,1.25,1.25,0,0,0,1.218,1.187A1.235,1.235,0,0,0,458.267,951.111Z" transform="translate(-211.686 -227.234)" fill="#030404"/>
      <path id="Trazado_617825" data-name="Trazado 617825" d="M496,817.59a28.839,28.839,0,0,0,.583,4.343,4.826,4.826,0,0,0,3.533,3.678,4.022,4.022,0,0,0,3.93-1.084,2.233,2.233,0,0,0,.075-3.027,2.273,2.273,0,0,0-2.954-.373c-.179.122-.331.281-.507.409a1.236,1.236,0,0,1-1.75-.117,1.286,1.286,0,0,1,.139-1.76,4.8,4.8,0,0,1,5.475-.909,4.559,4.559,0,0,1,2.613,4.191,4.731,4.731,0,0,1-2.637,4.349c-3.684,2.1-7.856.643-9.847-3.378a9.6,9.6,0,0,1-1-4.185c-.022-1.666-.007-3.333-.008-5a1.377,1.377,0,0,1,.837-1.461,1.213,1.213,0,0,1,1.646,1.189c.051,1.036.012,2.076.012,3.115Z" transform="translate(-248.197 -122.912)" fill="#030404"/>
      <path id="Trazado_617826" data-name="Trazado 617826" d="M203.386,817.683c0-.966-.014-1.932,0-2.9.018-.984.491-1.519,1.283-1.5.746.02,1.234.565,1.21,1.5a54.9,54.9,0,0,1-.314,7.142,7.674,7.674,0,0,1-4.343,5.8c-3.308,1.664-7.77-.137-8.7-3.518a4.7,4.7,0,0,1,2.324-5.283,4.769,4.769,0,0,1,5.657.834,1.285,1.285,0,0,1,.1,1.71,1.193,1.193,0,0,1-1.742.118,2.5,2.5,0,0,0-2.321-.693,2.113,2.113,0,0,0-1.6,1.613,2.171,2.171,0,0,0,.685,2.235c2.073,1.869,5.2,1.241,6.714-1.32a7.542,7.542,0,0,0,1.044-3.928Q203.386,818.589,203.386,817.683Z" transform="translate(-5.141 -122.998)" fill="#030404"/>
      <path id="Trazado_617827" data-name="Trazado 617827" d="M276.576,825.421a16.751,16.751,0,0,1-1.95,8.964,37.257,37.257,0,0,1-3.2,4.514,1.2,1.2,0,0,1-1.893.211,1.25,1.25,0,0,1,.078-1.863,14.149,14.149,0,0,0,3.65-6.059,33.475,33.475,0,0,0,.817-5.106c.123-1.193.02-2.409.025-3.615,0-.983.453-1.546,1.223-1.555.787-.01,1.241.535,1.249,1.517C276.582,823.3,276.576,824.164,276.576,825.421Z" transform="translate(-67.085 -129.149)" fill="#030404"/>
      <path id="Trazado_617828" data-name="Trazado 617828" d="M448.413,824.979c0-.916-.014-1.833.005-2.749a1.216,1.216,0,0,1,1.225-1.319,1.236,1.236,0,0,1,1.238,1.32c.057,1.975-.02,3.961.163,5.923a14.69,14.69,0,0,0,3.885,8.594,7.946,7.946,0,0,1,.611.711,1.219,1.219,0,0,1-1.821,1.612,14.027,14.027,0,0,1-1.313-1.443,17.987,17.987,0,0,1-4-11.564C448.413,825.7,448.412,825.341,448.413,824.979Z" transform="translate(-211.703 -129.149)" fill="#030404"/>
      <path id="Trazado_617829" data-name="Trazado 617829" d="M339.629,860.29c0-1.956-.005-3.911,0-5.867,0-.946.442-1.48,1.2-1.5.782-.02,1.275.542,1.277,1.5q.009,5.9,0,11.807c0,.919-.476,1.49-1.213,1.513-.766.023-1.257-.553-1.26-1.518C339.624,864.25,339.629,862.27,339.629,860.29Z" transform="translate(-123.942 -154.975)" fill="#030404"/>
      <path id="Trazado_617830" data-name="Trazado 617830" d="M406,860.385c0,2,.036,4.009-.029,6.011a1.666,1.666,0,0,1-.65,1.159,1.314,1.314,0,0,1-1.184-.046,1.479,1.479,0,0,1-.586-1.066c-.04-4.08-.035-8.16-.015-12.241a1.23,1.23,0,1,1,2.457.026C406.011,856.28,406,858.332,406,860.385Z" transform="translate(-175.489 -154.982)" fill="#030404"/>
      <path id="Trazado_617831" data-name="Trazado 617831" d="M339.663,816.928c0-.434-.024-.87,0-1.3a1.221,1.221,0,0,1,1.147-1.18,1.152,1.152,0,0,1,1.243.979,18.522,18.522,0,0,1,.008,2.956,1.112,1.112,0,0,1-1.3.977,1.13,1.13,0,0,1-1.1-1.128C339.638,817.8,339.664,817.363,339.663,816.928Z" transform="translate(-123.963 -123.931)" fill="#030404"/>
      <path id="Trazado_617832" data-name="Trazado 617832" d="M406.034,816.928c0,.434.025.87-.007,1.3a1.13,1.13,0,0,1-1.1,1.128,1.112,1.112,0,0,1-1.3-.977,18.519,18.519,0,0,1,.008-2.956,1.152,1.152,0,0,1,1.243-.979,1.221,1.221,0,0,1,1.147,1.18C406.058,816.059,406.035,816.494,406.034,816.928Z" transform="translate(-175.534 -123.931)" fill="#030404"/>
      <path id="Trazado_617833" data-name="Trazado 617833" d="M233.212,695.8q-14.851,0-29.7.005a4.391,4.391,0,0,1-4.345-2.54,5.869,5.869,0,0,1-.483-2.376c-.047-4.032.06-8.068-.048-12.1a4.84,4.84,0,0,1,5.215-5.257c13.4.071,26.8.029,40.206.029q9.49,0,18.981-.005a4.433,4.433,0,0,1,4.4,2.573,5.522,5.522,0,0,1,.465,2.237c.043,4.2.027,8.4.019,12.606a4.518,4.518,0,0,1-4.86,4.824Q248.135,695.81,233.212,695.8Zm.087-7.407H262.34a5.82,5.82,0,0,0,.8-.02,1.207,1.207,0,0,0,1.053-1.259,1.194,1.194,0,0,0-1.069-1.17,6.493,6.493,0,0,0-.8-.019H204.242a7.2,7.2,0,0,0-.724.014,1.226,1.226,0,0,0,.016,2.445c.239.024.482.011.724.011Zm-.066,4.942h29.057a7.52,7.52,0,0,0,.8-.018,1.178,1.178,0,0,0,1.1-1.138,1.194,1.194,0,0,0-.95-1.271,3.747,3.747,0,0,0-.793-.045q-29.165,0-58.331,0a3.738,3.738,0,0,0-.721.036,1.2,1.2,0,0,0-.989,1.31,1.175,1.175,0,0,0,1.124,1.112c.264.025.531.016.8.016Zm26-9.887v.009a15.562,15.562,0,0,0,2.315-.025,6.417,6.417,0,0,0,2.306-.7,3.657,3.657,0,0,0-1.876-6.664c-1.809-.053-3.621-.015-5.432-.008a2.6,2.6,0,0,0-.642.085,3.7,3.7,0,0,0,.793,7.293C257.535,683.492,258.383,683.453,259.228,683.453Zm-19.751-2.461v-.019a11.187,11.187,0,0,0,1.367-.011,1.254,1.254,0,0,0,1.111-1.223,1.215,1.215,0,0,0-1.186-1.209c-.839-.041-1.682-.043-2.521-.009a1.188,1.188,0,0,0-1.236,1.224,1.248,1.248,0,0,0,1.24,1.241C238.658,681.018,239.069,680.991,239.477,680.991Zm7.459-2.458c-.48,0-.964-.038-1.44.009a1.094,1.094,0,0,0-1.048,1.087,1.024,1.024,0,0,0,.834,1.245,16.641,16.641,0,0,0,3.218,0,1.033,1.033,0,0,0,.854-1.24,1.112,1.112,0,0,0-1.049-1.1C247.852,678.5,247.392,678.534,246.936,678.533Z" transform="translate(-10.191 -10.253)" fill="#cfe1ec"/>
      <path id="Trazado_617834" data-name="Trazado 617834" d="M248.995,740.115H219.954c-.241,0-.484.013-.724-.011a1.226,1.226,0,0,1-.016-2.445,7.237,7.237,0,0,1,.724-.014h58.082a6.493,6.493,0,0,1,.8.019,1.193,1.193,0,0,1,1.069,1.17,1.207,1.207,0,0,1-1.053,1.259,5.83,5.83,0,0,1-.8.02Z" transform="translate(-25.886 -61.971)"/>
      <path id="Trazado_617835" data-name="Trazado 617835" d="M248.954,765.68H220.043c-.266,0-.533.009-.8-.016a1.175,1.175,0,0,1-1.124-1.112,1.2,1.2,0,0,1,.989-1.31,3.733,3.733,0,0,1,.721-.036q29.165,0,58.331,0a3.739,3.739,0,0,1,.793.045,1.194,1.194,0,0,1,.95,1.271,1.177,1.177,0,0,1-1.1,1.138,7.537,7.537,0,0,1-.8.018Z" transform="translate(-25.912 -82.593)"/>
      <path id="Trazado_617836" data-name="Trazado 617836" d="M486.689,693.924c-.845,0-1.693.039-2.535-.008a3.7,3.7,0,0,1-.793-7.293,2.6,2.6,0,0,1,.642-.085c1.811-.007,3.623-.045,5.432.008a3.657,3.657,0,0,1,1.875,6.664,6.417,6.417,0,0,1-2.306.7,15.563,15.563,0,0,1-2.315.025Zm.06-4.932c-.819,0-1.638-.021-2.457.006a1.217,1.217,0,0,0-.085,2.432q2.526.076,5.056,0a1.213,1.213,0,0,0,1.163-1.244A1.232,1.232,0,0,0,489.133,689C488.339,688.972,487.543,688.991,486.748,688.992Z" transform="translate(-237.651 -20.724)" fill="#030404"/>
      <path id="Trazado_617837" data-name="Trazado 617837" d="M399.727,701.693c-.408,0-.819.027-1.225-.006a1.248,1.248,0,0,1-1.24-1.241,1.188,1.188,0,0,1,1.236-1.225c.839-.034,1.682-.032,2.521.009a1.215,1.215,0,0,1,1.186,1.209,1.254,1.254,0,0,1-1.111,1.223,11.187,11.187,0,0,1-1.367.011Z" transform="translate(-170.441 -30.955)" fill="#030404"/>
      <path id="Trazado_617838" data-name="Trazado 617838" d="M438.2,699.328c.456,0,.916-.036,1.368.009a1.112,1.112,0,0,1,1.049,1.1,1.033,1.033,0,0,1-.854,1.24,16.646,16.646,0,0,1-3.218,0,1.024,1.024,0,0,1-.834-1.245,1.094,1.094,0,0,1,1.048-1.087C437.232,699.289,437.716,699.327,438.2,699.328Z" transform="translate(-201.452 -31.047)" fill="#030404"/>
      <path id="Trazado_617839" data-name="Trazado 617839" d="M497.068,699.287c.795,0,1.59-.019,2.384,0a1.232,1.232,0,0,1,1.293,1.188,1.213,1.213,0,0,1-1.163,1.244q-2.526.073-5.056,0a1.217,1.217,0,0,1,.085-2.432C495.43,699.267,496.249,699.288,497.068,699.287Z" transform="translate(-247.971 -31.02)" fill="#fabb40"/>
    </g>
    <g id="Grupo_881808" data-name="Grupo 881808" transform="translate(741.964 14841.141)">
      <g id="Grupo_875403" data-name="Grupo 875403" transform="translate(0 0)">
        <path id="Trazado_612672" data-name="Trazado 612672" d="M742.946,514.331c15.253-33.089,52.448-49.655,87.048-37.717.7.215,2.633.982,3.358,1.27.627.219,1.584.654,2.2.943l2.177,1c1.036.48,2.151,1.161,3.18,1.679,1.222.651,2.931,1.753,4.117,2.466.595.4,2.339,1.623,2.964,2.049a69.019,69.019,0,0,1,24.933,77.8c-.3.742-.961,2.722-1.273,3.449-.239.552-.714,1.7-.954,2.259-.326.864-1.185,2.489-1.565,3.33-.5,1.034-1.2,2.227-1.738,3.244-.448.822-1.442,2.342-1.91,3.148-.464.623-1.605,2.427-2.086,3.035-.37.471-1.121,1.476-1.492,1.951-1.166,1.488-2.695,3.286-4,4.648-15.532,16.862-39.9,24.888-62.36,20.22a1.93,1.93,0,0,1,.587-3.811,72.6,72.6,0,0,0,18.194-.14c.795-.112,2.6-.435,3.353-.544.635-.153,2.636-.568,3.315-.725,2.373-.6,4.708-1.332,7.022-2.123,1.2-.492,2.482-.95,3.664-1.463.733-.324,2.371-1.111,3.067-1.421a66.411,66.411,0,0,0,13.995-9.36c.971-.8,2.406-2.143,3.317-3.042.454-.4,1.135-1.172,1.566-1.616,22.662-23.692,23.86-61.953,2.557-87-26.347-31.55-75.747-30.837-100.826,1.916a61.294,61.294,0,0,0-8.847,16.028,1.93,1.93,0,1,1-3.562-1.482Z" transform="translate(-742.764 -472.746)" fill="#fda829"/>
      </g>
    </g>
  </g>
</svg>
