<svg xmlns="http://www.w3.org/2000/svg" width="133.722" height="137.678" viewBox="0 0 133.722 137.678">
  <g id="Grupo_883413" data-name="Grupo 883413" transform="translate(-369 -13935.533)">
    <circle id="Elipse_5207" data-name="Elipse 5207" cx="62.5" cy="62.5" r="62.5" transform="translate(370 13941)" fill="#148d80"/>
    <g id="Grupo_877826" data-name="Grupo 877826" transform="translate(124.677 13399.33)">
      <path id="Trazado_617627" data-name="Trazado 617627" d="M279.082,623.7a1.353,1.353,0,0,1-1.224-1.543q.013-25.764.009-51.528c0-1.178.433-1.542,1.8-1.542q14.8,0,29.6,0h1.08c0-.874-.011-1.658,0-2.443a8.113,8.113,0,0,1,6.328-8,4.292,4.292,0,0,0,.507-.2h8.506c.44.131.884.249,1.319.394a8.164,8.164,0,0,1,5.637,7.668c.034,1.859.006,3.719.006,5.669.7,0,1.341-.011,1.982,0a1.279,1.279,0,0,1,1.439,1.47c.011,1.863,0,3.726,0,5.51.518.247,1.146.353,1.4.718a3.072,3.072,0,0,1,.3,1.6c.032,1.892,0,3.785.02,5.677a1.346,1.346,0,0,1-1.2,1.56c-1.02-.182-1.348-.553-1.36-1.576-.011-.873,0-1.745,0-2.618s0-1.719,0-2.571h-7.69v28.933h7.69v-.972q0-8.04,0-16.081c0-1.108.313-1.474,1.366-1.661a1.317,1.317,0,0,1,1.19,1.482q-.013,9.166-.008,18.332c0,1.039-.456,1.465-1.517,1.484-.31.006-.621,0-1.048,0v.919q0,10.863,0,21.727c0,1.774-.277,2.052-2.064,2.075-.14,0-.28.012-.5.022,0,1.645,0,3.279,0,4.914,0,.283.01.566,0,.849a1.307,1.307,0,0,1-1.281,1.4,1.275,1.275,0,0,1-1.264-1.4c-.015-1.612,0-3.225,0-4.837v-.9c-.311-.016-.582-.037-.852-.042-1.33-.024-1.718-.406-1.719-1.73q0-10.821,0-21.642v-1.313c-.31-.014-.556-.032-.8-.034-1.431-.012-1.779-.363-1.779-1.823q0-15.234,0-30.468c0-1.385.264-1.684,1.722-1.884,0-1.611,0-3.239,0-4.867,0-.34-.013-.68.01-1.018a1.18,1.18,0,0,1,1.244-1.223c.679-.027,1.359-.005,2.1-.005a3.82,3.82,0,0,0,.077-.571,57,57,0,0,0-.167-6.094,5.333,5.333,0,0,0-5.284-4.513q-3.145-.054-6.292,0a5.536,5.536,0,0,0-5.445,5.407c-.026.867,0,1.736,0,2.675,2.2,0,4.324,0,6.444,0,1.634,0,1.941.3,1.941,1.912q0,36.24,0,72.479c0,1.565-.33,1.9-1.874,1.9H279.7c-1.488,0-1.839-.352-1.839-1.848,0-4.866.014-9.732-.013-14.6-.005-.93.3-1.524,1.238-1.726,1.083.308,1.325.614,1.326,1.734q.005,6.484,0,12.969v.922h1.043q17.029,0,34.058,0c.311,0,.621-.018.932-.028h2.237V571.687H316.45c-.225-.017-.45-.048-.675-.048q-17.3,0-34.607,0h-.751v1.054q0,24.568,0,49.136C280.416,623.133,280.174,623.471,279.082,623.7Zm51.036-7.865q-.01,9.759-.016,19.519a.735.735,0,0,0,.093.235h2.443V613.523h-2.52Zm3.342-41.026h-4.129v4.462h4.129Z" fill="#020202"/>
      <path id="Trazado_617628" data-name="Trazado 617628" d="M320.643,687.757c-.311.01-.621.028-.932.028q-17.029,0-34.058,0H284.61v-.922q0-6.485,0-12.969c0-1.12-.243-1.426-1.326-1.734l-.008-3.5c1.092-.231,1.335-.569,1.335-1.875q0-24.568,0-49.136v-1.054h.751q17.3,0,34.607,0c.225,0,.45.031.675.048.006.255.017.509.017.763q0,34.794,0,69.588C320.66,687.248,320.649,687.5,320.643,687.757ZM288.5,640.245c-1.1.346-1.309.619-1.31,1.754q0,4.413,0,8.825c0,1.374.4,1.786,1.758,1.786q14.836,0,29.673,0c1.3,0,1.723-.425,1.723-1.735q0-14.978,0-29.955c0-1.323-.4-1.732-1.71-1.733q-14.879,0-29.758,0c-1.26,0-1.684.419-1.685,1.672q-.005,7.128,0,14.256c0,1.141.218,1.422,1.31,1.749Zm31.841,22.893a5.4,5.4,0,1,0-5.38,5.424A5.438,5.438,0,0,0,320.344,663.138Zm-27.7-5.374a5.4,5.4,0,1,0,5.366,5.438A5.444,5.444,0,0,0,292.64,657.764Zm11.106,2.54c1.075,0,2.149.007,3.224,0,.954-.008,1.481-.452,1.493-1.234s-.523-1.3-1.444-1.306q-3.266-.027-6.533,0a1.266,1.266,0,0,0-1.408,1.34c.032.753.542,1.187,1.444,1.2C301.6,660.312,302.67,660.3,303.745,660.3Zm.058,5.719c-1.075,0-2.149-.007-3.224,0-.97.008-1.485.436-1.5,1.222a1.272,1.272,0,0,0,1.436,1.316q3.266.032,6.532,0a1.266,1.266,0,0,0,1.417-1.334c-.026-.756-.533-1.192-1.435-1.2C305.952,666.013,304.878,666.023,303.8,666.023Z" transform="translate(-4.193 -44.955)" fill="#95e2f7"/>
      <path id="Trazado_617629" data-name="Trazado 617629" d="M524.7,662.08h1.392c0,.852,0,1.712,0,2.571s-.008,1.746,0,2.618c.012,1.024.34,1.395,1.36,1.576l0,3.453c-1.053.187-1.365.553-1.366,1.661q-.006,8.04,0,16.081v.972h-1.386Q524.7,676.546,524.7,662.08Z" transform="translate(-190.86 -80.125)" fill="#aaa"/>
      <path id="Trazado_617630" data-name="Trazado 617630" d="M503.232,662.08q0,14.466.006,28.933h-6.3V662.08Z" transform="translate(-169.389 -80.125)" fill="#cacaca"/>
      <path id="Trazado_617631" data-name="Trazado 617631" d="M448.023,687.928c.006-.254.017-.509.017-.763q0-34.794,0-69.588c0-.254-.01-.509-.017-.763h2.237v71.115Z" transform="translate(-131.573 -45.126)" fill="#0acdf9"/>
      <path id="Trazado_617632" data-name="Trazado 617632" d="M510.747,811.465v19.75H508.3a.735.735,0,0,1-.093-.235q0-9.76.016-19.519Z" transform="translate(-178.109 -195.624)" fill="#776d78"/>
      <path id="Trazado_617633" data-name="Trazado 617633" d="M508.942,630.586v4.462h-4.129v-4.462Z" transform="translate(-175.482 -55.775)" fill="#685d65"/>
      <path id="Trazado_617634" data-name="Trazado 617634" d="M510.8,803.575l-2.52,0v-2.315h2.52Z" transform="translate(-178.163 -187.734)" fill="#685d65"/>
      <path id="Trazado_617635" data-name="Trazado 617635" d="M306.323,657.772q0-1.69,0-3.38a1.492,1.492,0,0,0,1.253-1.719c-.027-4.156-.012-8.312-.012-12.468v-.943c2.627,0,5.145,0,7.663,0q9.177.011,18.354.027,0,12.206,0,24.412a1.659,1.659,0,0,1-1.872,1.881q-12.06.006-24.12-.005c-.01-2.03-.049-4.06-.017-6.088A1.5,1.5,0,0,0,306.323,657.772Zm8.13-6.489c1.87,0,3.6.015,5.323-.005,1.084-.013,1.544-.492,1.549-1.575q.015-3.141,0-6.281c-.005-1.1-.461-1.569-1.539-1.576q-3.189-.02-6.378,0c-1.011.007-1.5.445-1.51,1.43q-.033,5.856.009,11.713a1.445,1.445,0,0,0,.43,1.038,1.745,1.745,0,0,0,1.229.276,1.169,1.169,0,0,0,.883-1.29C314.462,653.8,314.453,652.594,314.453,651.283Zm11.665-1.521c0-1.124.015-2.113,0-3.1a1.252,1.252,0,0,0-1.2-1.368,1.272,1.272,0,0,0-1.336,1.34q-.035,4.2,0,8.4a1.278,1.278,0,1,0,2.543-.056c.015-.867,0-1.734,0-2.616h2.609c0,.888-.019,1.731.005,2.572.027.929.534,1.484,1.294,1.473s1.247-.574,1.264-1.5c.022-1.216.024-2.433,0-3.649-.021-1.064-.456-1.479-1.518-1.488C328.59,649.754,327.406,649.762,326.119,649.762Zm-7.168,10.919c1.868,0,3.735.005,5.6,0,1.01,0,1.559-.458,1.557-1.262s-.559-1.278-1.559-1.28q-5.56-.012-11.121,0c-.973,0-1.537.52-1.512,1.325.024.781.546,1.212,1.514,1.216C315.272,660.687,317.112,660.682,318.951,660.682Zm-2.9,4.3c.875,0,1.751.021,2.626-.006a1.284,1.284,0,1,0,0-2.548q-2.668-.034-5.337,0c-.92.013-1.454.543-1.43,1.317.023.74.537,1.205,1.429,1.231S315.145,664.987,316.049,664.987Z" transform="translate(-22.013 -62.482)" fill="#b7e769"/>
      <path id="Trazado_617636" data-name="Trazado 617636" d="M301.851,649.091a1.5,1.5,0,0,1,1.254,1.716c-.033,2.029.007,4.059.017,6.088v1.954h27.972V630.607h-1.985q-9.177-.014-18.354-.026c-2.518,0-5.036,0-7.663,0v.943c0,4.156-.015,8.312.012,12.468a1.492,1.492,0,0,1-1.253,1.72c-1.092-.327-1.309-.608-1.31-1.749q0-7.128,0-14.256c0-1.253.425-1.672,1.685-1.672q14.879,0,29.758,0c1.306,0,1.71.41,1.71,1.733q0,14.977,0,29.955c0,1.31-.421,1.735-1.723,1.735q-14.836,0-29.673,0c-1.354,0-1.757-.412-1.758-1.786q0-4.413,0-8.825C300.542,649.709,300.751,649.436,301.851,649.091Z" transform="translate(-17.541 -53.8)" fill="#020202"/>
      <path id="Trazado_617637" data-name="Trazado 617637" d="M409.866,803.481a5.4,5.4,0,1,1-5.426-5.375A5.446,5.446,0,0,1,409.866,803.481Zm-2.552,0a2.853,2.853,0,1,0-2.854,2.873A2.892,2.892,0,0,0,407.314,803.484Z" transform="translate(-93.715 -185.298)" fill="#020202"/>
      <path id="Trazado_617638" data-name="Trazado 617638" d="M306,798.107a5.4,5.4,0,1,1-5.445,5.357A5.443,5.443,0,0,1,306,798.107Zm2.816,5.379a2.854,2.854,0,1,0-2.857,2.873A2.894,2.894,0,0,0,308.817,803.486Z" transform="translate(-17.555 -185.299)" fill="#020202"/>
      <path id="Trazado_617639" data-name="Trazado 617639" d="M357.607,800.594c-1.075,0-2.149.009-3.224,0-.9-.01-1.412-.445-1.444-1.2a1.266,1.266,0,0,1,1.408-1.34q3.266-.032,6.533,0c.922.007,1.457.523,1.444,1.306s-.539,1.226-1.493,1.234C359.756,800.6,358.682,800.594,357.607,800.594Z" transform="translate(-58.055 -185.245)" fill="#020202"/>
      <path id="Trazado_617640" data-name="Trazado 617640" d="M357.666,834.51c1.075,0,2.149-.01,3.224,0,.9.01,1.409.447,1.435,1.2a1.266,1.266,0,0,1-1.417,1.334q-3.266.035-6.532,0a1.272,1.272,0,0,1-1.436-1.316c.017-.786.533-1.214,1.5-1.222C355.517,834.5,356.591,834.51,357.666,834.51Z" transform="translate(-58.056 -213.442)" fill="#020202"/>
      <path id="Trazado_617641" data-name="Trazado 617641" d="M337.916,639.385H339.9v28.241H311.928v-1.954q12.06,0,24.12.005a1.659,1.659,0,0,0,1.872-1.881Q337.922,651.591,337.916,639.385Z" transform="translate(-26.347 -62.578)" fill="#93d128"/>
      <path id="Trazado_617642" data-name="Trazado 617642" d="M333.408,660.061c0,1.311.008,2.521,0,3.731a1.169,1.169,0,0,1-.883,1.29,1.745,1.745,0,0,1-1.229-.276,1.445,1.445,0,0,1-.43-1.038q-.044-5.856-.009-11.713c.005-.985.5-1.424,1.51-1.43q3.189-.021,6.378,0c1.079.007,1.534.479,1.539,1.576q.014,3.14,0,6.281c-.005,1.083-.465,1.562-1.549,1.575C337,660.076,335.278,660.061,333.408,660.061Zm.05-2.613h4.23v-4.213h-4.23Z" transform="translate(-40.968 -71.26)" fill="#050703"/>
      <path id="Trazado_617643" data-name="Trazado 617643" d="M384.869,670.32c1.287,0,2.471-.008,3.655,0,1.061.01,1.5.424,1.518,1.488.024,1.216.021,2.433,0,3.649-.016.931-.513,1.494-1.264,1.5s-1.267-.544-1.294-1.473c-.024-.841-.005-1.684-.005-2.572H384.87c0,.881.012,1.749,0,2.616a1.278,1.278,0,1,1-2.543.057q-.03-4.2,0-8.4a1.272,1.272,0,0,1,1.336-1.34,1.252,1.252,0,0,1,1.2,1.368C384.884,668.208,384.869,669.2,384.869,670.32Z" transform="translate(-80.764 -83.04)" fill="#050703"/>
      <path id="Trazado_617644" data-name="Trazado 617644" d="M338.024,725.008c-1.84,0-3.679.005-5.518,0-.967,0-1.489-.435-1.514-1.216-.025-.8.539-1.322,1.512-1.325q5.56-.014,11.121,0c1,0,1.557.478,1.559,1.28s-.547,1.258-1.557,1.262C341.759,725.013,339.892,725.008,338.024,725.008Z" transform="translate(-41.087 -126.808)" fill="#020202"/>
      <path id="Trazado_617645" data-name="Trazado 617645" d="M335.087,743.915c-.9,0-1.808.021-2.711-.005s-1.406-.491-1.429-1.231c-.024-.774.511-1.3,1.43-1.317q2.668-.038,5.337,0a1.284,1.284,0,1,1,0,2.548C336.838,743.935,335.962,743.914,335.087,743.915Z" transform="translate(-41.052 -141.41)" fill="#050703"/>
      <path id="Trazado_617646" data-name="Trazado 617646" d="M416.006,812.164a2.853,2.853,0,1,1-2.894-2.831A2.9,2.9,0,0,1,416.006,812.164Z" transform="translate(-102.407 -193.978)" fill="#f77d83"/>
      <path id="Trazado_617647" data-name="Trazado 617647" d="M317.514,812.164a2.854,2.854,0,1,1-2.9-2.833A2.9,2.9,0,0,1,317.514,812.164Z" transform="translate(-26.252 -193.976)" fill="#f67d83"/>
      <path id="Trazado_617648" data-name="Trazado 617648" d="M342.388,666.383V662.17h4.23v4.213Z" transform="translate(-49.898 -80.195)" fill="#b3e367"/>
    </g>
    <g id="Grupo_881800" data-name="Grupo 881800" transform="translate(369 13935.533)">
      <g id="Grupo_875403" data-name="Grupo 875403" transform="translate(0 0)">
        <path id="Trazado_612672" data-name="Trazado 612672" d="M742.946,514.331c15.253-33.089,52.448-49.655,87.048-37.717.7.215,2.633.982,3.358,1.27.627.219,1.584.654,2.2.943l2.177,1c1.036.48,2.151,1.161,3.18,1.679,1.222.651,2.931,1.753,4.117,2.466.595.4,2.339,1.623,2.964,2.049a69.019,69.019,0,0,1,24.933,77.8c-.3.742-.961,2.722-1.273,3.449-.239.552-.714,1.7-.954,2.259-.326.864-1.185,2.489-1.565,3.33-.5,1.034-1.2,2.227-1.738,3.244-.448.822-1.442,2.342-1.91,3.148-.464.623-1.605,2.427-2.086,3.035-.37.471-1.121,1.476-1.492,1.951-1.166,1.488-2.695,3.286-4,4.648-15.532,16.862-39.9,24.888-62.36,20.22a1.93,1.93,0,0,1,.587-3.811,72.6,72.6,0,0,0,18.194-.14c.795-.112,2.6-.435,3.353-.544.635-.153,2.636-.568,3.315-.725,2.373-.6,4.708-1.332,7.022-2.123,1.2-.492,2.482-.95,3.664-1.463.733-.324,2.371-1.111,3.067-1.421a66.411,66.411,0,0,0,13.995-9.36c.971-.8,2.406-2.143,3.317-3.042.454-.4,1.135-1.172,1.566-1.616,22.662-23.692,23.86-61.953,2.557-87-26.347-31.55-75.747-30.837-100.826,1.916a61.294,61.294,0,0,0-8.847,16.028,1.93,1.93,0,1,1-3.562-1.482Z" transform="translate(-742.764 -472.746)" fill="#fda829"/>
      </g>
    </g>
  </g>
</svg>
