<svg xmlns="http://www.w3.org/2000/svg" width="133.722" height="137.678" viewBox="0 0 133.722 137.678">
  <g id="Grupo_883410" data-name="Grupo 883410" transform="translate(-370 -13637.472)">
    <circle id="Elipse_5204" data-name="Elipse 5204" cx="62.5" cy="62.5" r="62.5" transform="translate(370 13643)" fill="#148d80"/>
    <g id="Grupo_877824" data-name="Grupo 877824" transform="translate(182.815 13545.362)">
      <path id="Trazado_617545" data-name="Trazado 617545" d="M360.357,112.449a6.5,6.5,0,0,1,4.269,4.469,11.33,11.33,0,0,0,.658,1.326l1.785,4.207-4.888.011c-.725-1.688-1.421-3.39-2.2-5.052a1.269,1.269,0,0,0-.966-.54q-6.414-.054-12.829,0a1.2,1.2,0,0,0-.929.466c-.788,1.69-1.5,3.418-2.229,5.133l-1.9-.018c1.085-2.443,2.135-4.9,3.28-7.318a5.552,5.552,0,0,1,1.339-1.557,15.18,15.18,0,0,1,1.566-1.124Z" transform="translate(-103.231)" fill="#7a8c97"/>
      <path id="Trazado_617546" data-name="Trazado 617546" d="M337.549,112.449a15.177,15.177,0,0,0-1.566,1.124,5.553,5.553,0,0,0-1.339,1.557c-1.145,2.415-2.2,4.875-3.28,7.318l-3,0,1.771-4.2c.308-.654.67-1.288.913-1.965a6.272,6.272,0,0,1,3.854-3.839Z" transform="translate(-93.469)" fill="#5b6e77"/>
      <path id="Trazado_617547" data-name="Trazado 617547" d="M312.538,389.281c-.816,1.548-1.555,3.143-2.464,4.634a40.579,40.579,0,0,1-7.215,8.787,43.418,43.418,0,0,1-11.807,7.8,42.4,42.4,0,0,1-11.76,3.37,44.388,44.388,0,0,1-9.186.262,43.391,43.391,0,0,1-16.9-4.86,42.951,42.951,0,0,1-8.607-6.016,43.551,43.551,0,0,1-6.767-7.671,3.463,3.463,0,0,1-.233-.462l9.172-.043c.1.688.537.912,1.178.893.5-.015.995,0,1.492-.005.051.867.061,1.74.164,2.6a2.545,2.545,0,0,0,2.393,2.148c.553.018,1.106.006,1.66.008q-.017.612-.033,1.224c-1.434.006-2.377.513-2.715,1.457a2.4,2.4,0,0,0,.883,2.874,4.1,4.1,0,0,0,2.051.571q4.923.086,9.848,0a4.1,4.1,0,0,0,2.052-.571,2.4,2.4,0,0,0,.883-2.874,2.5,2.5,0,0,0-2.539-1.457l-.037-1.223h18.7q-.02.61-.039,1.221c-.264,0-.528,0-.792,0a2.227,2.227,0,0,0-2.3,1.879,2.308,2.308,0,0,0,1.341,2.663,5.992,5.992,0,0,0,1.96.368c1.966.047,3.933.039,5.9.01,1.578-.023,3.161-.039,4.731-.186a2.378,2.378,0,0,0-.371-4.735l-.037-1.223c.439,0,.879,0,1.319-.006A2.551,2.551,0,0,0,297.209,398c.007-1.725,0-3.451,0-5.177l2.455-.017c.026,1.213.223,1.406,1.449,1.408,1.7,0,3.4.008,5.1,0,.922-.006,1.2-.286,1.21-1.2.016-1.257.018-2.514.027-3.77Z" transform="translate(-24.029 -211.744)" fill="#fef4c5"/>
      <path id="Trazado_617548" data-name="Trazado 617548" d="M210.229,206.191a34.364,34.364,0,0,1-3.151-9.358q-3.858-20.122,8.965-36.157a42.219,42.219,0,0,1,12.822-10.551,4.459,4.459,0,0,1,.569-.22q.016,1.405.032,2.811c-.284.193-.557.408-.855.577-1.413.8-2.833,1.593-4.251,2.388-.38.009-.759.021-1.139.026-1.1.014-1.527.438-1.533,1.534q-.007,1.269,0,2.538c.007,1.05.475,1.513,1.558,1.536.76.016,1.519.019,2.279.028l0,1.377c-.732.009-1.463.02-2.195.026-1.226.009-1.642.412-1.646,1.6,0,.76.042,1.522-.012,2.278a1.629,1.629,0,0,0,.828,1.692,3.482,3.482,0,0,0-.587.617c-1.081,1.9-2.283,3.748-3.178,5.734A31.964,31.964,0,0,0,216.2,192.59a32.4,32.4,0,0,0,3.945,11.782c.316.55.562,1.141.84,1.714-.347.025-.694.071-1.041.073Q215.087,206.181,210.229,206.191Z" transform="translate(0 -28.653)" fill="#a2e52f"/>
      <path id="Trazado_617549" data-name="Trazado 617549" d="M493.86,206.159l-5.087-.044c-.008-.731-.021-1.463-.023-2.194,0-1.475-.147-1.621-1.587-1.626-.7,0-1.407-.018-2.11-.027.122-.3.235-.6.366-.89a31.5,31.5,0,0,0,2.758-11.5,34.244,34.244,0,0,0-.36-6.978,32.311,32.311,0,0,0-5.643-14.01,3.679,3.679,0,0,1-.325-.781,5.923,5.923,0,0,0,.529-1.41,19.885,19.885,0,0,0,.022-2.444c-.016-1.069-.476-1.515-1.566-1.535-.759-.014-1.517-.019-2.276-.028q0-.7,0-1.4c.35-.009.7-.027,1.051-.027,2.723,0,2.776-.07,2.8-2.782.017-2.339.161-2.892-2.67-2.821a.785.785,0,0,1-.087-.008c-.5-.3-1-.6-1.5-.891q-1.766-1.041-3.534-2.079l.042-2.824a35.927,35.927,0,0,1,7.955,5.284,43.026,43.026,0,0,1,11.433,50.721A2.346,2.346,0,0,1,493.86,206.159Z" transform="translate(-205.352 -28.622)" fill="#a2e52f"/>
      <path id="Trazado_617550" data-name="Trazado 617550" d="M239.495,402.735l-9.172.043-2.234-3.491,11.406-.048Q239.495,400.986,239.495,402.735Z" transform="translate(-16.757 -219.395)" fill="#596c76"/>
      <path id="Trazado_617551" data-name="Trazado 617551" d="M235.905,391.392l-11.406.048-1.1-2.354q4.858-.014,9.716-.032c.347,0,.694-.047,1.041-.072l4.409.052q.006.735.013,1.47c-.5,0-1,.01-1.492-.005C236.442,390.479,236,390.7,235.905,391.392Z" transform="translate(-13.168 -211.549)" fill="#fef4c5"/>
      <path id="Trazado_617552" data-name="Trazado 617552" d="M305.132,145.217q-.016-1.405-.032-2.811c-.05-2.324.116-2.354,2.322-2.286.747.023,1.493.113,2.24.173q.114,1.667.227,3.333c-.928.228-1.871.407-2.778.7A18.583,18.583,0,0,0,305.132,145.217Z" transform="translate(-75.665 -21.156)" fill="#c4d2dc"/>
      <path id="Trazado_617553" data-name="Trazado 617553" d="M459.187,142.568q-.021,1.412-.042,2.824c-.4-.176-.809-.334-1.2-.532a6.491,6.491,0,0,0-3.555-1.065l.238-3.326c1.224-.058,2.451-.181,3.671-.129.3.013.695.548.838.922A3.967,3.967,0,0,1,459.187,142.568Z" transform="translate(-189.88 -21.327)" fill="#b5c3ce"/>
      <path id="Trazado_617554" data-name="Trazado 617554" d="M446.625,138.009l-.238,3.326-.674-.016-1.785-4.207Z" transform="translate(-181.875 -18.867)" fill="#a2e52f"/>
      <path id="Trazado_617555" data-name="Trazado 617555" d="M324.762,141.367q-.113-1.667-.227-3.333l2.671-.884-1.771,4.2Z" transform="translate(-90.539 -18.896)" fill="#a2e52f"/>
      <path id="Trazado_617556" data-name="Trazado 617556" d="M348.754,155.008l.674.016a6.491,6.491,0,0,1,3.556,1.065c.388.2.8.356,1.2.532q1.767,1.039,3.534,2.079c.5.295,1,.594,1.5.891q-8.286.013-16.571.023c-1.968,0-3.935-.024-5.9-.038,0-.615.035-1.233-.011-1.845-.051-.693-.374-1.148-1.171-1.125q-1.276.038-2.554,0c-.8-.023-1.116.438-1.167,1.128-.045.612-.008,1.23-.008,1.845l-14.643.014c.072-.117.116-.289.221-.344q4.022-2.106,8.056-4.19l2.475-.056,4.22,0h8.479l3.23.011Z" transform="translate(-84.916 -32.556)" fill="#c4d2dc"/>
      <path id="Trazado_617557" data-name="Trazado 617557" d="M368.364,136.773l-3.23-.011c-.059-1.662-.846-2.576-2.328-2.605-1.464-.029-2.93.01-4.4.019-1.112-.009-2.225-.025-3.337-.027a2.3,2.3,0,0,0-2.639,2.61l-2.475.056-.752-.039c.734-1.715,1.442-3.442,2.229-5.133a1.2,1.2,0,0,1,.929-.466q6.415-.046,12.829,0a1.269,1.269,0,0,1,.966.54C366.944,133.383,367.64,135.085,368.364,136.773Z" transform="translate(-109.414 -14.31)" fill="#a2e52f"/>
      <path id="Trazado_617558" data-name="Trazado 617558" d="M298.964,155.019l.752.039q-4.03,2.091-8.056,4.189c-.105.055-.149.227-.221.344l-1.6.034-6.314-.046c1.418-.795,2.838-1.585,4.251-2.388.3-.169.571-.384.855-.577a18.581,18.581,0,0,1,1.978-.89c.907-.293,1.85-.472,2.778-.7l.674-.02,3,0Z" transform="translate(-59.17 -32.552)" fill="#b5c3ce"/>
      <path id="Trazado_617559" data-name="Trazado 617559" d="M340.712,277.716h-18.7l-6.17.022-.866-.07c-.058-.1-.092-.232-.177-.287a3.281,3.281,0,0,1-1.434-3.1c.048-3.6.018-7.211.02-10.816.469,0,.939-.007,1.408-.016a1.888,1.888,0,0,0,2.1-2.052q.024-4.348,0-8.7a1.942,1.942,0,0,0-2.1-2.076c-.469-.009-.939-.01-1.408-.015q-.006-9.491-.011-18.982c1.1-.054,1.4-.348,1.413-1.426.008-.586,0-1.171.006-1.757l14.109.01c0,.643,0,1.287.008,1.93a1.1,1.1,0,0,0,1.182,1.224q1.274.025,2.549,0a1.1,1.1,0,0,0,1.182-1.225c.012-.643.006-1.286.008-1.93l14.109-.01c0,.672-.024,1.345.014,2.014.043.739.389,1.192,1.219,1.162s1.638-.007,2.457-.007a.952.952,0,0,0,1.077-1.079c0-.7,0-1.4,0-2.1l2.5.009c0,.909-.01,1.817-.011,2.725q-.007,12.09-.013,24.18l-6.01.047q-2.643-.014-5.285-.03a.94.94,0,0,0-1.069,1.082c.005.967.024,1.935-.006,2.9-.026.832.378,1.178,1.169,1.173q2.6-.019,5.2-.035l5.991.027q.023,1.684.046,3.368-.018,2.963-.035,5.927c0,1.725,0,3.451,0,5.176a2.551,2.551,0,0,1-2.752,2.724c-.44,0-.879,0-1.319.006l-6.17.022Zm-15.16-10.889c-2.135-.009-4.271,0-6.406-.034a1.035,1.035,0,0,0-1.168,1.115c-.048.961-.047,1.928,0,2.889a1.035,1.035,0,0,0,1.168,1.115c2.135-.031,4.271-.026,6.406-.035,5.991.007,11.982,0,17.973.033A1.044,1.044,0,0,0,344.7,270.8a23.017,23.017,0,0,0,0-2.9,1.043,1.043,0,0,0-1.178-1.109C337.533,266.824,331.542,266.82,325.551,266.827Zm-6.006-20.761a11.808,11.808,0,1,0,11.808-11.751A11.7,11.7,0,0,0,319.546,246.066Z" transform="translate(-81.99 -88.728)" fill="#b5c3ce"/>
      <path id="Trazado_617560" data-name="Trazado 617560" d="M293.929,377.411c0,3.606.029,7.211-.02,10.816a3.281,3.281,0,0,0,1.434,3.1c.085.056.119.19.177.288l-3.357.047c-.553,0-1.107.01-1.66-.008a2.545,2.545,0,0,1-2.393-2.148c-.1-.861-.113-1.734-.164-2.6a8.226,8.226,0,0,0,.143-1.187c-.027-1.362-.092-2.724-.143-4.086q-.006-.735-.013-1.47l.025-2.746,3.645-.032Z" transform="translate(-62.539 -202.673)" fill="#9eacb9"/>
      <path id="Trazado_617561" data-name="Trazado 617561" d="M505.7,372.867c.7.009,1.407.025,2.11.027,1.441.005,1.583.151,1.587,1.626,0,.731.015,1.463.023,2.194-.008,1.257-.01,2.513-.026,3.77-.012.919-.287,1.2-1.21,1.2-1.7.01-3.4,0-5.1,0-1.226,0-1.423-.2-1.449-1.408q-.015-2.941-.029-5.881c.088-1.4.208-1.5,1.636-1.508C504.068,372.891,504.886,372.876,505.7,372.867Z" transform="translate(-226.004 -199.221)" fill="#b5c3ce"/>
      <path id="Trazado_617562" data-name="Trazado 617562" d="M429.772,443.348a2.378,2.378,0,0,1,.371,4.735c-1.569.147-3.153.163-4.731.186-1.966.029-3.934.037-5.9-.01a5.991,5.991,0,0,1-1.96-.368,2.308,2.308,0,0,1-1.341-2.663,2.227,2.227,0,0,1,2.3-1.879c.264,0,.528,0,.792,0,.12,1.7,1.057,2.776,2.511,2.81,1.226.029,2.453-.01,3.68-.019.377.009.754.026,1.131.026C428.6,446.164,429.582,445.285,429.772,443.348Z" transform="translate(-160.626 -253.139)" fill="#fdefae"/>
      <path id="Trazado_617563" data-name="Trazado 617563" d="M306.9,443.348a2.5,2.5,0,0,1,2.539,1.457,2.4,2.4,0,0,1-.883,2.874,4.1,4.1,0,0,1-2.052.571q-4.923.086-9.848,0a4.1,4.1,0,0,1-2.051-.571,2.4,2.4,0,0,1-.883-2.874c.338-.945,1.281-1.451,2.715-1.457.12,1.7,1.057,2.776,2.511,2.81,1.226.029,2.453-.01,3.68-.019.377.009.754.026,1.131.026C305.732,446.164,306.71,445.286,306.9,443.348Z" transform="translate(-66.845 -253.139)" fill="#fdefae"/>
      <path id="Trazado_617564" data-name="Trazado 617564" d="M453.9,439.368c-.19,1.937-1.168,2.816-3.141,2.817-.377,0-.754-.017-1.131-.026a3.191,3.191,0,0,1-1.842-1.988,10.535,10.535,0,0,1-.093-2l6.17-.022Q453.881,438.757,453.9,439.368Z" transform="translate(-184.754 -249.159)" fill="#596c76"/>
      <path id="Trazado_617565" data-name="Trazado 617565" d="M330.105,439.368c-.19,1.938-1.168,2.816-3.141,2.817-.377,0-.754-.017-1.131-.026a3.192,3.192,0,0,1-1.842-1.988,10.534,10.534,0,0,1-.093-2l6.17-.022Z" transform="translate(-90.05 -249.159)" fill="#596c76"/>
      <path id="Trazado_617566" data-name="Trazado 617566" d="M310.046,438.009a10.532,10.532,0,0,0,.093,2A3.192,3.192,0,0,0,311.981,442c-1.227.009-2.454.048-3.68.019-1.455-.034-2.391-1.111-2.511-2.81q.017-.612.033-1.224l3.357-.047Z" transform="translate(-76.199 -249.001)" fill="#475b61"/>
      <path id="Trazado_617567" data-name="Trazado 617567" d="M433.84,438.171a10.53,10.53,0,0,0,.093,2,3.191,3.191,0,0,0,1.842,1.988c-1.227.009-2.454.048-3.68.019-1.454-.034-2.391-1.111-2.511-2.81q.02-.611.039-1.221Z" transform="translate(-170.902 -249.162)" fill="#475b61"/>
      <path id="Trazado_617568" data-name="Trazado 617568" d="M279.295,395.438c.051,1.362.115,2.723.143,4.086a8.222,8.222,0,0,1-.143,1.187c-.5,0-1-.009-1.492.005-.642.019-1.082-.205-1.178-.893q0-1.748,0-3.5c.1-.688.536-.913,1.178-.893C278.3,395.447,278.8,395.437,279.295,395.438Z" transform="translate(-53.886 -216.482)" fill="#c4d1da"/>
      <path id="Trazado_617569" data-name="Trazado 617569" d="M493.715,379.31q.015,2.941.029,5.882l-2.455.017q.018-2.963.035-5.926Z" transform="translate(-218.106 -204.129)" fill="#c4d2dc"/>
      <path id="Trazado_617570" data-name="Trazado 617570" d="M256.939,263.344q-.013,1.373-.026,2.746l-4.409-.052c-.278-.572-.524-1.163-.84-1.714a32.4,32.4,0,0,1-3.945-11.782,31.964,31.964,0,0,1,2.537-17.919c.895-1.985,2.1-3.834,3.178-5.734a3.485,3.485,0,0,1,.587-.617l2.924.059-.007,22.155c-1.875.047-2.471.669-2.472,2.582q0,3.856,0,7.712C254.467,262.7,255.046,263.3,256.939,263.344Z" transform="translate(-31.519 -88.605)" fill="#96d629"/>
      <path id="Trazado_617571" data-name="Trazado 617571" d="M275.833,210.1l-2.924-.059a1.631,1.631,0,0,1-.827-1.692c.054-.756.01-1.518.012-2.278,0-1.193.421-1.6,1.646-1.6.732-.005,1.463-.017,2.195-.026l2.425.1c-.1,2.674.347,2.228,2.108,2.29a.72.72,0,0,1,.086.013c.027,1.092-.184,2.223.526,3.2l-2.635.051Z" transform="translate(-50.406 -70.373)" fill="#465a61"/>
      <path id="Trazado_617572" data-name="Trazado 617572" d="M274.82,174.482l6.314.046-.528,2.234c-.291.009-.581.023-.872.026-1.092.01-1.3.222-1.321,1.343-.009.639-.006,1.278-.008,1.917l-2.419.1c-.76-.009-1.52-.012-2.279-.028-1.083-.023-1.551-.486-1.558-1.536q-.008-1.269,0-2.538c.006-1.1.434-1.519,1.533-1.534C274.061,174.5,274.441,174.491,274.82,174.482Z" transform="translate(-50.46 -47.455)" fill="#475b61"/>
      <path id="Trazado_617573" data-name="Trazado 617573" d="M288.49,198.266l2.42-.1q0,.787.009,1.573l-2.425-.1Q288.492,198.954,288.49,198.266Z" transform="translate(-62.964 -65.577)" fill="#b5c3ce"/>
      <path id="Trazado_617574" data-name="Trazado 617574" d="M493.678,263.215l-2.391-.027q-.023-1.685-.047-3.369c.291-.012.582-.027.873-.034,1.021-.024,1.243-.238,1.253-1.226.006-.582,0-1.164,0-1.746,0-2.093,0-2.093-2.111-2.159q.006-12.09.013-24.18c0-.908.007-1.817.011-2.725l3.287-.223a3.678,3.678,0,0,0,.325.781,32.311,32.311,0,0,1,5.643,14.01,34.242,34.242,0,0,1,.36,6.978,31.5,31.5,0,0,1-2.758,11.5c-.132.292-.245.593-.366.89-.818.009-1.637.024-2.455.027C493.886,261.712,493.766,261.819,493.678,263.215Z" transform="translate(-218.069 -88.034)" fill="#96d629"/>
      <path id="Trazado_617575" data-name="Trazado 617575" d="M354.478,209.894l-3.287.223-2.5-.009-4.77.012-14.109.01h-4.927l-14.109-.01-2.123-.045c-.709-.981-.5-2.111-.526-3.2l.178-.086c2.38.044,2.472.176,2.471-2.192a.54.54,0,0,1,.014-.086l14.071.008c.011.115.028.23.03.345.045,1.931.172,2.05,2.11,1.96a1.108,1.108,0,0,0,.17-.035c2.561.035,2.584.216,2.621-2.213a.331.331,0,0,1,.023-.083l14.079.034c.108,2.412.136,2.439,2.318,2.262,2.89.082,2.444,0,2.526-2.252l2.447-.055c.758.009,1.517.014,2.275.028,1.089.02,1.55.466,1.566,1.535a19.891,19.891,0,0,1-.022,2.444A5.923,5.923,0,0,1,354.478,209.894Z" transform="translate(-77.98 -70.403)" fill="#5b6e77"/>
      <path id="Trazado_617576" data-name="Trazado 617576" d="M308.152,176.742l.528-2.234,1.6-.034,14.643-.014,4.911,0c1.968.013,3.935.039,5.9.038q8.285,0,16.571-.023a.8.8,0,0,0,.088.008c2.831-.072,2.687.482,2.67,2.821-.02,2.712-.073,2.779-2.8,2.782-.35,0-.7.018-1.051.027l-2.431-.038c-.016-.346-.044-.692-.045-1.038,0-2.3,0-2.3-2.318-2.228-.4-.012-.81-.035-1.214-.033-.947,0-1.244.3-1.261,1.221q-.02,1.04-.041,2.079c-1.554,0-3.109,0-4.663.011q-4.7.022-9.409.049a9.021,9.021,0,0,1-.159-1.175c-.016-2.083.412-2.238-2.294-2.153-.379-.012-.759-.034-1.138-.033-1,0-1.3.3-1.32,1.3q-.024,1.005-.051,2.011l-14.036.01c-.018-.318-.051-.637-.051-.955-.008-2.4-.006-2.4-2.445-2.329Z" transform="translate(-78.006 -47.435)" fill="#5b6e77"/>
      <path id="Trazado_617577" data-name="Trazado 617577" d="M480.995,198.346l2.431.038q0,.7,0,1.4l-2.447.055Q480.985,199.094,480.995,198.346Z" transform="translate(-210.217 -65.712)" fill="#b5c3ce"/>
      <path id="Trazado_617578" data-name="Trazado 617578" d="M382.654,143.917c1.465-.009,2.931-.048,4.4-.019,1.482.03,2.269.943,2.328,2.605H380.9A2.438,2.438,0,0,1,382.654,143.917Z" transform="translate(-133.656 -24.051)" fill="#7a8c97"/>
      <path id="Trazado_617579" data-name="Trazado 617579" d="M384.362,164.783l-4.911,0c0-.615-.037-1.233.008-1.845.05-.691.368-1.151,1.167-1.128q1.276.037,2.554,0c.8-.024,1.12.432,1.171,1.125C384.4,163.55,384.362,164.168,384.362,164.783Z" transform="translate(-132.539 -37.763)" fill="#fefefe"/>
      <path id="Trazado_617580" data-name="Trazado 617580" d="M368.917,143.926a2.438,2.438,0,0,0-1.756,2.586l-4.22,0a2.3,2.3,0,0,1,2.639-2.61C366.692,143.9,367.8,143.916,368.917,143.926Z" transform="translate(-119.919 -24.059)" fill="#596c76"/>
      <path id="Trazado_617581" data-name="Trazado 617581" d="M339.681,265.212a11.808,11.808,0,1,1,11.771,11.876A11.7,11.7,0,0,1,339.681,265.212Zm13.734,8.74a8.812,8.812,0,0,0,6.68-10.844,8.608,8.608,0,0,0-6.679-6.51,8.886,8.886,0,0,0-9.253,3.613,8.8,8.8,0,0,0-.05,10.053A8.892,8.892,0,0,0,353.415,273.952Z" transform="translate(-102.125 -107.875)" fill="#e6ebf0"/>
      <path id="Trazado_617582" data-name="Trazado 617582" d="M288.048,228.514l2.611,0c0,.7-.013,1.395-.014,2.093a.954.954,0,0,0,1.081,1.07l2.272.014q.006,9.491.011,18.982l-2.324.029-3.644-.031Q288.044,239.592,288.048,228.514Z" transform="translate(-62.621 -88.789)" fill="#9facb7"/>
      <path id="Trazado_617583" data-name="Trazado 617583" d="M363.829,391.706c5.991-.007,11.982,0,17.973-.033a1.043,1.043,0,0,1,1.179,1.109,23.029,23.029,0,0,1,0,2.9,1.044,1.044,0,0,1-1.178,1.109c-5.991-.03-11.982-.026-17.973-.033A7.58,7.58,0,0,1,363.829,391.706Z" transform="translate(-120.267 -213.607)" fill="#fefefe"/>
      <path id="Trazado_617584" data-name="Trazado 617584" d="M299.538,322.835l2.324-.029c.47,0,.939.006,1.408.015a1.942,1.942,0,0,1,2.1,2.076q.02,4.348,0,8.7a1.888,1.888,0,0,1-2.1,2.052c-.469.009-.939.011-1.408.016l-2.325-.031a2.606,2.606,0,0,1-1.231-2.5q.115-3.891,0-7.788A2.611,2.611,0,0,1,299.538,322.835Z" transform="translate(-70.473 -160.924)" fill="#7a8c97"/>
      <path id="Trazado_617585" data-name="Trazado 617585" d="M470.352,342.965c2.111.066,2.111.066,2.111,2.159,0,.582,0,1.164,0,1.746-.01.989-.232,1.2-1.253,1.226-.291.007-.582.022-.873.034l-5.99-.027a7.782,7.782,0,0,1,0-5.092Z" transform="translate(-197.165 -176.346)" fill="#fdd302"/>
      <path id="Trazado_617586" data-name="Trazado 617586" d="M340.465,391.7a7.58,7.58,0,0,0,0,5.05c-2.135.009-4.271,0-6.406.034a1.035,1.035,0,0,1-1.168-1.115c-.047-.961-.048-1.928,0-2.889a1.035,1.035,0,0,1,1.168-1.115C336.194,391.7,338.33,391.694,340.465,391.7Z" transform="translate(-96.903 -213.604)" fill="#e6ebf0"/>
      <path id="Trazado_617587" data-name="Trazado 617587" d="M445.022,343.067a7.782,7.782,0,0,0,0,5.092q-2.6.017-5.2.035c-.791.006-1.194-.341-1.169-1.173.03-.966.011-1.934.006-2.9a.94.94,0,0,1,1.069-1.082Q442.379,343.055,445.022,343.067Z" transform="translate(-177.845 -176.401)" fill="#f9c500"/>
      <path id="Trazado_617588" data-name="Trazado 617588" d="M379.467,228.528h4.927c0,.643,0,1.287-.008,1.93a1.1,1.1,0,0,1-1.182,1.225q-1.274.025-2.549,0a1.1,1.1,0,0,1-1.182-1.224C379.463,229.815,379.469,229.171,379.467,228.528Z" transform="translate(-132.562 -88.801)" fill="#e6ebf0"/>
      <path id="Trazado_617589" data-name="Trazado 617589" d="M302.474,231.522l-2.272-.014a.954.954,0,0,1-1.081-1.07c0-.7.009-1.4.014-2.093l2.635-.051,2.123.045c0,.586,0,1.171-.006,1.757C303.872,231.174,303.578,231.468,302.474,231.522Z" transform="translate(-71.097 -88.622)" fill="#e6ebf0"/>
      <path id="Trazado_617590" data-name="Trazado 617590" d="M460.45,228.445l4.77-.012c0,.7,0,1.4,0,2.1a.952.952,0,0,1-1.077,1.079c-.819,0-1.639-.023-2.457.007s-1.176-.423-1.219-1.162C460.426,229.79,460.452,229.117,460.45,228.445Z" transform="translate(-194.509 -88.728)" fill="#e6ebf0"/>
      <path id="Trazado_617591" data-name="Trazado 617591" d="M283.633,322.83a2.611,2.611,0,0,0-1.229,2.5q.115,3.891,0,7.788a2.606,2.606,0,0,0,1.231,2.5l-3.645.032c-1.893-.047-2.473-.647-2.473-2.564q0-3.856,0-7.712c0-1.913.6-2.535,2.472-2.582Z" transform="translate(-54.568 -160.919)" fill="#596c76"/>
      <path id="Trazado_617592" data-name="Trazado 617592" d="M300.975,184.185l.185.061a14.579,14.579,0,0,0-.006,7.015l-.178.086a.717.717,0,0,0-.086-.013c-1.761-.062-2.206.384-2.108-2.29q0-.786-.009-1.572c0-.639,0-1.279.008-1.918.016-1.121.23-1.333,1.321-1.343C300.394,184.208,300.685,184.194,300.975,184.185Z" transform="translate(-70.829 -54.878)" fill="#e6ebf0"/>
      <path id="Trazado_617593" data-name="Trazado 617593" d="M400.407,198.414q4.7-.025,9.409-.049c1.554-.007,3.108-.008,4.663-.011q.008.742.016,1.484l-14.079-.034Q400.412,199.109,400.407,198.414Z" transform="translate(-148.581 -65.718)" fill="#b5c3ce"/>
      <path id="Trazado_617594" data-name="Trazado 617594" d="M319.506,198.386l14.036-.01q.008.736.017,1.472l-14.071-.008Q319.5,199.113,319.506,198.386Z" transform="translate(-86.678 -65.734)" fill="#b5c3ce"/>
      <path id="Trazado_617595" data-name="Trazado 617595" d="M310.033,187.67q-.008.727-.017,1.453a.54.54,0,0,0-.014.086c0,2.368-.091,2.236-2.471,2.192a14.58,14.58,0,0,1,.006-7.015c2.439-.068,2.437-.068,2.445,2.329C309.982,187.034,310.015,187.352,310.033,187.67Z" transform="translate(-77.205 -55.019)" fill="#fefefe"/>
      <path id="Trazado_617596" data-name="Trazado 617596" d="M391.313,187.718q0,.7.009,1.39a.333.333,0,0,0-.023.083c-.037,2.429-.06,2.248-2.621,2.213-.059-1.731-.154-3.461-.159-5.192a9.649,9.649,0,0,1,.341-1.823c2.706-.085,2.278.07,2.294,2.153A9.026,9.026,0,0,0,391.313,187.718Z" transform="translate(-139.487 -55.022)" fill="#fefefe"/>
      <path id="Trazado_617597" data-name="Trazado 617597" d="M472.142,187.655q-.01.748-.019,1.5c-.082,2.248.363,2.334-2.526,2.252a7.789,7.789,0,0,1-.17-1.1c-.02-1.391-.043-2.783.008-4.172a10.725,10.725,0,0,1,.344-1.737c2.315-.068,2.313-.068,2.318,2.228C472.1,186.963,472.127,187.309,472.142,187.655Z" transform="translate(-201.364 -55.02)" fill="#fefefe"/>
      <path id="Trazado_617598" data-name="Trazado 617598" d="M462.805,184.342a10.724,10.724,0,0,0-.344,1.737c-.051,1.389-.028,2.781-.008,4.172a7.789,7.789,0,0,0,.17,1.1c-2.182.178-2.21.15-2.318-2.262q-.008-.742-.017-1.484.021-1.039.041-2.079c.017-.923.315-1.217,1.262-1.221C462,184.307,462.4,184.33,462.805,184.342Z" transform="translate(-194.39 -54.973)" fill="#e6ebf0"/>
      <path id="Trazado_617599" data-name="Trazado 617599" d="M381.8,184.341a9.645,9.645,0,0,0-.341,1.823c0,1.731.1,3.461.159,5.192a1.107,1.107,0,0,1-.17.035c-1.938.09-2.065-.029-2.11-1.96,0-.115-.02-.23-.03-.345q-.008-.736-.017-1.472.025-1.006.05-2.011c.024-.991.325-1.292,1.32-1.3C381.042,184.307,381.422,184.329,381.8,184.341Z" transform="translate(-132.428 -54.972)" fill="#e6ebf0"/>
      <path id="Trazado_617600" data-name="Trazado 617600" d="M376.813,266.811a8.608,8.608,0,0,1,6.679,6.51,8.812,8.812,0,0,1-6.68,10.844,6.248,6.248,0,0,0-.835-.457,8.541,8.541,0,0,1-4.768-4.373,11.7,11.7,0,0,1-.944-5.094l.02-.045.193-.562a4.477,4.477,0,0,1,3.5-2.872q.02,1.44.039,2.88a5.556,5.556,0,0,0-.719.632,2,2,0,0,0,.241,2.7,1.966,1.966,0,0,0,2.7,0c1.024-.951.821-2.365-.478-3.329q.02-1.44.04-2.881a4.724,4.724,0,0,1,3.9,4.453c.074.636.24,1.2,1.042,1.1.748-.093.791-.656.738-1.252a6.576,6.576,0,0,0-5.68-6.1,1.091,1.091,0,0,0-1.263-.777,4.254,4.254,0,0,1,.67-.58C375.726,267.31,376.276,267.071,376.813,266.811Z" transform="translate(-125.522 -118.087)" fill="#7b8c97"/>
      <path id="Trazado_617601" data-name="Trazado 617601" d="M362.788,266.107c-.537.26-1.087.5-1.607.791a4.237,4.237,0,0,0-.67.58l-.309.205-1.1.688c-.268.112-.54.216-.8.339a6.5,6.5,0,0,0-4.023,5.778c-.043.586.089,1.069.783,1.128s.9-.391.983-.973c.051-.37.13-.737.2-1.105a11.7,11.7,0,0,0,.944,5.094A8.541,8.541,0,0,0,361.952,283a6.249,6.249,0,0,1,.835.457,8.892,8.892,0,0,1-9.3-3.688,8.8,8.8,0,0,1,.05-10.053A8.887,8.887,0,0,1,362.788,266.107Z" transform="translate(-111.498 -117.384)" fill="#5b6e77"/>
      <path id="Trazado_617602" data-name="Trazado 617602" d="M393.814,275.951a6.576,6.576,0,0,1,5.68,6.1c.053.6.011,1.159-.738,1.252-.8.1-.968-.46-1.042-1.1a4.724,4.724,0,0,0-3.9-4.453Q393.816,276.853,393.814,275.951Z" transform="translate(-143.537 -125.08)" fill="#fdd302"/>
      <path id="Trazado_617603" data-name="Trazado 617603" d="M363.85,281.232c-.067.368-.146.735-.2,1.105-.08.582-.3,1.031-.983.973s-.825-.542-.783-1.128a6.5,6.5,0,0,1,4.023-5.778c.263-.122.535-.226.8-.339l.857-.116q0,.9-.006,1.8a4.477,4.477,0,0,0-3.5,2.872l-.193.562Z" transform="translate(-119.107 -125.078)" fill="#fdd302"/>
      <path id="Trazado_617604" data-name="Trazado 617604" d="M384.3,295.881c1.3.964,1.5,2.378.478,3.329a1.966,1.966,0,0,1-2.7,0,2,2,0,0,1-.241-2.7,5.558,5.558,0,0,1,.719-.632Z" transform="translate(-134.056 -140.326)" fill="#e6ebf0"/>
      <path id="Trazado_617605" data-name="Trazado 617605" d="M387.854,278.087h-1.745q-.019-1.44-.039-2.88,0-.9.006-1.8l.243-.572.309-.205a1.091,1.091,0,0,1,1.263.777q0,.9,0,1.8Q387.874,276.647,387.854,278.087Z" transform="translate(-137.613 -122.532)" fill="#fefefe"/>
      <path id="Trazado_617606" data-name="Trazado 617606" d="M370.351,296.408l.193-.562Z" transform="translate(-125.588 -140.299)" fill="#5b6e77"/>
      <path id="Trazado_617607" data-name="Trazado 617607" d="M383.546,273.517l-.243.572-.857.116Z" transform="translate(-134.841 -123.218)" fill="#7b8c97"/>
    </g>
    <g id="Grupo_877447" data-name="Grupo 877447" transform="translate(370 13637.472)">
      <g id="Grupo_875403" data-name="Grupo 875403" transform="translate(0 0)">
        <path id="Trazado_612672" data-name="Trazado 612672" d="M742.946,514.331c15.253-33.089,52.448-49.655,87.048-37.717.7.215,2.633.982,3.358,1.27.627.219,1.584.654,2.2.943l2.177,1c1.036.48,2.151,1.161,3.18,1.679,1.222.651,2.931,1.753,4.117,2.466.595.4,2.339,1.623,2.964,2.049a69.019,69.019,0,0,1,24.933,77.8c-.3.742-.961,2.722-1.273,3.449-.239.552-.714,1.7-.954,2.259-.326.864-1.185,2.489-1.565,3.33-.5,1.034-1.2,2.227-1.738,3.244-.448.822-1.442,2.342-1.91,3.148-.464.623-1.605,2.427-2.086,3.035-.37.471-1.121,1.476-1.492,1.951-1.166,1.488-2.695,3.286-4,4.648-15.532,16.862-39.9,24.888-62.36,20.22a1.93,1.93,0,0,1,.587-3.811,72.6,72.6,0,0,0,18.194-.14c.795-.112,2.6-.435,3.353-.544.635-.153,2.636-.568,3.315-.725,2.373-.6,4.708-1.332,7.022-2.123,1.2-.492,2.482-.95,3.664-1.463.733-.324,2.371-1.111,3.067-1.421a66.411,66.411,0,0,0,13.995-9.36c.971-.8,2.406-2.143,3.317-3.042.454-.4,1.135-1.172,1.566-1.616,22.662-23.692,23.86-61.953,2.557-87-26.347-31.55-75.747-30.837-100.826,1.916a61.294,61.294,0,0,0-8.847,16.028,1.93,1.93,0,1,1-3.562-1.482Z" transform="translate(-742.764 -472.746)" fill="#fda829"/>
      </g>
    </g>
  </g>
</svg>
