<svg xmlns="http://www.w3.org/2000/svg" width="133.722" height="137.678" viewBox="0 0 133.722 137.678">
  <g id="Grupo_883417" data-name="Grupo 883417" transform="translate(-736.139 -14238.396)">
    <circle id="Elipse_5211" data-name="Elipse 5211" cx="62.5" cy="62.5" r="62.5" transform="translate(737 14243)" fill="#148d80"/>
    <g id="Grupo_877829" data-name="Grupo 877829" transform="translate(612.081 13593.78)">
      <path id="Trazado_617679" data-name="Trazado 617679" d="M210.125,678.835a1.147,1.147,0,0,1,1.319-.981c2.917.012,5.835,0,8.752.008.929,0,1.283.358,1.29,1.279a17.774,17.774,0,0,1-.578,5.937,11.305,11.305,0,0,1-10.863,7.7c-5.223.016-10.447,0-15.67,0h-.789v6.382h.757c4.353,0,8.709.1,13.057-.029a8.564,8.564,0,0,1,8.9,7.663c1.294,8.477,2.78,16.924,4.184,25.385q.485,2.921.96,5.843a.986.986,0,0,1-1.028,1.263c-1.058.022-2.116.005-3.285.005V740.4c0,1.153.008,2.306,0,3.459-.007.8-.362,1.154-1.158,1.19-.117.005-.235,0-.353,0h-36.21c-1.018,0-1.262-.158-1.529-.971.279-.889.44-1.005,1.423-1.005h35.8v-3.733H160.709v3.734c1.975,0,3.9.017,5.823-.009.722-.01,1.178.237,1.3.978-.135.8-.654,1.022-1.4,1.015-2.117-.021-4.234,0-6.351-.008-1.1,0-1.4-.315-1.4-1.442,0-1.409,0-2.818,0-4.312-1.037,0-2.039,0-3.041,0-1.048-.006-1.4-.425-1.231-1.444q2.632-15.887,5.262-31.773a8.157,8.157,0,0,1,7.992-6.9c4.587-.037,9.174-.011,13.761-.013h.8v-6.382h-.734c-5.246,0-10.491.015-15.737,0a11.091,11.091,0,0,1-11.054-8.6,29.214,29.214,0,0,1-.354-5.327c-.022-.593.4-.926,1-.982.163-.015.329-.006.494-.006h50.458c1.043,0,1.226.12,1.529.985-.276.877-.44.993-1.433.993H156.168a30.667,30.667,0,0,0,.5,4.108,9.194,9.194,0,0,0,9.227,6.853q21.735.007,43.47,0a17.723,17.723,0,0,0,2.041-.1,9.348,9.348,0,0,0,8.01-10.857h-.751c-2.423,0-4.846-.014-7.268.009A1.094,1.094,0,0,1,210.125,678.835Zm-53.616,58.439h62.754c-.015-.222-.013-.409-.043-.591q-.42-2.575-.85-5.148-2.039-12.275-4.073-24.551c-.581-3.533-2.93-5.829-6.166-5.833q-20.225-.027-40.45,0a6.144,6.144,0,0,0-6.007,5c-.426,2.311-.776,4.635-1.161,6.954q-1.589,9.562-3.178,19.125C157.058,733.9,156.789,735.563,156.508,737.274Zm35.014-38.124v-6.337h-7.231v6.337Z" transform="translate(0 0)" fill="#040505"/>
      <path id="Trazado_617680" data-name="Trazado 617680" d="M217.982,683.058a1.094,1.094,0,0,0,1.272,1.011c2.423-.023,4.846-.008,7.268-.008h.751a9.348,9.348,0,0,1-8.01,10.857,17.723,17.723,0,0,1-2.041.1q-21.735.009-43.47,0a9.194,9.194,0,0,1-9.227-6.853,30.666,30.666,0,0,1-.5-4.108h50.221c.993,0,1.156-.116,1.433-.993Zm-40.926,5.226c1.645,0,3.289,0,4.934,0,.82,0,1.245-.367,1.225-1.021-.019-.618-.436-.952-1.225-.953q-4.863-.006-9.726,0c-.835,0-1.26.342-1.26.988s.425.984,1.26.986C173.861,688.287,175.458,688.284,177.056,688.284Zm10.948,0c.492,0,.984.017,1.474,0a.98.98,0,0,0,.018-1.959c-1.006-.028-2.013-.027-3.019,0a.948.948,0,0,0-.994.971.984.984,0,0,0,1.045.991C187.02,688.3,187.513,688.282,188,688.281Z" transform="translate(-7.857 -4.223)" fill="#e26c1e"/>
      <path id="Trazado_617681" data-name="Trazado 617681" d="M195.232,1008.594c-.122-.741-.578-.988-1.3-.978-1.924.026-3.849.009-5.823.009v-3.734H242.5v3.733H206.7c-.982,0-1.143.116-1.423,1.005l-2.645.024c-.136-.817-.368-1.021-1.194-1.028-.675-.006-1.351.03-2.023-.01a1.131,1.131,0,0,0-1.336,1.012Z" transform="translate(-27.399 -264.555)" fill="#6b7882"/>
      <path id="Trazado_617682" data-name="Trazado 617682" d="M241,1024.639a1.131,1.131,0,0,1,1.336-1.012c.672.04,1.348,0,2.023.01.826.008,1.058.212,1.194,1.029a1,1,0,0,1-1.1.942c-.767.017-1.535.015-2.3,0A1.1,1.1,0,0,1,241,1024.639Z" transform="translate(-70.314 -280.567)" fill="#040505"/>
      <path id="Trazado_617683" data-name="Trazado 617683" d="M165.831,837.468c.28-1.711.55-3.377.826-5.041q1.588-9.563,3.178-19.125c.385-2.319.735-4.643,1.161-6.954a6.144,6.144,0,0,1,6.007-5q20.225-.024,40.45,0c3.236,0,5.585,2.3,6.166,5.833q2.018,12.278,4.073,24.551.427,2.573.85,5.148c.03.182.028.368.043.591Zm31.331-3.53a14.519,14.519,0,1,0-14.452-14.566A14.545,14.545,0,0,0,197.162,833.937Z" transform="translate(-9.323 -100.194)" fill="#e26c1e"/>
      <path id="Trazado_617684" data-name="Trazado 617684" d="M320.394,763.523h-7.231v-6.337h7.231Z" transform="translate(-128.872 -64.372)" fill="#f1d930"/>
      <path id="Trazado_617685" data-name="Trazado 617685" d="M207.081,702.258c-1.6,0-3.2,0-4.793,0-.835,0-1.26-.341-1.26-.986s.425-.988,1.26-.988q4.863,0,9.726,0c.789,0,1.206.335,1.225.953.02.654-.4,1.018-1.225,1.021C210.37,702.262,208.726,702.258,207.081,702.258Z" transform="translate(-37.882 -18.197)" fill="#020101"/>
      <path id="Trazado_617686" data-name="Trazado 617686" d="M280.333,702.217c-.491,0-.984.016-1.474,0a.984.984,0,0,1-1.045-.991.948.948,0,0,1,.994-.971c1.006-.025,2.013-.027,3.019,0a.98.98,0,0,1-.018,1.959C281.317,702.233,280.825,702.216,280.333,702.217Z" transform="translate(-100.186 -18.159)" fill="#020101"/>
      <path id="Trazado_617687" data-name="Trazado 617687" d="M269.79,849.284a14.519,14.519,0,1,1,14.58-14.571A14.562,14.562,0,0,1,269.79,849.284Zm-.921-26.936a12.292,12.292,0,0,0-11.418,11.428c.491,0,.982-.013,1.473,0a.973.973,0,0,1,1.07.967c.011.613-.389.987-1.1,1.005-.489.012-.979,0-1.471,0,.356,6.636,6.3,11.367,11.444,11.4,0-.491-.013-.984,0-1.475a.987.987,0,1,1,1.97-.005c.018.511,0,1.024,0,1.539,7.194-.494,11.461-6.908,11.382-11.463h-.7c-.235,0-.471.006-.706,0-.714-.023-1.112-.387-1.1-1s.414-.959,1.134-.974c.483-.01.965,0,1.452,0a12.389,12.389,0,0,0-11.46-11.431c0,.256,0,.511,0,.766s.012.519,0,.777a.954.954,0,0,1-1.019,1.012.931.931,0,0,1-.951-1.008C268.853,823.377,268.869,822.862,268.869,822.347Z" transform="translate(-81.951 -115.54)" fill="#040505"/>
      <path id="Trazado_617688" data-name="Trazado 617688" d="M277.844,831.378c0,.515-.015,1.03,0,1.542a.931.931,0,0,0,.951,1.008.954.954,0,0,0,1.019-1.012c.015-.258,0-.518,0-.776s0-.509,0-.766a12.389,12.389,0,0,1,11.46,11.431c-.487,0-.97-.008-1.452,0-.72.015-1.126.37-1.134.974s.389.978,1.1,1c.235.008.471,0,.706,0h.7c.079,4.555-4.187,10.969-11.382,11.463,0-.516.014-1.028,0-1.539a.987.987,0,1,0-1.97.005c-.017.491,0,.983,0,1.475-5.148-.038-11.089-4.768-11.444-11.4.492,0,.982.01,1.471,0,.71-.018,1.11-.392,1.1-1.005a.973.973,0,0,0-1.07-.967c-.49-.016-.981,0-1.473,0A12.292,12.292,0,0,1,277.844,831.378Zm.706,15.4A3,3,0,0,0,281.681,843a.763.763,0,0,1,.239-.9c1.112-1.08,2.2-2.183,3.294-3.285.588-.595.644-1.148.186-1.6s-1-.376-1.594.216c-1.082,1.078-2.17,2.15-3.232,3.248a.816.816,0,0,1-.959.267,2.749,2.749,0,0,0-3.043.919,2.8,2.8,0,0,0-.424,3.219A2.762,2.762,0,0,0,278.55,846.775Z" transform="translate(-90.926 -124.57)" fill="#ddecf2"/>
      <path id="Trazado_617689" data-name="Trazado 617689" d="M319.106,870.651a2.762,2.762,0,0,1-2.4-1.694,2.8,2.8,0,0,1,.424-3.219,2.749,2.749,0,0,1,3.043-.919.816.816,0,0,0,.959-.267c1.062-1.1,2.15-2.17,3.232-3.248.6-.593,1.14-.662,1.594-.216s.4,1-.186,1.6c-1.091,1.1-2.182,2.2-3.294,3.285a.764.764,0,0,0-.239.9A3,3,0,0,1,319.106,870.651Zm.306-1.977a1,1,0,1,0-1.024-.939A.982.982,0,0,0,319.411,868.674Z" transform="translate(-131.482 -148.447)" fill="#020101"/>
      <path id="Trazado_617690" data-name="Trazado 617690" d="M328.041,893.935a.974.974,0,0,1-1.024-.94,1,1,0,1,1,1.024.94Z" transform="translate(-140.112 -173.707)" fill="#ddecf2"/>
    </g>
    <g id="Grupo_881802" data-name="Grupo 881802" transform="translate(736.139 14238.396)">
      <g id="Grupo_875403" data-name="Grupo 875403" transform="translate(0 0)">
        <path id="Trazado_612672" data-name="Trazado 612672" d="M742.946,514.331c15.253-33.089,52.448-49.655,87.048-37.717.7.215,2.633.982,3.358,1.27.627.219,1.584.654,2.2.943l2.177,1c1.036.48,2.151,1.161,3.18,1.679,1.222.651,2.931,1.753,4.117,2.466.595.4,2.339,1.623,2.964,2.049a69.019,69.019,0,0,1,24.933,77.8c-.3.742-.961,2.722-1.273,3.449-.239.552-.714,1.7-.954,2.259-.326.864-1.185,2.489-1.565,3.33-.5,1.034-1.2,2.227-1.738,3.244-.448.822-1.442,2.342-1.91,3.148-.464.623-1.605,2.427-2.086,3.035-.37.471-1.121,1.476-1.492,1.951-1.166,1.488-2.695,3.286-4,4.648-15.532,16.862-39.9,24.888-62.36,20.22a1.93,1.93,0,0,1,.587-3.811,72.6,72.6,0,0,0,18.194-.14c.795-.112,2.6-.435,3.353-.544.635-.153,2.636-.568,3.315-.725,2.373-.6,4.708-1.332,7.022-2.123,1.2-.492,2.482-.95,3.664-1.463.733-.324,2.371-1.111,3.067-1.421a66.411,66.411,0,0,0,13.995-9.36c.971-.8,2.406-2.143,3.317-3.042.454-.4,1.135-1.172,1.566-1.616,22.662-23.692,23.86-61.953,2.557-87-26.347-31.55-75.747-30.837-100.826,1.916a61.294,61.294,0,0,0-8.847,16.028,1.93,1.93,0,1,1-3.562-1.482Z" transform="translate(-742.764 -472.746)" fill="#fda829"/>
      </g>
    </g>
  </g>
</svg>
