<svg xmlns="http://www.w3.org/2000/svg" width="133.722" height="137.678" viewBox="0 0 133.722 137.678">
  <g id="Grupo_883426" data-name="Grupo 883426" transform="translate(-317 -6257.661)">
    <g id="Elipse_5243" data-name="Elipse 5243" transform="translate(320 6265)" fill="#fff" stroke="#148d80" stroke-width="8">
      <circle cx="60.5" cy="60.5" r="60.5" stroke="none"/>
      <circle cx="60.5" cy="60.5" r="56.5" fill="none"/>
    </g>
    <g id="Grupo_881791" data-name="Grupo 881791" transform="translate(354.838 6282.15)">
      <path id="Trazado_618930" data-name="Trazado 618930" d="M146.38,708.085a3.276,3.276,0,0,0-.547-.276A8.328,8.328,0,0,1,140.1,696.8q4.976-14.753,9.962-29.5,1.9-5.613,3.794-11.227a3.365,3.365,0,0,0,.188-1.036q.047-11.721.069-23.443c0-.133-.017-.267-.028-.434l-.654-.084a2.34,2.34,0,0,1-2.253-2.362,21.784,21.784,0,0,1,0-2.212,2.339,2.339,0,0,1,2.486-2.378q10.9-.014,21.808,0a2.3,2.3,0,0,1,2.448,2.4c.027.655.017,1.311.007,1.967a2.363,2.363,0,0,1-2.426,2.6c-.216.016-.435,0-.765,0v.82q0,11.6.011,23.2a3.812,3.812,0,0,0,.253,1.344c5.152,13.254,10.268,26.522,15.506,39.742,2.415,6.094-1.752,11.3-6.319,11.762-.032,0-.056.081-.084.124Zm43.075-9.111c-.21-.687-.376-1.394-.637-2.064q-7.779-20-15.565-39.988a4.951,4.951,0,0,1-.323-1.74q-.032-11.559-.014-23.118v-.852H155.927c0,.278,0,.494,0,.709q-.025,11.518-.062,23.036a5.136,5.136,0,0,1-.265,1.593q-6.865,20.372-13.752,40.736c-.21.622-.32,1.278-.492,1.984,1.625-.389,3.079-.72,4.521-1.1a1.19,1.19,0,0,0,.59-.5,9.214,9.214,0,0,1,7.343-4.141,42.651,42.651,0,0,1,5.332.219,2.962,2.962,0,0,0,.2-.846q.025-7.993-.007-15.985a1.523,1.523,0,0,0-.419-.869c-1.086-1.25-2.316-2.392-3.273-3.731a5.056,5.056,0,0,1-.777-4.224c.681-2.816,2.626-4.655,4.887-6.218a1.25,1.25,0,0,1,1.1.122,12.34,12.34,0,0,1,3.964,4.183,5.838,5.838,0,0,1,.165,5.79,11.8,11.8,0,0,1-3.317,3.9,1.229,1.229,0,0,0-.52,1.1c.025,2.077.011,4.154.011,6.23v1.068c.541-.411.915-.728,1.322-1a1.919,1.919,0,0,0,.883-1.516,19.927,19.927,0,0,1,.926-4.046,5.661,5.661,0,0,1,3.982-3.8,11.307,11.307,0,0,1,7.194.765,1.244,1.244,0,0,1,.571.964,12.234,12.234,0,0,1-1.365,5.918,5.677,5.677,0,0,1-5.25,3.191,25.045,25.045,0,0,1-4.275-.579,1.279,1.279,0,0,0-1.187.209c-.78.641-1.6,1.23-2.391,1.862a.951.951,0,0,0-.391.564c-.031,1.621-.018,3.243-.018,4.965.34-.167.549-.282.768-.375a7.077,7.077,0,0,1,7.995,1.125,3.673,3.673,0,0,0,2.876.958,10.008,10.008,0,0,1,8.583,3.717,1.233,1.233,0,0,0,.69.367C184.473,698.037,186.872,698.485,189.455,698.974Zm-47.882,2.16c.072.339.093.526.151.7a6.544,6.544,0,0,0,6.255,4.431c5.027.011,10.054,0,15.081,0q9.877,0,19.753,0a6.524,6.524,0,0,0,6.269-4.408c.228-.655.1-.944-.575-1.078-2.432-.483-4.864-.968-7.282-1.512a3.065,3.065,0,0,1-1.173-.737,20.278,20.278,0,0,0-2.367-2.083,9.147,9.147,0,0,0-6.33-1.038,1.627,1.627,0,0,1-1.782-.613,5.511,5.511,0,0,0-9.281.529,1.134,1.134,0,0,1-1.566.572,9.381,9.381,0,0,0-4.506-.593c-2.758.291-5.113,1.29-6.532,3.889a1.76,1.76,0,0,1-1.028.67C144.985,700.32,143.293,700.711,141.573,701.134Zm22.975-71.885c3.142,0,6.284.011,9.426,0,2.445-.011,2.122.32,2.141-2.12.009-1.183-.02-1.2-1.177-1.2q-9.877,0-19.754,0c-2.434,0-2.2-.354-2.205,2.246,0,.99.086,1.076,1.078,1.076Q159.3,629.253,164.549,629.25Zm.749,51.8c.2-.128.342-.2.466-.295.7-.526,1.387-1.061,2.084-1.585a.83.83,0,0,1,1.294.1.867.867,0,0,1-.235,1.343c-.214.169-.435.329-.649.5-.608.478-1.215.958-1.934,1.525.678.127,1.183.233,1.692.315,2.379.382,4.352-.507,5.219-2.569a20.987,20.987,0,0,0,.981-3.772c.037-.176-.3-.6-.5-.631a27.959,27.959,0,0,0-4.033-.486,3.562,3.562,0,0,0-3.039,1.671A8.2,8.2,0,0,0,165.3,681.047Zm-6.2-7.116.254-.112c0-1.219.009-2.439,0-3.658-.007-.663.115-1.261.914-1.271.826-.01.906.61.9,1.265-.013,1.182,0,2.364,0,3.638,2.921-2.441,3.6-5.022,1.4-7.788-.136-.171-.282-.333-.429-.495-1.882-2.063-2.21-2.051-4.008.138-1.74,2.118-2.062,3.849-.931,5.756A27.373,27.373,0,0,0,159.1,673.931Z" transform="translate(-139.596 -624.113)" fill="#292929"/>
      <path id="Trazado_618931" data-name="Trazado 618931" d="M195.73,724.278c-2.583-.489-4.982-.937-7.378-1.408a1.232,1.232,0,0,1-.69-.367,10.008,10.008,0,0,0-8.583-3.717,3.674,3.674,0,0,1-2.876-.958,7.077,7.077,0,0,0-7.995-1.125c-.219.093-.429.208-.768.375,0-1.722-.013-3.344.018-4.965a.95.95,0,0,1,.391-.564c.787-.633,1.61-1.221,2.391-1.862a1.279,1.279,0,0,1,1.187-.209,25.057,25.057,0,0,0,4.275.578,5.677,5.677,0,0,0,5.25-3.191,12.234,12.234,0,0,0,1.365-5.918,1.245,1.245,0,0,0-.571-.964,11.307,11.307,0,0,0-7.194-.765,5.661,5.661,0,0,0-3.982,3.8,19.926,19.926,0,0,0-.926,4.046,1.919,1.919,0,0,1-.883,1.516c-.407.267-.781.584-1.322.995V708.5c0-2.077.014-4.154-.011-6.23a1.229,1.229,0,0,1,.52-1.1,11.8,11.8,0,0,0,3.317-3.9,5.838,5.838,0,0,0-.165-5.791,12.34,12.34,0,0,0-3.964-4.183,1.249,1.249,0,0,0-1.1-.122c-2.261,1.563-4.206,3.4-4.887,6.218a5.056,5.056,0,0,0,.777,4.224c.958,1.339,2.187,2.481,3.273,3.731a1.522,1.522,0,0,1,.419.869q.037,7.993.007,15.985a2.961,2.961,0,0,1-.2.846,42.685,42.685,0,0,0-5.332-.219,9.213,9.213,0,0,0-7.343,4.141,1.191,1.191,0,0,1-.59.5c-1.442.377-2.9.709-4.521,1.1.173-.707.283-1.362.492-1.984q6.871-20.37,13.752-40.737a5.134,5.134,0,0,0,.265-1.593q.05-11.518.062-23.036c0-.215,0-.431,0-.709h16.989v.852q0,11.559.014,23.118a4.952,4.952,0,0,0,.323,1.74q7.767,20,15.565,39.988C195.354,722.884,195.52,723.591,195.73,724.278Z" transform="translate(-145.871 -649.417)" fill="#fdfdfd"/>
      <path id="Trazado_618932" data-name="Trazado 618932" d="M148.622,944.953c1.72-.423,3.412-.815,5.087-1.271a1.76,1.76,0,0,0,1.028-.67c1.418-2.6,3.774-3.6,6.532-3.89a9.384,9.384,0,0,1,4.505.593,1.134,1.134,0,0,0,1.566-.572,5.511,5.511,0,0,1,9.281-.529,1.627,1.627,0,0,0,1.782.612,9.147,9.147,0,0,1,6.33,1.038,20.3,20.3,0,0,1,2.367,2.083,3.065,3.065,0,0,0,1.173.737c2.419.544,4.851,1.029,7.282,1.512.675.134.8.423.575,1.078a6.525,6.525,0,0,1-6.269,4.408q-9.876.015-19.753,0c-5.027,0-10.054.008-15.081,0a6.544,6.544,0,0,1-6.255-4.431C148.715,945.479,148.694,945.292,148.622,944.953Zm29.163,1.951c.723.007,1.22-.352,1.2-.889-.028-.67-.462-.94-1.091-.958-.729-.02-1.2.345-1.18.937C176.735,946.714,177.238,946.87,177.785,946.9Zm3.832,0c.643-.018,1.146-.239,1.141-.923s-.491-.917-1.112-.925c-.726-.009-1.2.374-1.153.966C180.545,946.736,181.056,946.879,181.617,946.9Zm3.821-1.855c-.609.025-1.131.2-1.154.9s.458.932,1.076.955c.72.027,1.222-.35,1.193-.928C186.517,945.276,186.03,945.085,185.438,945.049Zm-13.951-3.861c-.028-.619-.491-.83-1.1-.845s-1.133.189-1.171.863.424.953,1.055.98C171.005,942.217,171.474,941.864,171.487,941.188Zm2.462,3.867c-.511.044-1,.228-1.01.939-.011.591.462.945,1.2.908.618-.031,1.1-.295,1.061-.972S174.651,945.047,173.949,945.055Zm.276-2.866c.517-.038,1.024-.206,1.037-.917s-.486-.91-1.087-.927c-.7-.021-1.242.405-1.179.947C173.072,941.953,173.53,942.189,174.225,942.189Zm-4,4.711c.73-.013,1.2-.395,1.2-.918,0-.563-.508-.957-1.21-.923-.61.03-1.083.258-1.063.96C169.18,946.74,169.706,946.875,170.229,946.9Zm-7.52,0c.665,0,1.172-.364,1.147-.892-.03-.661-.465-.935-1.09-.951-.727-.018-1.186.345-1.168.938C161.619,946.714,162.117,946.869,162.709,946.9Zm3.644-.005c.73.005,1.243-.207,1.267-.877s-.445-.94-1.07-.961c-.728-.024-1.191.335-1.179.927C165.385,946.7,165.878,946.868,166.353,946.9Zm-7.418-.03c.643.03,1.121-.209,1.117-.887s-.5-.909-1.111-.921c-.695-.013-1.212.4-1.154.967C157.859,946.707,158.33,946.9,158.935,946.865Z" transform="translate(-146.645 -867.932)" fill="#f4911e"/>
      <path id="Trazado_618933" data-name="Trazado 618933" d="M212.245,635.66q-5.246,0-10.492,0c-.991,0-1.079-.086-1.078-1.076,0-2.6-.228-2.242,2.205-2.246q9.877-.015,19.754,0c1.158,0,1.187.021,1.177,1.2-.02,2.439.3,2.108-2.141,2.12C218.529,635.671,215.387,635.66,212.245,635.66Z" transform="translate(-187.293 -630.523)" fill="#6bd8fd"/>
      <path id="Trazado_618934" data-name="Trazado 618934" d="M256.924,864.2a8.2,8.2,0,0,1,1.342-3.888,3.561,3.561,0,0,1,3.039-1.671,27.967,27.967,0,0,1,4.033.486c.206.033.541.455.5.631a20.991,20.991,0,0,1-.981,3.772c-.867,2.062-2.84,2.951-5.219,2.569-.509-.082-1.014-.188-1.692-.315.72-.568,1.326-1.048,1.934-1.525.214-.168.436-.329.649-.5a.867.867,0,0,0,.235-1.343.83.83,0,0,0-1.294-.1c-.7.525-1.388,1.059-2.084,1.585C257.266,864,257.127,864.073,256.924,864.2Z" transform="translate(-231.223 -807.267)" fill="#22b271"/>
      <path id="Trazado_618935" data-name="Trazado 618935" d="M219.468,816.073a27.365,27.365,0,0,1-1.9-2.527c-1.131-1.907-.809-3.638.931-5.756,1.8-2.189,2.125-2.2,4.008-.138.147.161.293.324.429.495,2.2,2.766,1.518,5.347-1.4,7.788,0-1.274-.009-2.456,0-3.638.007-.654-.072-1.275-.9-1.265-.8.01-.921.608-.914,1.271.012,1.219,0,2.439,0,3.658Z" transform="translate(-199.968 -766.255)" fill="#22b271"/>
      <path id="Trazado_618936" data-name="Trazado 618936" d="M277.922,978.037c-.547-.033-1.049-.19-1.074-.91-.02-.592.451-.957,1.18-.937.629.017,1.063.287,1.091.957C279.143,977.685,278.645,978.044,277.922,978.037Z" transform="translate(-246.783 -899.065)" fill="#302b25"/>
      <path id="Trazado_618937" data-name="Trazado 618937" d="M295.232,978.042c-.561-.026-1.072-.168-1.124-.882-.043-.592.426-.975,1.153-.966.621.007,1.108.252,1.112.925S295.875,978.024,295.232,978.042Z" transform="translate(-260.26 -899.069)" fill="#302b25"/>
      <path id="Trazado_618938" data-name="Trazado 618938" d="M312.57,976.16c.592.036,1.079.227,1.115.924.029.578-.473.955-1.193.928-.618-.024-1.1-.265-1.076-.955S311.961,976.185,312.57,976.16Z" transform="translate(-273.777 -899.042)" fill="#302b25"/>
      <path id="Trazado_618939" data-name="Trazado 618939" d="M244.915,955.516c-.013.676-.481,1.029-1.212,1-.631-.027-1.092-.317-1.055-.98s.566-.878,1.171-.863S244.887,954.9,244.915,955.516Z" transform="translate(-220.073 -882.26)" fill="#302b25"/>
      <path id="Trazado_618940" data-name="Trazado 618940" d="M260.64,976.185c.7-.008,1.209.211,1.251.875s-.444.941-1.061.972c-.737.036-1.211-.317-1.2-.908C259.642,976.413,260.129,976.229,260.64,976.185Z" transform="translate(-233.335 -899.062)" fill="#302b25"/>
      <path id="Trazado_618941" data-name="Trazado 618941" d="M261.1,956.526c-.695,0-1.153-.236-1.23-.9-.063-.542.482-.967,1.179-.947.6.017,1.1.21,1.087.927S261.618,956.489,261.1,956.526Z" transform="translate(-233.521 -882.269)" fill="#302b25"/>
      <path id="Trazado_618942" data-name="Trazado 618942" d="M243.444,978.036c-.523-.025-1.049-.16-1.069-.881-.02-.7.453-.93,1.063-.96.7-.034,1.21.361,1.21.923C244.647,977.641,244.174,978.023,243.444,978.036Z" transform="translate(-219.86 -899.068)" fill="#302b25"/>
      <path id="Trazado_618943" data-name="Trazado 618943" d="M208.966,978.036c-.591-.032-1.089-.188-1.11-.907-.018-.593.442-.957,1.168-.938.624.016,1.059.29,1.09.951C210.138,977.671,209.632,978.035,208.966,978.036Z" transform="translate(-192.902 -899.067)" fill="#302b25"/>
      <path id="Trazado_618944" data-name="Trazado 618944" d="M226.061,978.03c-.475-.028-.968-.192-.982-.911-.012-.592.452-.952,1.179-.927.625.021,1.093.3,1.07.961S226.79,978.035,226.061,978.03Z" transform="translate(-206.353 -899.066)" fill="#302b25"/>
      <path id="Trazado_618945" data-name="Trazado 618945" d="M191.594,978c-.605.038-1.076-.158-1.147-.841-.059-.563.459-.98,1.154-.967.613.011,1.106.251,1.111.921S192.237,978.034,191.594,978Z" transform="translate(-179.304 -899.071)" fill="#302b25"/>
    </g>
    <g id="Grupo_881809" data-name="Grupo 881809" transform="translate(317 6257.661)">
      <g id="Grupo_875403" data-name="Grupo 875403" transform="translate(0 0)">
        <path id="Trazado_612672" data-name="Trazado 612672" d="M742.946,514.331c15.253-33.089,52.448-49.655,87.048-37.717.7.215,2.633.982,3.358,1.27.627.219,1.584.654,2.2.943l2.177,1c1.036.48,2.151,1.161,3.18,1.679,1.222.651,2.931,1.753,4.117,2.466.595.4,2.339,1.623,2.964,2.049a69.019,69.019,0,0,1,24.933,77.8c-.3.742-.961,2.722-1.273,3.449-.239.552-.714,1.7-.954,2.259-.326.864-1.185,2.489-1.565,3.33-.5,1.034-1.2,2.227-1.738,3.244-.448.822-1.442,2.342-1.91,3.148-.464.623-1.605,2.427-2.086,3.035-.37.471-1.121,1.476-1.492,1.951-1.166,1.488-2.695,3.286-4,4.648-15.532,16.862-39.9,24.888-62.36,20.22a1.93,1.93,0,0,1,.587-3.811,72.6,72.6,0,0,0,18.194-.14c.795-.112,2.6-.435,3.353-.544.635-.153,2.636-.568,3.315-.725,2.373-.6,4.708-1.332,7.022-2.123,1.2-.492,2.482-.95,3.664-1.463.733-.324,2.371-1.111,3.067-1.421a66.411,66.411,0,0,0,13.995-9.36c.971-.8,2.406-2.143,3.317-3.042.454-.4,1.135-1.172,1.566-1.616,22.662-23.692,23.86-61.953,2.557-87-26.347-31.55-75.747-30.837-100.826,1.916a61.294,61.294,0,0,0-8.847,16.028,1.93,1.93,0,1,1-3.562-1.482Z" transform="translate(-742.764 -472.746)" fill="#fda829"/>
      </g>
    </g>
  </g>
</svg>
