<svg xmlns="http://www.w3.org/2000/svg" width="133.722" height="137.678" viewBox="0 0 133.722 137.678">
  <g id="Grupo_883414" data-name="Grupo 883414" transform="translate(-736.139 -13935.533)">
    <circle id="Elipse_5208" data-name="Elipse 5208" cx="62.5" cy="62.5" r="62.5" transform="translate(737 13941)" fill="#148d80"/>
    <g id="Grupo_877827" data-name="Grupo 877827" transform="translate(601.465 13296.908)">
      <path id="Trazado_617649" data-name="Trazado 617649" d="M168.535,743.974c.074-.154.158-.3.219-.462a3.309,3.309,0,0,1,3.046-2.172c.218-.007.436-.005.655-.005h37.08c.237,0,.474-.018.711-.027h4.167c.952.01,1.9.042,2.855.017a1.116,1.116,0,0,0,.708-.3c.811-.842,1.615-1.695,2.367-2.589a20.756,20.756,0,0,0,3.718-5.968,1.009,1.009,0,0,0-.528-1.472c-.668-.422-1.333-.849-2.006-1.264-.8-.493-1.235-.36-1.783.416q-2.756,3.907-5.552,7.786c-.5.7-.928.76-1.68.342a1.177,1.177,0,0,1,.048-1.564q2.831-3.924,5.613-7.883a3.054,3.054,0,0,1,4.176-.972c.82.479,1.628.981,2.429,1.492a2.972,2.972,0,0,1,1.237,3.674,22.927,22.927,0,0,1-4.327,6.971c-.664.785-1.364,1.54-2.048,2.309-.756,1.044-1.827,1.09-3.006,1.087q-22.157-.041-44.314-.017c-1.337,0-1.808.486-1.737,1.8a51.8,51.8,0,0,0,1.171,8.939,35.339,35.339,0,0,0,2.636,7.726,33.09,33.09,0,0,0,3.731,6.3,2.776,2.776,0,0,0,2.422,1.235c2.3-.017,4.6,0,6.9-.007,1.049,0,2.1-.022,3.146-.034a.994.994,0,0,0,.175.031q13.49,0,26.98,0a2.41,2.41,0,0,0,2.126-1.105c1.041-1.588,2.046-3.2,3.06-4.8a6.042,6.042,0,0,0,.28-.621c-.462.2-.785.324-1.088.481-.439.228-.856.5-1.3.721a3.884,3.884,0,0,1-4.354-.4c-.364-.273-.7-.581-1.049-.878-1.32-1.13-2.207-1.184-3.637-.222-.723.486-1.419,1.021-2.178,1.444a4.535,4.535,0,0,1-5.647-.648c-.635-.569-1.219-1.194-1.859-1.757a4.238,4.238,0,0,0-6.1,0c-.655.576-1.256,1.211-1.9,1.8a4.426,4.426,0,0,1-3.467,1.277,12.822,12.822,0,0,1-1.836-.443q-1.4-.941-2.808-1.881a2.286,2.286,0,0,0-2.863.089c-.38.284-.715.63-1.1.9a9.334,9.334,0,0,1-1.5.936c-.841.379-1.325.118-1.63-.769a3.368,3.368,0,0,1,.576-.959,21.073,21.073,0,0,1,2.024-1.416,10.682,10.682,0,0,1,1.837-1.053,4.336,4.336,0,0,1,4.041.707c.578.415,1.137.858,1.737,1.239a2.734,2.734,0,0,0,3.868-.355c.688-.629,1.332-1.309,2.051-1.9a6.161,6.161,0,0,1,8.079.017c.656.543,1.251,1.159,1.873,1.742,1.488,1.4,2.545,1.486,4.248.352.676-.45,1.322-.95,2.016-1.37a4.168,4.168,0,0,1,4.805.185,13.721,13.721,0,0,1,1.111.9c1.368,1.142,1.864,1.2,3.407.288a5.173,5.173,0,0,1,3.565-.968,2.206,2.206,0,0,0,.114-.2,45.015,45.015,0,0,0,3.279-15.9,1.27,1.27,0,0,0-1.06-1.372c-.952-.013-1.9-.026-2.855-.041-.786-.013-1.091-.275-1.242-1.061.191-.744.451-.962,1.192-.968.873-.008,1.746-.012,2.619,0a3.279,3.279,0,0,1,3.288,2.628c.012.048.065.085.1.127v2.617a1.806,1.806,0,0,0-.123.354c-.241,1.845-.4,3.7-.724,5.533a38.835,38.835,0,0,1-7.047,16.673,4.93,4.93,0,0,1-4.213,2.136q-18.407-.013-36.814,0a4.933,4.933,0,0,1-4.21-2.141,40.4,40.4,0,0,1-7.543-19.959c-.094-.828-.231-1.652-.347-2.477Z" transform="translate(0 -39.789)" fill="#050404"/>
      <path id="Trazado_617650" data-name="Trazado 617650" d="M233.165,821.154c.151.786.456,1.048,1.242,1.061.952.016,1.9.028,2.855.041a1.05,1.05,0,0,1-.437,1.151,3.124,3.124,0,0,1-1.343.352q-18.372.028-36.745,0a1.433,1.433,0,0,0-1.491.935,3.985,3.985,0,0,0-.362,1.53c.057,1.632.136,3.271.343,4.889.333,2.611.783,5.208,1.157,7.814.03.21-.139.448-.216.672a4.336,4.336,0,0,0-4.041-.707,10.682,10.682,0,0,0-1.837,1.053,21.073,21.073,0,0,0-2.024,1.416,3.367,3.367,0,0,0-.576.959c-.736-.32-1.489-.607-2.2-.969a4.27,4.27,0,0,0-2.29-.679,35.339,35.339,0,0,1-2.636-7.726,51.8,51.8,0,0,1-1.171-8.939c-.071-1.309.4-1.8,1.737-1.8q22.157,0,44.314.017c1.178,0,2.249-.044,3.006-1.087Zm-42.129,14.674a20.144,20.144,0,0,0-.717-1.891.871.871,0,0,0-1.145-.37.883.883,0,0,0-.647,1.067,10.255,10.255,0,0,0,.635,1.906.89.89,0,0,0,1.167.448C190.8,836.838,191.021,836.489,191.036,835.828Z" transform="translate(-10.806 -118.639)" fill="#e26c1e"/>
      <path id="Trazado_617651" data-name="Trazado 617651" d="M332.405,696.929c1-.008,1.478.809,1.09,1.517-.237.433-.543.829-.763,1.269-.727,1.451-.52,2.438.844,3.313a32.809,32.809,0,0,0,3.151,1.639c1.151.572,2.343,1.066,3.461,1.695a4.636,4.636,0,0,1,2.567,3.173,5.309,5.309,0,0,1-1.248,4.193.924.924,0,0,1-1.292.133,1.018,1.018,0,0,1-.311-1.318c.229-.459.51-.9.694-1.371a1.865,1.865,0,0,0-.652-2.476,18.2,18.2,0,0,0-2.606-1.518c-1.254-.629-2.568-1.142-3.809-1.792a8.874,8.874,0,0,1-1.977-1.4,3.717,3.717,0,0,1-1-4.235,14.2,14.2,0,0,1,1.23-2.351C331.933,697.149,332.284,697.016,332.405,696.929Z" transform="translate(-136.036 -14.161)" fill="#050404"/>
      <path id="Trazado_617652" data-name="Trazado 617652" d="M206.984,710.049c-.162.542-.422,1.551-.77,2.53a.976.976,0,0,1-1.327.56,1.017,1.017,0,0,1-.531-1.335c.141-.41.307-.813.427-1.23a2.782,2.782,0,0,0-1.024-3.224c-.787-.6-1.641-1.106-2.443-1.686a17.047,17.047,0,0,1-1.76-1.4,4.461,4.461,0,0,1-1.339-4.337,13.469,13.469,0,0,1,.841-2.458.964.964,0,0,1,1.337-.515,1.014,1.014,0,0,1,.508,1.348c-.212.573-.483,1.13-.638,1.718a2.712,2.712,0,0,0,.9,3c.707.57,1.5,1.032,2.222,1.584a25.015,25.015,0,0,1,2.468,2.026A4.588,4.588,0,0,1,206.984,710.049Z" transform="translate(-24.873 -14.095)" fill="#050404"/>
      <path id="Trazado_617653" data-name="Trazado 617653" d="M433.28,749.051c.752.419,1.179.355,1.68-.342q2.793-3.881,5.552-7.786c.548-.777.984-.91,1.783-.416.672.415,1.337.842,2.006,1.264a4.746,4.746,0,0,1-.534.015,2.019,2.019,0,0,0-2.052,1.106c-.512.864-1.082,1.7-1.67,2.513-1.128,1.567-2.29,3.111-3.431,4.669-.487.664-.956,1.341-1.434,2.013h-4.167c.681-.879,1.363-1.757,2.039-2.639A3.279,3.279,0,0,0,433.28,749.051Z" transform="translate(-220.768 -50.57)" fill="#ebf4fc"/>
      <path id="Trazado_617654" data-name="Trazado 617654" d="M279.352,731.274c.9.017,1.364.665,1.137,1.324-.09.26-.231.5-.332.758a1.225,1.225,0,0,0,.549,1.77c.359.244.743.451,1.116.675.356.214.721.414,1.065.645a3.294,3.294,0,0,1,1.181,4.687,1.014,1.014,0,1,1-1.837-.846c.517-1.315.416-1.621-.8-2.359-.642-.39-1.313-.737-1.927-1.165-2.022-1.41-1.849-3.3-.789-5.043C278.865,731.473,279.229,731.356,279.352,731.274Z" transform="translate(-92.021 -43.049)" fill="#050404"/>
      <path id="Trazado_617655" data-name="Trazado 617655" d="M398.571,683.86c.295-1.038.555-2.088.9-3.109a.98.98,0,0,1,1.318-.584,1.032,1.032,0,0,1,.559,1.332c-.166.547-.362,1.086-.491,1.642a3.056,3.056,0,0,0,1.221,3.308c.91.689,1.929,1.233,2.9,1.834a1.013,1.013,0,0,1,.447,1.5.9.9,0,0,1-1.192.38,12.028,12.028,0,0,1-4.462-3.171,4.865,4.865,0,0,1-1.05-3.086Z" transform="translate(-193.481)" fill="#050404"/>
      <path id="Trazado_617656" data-name="Trazado 617656" d="M280.21,845.479c.077-.225.246-.463.216-.672-.375-2.606-.824-5.2-1.157-7.814-.207-1.619-.286-3.257-.343-4.889a3.985,3.985,0,0,1,.362-1.53,1.433,1.433,0,0,1,1.491-.935q18.372.024,36.745,0a3.124,3.124,0,0,0,1.343-.352,1.05,1.05,0,0,0,.437-1.151,1.27,1.27,0,0,1,1.06,1.372,45.014,45.014,0,0,1-3.279,15.9,2.2,2.2,0,0,1-.114.2,5.173,5.173,0,0,0-3.565.968c-1.543.914-2.039.854-3.407-.288a13.721,13.721,0,0,0-1.111-.9,4.168,4.168,0,0,0-4.805-.185c-.694.42-1.34.92-2.016,1.37-1.7,1.135-2.761,1.044-4.248-.352-.622-.583-1.217-1.2-1.873-1.742a6.161,6.161,0,0,0-8.079-.017c-.719.591-1.363,1.27-2.051,1.9a2.734,2.734,0,0,1-3.868.355C281.347,846.338,280.788,845.894,280.21,845.479Zm33.034-4.869c-.012-.7-.253-1.051-.721-1.183a.905.905,0,0,0-1.161.474,11.068,11.068,0,0,0-.623,1.85.9.9,0,0,0,.613,1.091.857.857,0,0,0,1.154-.325A17.545,17.545,0,0,0,313.244,840.611Zm-27.8.576-.039,0a5.7,5.7,0,0,0-.006-.768.986.986,0,0,0-1.058-.9.961.961,0,0,0-.947.95,8.884,8.884,0,0,0,.018,1.477.923.923,0,0,0,.918.849.959.959,0,0,0,1.037-.781A6.37,6.37,0,0,0,285.441,841.187Zm14.988,0h-.035a6.41,6.41,0,0,0-.005-.768,1,1,0,0,0-1.978-.072,7.43,7.43,0,0,0,.012,1.649.93.93,0,0,0,1.021.8.946.946,0,0,0,.934-.837C300.419,841.7,300.414,841.444,300.429,841.188Z" transform="translate(-92.848 -124.516)" fill="#fda829"/>
      <path id="Trazado_617657" data-name="Trazado 617657" d="M296,938.178a12.822,12.822,0,0,0,1.836.443,4.426,4.426,0,0,0,3.467-1.277c.647-.585,1.249-1.22,1.9-1.8a4.238,4.238,0,0,1,6.1,0c.64.563,1.224,1.188,1.859,1.757a4.535,4.535,0,0,0,5.647.648c.759-.422,1.455-.958,2.178-1.444,1.431-.962,2.317-.908,3.637.222.347.3.685.6,1.049.878a3.884,3.884,0,0,0,4.354.4c.443-.221.859-.493,1.3-.721.3-.157.625-.279,1.088-.481a6.038,6.038,0,0,1-.28.621c-1.015,1.6-2.02,3.215-3.06,4.8a2.41,2.41,0,0,1-2.126,1.105q-13.49,0-26.98,0a1,1,0,0,1-.175-.031c-.185-.491-.381-.978-.553-1.474C296.819,940.617,296.41,939.4,296,938.178Z" transform="translate(-107.206 -213.772)" fill="#81ad20"/>
      <path id="Trazado_617658" data-name="Trazado 617658" d="M219.782,946.372c.414,1.219.823,2.439,1.243,3.655.171.5.368.983.553,1.474-1.049.012-2.1.032-3.146.034-2.3.005-4.6-.01-6.9.007a2.776,2.776,0,0,1-2.422-1.235,33.092,33.092,0,0,1-3.731-6.3,4.27,4.27,0,0,1,2.29.679c.714.362,1.467.649,2.2.969.3.886.789,1.148,1.63.769a9.334,9.334,0,0,0,1.5-.936c.387-.273.722-.619,1.1-.9a2.286,2.286,0,0,1,2.863-.089Q218.381,945.429,219.782,946.372Z" transform="translate(-30.992 -221.966)" fill="#d8fdbd"/>
      <path id="Trazado_617659" data-name="Trazado 617659" d="M457.234,760.313c.477-.671.947-1.348,1.434-2.013,1.141-1.558,2.3-3.1,3.431-4.669.588-.816,1.157-1.649,1.67-2.513a2.019,2.019,0,0,1,2.052-1.106,4.746,4.746,0,0,0,.534-.015,1.009,1.009,0,0,1,.528,1.472,20.755,20.755,0,0,1-3.718,5.968c-.752.894-1.556,1.747-2.367,2.589a1.116,1.116,0,0,1-.708.3C459.138,760.355,458.186,760.324,457.234,760.313Z" transform="translate(-242.822 -58.798)" fill="#c7dcf0"/>
      <path id="Trazado_617660" data-name="Trazado 617660" d="M228.7,901.183c-.015.661-.236,1.01-.708,1.159a.89.89,0,0,1-1.167-.448,10.255,10.255,0,0,1-.635-1.906.883.883,0,0,1,.647-1.067.871.871,0,0,1,1.145.37A20.144,20.144,0,0,1,228.7,901.183Z" transform="translate(-48.474 -183.995)" fill="#050202"/>
      <path id="Trazado_617661" data-name="Trazado 617661" d="M481.477,900.125a17.545,17.545,0,0,1-.737,1.908.858.858,0,0,1-1.154.325.9.9,0,0,1-.613-1.091,11.066,11.066,0,0,1,.623-1.85.905.905,0,0,1,1.161-.475C481.224,899.073,481.465,899.422,481.477,900.125Z" transform="translate(-261.08 -184.03)" fill="#050202"/>
      <path id="Trazado_617662" data-name="Trazado 617662" d="M308.972,901.419a6.372,6.372,0,0,1-.075.822.959.959,0,0,1-1.037.781.923.923,0,0,1-.918-.849,8.883,8.883,0,0,1-.018-1.477.961.961,0,0,1,.947-.95.986.986,0,0,1,1.058.9,5.7,5.7,0,0,1,.006.768Z" transform="translate(-116.379 -184.748)" fill="#050202"/>
      <path id="Trazado_617663" data-name="Trazado 617663" d="M403.359,901.425c-.016.256-.01.515-.051.767a.946.946,0,0,1-.934.837.93.93,0,0,1-1.021-.8,7.43,7.43,0,0,1-.012-1.649,1,1,0,0,1,1.978.072,6.41,6.41,0,0,1,.005.768Z" transform="translate(-195.777 -184.752)" fill="#050202"/>
    </g>
    <g id="Grupo_881799" data-name="Grupo 881799" transform="translate(736.139 13935.533)">
      <g id="Grupo_875403" data-name="Grupo 875403" transform="translate(0 0)">
        <path id="Trazado_612672" data-name="Trazado 612672" d="M742.946,514.331c15.253-33.089,52.448-49.655,87.048-37.717.7.215,2.633.982,3.358,1.27.627.219,1.584.654,2.2.943l2.177,1c1.036.48,2.151,1.161,3.18,1.679,1.222.651,2.931,1.753,4.117,2.466.595.4,2.339,1.623,2.964,2.049a69.019,69.019,0,0,1,24.933,77.8c-.3.742-.961,2.722-1.273,3.449-.239.552-.714,1.7-.954,2.259-.326.864-1.185,2.489-1.565,3.33-.5,1.034-1.2,2.227-1.738,3.244-.448.822-1.442,2.342-1.91,3.148-.464.623-1.605,2.427-2.086,3.035-.37.471-1.121,1.476-1.492,1.951-1.166,1.488-2.695,3.286-4,4.648-15.532,16.862-39.9,24.888-62.36,20.22a1.93,1.93,0,0,1,.587-3.811,72.6,72.6,0,0,0,18.194-.14c.795-.112,2.6-.435,3.353-.544.635-.153,2.636-.568,3.315-.725,2.373-.6,4.708-1.332,7.022-2.123,1.2-.492,2.482-.95,3.664-1.463.733-.324,2.371-1.111,3.067-1.421a66.411,66.411,0,0,0,13.995-9.36c.971-.8,2.406-2.143,3.317-3.042.454-.4,1.135-1.172,1.566-1.616,22.662-23.692,23.86-61.953,2.557-87-26.347-31.55-75.747-30.837-100.826,1.916a61.294,61.294,0,0,0-8.847,16.028,1.93,1.93,0,1,1-3.562-1.482Z" transform="translate(-742.764 -472.746)" fill="#fda829"/>
      </g>
    </g>
  </g>
</svg>
