<svg xmlns="http://www.w3.org/2000/svg" xmlns:xlink="http://www.w3.org/1999/xlink" width="133.722" height="137.678" viewBox="0 0 133.722 137.678">
  <defs>
    <clipPath id="clip-path">
      <circle id="Elipse_5246" data-name="Elipse 5246" cx="50" cy="50" r="50" transform="translate(1166 6275)" fill="#fff" stroke="#707070" stroke-width="1"/>
    </clipPath>
  </defs>
  <g id="Grupo_883428" data-name="Grupo 883428" transform="translate(-1156 -6258.661)">
    <g id="Elipse_5244" data-name="Elipse 5244" transform="translate(1160 6265)" fill="#fff" stroke="#148d80" stroke-width="8">
      <ellipse cx="60" cy="60.5" rx="60" ry="60.5" stroke="none"/>
      <ellipse cx="60" cy="60.5" rx="56" ry="56.5" fill="none"/>
    </g>
    <g id="Enmascarar_grupo_19" data-name="Enmascarar grupo 19" transform="translate(4)" clip-path="url(#clip-path)">
      <g id="Grupo_881795" data-name="Grupo 881795" transform="translate(924.747 5591.043)">
        <path id="Trazado_618949" data-name="Trazado 618949" d="M322.458,766.676c-.487,1.443-1.3,1.708-2.54.807q-4.327-3.154-8.645-6.322c-1.09-.8-1.193-1.159-.7-2.4-1.6-.287-3.2-.56-4.792-.863a16.39,16.39,0,0,1-11.4-7.791c-.794-1.291-1.6-2.574-2.439-3.837a13.38,13.38,0,0,0-1.11-1.277c-.831,1.45-1.582,2.75-2.323,4.055a7.161,7.161,0,0,1-2.943,2.934c-2.54,1.315-4.786.548-5.912-1.9-1.028.148-2.02.259-2.994.456-.227.046-.453.356-.581.6-1.963,3.688-3.881,7.4-5.868,11.075a9.614,9.614,0,0,1-12.9,4.1,9.4,9.4,0,0,1-4.973-6.072c-.1-.334-.227-.658-.342-.988v-3.2c3-7.344,7.334-14.008,10.729-21.179-2.179-3-2.125-5.016.262-7.973a10.844,10.844,0,0,1,1.179-1.318q7.463-6.644,14.958-13.252a8.677,8.677,0,0,1,5.1-2.192c1.623-.136,3.233-.418,4.852-.61,1.08-.128,1.473.14,1.829,1.158-.127,1.075-.453,1.4-1.529,1.53a30.874,30.874,0,0,1-3.766.454c-3.687,0-5.731,2.674-8.29,4.767,1.92,1.007,3.7,1.95,5.5,2.869a.624.624,0,0,0,.571-.034,4.386,4.386,0,0,1,3.383-1.22c3.533-.225,7.068-.426,10.6-.633a1.345,1.345,0,0,1,1.451.792c1.017,2.366,2.119,4.7,2.964,7.131a5.338,5.338,0,0,1-.049,3.029,10.187,10.187,0,0,1-3.485,5.056,5.056,5.056,0,0,1-4.008,1.14,31.9,31.9,0,0,1-8.013-2.209c-2.447-.979-4.85-2.065-7.309-3.013a8.727,8.727,0,0,0-4.868-.641,3.3,3.3,0,0,0-2.69,2.357,3.078,3.078,0,0,0,.714,3.493,14.592,14.592,0,0,0,2.654,1.9c2.445,1.4,5.217,1.853,7.9,2.573,2.869.771,5.745,1.522,8.594,2.366a5.423,5.423,0,0,1,3.163,2.63c.746,1.285,1.559,2.533,2.38,3.774,1.694,2.56,3.736,4.79,6.8,5.628,2.479.679,5.041,1.056,7.566,1.567a1.8,1.8,0,0,0,2.219-.9c2.034-2.961,4.163-5.857,6.263-8.774.671-.932,1.09-1.039,2.148-.6.688.909.7,1.242.039,2.172q-3.917,5.477-7.843,10.948c-.141.2-.267.4-.414.627,2.684,1.964,5.326,3.866,7.924,5.828A5.755,5.755,0,0,1,322.458,766.676Zm-58.478-24.7c.347-1.122.642-1.358,1.8-1.361,2.646-.008,5.292,0,7.937,0,.257,0,.514-.031.771-.047a3.709,3.709,0,0,0-.783-.555,26.911,26.911,0,0,1-3.531-2.546,5.671,5.671,0,0,1-1.324-6.366,5.857,5.857,0,0,1,4.9-4.079,12.926,12.926,0,0,1,6.361.854c.283.094.582.139.873.206l.06-.195-8.982-4.729c-1.783,3.377-3.529,6.67-5.263,9.969q-2.327,4.427-4.636,8.863c-2.3,4.336-4.674,8.633-6.864,13.023a6.318,6.318,0,0,0,.61,6.568,6.931,6.931,0,0,0,11.938-.684c3.025-5.6,5.966-11.253,8.94-16.884a6.363,6.363,0,0,0,.255-.676h-1.03c-3.376,0-6.751.005-10.127,0C264.644,743.326,264.34,743.095,263.98,741.975ZM286.614,727.4l.124.213c1.446-1.575,3.34-1.6,5.214-1.693q.506-.026,1.011-.063c1.87-.14,3.741-.281,5.745-.432-.632-1.407-1.2-2.711-1.815-3.988a.873.873,0,0,0-.667-.324c-1.041-.021-2.087-.041-3.124.039-2.358.182-4.712.422-7.067.639a3.966,3.966,0,0,0,1.145.836c1.111.614,1.289,1.206.7,2.343Q287.25,726.19,286.614,727.4Zm.12,3.264a31.279,31.279,0,0,0,7.2,2.118,3.423,3.423,0,0,0,1.812-.019c1.927-.928,2.907-2.644,3.627-4.685-2.873.22-5.587.527-8.307.6C289.312,728.728,288.252,729.883,286.734,730.668Zm1.473,13.515c-.877-.277-1.638-.56-2.424-.739a.974.974,0,0,0-.806.287,28.205,28.205,0,0,0-2.339,3.176,4.089,4.089,0,0,0-.427,2.055.9.9,0,0,0,1.3.87,5.08,5.08,0,0,0,2.108-1.393A48.928,48.928,0,0,0,288.207,744.182ZM274.919,721.6l9.145,4.818.959-1.858-9.144-4.822Zm5.889,20.588-2.759,5.222c2.034-1.106,2.967-3.138,4.45-4.864Zm-16.6-9.957,2.868-5.434C265.031,727.742,263.514,730.565,264.211,732.227Z" transform="translate(0 -3.936)" fill="#030303"/>
        <path id="Trazado_618950" data-name="Trazado 618950" d="M476.676,740.818l-1.349.856c-.484-.273-.994-.507-1.447-.825-2.573-1.8-5.132-3.629-7.734-5.474-1.16,1.613-2.284,3.186-3.418,4.751-.653.9-1.021,1.011-2.085.664-.747-.888-.762-1.312-.072-2.285s1.374-1.929,2.082-2.924l-1.01-.846c-1.382-1.275-2.79-2.523-4.134-3.837a11.979,11.979,0,0,1-1.759-2.117c-4.079-6.45-8.179-12.889-12.144-19.409a4.05,4.05,0,0,0-4.422-2.216c-2.343.291-4.707.405-7.059.629a1.5,1.5,0,0,1-1.778-1.045c.073-1.1.417-1.547,1.41-1.636,2.688-.242,5.378-.457,8.069-.661a5.6,5.6,0,0,1,5.638,2.88c4.163,6.755,8.421,13.451,12.656,20.16a6.837,6.837,0,0,0,1.118,1.348c1.645,1.527,3.321,3.021,4.993,4.534.174-.226.306-.408.448-.582a1.359,1.359,0,0,1,2.063-.292q4.614,3.249,9.208,6.528c.258.183.484.41.725.617Z" transform="translate(-138.169 0)" fill="#040303"/>
        <path id="Trazado_618951" data-name="Trazado 618951" d="M357.945,714.726a1.5,1.5,0,0,0,1.778,1.045c2.352-.224,4.716-.337,7.059-.629a4.05,4.05,0,0,1,4.422,2.216c3.966,6.52,8.065,12.958,12.144,19.409a11.976,11.976,0,0,0,1.759,2.117c1.344,1.314,2.752,2.562,4.134,3.837-.708.97-1.42,1.937-2.122,2.911-2.287,3.173-4.582,6.34-6.851,9.525-1.148,1.612-2.248,3.259-3.37,4.89-2.525-.511-5.087-.888-7.566-1.567-3.06-.839-5.1-3.068-6.8-5.628-.821-1.24-1.633-2.488-2.38-3.774a5.423,5.423,0,0,0-3.163-2.63c-2.848-.844-5.724-1.6-8.594-2.366-2.679-.72-5.451-1.168-7.9-2.572a14.591,14.591,0,0,1-2.654-1.9,3.078,3.078,0,0,1-.714-3.493,3.3,3.3,0,0,1,2.69-2.357,8.727,8.727,0,0,1,4.868.641c2.458.947,4.862,2.034,7.309,3.013a31.9,31.9,0,0,0,8.013,2.209,5.056,5.056,0,0,0,4.008-1.14,10.186,10.186,0,0,0,3.485-5.056,5.338,5.338,0,0,0,.049-3.029c-.846-2.426-1.947-4.765-2.964-7.131a1.345,1.345,0,0,0-1.451-.792c-3.534.207-7.069.408-10.6.633a4.387,4.387,0,0,0-3.383,1.22.623.623,0,0,1-.571.034c-1.795-.919-3.577-1.862-5.5-2.869,2.56-2.093,4.6-4.769,8.29-4.767a30.884,30.884,0,0,0,3.766-.454c1.077-.134,1.4-.455,1.529-1.53Z" transform="translate(-65.768 -7.984)" fill="#fad1c3"/>
        <path id="Trazado_618952" data-name="Trazado 618952" d="M534.118,847.248c1.064.347,1.432.237,2.085-.664,1.134-1.566,2.259-3.138,3.418-4.751,2.6,1.844,5.161,3.669,7.734,5.474.452.317.963.552,1.447.824,0,6.716-.015,13.432.014,20.147,0,.755-.213.939-.949.934-4.589-.033-9.177-.016-13.766-.015a5.755,5.755,0,0,0-.991-1.374c-2.6-1.962-5.24-3.864-7.924-5.828.147-.223.273-.43.414-.627q3.92-5.475,7.843-10.948c.665-.93.65-1.263-.038-2.172Z" transform="translate(-211.644 -106.457)" fill="#cfe4fd"/>
        <path id="Trazado_618953" data-name="Trazado 618953" d="M273.063,853.656c.36,1.119.664,1.351,1.9,1.354,3.376.008,6.751,0,10.127,0h1.03a6.376,6.376,0,0,1-.255.676c-2.973,5.631-5.915,11.28-8.94,16.884a6.931,6.931,0,0,1-11.938.684,6.318,6.318,0,0,1-.61-6.568c2.19-4.39,4.565-8.688,6.864-13.023Z" transform="translate(-9.083 -115.617)" fill="#f9e7ef"/>
        <path id="Trazado_618954" data-name="Trazado 618954" d="M298.926,788.925l-1.818.009q2.317-4.433,4.636-8.863c1.734-3.3,3.479-6.592,5.263-9.969l8.982,4.729-.06.195c-.292-.067-.591-.112-.873-.206a12.928,12.928,0,0,0-6.361-.854,5.857,5.857,0,0,0-4.9,4.079,5.671,5.671,0,0,0,1.323,6.366,26.911,26.911,0,0,0,3.531,2.546,3.707,3.707,0,0,1,.783.555c-.257.016-.514.047-.771.047-2.646,0-5.292,0-7.937,0C299.568,787.567,299.273,787.8,298.926,788.925Z" transform="translate(-34.946 -50.885)" fill="#cce0fa"/>
        <path id="Trazado_618955" data-name="Trazado 618955" d="M403.659,767.287q.633-1.215,1.266-2.43c.589-1.136.411-1.729-.7-2.343a3.965,3.965,0,0,1-1.145-.836c2.355-.217,4.709-.457,7.067-.639,1.036-.08,2.083-.06,3.124-.039a.873.873,0,0,1,.667.324c.619,1.277,1.183,2.581,1.815,3.988-2,.151-3.875.293-5.745.432q-.505.037-1.011.063c-1.873.1-3.768.118-5.214,1.693Z" transform="translate(-117.045 -43.819)" fill="#fbc4b2"/>
        <path id="Trazado_618956" data-name="Trazado 618956" d="M406.184,794.568c1.518-.785,2.578-1.94,4.326-1.986,2.72-.072,5.434-.38,8.307-.6-.719,2.041-1.7,3.757-3.627,4.685a3.425,3.425,0,0,1-1.812.019A31.288,31.288,0,0,1,406.184,794.568Z" transform="translate(-119.45 -67.836)" fill="#fbc4b2"/>
        <path id="Trazado_618957" data-name="Trazado 618957" d="M525.825,845.05l-.712,1c-1.058-.444-1.477-.337-2.148.6-2.1,2.916-4.229,5.812-6.263,8.774a1.8,1.8,0,0,1-2.219.9c1.122-1.631,2.222-3.278,3.37-4.89,2.269-3.185,4.564-6.353,6.851-9.525.7-.974,1.414-1.941,2.122-2.911l1.01.846c-.709.995-1.4,1.958-2.082,2.924S525.078,844.162,525.825,845.05Z" transform="translate(-203.352 -104.258)" fill="#fbc4b2"/>
        <path id="Trazado_618958" data-name="Trazado 618958" d="M392.1,860.87a48.933,48.933,0,0,1-2.588,4.255,5.079,5.079,0,0,1-2.108,1.393.9.9,0,0,1-1.3-.87,4.089,4.089,0,0,1,.427-2.055,28.212,28.212,0,0,1,2.339-3.176.974.974,0,0,1,.806-.286C390.463,860.31,391.225,860.594,392.1,860.87Z" transform="translate(-103.894 -120.624)" fill="#fbc4b2"/>
        <path id="Trazado_618959" data-name="Trazado 618959" d="M353.735,756.79l.96-1.862,9.144,4.822-.959,1.858Z" transform="translate(-78.816 -39.13)" fill="#334e7a"/>
        <path id="Trazado_618960" data-name="Trazado 618960" d="M370.389,854.584l1.691.358c-1.483,1.726-2.416,3.758-4.45,4.864Z" transform="translate(-89.581 -116.336)" fill="#fbc4b2"/>
        <path id="Trazado_618961" data-name="Trazado 618961" d="M305.614,791.7c-.7-1.662.819-4.485,2.868-5.434Z" transform="translate(-41.403 -63.406)" fill="#fbc4b2"/>
      </g>
    </g>
    <g id="Grupo_881811" data-name="Grupo 881811" transform="translate(1156 6258.661)">
      <g id="Grupo_875403" data-name="Grupo 875403" transform="translate(0 0)">
        <path id="Trazado_612672" data-name="Trazado 612672" d="M742.946,514.331c15.253-33.089,52.448-49.655,87.048-37.717.7.215,2.633.982,3.358,1.27.627.219,1.584.654,2.2.943l2.177,1c1.036.48,2.151,1.161,3.18,1.679,1.222.651,2.931,1.753,4.117,2.466.595.4,2.339,1.623,2.964,2.049a69.019,69.019,0,0,1,24.933,77.8c-.3.742-.961,2.722-1.273,3.449-.239.552-.714,1.7-.954,2.259-.326.864-1.185,2.489-1.565,3.33-.5,1.034-1.2,2.227-1.738,3.244-.448.822-1.442,2.342-1.91,3.148-.464.623-1.605,2.427-2.086,3.035-.37.471-1.121,1.476-1.492,1.951-1.166,1.488-2.695,3.286-4,4.648-15.532,16.862-39.9,24.888-62.36,20.22a1.93,1.93,0,0,1,.587-3.811,72.6,72.6,0,0,0,18.194-.14c.795-.112,2.6-.435,3.353-.544.635-.153,2.636-.568,3.315-.725,2.373-.6,4.708-1.332,7.022-2.123,1.2-.492,2.482-.95,3.664-1.463.733-.324,2.371-1.111,3.067-1.421a66.411,66.411,0,0,0,13.995-9.36c.971-.8,2.406-2.143,3.317-3.042.454-.4,1.135-1.172,1.566-1.616,22.662-23.692,23.86-61.953,2.557-87-26.347-31.55-75.747-30.837-100.826,1.916a61.294,61.294,0,0,0-8.847,16.028,1.93,1.93,0,1,1-3.562-1.482Z" transform="translate(-742.764 -472.746)" fill="#fda829"/>
      </g>
    </g>
  </g>
</svg>
