<svg xmlns="http://www.w3.org/2000/svg" width="133.722" height="137.678" viewBox="0 0 133.722 137.678">
  <g id="Grupo_883418" data-name="Grupo 883418" transform="translate(-1104 -14238.396)">
    <circle id="Elipse_5212" data-name="Elipse 5212" cx="62.5" cy="62.5" r="62.5" transform="translate(1105 14243)" fill="#148d80"/>
    <g id="Grupo_877830" data-name="Grupo 877830" transform="translate(1019.603 13599.896)">
      <path id="Trazado_617691" data-name="Trazado 617691" d="M188.4,682.455a5.543,5.543,0,0,0-.256.743,12.382,12.382,0,0,1-3.359,6.488c-6.571,6.609-13.128,13.234-19.79,19.75-3.057,2.99-6.715,5.247-10.288,7.571q-9.73,6.331-19.531,12.55a53.423,53.423,0,0,0-10.6,8.731c-1.706,1.826-3.511,3.561-5.3,5.309a4.893,4.893,0,0,1-5.525,1.012,4.971,4.971,0,0,1-1.4-8.146c2.147-2.139,4.231-4.345,6.444-6.413a44.385,44.385,0,0,0,6.986-8.621c3.687-5.751,7.434-11.466,11.049-17.263a96.648,96.648,0,0,1,16.054-19.913c4.324-4.024,8.4-8.311,12.558-12.514a13.557,13.557,0,0,1,7.95-4.161c.056-.008.1-.085.154-.13h3.183c.05.045.1.125.152.13a13.1,13.1,0,0,1,11.135,9.9c.121.5.256.99.384,1.485ZM114.584,742.3a2.4,2.4,0,0,0,3.031-.478c1.474-1.449,2.919-2.929,4.4-4.373a3.777,3.777,0,0,1,.807-.5l-3.258-3.4c-.2-.344-.4-.479-.744-.125-1.644,1.668-3.336,3.29-4.949,4.987A2.449,2.449,0,0,0,114.584,742.3Zm6.819-10.441,3.021,2.858c2.006-1.626,4.01-3.311,6.082-4.909,1.175-.906,2.449-1.688,3.7-2.494q10.356-6.686,20.721-13.357c.232-.149.45-.32.675-.48a9.143,9.143,0,0,0-1.8,0c-1.019.062-1.41-.232-1.661-1.232a1.389,1.389,0,0,1,1.408-1.2,25.245,25.245,0,0,0,4.231-.749c2.164-.65,4.344-1.345,6.016-3.018,6.389-6.394,12.821-12.746,19.154-19.195a10.173,10.173,0,0,0,2.536-10.776,10.627,10.627,0,0,0-14.52-6.532l-.327.15-.284.142a19.316,19.316,0,0,0-2.626,1.867c-6.4,6.34-12.756,12.728-19.138,19.089a8.427,8.427,0,0,0-2.014,3.32,17.37,17.37,0,0,0-1.781,7.281,7.879,7.879,0,0,0,5.472,8.013,1.357,1.357,0,0,1,.971,1.511c-.568.938-.957,1.091-2,.711a9.994,9.994,0,0,1-6.188-6.1,14.049,14.049,0,0,1-.72-4.9q.084-.786.167-1.572a1.99,1.99,0,0,0-.617.65c-2.788,4.314-5.551,8.646-8.37,12.94-3.054,4.652-6.114,9.3-9.272,13.881a36.381,36.381,0,0,1-3.319,3.669Z" fill="#040404"/>
      <path id="Trazado_617692" data-name="Trazado 617692" d="M304.837,680.122a10.627,10.627,0,0,1,14.52,6.532,10.173,10.173,0,0,1-2.536,10.776c-6.333,6.449-12.766,12.8-19.154,19.195-1.672,1.673-3.852,2.367-6.016,3.018a25.24,25.24,0,0,1-4.231.749,1.389,1.389,0,0,0-1.408,1.2l-.9-.1a1.357,1.357,0,0,0-.971-1.511,7.879,7.879,0,0,1-5.472-8.013,17.37,17.37,0,0,1,1.781-7.281,1.941,1.941,0,0,0,.342-.259c.845-1,1.625-2.055,2.533-2.991,2.2-2.267,4.454-4.477,6.687-6.71q6.645-6.645,13.288-13.292c.325-.326.619-.682.928-1.025l.284-.142Zm-3.983,10.632-1.021.943c-.923-.473-1.219-.433-1.938.275-.467.461-.929.927-1.393,1.391q-5.621,5.621-11.243,11.241a6.331,6.331,0,0,0-2.009,5.544,6.507,6.507,0,0,0,11.128,3.733q6.369-6.318,12.692-12.683a1.3,1.3,0,0,0,.213-1.945l1.032-1.041c.244-.061.49-.117.732-.184a6.509,6.509,0,1,0-8.193-7.275Z" transform="translate(-133.873 -9.348)" fill="#ed6862"/>
      <path id="Trazado_617693" data-name="Trazado 617693" d="M193,847.673l.9.1c.251,1,.642,1.294,1.661,1.232a9.148,9.148,0,0,1,1.8,0c-.225.16-.443.331-.675.48q-10.36,6.679-20.721,13.357c-1.249.807-2.523,1.588-3.7,2.494-2.072,1.6-4.077,3.282-6.082,4.909l-3.021-2.858a5.153,5.153,0,0,1,.562-.77,36.907,36.907,0,0,0,5.812-6.809q6.263-9.771,12.564-19.519c.636-.985,1.327-1.934,1.993-2.9a14.05,14.05,0,0,0,.72,4.9,9.993,9.993,0,0,0,6.188,6.1C192.042,848.764,192.431,848.611,193,847.673Z" transform="translate(-41.763 -135.524)" fill="#d7eef9"/>
      <path id="Trazado_617694" data-name="Trazado 617694" d="M133.008,993.864l3.258,3.4a3.777,3.777,0,0,0-.807.5c-1.478,1.445-2.923,2.924-4.4,4.373a2.4,2.4,0,0,1-3.031.478,1.987,1.987,0,0,0-.064-.369,3.715,3.715,0,0,1,.656-4.017C130.014,996.708,131.54,995.313,133.008,993.864Z" transform="translate(-13.448 -260.315)" fill="#64abd5"/>
      <path id="Trazado_617695" data-name="Trazado 617695" d="M182.208,831.193c-.666.966-1.357,1.915-1.993,2.9q-6.294,9.752-12.564,19.519a36.9,36.9,0,0,1-5.812,6.809,5.156,5.156,0,0,0-.562.77l-.48-.429a36.381,36.381,0,0,0,3.319-3.669c3.158-4.581,6.218-9.229,9.272-13.881,2.819-4.294,5.581-8.626,8.37-12.94a1.99,1.99,0,0,1,.617-.65Q182.292,830.407,182.208,831.193Z" transform="translate(-39.874 -129.332)" fill="#d5ebf6"/>
      <path id="Trazado_617696" data-name="Trazado 617696" d="M311.246,685.314c-.309.342-.6.7-.928,1.025q-6.64,6.65-13.288,13.292c-2.233,2.233-4.489,4.443-6.687,6.71-.907.936-1.688,1.994-2.533,2.991a1.939,1.939,0,0,1-.342.259,8.427,8.427,0,0,1,2.014-3.32c6.382-6.361,12.736-12.749,19.138-19.089A19.316,19.316,0,0,1,311.246,685.314Z" transform="translate(-140.893 -14.247)" fill="#df5255"/>
      <path id="Trazado_617697" data-name="Trazado 617697" d="M128.975,992.551c-1.468,1.449-2.994,2.844-4.385,4.364a3.715,3.715,0,0,0-.656,4.017,1.987,1.987,0,0,1,.064.369,2.449,2.449,0,0,1-.716-3.888c1.614-1.7,3.305-3.319,4.949-4.987C128.58,992.072,128.778,992.207,128.975,992.551Z" transform="translate(-9.415 -259.003)" fill="#5196bb"/>
      <path id="Trazado_617698" data-name="Trazado 617698" d="M406.618,683.871l-.327.15Z" transform="translate(-235.655 -13.097)" fill="#df5255"/>
      <path id="Trazado_617699" data-name="Trazado 617699" d="M325.1,747.354a1.3,1.3,0,0,1-.213,1.945q-6.339,6.348-12.692,12.683a6.507,6.507,0,0,1-11.128-3.733,6.331,6.331,0,0,1,2.009-5.544q5.626-5.616,11.243-11.241c.464-.464.925-.93,1.393-1.391.719-.709,1.015-.749,1.938-.276.517.9.478,1.268-.255,2q-2.593,2.6-5.2,5.2c-2.483,2.482-4.974,4.958-7.447,7.45a4.094,4.094,0,1,0,5.813,5.753q6.283-6.256,12.543-12.536C323.861,746.91,324.186,746.864,325.1,747.354Z" transform="translate(-151.686 -57.448)" fill="#010101"/>
      <path id="Trazado_617700" data-name="Trazado 617700" d="M334.589,744.874c-.911-.49-1.235-.444-1.992.312q-6.272,6.267-12.543,12.536a4.094,4.094,0,1,1-5.813-5.753c2.473-2.492,4.964-4.967,7.447-7.45q2.6-2.6,5.2-5.2c.732-.736.772-1.1.255-2l1.021-.943a17.983,17.983,0,0,0,.167,2.621,6.439,6.439,0,0,0,7.294,4.838Zm-16.6,4.881a3.84,3.84,0,0,0-.821.448c-.771.727-1.525,1.473-2.254,2.242a1.182,1.182,0,0,0,.058,1.812q1.344,1.386,2.73,2.73a1.208,1.208,0,0,0,1.92.013q1.063-1.023,2.087-2.088a1.169,1.169,0,0,0,.045-1.809c-.939-.986-1.91-1.945-2.895-2.885A3.733,3.733,0,0,0,317.992,749.755Zm8.528-.048a4.208,4.208,0,0,0-.507-.92c-.9-.949-1.834-1.873-2.774-2.786a1.206,1.206,0,0,0-1.866-.012c-.727.7-1.442,1.411-2.135,2.142a1.156,1.156,0,0,0,.018,1.8q1.393,1.44,2.835,2.833a1.14,1.14,0,0,0,1.746.019c.768-.727,1.514-1.481,2.24-2.25A3.792,3.792,0,0,0,326.519,749.707Zm.705-6.114c.183-.206.355-.384.508-.576a1.174,1.174,0,0,0-.029-1.638,1.21,1.21,0,0,0-1.7-.019,8.925,8.925,0,0,0-.646.635,2.184,2.184,0,0,0-.02,3.18c.357.389.757.74,1.114,1.13,1.473,1.61,3.013,1.219,4.288-.458a1.191,1.191,0,0,0-1.667-1.661c-.238.168-.446.378-.658.559Z" transform="translate(-161.178 -54.968)" fill="#5196bb"/>
      <path id="Trazado_617701" data-name="Trazado 617701" d="M395.7,722.2a6.439,6.439,0,0,1-7.294-4.838,17.988,17.988,0,0,1-.167-2.621,6.517,6.517,0,1,1,8.193,7.275C396.192,722.084,395.946,722.139,395.7,722.2Zm3.054-6.414a4.043,4.043,0,0,0-4.06-4.1,4.092,4.092,0,0,0-4.106,4.077,4.136,4.136,0,0,0,4.121,4.08A4.084,4.084,0,0,0,398.756,715.786Z" transform="translate(-221.26 -33.335)" fill="#040404"/>
      <path id="Trazado_617702" data-name="Trazado 617702" d="M324.363,802.45a3.733,3.733,0,0,1,.87.463c.985.941,1.955,1.9,2.895,2.885a1.169,1.169,0,0,1-.045,1.809q-1.022,1.065-2.087,2.088a1.208,1.208,0,0,1-1.92-.013q-1.382-1.347-2.73-2.73a1.182,1.182,0,0,1-.057-1.812c.729-.769,1.483-1.515,2.254-2.242A3.836,3.836,0,0,1,324.363,802.45Zm-.028,3.033-.361.44,1.1,1.268.482-.506Z" transform="translate(-167.55 -107.663)" fill="#040404"/>
      <path id="Trazado_617703" data-name="Trazado 617703" d="M349.8,785.855a3.79,3.79,0,0,1-.445.825c-.726.77-1.471,1.523-2.24,2.25a1.14,1.14,0,0,1-1.746-.019q-1.442-1.391-2.835-2.833a1.156,1.156,0,0,1-.018-1.8c.694-.731,1.408-1.444,2.135-2.142a1.206,1.206,0,0,1,1.866.012c.941.913,1.871,1.837,2.774,2.786A4.206,4.206,0,0,1,349.8,785.855Zm-3.035.021-1.18-1.252-.575.6c.326.3.6.554.878.807.11.1.224.2.366.32Z" transform="translate(-184.457 -91.116)" fill="#010101"/>
      <path id="Trazado_617704" data-name="Trazado 617704" d="M373.527,761.9l1.191,1.153c.211-.181.42-.391.658-.559a1.191,1.191,0,0,1,1.667,1.661c-1.276,1.678-2.815,2.068-4.288.458-.357-.39-.756-.74-1.114-1.13a2.184,2.184,0,0,1,.02-3.18,8.926,8.926,0,0,1,.646-.635,1.21,1.21,0,0,1,1.7.019,1.174,1.174,0,0,1,.029,1.638C373.882,761.512,373.71,761.689,373.527,761.9Z" transform="translate(-207.481 -73.271)" fill="#040404"/>
      <path id="Trazado_617705" data-name="Trazado 617705" d="M408.008,725.389a4.084,4.084,0,0,1-4.045,4.058,4.136,4.136,0,0,1-4.121-4.08,4.092,4.092,0,0,1,4.106-4.077A4.043,4.043,0,0,1,408.008,725.389Zm-2.409-.026a1.632,1.632,0,0,0-1.663-1.666,1.675,1.675,0,0,0-1.686,1.662,1.725,1.725,0,0,0,1.682,1.687A1.675,1.675,0,0,0,405.6,725.364Z" transform="translate(-230.511 -42.939)" fill="#d5ebf6"/>
      <path id="Trazado_617706" data-name="Trazado 617706" d="M336.47,817.426l1.217,1.2-.482.506-1.1-1.268Z" transform="translate(-179.685 -119.606)" fill="#5196bb"/>
      <path id="Trazado_617707" data-name="Trazado 617707" d="M358.241,797.388l-.511.48c-.143-.124-.257-.22-.366-.32-.277-.253-.553-.508-.878-.807l.575-.6Z" transform="translate(-195.935 -102.628)" fill="#5196bb"/>
      <path id="Trazado_617708" data-name="Trazado 617708" d="M415.085,734.84a1.675,1.675,0,0,1-1.666,1.682,1.725,1.725,0,0,1-1.682-1.687,1.675,1.675,0,0,1,1.686-1.662A1.632,1.632,0,0,1,415.085,734.84Z" transform="translate(-239.998 -52.415)" fill="#040404"/>
    </g>
    <g id="Grupo_881803" data-name="Grupo 881803" transform="translate(1104 14238.396)">
      <g id="Grupo_875403" data-name="Grupo 875403" transform="translate(0 0)">
        <path id="Trazado_612672" data-name="Trazado 612672" d="M742.946,514.331c15.253-33.089,52.448-49.655,87.048-37.717.7.215,2.633.982,3.358,1.27.627.219,1.584.654,2.2.943l2.177,1c1.036.48,2.151,1.161,3.18,1.679,1.222.651,2.931,1.753,4.117,2.466.595.4,2.339,1.623,2.964,2.049a69.019,69.019,0,0,1,24.933,77.8c-.3.742-.961,2.722-1.273,3.449-.239.552-.714,1.7-.954,2.259-.326.864-1.185,2.489-1.565,3.33-.5,1.034-1.2,2.227-1.738,3.244-.448.822-1.442,2.342-1.91,3.148-.464.623-1.605,2.427-2.086,3.035-.37.471-1.121,1.476-1.492,1.951-1.166,1.488-2.695,3.286-4,4.648-15.532,16.862-39.9,24.888-62.36,20.22a1.93,1.93,0,0,1,.587-3.811,72.6,72.6,0,0,0,18.194-.14c.795-.112,2.6-.435,3.353-.544.635-.153,2.636-.568,3.315-.725,2.373-.6,4.708-1.332,7.022-2.123,1.2-.492,2.482-.95,3.664-1.463.733-.324,2.371-1.111,3.067-1.421a66.411,66.411,0,0,0,13.995-9.36c.971-.8,2.406-2.143,3.317-3.042.454-.4,1.135-1.172,1.566-1.616,22.662-23.692,23.86-61.953,2.557-87-26.347-31.55-75.747-30.837-100.826,1.916a61.294,61.294,0,0,0-8.847,16.028,1.93,1.93,0,1,1-3.562-1.482Z" transform="translate(-742.764 -472.746)" fill="#fda829"/>
      </g>
    </g>
  </g>
</svg>
