<svg xmlns="http://www.w3.org/2000/svg" width="1081" height="657.949" viewBox="0 0 1081 657.949">
  <g id="Grupo_883425" data-name="Grupo 883425" transform="translate(-260 -15343.986)">
    <g id="Grupo_877849" data-name="Grupo 877849" transform="translate(866.316 15016.615)">
      <path id="Trazado_617887" data-name="Trazado 617887" d="M275.636,867.449c.363.131.725.264,1.089.393a5.761,5.761,0,0,1,3.839,6.421c-1.114,7.939-2.288,15.869-3.442,23.8-1.164,8.008-2.34,16.014-3.479,24.025a3.093,3.093,0,0,0,.222,1.622c1.172,2.6,2.424,5.168,3.61,7.764a1.019,1.019,0,0,0,1.187.7,6.107,6.107,0,0,1,6.036,3.349,6.967,6.967,0,0,0,1.754,2.164,3.742,3.742,0,0,0,2.349.7,20.455,20.455,0,0,1,10.634,1.849c1.1.5,1.289,1.072.964,2.531a2.054,2.054,0,0,1-2.644.451,16.069,16.069,0,0,0-9.012-1.368,4.831,4.831,0,0,1-4.089-1.218,24.634,24.634,0,0,1-2.955-3.513c-1.144-1.575-2.335-1.98-4.071-1.166q-4.691,2.2-9.373,4.417c-1.928.917-2.354,2.069-1.436,4.028,3.527,7.522,7.013,15.065,10.638,22.539a23.125,23.125,0,0,0,11.622,11.518c5.5,2.424,10.779,1.973,15.64-1.687a15.289,15.289,0,0,0,6.427-14.565,24.086,24.086,0,0,0-7.276-14.794c-.852-.857-1.216-1.7-.48-2.783,1.2-.764,1.782-.739,2.774.259a27.887,27.887,0,0,1,8.469,17.941c.737,9.567-6.886,19.008-16.306,20.287-.118.016-.221.138-.331.21h-4.743c-.111-.076-.213-.2-.334-.222a24.122,24.122,0,0,1-16.271-10.986,87.645,87.645,0,0,1-5.31-10.177c-2.62-5.411-5.14-10.872-7.691-16.317-.852-1.817-1.182-3.646-.029-5.493a1,1,0,0,0,.047-.8,47.786,47.786,0,0,0-2.384-5.226c-1.315-2.248-2.77-2.29-4.268-.072a3.644,3.644,0,0,0-.21.4c-.729,1.443-1.5,2.867-2.16,4.341a1.9,1.9,0,0,0,.011,1.4,6,6,0,0,1,.087,5.244c-3.709,7.89-7.293,15.844-11.212,23.629a25.526,25.526,0,0,1-15.738,13.506c-1.048.321-2.134.52-3.2.774h-4.743c-.59-.173-1.174-.367-1.77-.518-8.957-2.257-15.514-11.549-14.307-20.753,1.38-10.521,6.728-18.29,16.679-22.48a17,17,0,0,1,9.185-1.12,2.605,2.605,0,0,0,2.429-.9,13.967,13.967,0,0,0,1.674-2.253c1.4-2.371,3.177-3.912,6.17-3.182a.894.894,0,0,0,.74-.409q2.018-4.157,3.948-8.357a2.3,2.3,0,0,0,.073-1.21q-1.716-11.966-3.461-23.928c-.081-.559-.183-1.115-.248-1.676a1.686,1.686,0,0,1,1.382-1.995,1.574,1.574,0,0,1,1.939,1.407c.479,2.974.9,5.958,1.329,8.939,1.061,7.3,2.09,14.612,3.19,21.911.442,2.938,2.294,3.905,5.309,2.963a15.246,15.246,0,0,1,3.67-.961,6.781,6.781,0,0,1,6.775,4.142c.708,1.44,1.327,2.923,2.017,4.451l8.137-3.85c-2.279-4.842-4.513-9.592-6.747-14.341L246.221,873c-.817-1.737-1.732-2.367-3.043-2.1a2.47,2.47,0,0,0-2.06,3c.376,2.8.81,5.59,1.221,8.384.317,2.161.644,4.32.947,6.483a1.711,1.711,0,0,1-1.328,2.04,1.629,1.629,0,0,1-2.019-1.462c-.764-5.1-1.563-10.2-2.213-15.317a5.633,5.633,0,0,1,3.849-6.2,4.429,4.429,0,0,0,.632-.383h2.485c2.583.66,3.925,2.513,4.984,4.834,2.927,6.42,5.983,12.78,8.991,19.161.131.279.293.544.506.933.239-.482.409-.81.566-1.144,2.827-6.011,5.691-12,8.458-18.043,1.111-2.424,2.263-4.726,4.955-5.741ZM227.4,941.719l-.054-.282a38.967,38.967,0,0,0-5.56,1.287c-7.66,2.962-12.032,8.873-14.131,16.587-1.353,4.974-.778,9.739,2.517,13.9,3.428,4.333,7.741,7.057,13.469,6.658,4.741-.329,8.655-2.571,12.038-5.809a26.317,26.317,0,0,0,5.569-7.889q5.105-10.811,10.178-21.636c.875-1.864.6-3.18-.966-3.948q-5.11-2.5-10.29-4.852a2.447,2.447,0,0,0-3.326,1.022c-.377.562-.688,1.17-1.086,1.714-1.762,2.409-3.941,3.918-7.118,3.255A6.188,6.188,0,0,0,227.4,941.719ZM270.732,917.1l.21-.05c.3-2.121.594-4.244.9-6.363q2.665-18.267,5.334-36.533c.247-1.693-.361-2.753-1.786-3.192-1.341-.413-2.438.137-3.149,1.646q-5.453,11.574-10.861,23.169a1.99,1.99,0,0,0,.026,1.437c.621,1.49,1.344,2.938,2.032,4.4Q267.086,909.354,270.732,917.1Zm-17.273,16.382c-3.755.354-6.33-1.06-7.7-4.611l-2.187,4.69,7.966,3.754C252.188,936.02,252.783,934.83,253.459,933.479Z" transform="translate(0)" fill="#040404"/>
      <path id="Trazado_617888" data-name="Trazado 617888" d="M284.632,946.335A5.279,5.279,0,1,1,289.876,941,5.3,5.3,0,0,1,284.632,946.335Zm-.041-7.139a1.861,1.861,0,1,0,1.88,1.859A1.891,1.891,0,0,0,284.591,939.2Z" transform="translate(-24.395 -22.028)" fill="#040404"/>
      <path id="Trazado_617889" data-name="Trazado 617889" d="M333.236,977.019c-.735,1.084-.371,1.926.48,2.783a24.086,24.086,0,0,1,7.276,14.794,15.289,15.289,0,0,1-6.427,14.565c-4.86,3.66-10.135,4.111-15.64,1.687A23.125,23.125,0,0,1,307.3,999.329c-3.625-7.475-7.111-15.017-10.638-22.539-.918-1.958-.492-3.111,1.436-4.028q4.68-2.224,9.373-4.417c1.736-.814,2.927-.409,4.071,1.166a24.632,24.632,0,0,0,2.955,3.513,4.831,4.831,0,0,0,4.089,1.218,16.069,16.069,0,0,1,9.012,1.368,2.054,2.054,0,0,0,2.644-.451Zm-19.02,15.427a13.238,13.238,0,0,0,6.892,11.3c5.264,2.943,11,.328,12.34-5.518a13.575,13.575,0,0,0-6.9-14.549c-2.887-1.414-5.8-1.554-8.553.341S314.317,988.744,314.216,992.446Z" transform="translate(-29.845 -32.396)" fill="#fda2b8"/>
      <path id="Trazado_617890" data-name="Trazado 617890" d="M228.986,974.072a6.193,6.193,0,0,1,1.239.011c3.177.663,5.355-.846,7.118-3.255.4-.545.709-1.153,1.086-1.714a2.447,2.447,0,0,1,3.326-1.022q5.174,2.362,10.29,4.852c1.569.768,1.841,2.084.966,3.948q-5.082,10.821-10.178,21.636a26.316,26.316,0,0,1-5.569,7.889c-3.383,3.238-7.3,5.48-12.038,5.809-5.728.4-10.041-2.325-13.469-6.658-3.295-4.165-3.87-8.93-2.517-13.9,2.1-7.713,6.471-13.625,14.131-16.587a38.957,38.957,0,0,1,5.56-1.287Zm6.572,17.98c-.12-.93-.166-1.877-.371-2.788a8.067,8.067,0,0,0-10.838-6.141c-6.119,2.127-9.9,10.076-7.712,16.208a7.985,7.985,0,0,0,10.733,4.983C232.007,1002.581,235.446,997.384,235.558,992.051Z" transform="translate(-1.59 -32.353)" fill="#fc7f9c"/>
      <path id="Trazado_617891" data-name="Trazado 617891" d="M298.154,918.7q-3.645-7.744-7.29-15.487c-.688-1.462-1.411-2.91-2.032-4.4a1.99,1.99,0,0,1-.026-1.437q5.391-11.6,10.861-23.169c.711-1.509,1.808-2.059,3.149-1.646,1.424.438,2.032,1.5,1.785,3.192q-2.662,18.267-5.334,36.533c-.309,2.12-.6,4.243-.9,6.363Z" transform="translate(-27.422 -1.606)" fill="#c4c3c8"/>
      <path id="Trazado_617892" data-name="Trazado 617892" d="M272.466,962.7c-.676,1.351-1.272,2.541-1.92,3.833l-7.966-3.754,2.187-4.69C266.135,961.64,268.71,963.054,272.466,962.7Z" transform="translate(-19.006 -29.221)" fill="#c4c3c8"/>
      <path id="Trazado_617893" data-name="Trazado 617893" d="M286.229,940.822a1.892,1.892,0,0,1,1.88,1.859,1.867,1.867,0,1,1-1.88-1.859Z" transform="translate(-26.033 -23.655)" fill="#c4c3c8"/>
      <path id="Trazado_617894" data-name="Trazado 617894" d="M322.787,999.428c.1-3.7,1.032-6.525,3.783-8.422s5.666-1.755,8.553-.341a13.575,13.575,0,0,1,6.9,14.549c-1.338,5.846-7.076,8.461-12.34,5.518A13.238,13.238,0,0,1,322.787,999.428Zm16.148,2.9c-.311-3.665-1.864-6.841-5.407-8.71a4.729,4.729,0,0,0-7.054,3.2,10.3,10.3,0,0,0,4.07,10.531c3.751,2.563,7.567.932,8.287-3.548C338.9,1003.393,338.892,1002.974,338.935,1002.329Z" transform="translate(-38.416 -39.378)" fill="#040303"/>
      <path id="Trazado_617895" data-name="Trazado 617895" d="M239.1,999.095c-.112,5.333-3.551,10.529-8.189,12.262a7.985,7.985,0,0,1-10.733-4.983c-2.189-6.132,1.593-14.081,7.712-16.208a8.067,8.067,0,0,1,10.838,6.141C238.937,997.218,238.983,998.165,239.1,999.095Zm-3.437.018c-.131-2.36-.537-4.574-2.967-5.658-2.279-1.017-4.741-.339-6.7,1.8a10.539,10.539,0,0,0-3.027,7.887c.111,2.084.79,3.962,2.8,4.949,2.05,1.006,3.983.424,5.7-.859A10.379,10.379,0,0,0,235.666,999.113Z" transform="translate(-5.135 -39.396)" fill="#040303"/>
    </g>
    <g id="Grupo_877850" data-name="Grupo 877850" transform="translate(170 14696.429)">
      <path id="Trazado_617896" data-name="Trazado 617896" d="M170.127,832.692a11.383,11.383,0,0,1-7.329,2.254c-14.44-.047-28.881-.091-43.32.013-5.541.04-9.317-3.484-10.236-7.522a1.4,1.4,0,0,0-.242-.384v-7.265q4.2-6.083,8.4-12.167,6.068-8.841,12.1-17.7a2.457,2.457,0,0,0,.467-1.267c.029-7.025.02-14.049.019-21.074,0-.131-.021-.261-.032-.385-3.38-.555-4.809-2.26-4.81-5.705,0-1.308,0-2.616,0-3.988H157.3a43.759,43.759,0,0,1-.054,5.83c-.3,2.24-2.076,3.533-4.622,3.82v17.716c-.011,1.307-.032,2.614-.022,3.92a1.4,1.4,0,0,0,.214.743q4.643,6.79,9.312,13.563c3.049,4.479,5.985,9.04,9.191,13.4a11.369,11.369,0,0,1,2.329,7.478C173.555,827.411,172.675,830.337,170.127,832.692ZM143.1,802.6h14.73c-2.716-3.971-5.353-7.8-7.943-11.654a3.407,3.407,0,0,1-.5-1.654c-.078-1.473-.044-2.951-.054-4.428V767.08h-9.592v-3.188h1.059c3.833,0,7.666.006,11.5,0,1.31,0,1.887-.6,1.909-1.915.007-.422,0-.845,0-1.253H128.418c-.17,2.847.129,3.172,2.872,3.172h5.1v3.26h-3.174v1.074c0,7.061.009,14.121-.02,21.182a2.841,2.841,0,0,1-.452,1.471c-1.462,2.213-2.981,4.387-4.478,6.576q-1.724,2.52-3.447,5.048c.123.069.174.124.226.124Q134.071,802.617,143.1,802.6Zm26.275,16.972c-.152-.258-.289-.526-.458-.772-2.767-4.045-5.552-8.077-8.293-12.139a1.621,1.621,0,0,0-1.548-.806q-16.431.037-32.863.019c-1.208,0-2.625-.369-3.567.137-.979.526-1.516,1.9-2.213,2.919q-3.624,5.314-7.225,10.644a3.039,3.039,0,0,0-.99,2.6c.08.8.015,1.611.014,2.417,0,4.5,2.609,7.105,7.127,7.105H163.2c.37,0,.739,0,1.109-.013a6.5,6.5,0,0,0,5.814-4.943c.216-1.468.111-2.98.232-4.466A3.145,3.145,0,0,0,169.372,819.572Z" transform="translate(0 -70.156)" fill="#010101"/>
      <path id="Trazado_617897" data-name="Trazado 617897" d="M321.356,661.449c0,1.58.016,3.16,0,4.74a4.863,4.863,0,0,1-2.65,4.431,1.139,1.139,0,0,0-.55.775q-.043,12.352-.024,24.69a35.533,35.533,0,0,1-13.771,68.623v-1.551c.032-.523.064-1.046.092-1.525.1-.053.129-.08.158-.082q.3-.012.6-.015a31.9,31.9,0,0,0,22.169-8.848,29.971,29.971,0,0,0,7.336-10.5l1.225-3.233.818-3.229.523-3.244.187-3.231-.187-3.222a30.664,30.664,0,0,0-2.519-9.734H285.807v-3.143h47.3c-.163-.322-.258-.549-.385-.757a31.49,31.49,0,0,0-16.812-13.584,1.294,1.294,0,0,1-1.028-1.485c.031-8.374.019-16.749.019-25.123v-1.063h-9.645v-3.231h10.2c.3,0,.606.013.908-.006,1.244-.075,1.741-.595,1.763-1.838.008-.43,0-.861,0-1.338H292.3c0,.509-.019,1,0,1.5a1.608,1.608,0,0,0,1.735,1.679c.773.023,1.547.005,2.321.005h2.348v3.215h-3.18v1.157c0,8.374-.015,16.749.023,25.123,0,.829-.285,1.091-1.007,1.4-2.633,1.145-5.212,2.414-7.941,3.7l-1.8-2.555c2.271-1.172,4.435-2.349,6.659-3.4a1.229,1.229,0,0,0,.849-1.331q-.033-11.7,0-23.408a1.249,1.249,0,0,0-.735-1.321,4.6,4.6,0,0,1-2.5-4.2c-.031-1.614-.008-3.229-.008-4.843Z" transform="translate(-128.41)" fill="#010101"/>
      <path id="Trazado_617898" data-name="Trazado 617898" d="M226.029,661.449c.52.164,1.048.308,1.56.495a8.072,8.072,0,0,1-3.273,15.635,8.078,8.078,0,0,1-1.408-15.914,3.4,3.4,0,0,0,.5-.215Zm-1.19,3.231a4.842,4.842,0,1,0,4.822,4.916A4.859,4.859,0,0,0,224.839,664.68Z" transform="translate(-78.688)" fill="#030304"/>
      <path id="Trazado_617899" data-name="Trazado 617899" d="M327.178,873.552q-.093,1.616-.187,3.231L314.3,876.8h-3.233l-3.243.181q-12.8,0-25.6.017a16.2,16.2,0,0,0-1.981.241q-4.66-6.779-9.312-13.563a1.4,1.4,0,0,1-.214-.743c-.011-1.307.011-2.613.022-3.92h4.776V860.6h48.954a30.666,30.666,0,0,1,2.519,9.734h-9.376v3.222Z" transform="translate(-118.121 -144.303)" fill="#b1e1e4"/>
      <path id="Trazado_617900" data-name="Trazado 617900" d="M190.546,714.172a4.839,4.839,0,1,1-4.829-4.8A4.86,4.86,0,0,1,190.546,714.172Zm-4.853-1.572a1.615,1.615,0,1,0,1.63,1.573A1.619,1.619,0,0,0,185.693,712.6Z" transform="translate(-52.493 -35.005)" fill="#030304"/>
      <path id="Trazado_617901" data-name="Trazado 617901" d="M232.118,736.7h-3.084v-3.12h3.084Z" transform="translate(-87.675 -52.683)" fill="#010101"/>
      <path id="Trazado_617902" data-name="Trazado 617902" d="M336.882,924.99h3.233v3.229h12.17l-.818,3.229h-14.49v3.234h13.265a29.971,29.971,0,0,1-7.336,10.5,31.9,31.9,0,0,1-22.169,8.848q-.3,0-.6.015c-.029,0-.057.028-.158.082-.029.479-.061,1-.092,1.525l-5.82-.622c2.548-2.355,3.428-5.281,3.519-8.721a11.369,11.369,0,0,0-2.329-7.478c-3.207-4.362-6.143-8.924-9.191-13.4a16.214,16.214,0,0,1,1.981-.241q12.8-.028,25.6-.017c.006.233.017.466.018.7.011,2.521.009,2.505,2.553,2.344.533-.034.691-.232.677-.726C336.865,926.656,336.882,925.823,336.882,924.99Z" transform="translate(-143.938 -192.494)" fill="#d1d9e3"/>
      <path id="Trazado_617903" data-name="Trazado 617903" d="M178.034,987.756a3.145,3.145,0,0,1,.986,2.7c-.122,1.485-.016,3-.232,4.466a6.5,6.5,0,0,1-5.814,4.943c-.369.013-.739.013-1.109.013H128.018c-4.518,0-7.127-2.6-7.127-7.105,0-.806.066-1.619-.014-2.417a3.038,3.038,0,0,1,.99-2.6l8.691.009v2.351h3.266v-2.351Zm-28.163,5.615v-3.107h-3.054v3.107Zm18.739-3.128v3.092h3.055v-3.092Z" transform="translate(-8.662 -238.34)" fill="#e5bbe4"/>
      <path id="Trazado_617904" data-name="Trazado 617904" d="M180.766,950.289l-44.21.01c.05-.571-.136-.874-.784-.816a9.429,9.429,0,0,1-1.7,0c-.648-.058-.834.245-.784.816l-8.691-.009q3.611-5.323,7.225-10.644c.7-1.023,1.235-2.392,2.213-2.919.941-.507,2.359-.137,3.567-.137q16.432,0,32.863-.019a1.621,1.621,0,0,1,1.548.806c2.741,4.062,5.526,8.095,8.293,12.139C180.476,949.763,180.614,950.031,180.766,950.289Zm-37.824-10.383h-3.091v3.058h3.091Zm22.57,6.3v-3.094h-3.08v3.094Z" transform="translate(-11.394 -200.872)" fill="#cfb3de"/>
      <path id="Trazado_617905" data-name="Trazado 617905" d="M185.955,811.328q-9.027.015-18.052.027c-.052,0-.1-.055-.226-.124q1.727-2.53,3.447-5.048c1.5-2.189,3.017-4.363,4.478-6.576a2.841,2.841,0,0,0,.452-1.471c.029-7.061.02-14.121.02-21.182v-1.074h3.174v-3.26h-5.1c-2.742,0-3.042-.325-2.872-3.172h25.783c0,.408.006.831,0,1.253-.022,1.315-.6,1.912-1.909,1.915-3.833.01-7.666,0-11.5,0h-1.059v3.188h9.592v17.785c-.807,0-1.615.027-2.421,0a.9.9,0,0,0-1.051.682c-.476,1.395-1.027,2.764-1.547,4.144H184.2v3.294h2.156A31.255,31.255,0,0,0,185.955,811.328Zm-1.745-28.993v3.135h3.1v-3.135Zm-3.246,9.689v3.149H184.1v-3.149Zm-.075,12.935h-3.15v3.124h3.15Z" transform="translate(-42.858 -78.883)" fill="#fefefe"/>
      <path id="Trazado_617906" data-name="Trazado 617906" d="M234.9,876.743a31.254,31.254,0,0,1,.4-9.617l1.115-.086-.307-3.208c.521-1.38,1.071-2.749,1.547-4.143a.9.9,0,0,1,1.051-.682c.806.028,1.614,0,2.421,0,.011,1.476-.023,2.955.054,4.428a3.405,3.405,0,0,0,.5,1.654c2.59,3.858,5.228,7.684,7.943,11.654Z" transform="translate(-91.804 -144.298)" fill="#b1e1e4"/>
      <path id="Trazado_617907" data-name="Trazado 617907" d="M434,952.175H420.737v-3.234h14.49Z" transform="translate(-227.697 -209.989)" fill="#fefefe"/>
      <path id="Trazado_617908" data-name="Trazado 617908" d="M444.547,928.175h-12.17v-3.229l12.692-.016Z" transform="translate(-236.2 -192.451)" fill="#fefefe"/>
      <path id="Trazado_617909" data-name="Trazado 617909" d="M454.243,904.215h-9.562v-3.222h9.376Z" transform="translate(-245.187 -174.967)" fill="#fdfdfd"/>
      <path id="Trazado_617910" data-name="Trazado 617910" d="M233.623,673.436a4.842,4.842,0,1,1-4.866,4.767A4.861,4.861,0,0,1,233.623,673.436Z" transform="translate(-87.472 -8.755)" fill="#d1d9e3"/>
      <path id="Trazado_617911" data-name="Trazado 617911" d="M411.6,924.991c0,.832-.017,1.665.006,2.5.013.494-.145.693-.677.726-2.544.161-2.542.178-2.553-2.344,0-.233-.011-.466-.018-.7Z" transform="translate(-218.654 -192.495)" fill="#fefefe"/>
      <path id="Trazado_617912" data-name="Trazado 617912" d="M194.434,721.339a1.615,1.615,0,1,1-1.6,1.606A1.62,1.62,0,0,1,194.434,721.339Z" transform="translate(-61.234 -43.744)" fill="#d1d9e3"/>
      <path id="Trazado_617913" data-name="Trazado 617913" d="M156.817,985.565c-.05-.571.136-.874.784-.816a9.429,9.429,0,0,0,1.7,0c.648-.058.834.245.784.816v2.351h-3.265Z" transform="translate(-34.921 -236.139)" fill="#fefefe"/>
      <path id="Trazado_617914" data-name="Trazado 617914" d="M220.2,1000.164h-3.054v-3.108H220.2Z" transform="translate(-78.992 -245.133)" fill="#fefefe"/>
      <path id="Trazado_617915" data-name="Trazado 617915" d="M297.987,996.981h3.055v3.092h-3.055Z" transform="translate(-138.039 -245.078)" fill="#fefefe"/>
      <path id="Trazado_617916" data-name="Trazado 617916" d="M184.267,949.243V952.3h-3.091v-3.058Z" transform="translate(-52.718 -210.209)" fill="#fefefe"/>
      <path id="Trazado_617917" data-name="Trazado 617917" d="M268.019,964.241h-3.08v-3.094h3.08Z" transform="translate(-113.9 -218.904)" fill="#fefefe"/>
      <path id="Trazado_617918" data-name="Trazado 617918" d="M229.007,817.253h3.1v3.135h-3.1Z" transform="translate(-87.655 -113.802)" fill="#010101"/>
      <path id="Trazado_617919" data-name="Trazado 617919" d="M216.967,853.192H220.1v3.149h-3.133Z" transform="translate(-78.861 -140.052)" fill="#010101"/>
      <path id="Trazado_617920" data-name="Trazado 617920" d="M231.937,876.91l.307,3.208-1.115.086h-2.156V876.91Z" transform="translate(-87.63 -157.376)" fill="#010101"/>
      <path id="Trazado_617921" data-name="Trazado 617921" d="M208.156,901.175V904.3h-3.15v-3.124Z" transform="translate(-70.124 -175.1)" fill="#010101"/>
    </g>
    <g id="Grupo_877851" data-name="Grupo 877851" transform="translate(443.145 14727.551)">
      <path id="Trazado_617922" data-name="Trazado 617922" d="M205.871,695.8a1.983,1.983,0,0,1-1.391-2.491q1.6-10.82,3.174-21.645c.068-.464.118-.93.189-1.5q-1.707-.878-3.414-1.755-23.364-11.944-46.74-23.865a2.916,2.916,0,0,1-1.833-3.031c.09-4.2.061-8.4.011-12.6a2.532,2.532,0,0,1,1.2-2.462h1.179c4.629,2.364,9.25,4.744,13.888,7.091q25.259,12.777,50.538,25.517a3.231,3.231,0,0,1,1.908,2.924c.8,7.689,1.694,15.368,2.6,23.046a2.044,2.044,0,0,1-1.288,2.453c-1.465-.032-1.986-.43-2.2-1.858-.307-2-.549-4.012-.818-6.015h-4.561l.421,2.507q1.3,8.966,2.6,17.932c1.37,9.354,2.765,18.7,4.121,28.059.508,3.5,1.045,6.978,3.062,10.026a11.7,11.7,0,0,0,16.277,3.626,4.175,4.175,0,0,0,.627-.283,12.47,12.47,0,0,0,5.123-13.358,11.56,11.56,0,0,0-5.724-7.636,12.164,12.164,0,0,0-13.346.226c-1.4.9-1.991.846-3.166-.306q-1.69-12.774-3.381-25.547c-.207-1.562.03-1.994,1.477-2.624,1.347.084,1.871.9,2.032,2.149.72,5.6,1.47,11.2,2.212,16.8.236,1.784.48,3.567.735,5.458a17.253,17.253,0,0,1,7.48-1.565,16.037,16.037,0,0,1,2.028,31.881c-.122.018-.228.146-.342.223h-4.716c-1.2-.42-2.433-.747-3.578-1.275-5.166-2.383-8.051-6.641-9.328-12-.743-3.12-1.1-6.335-1.572-9.515q-1.983-13.272-3.921-26.551-.518-3.509-1.046-7.016a14.321,14.321,0,0,0-.732,3.158q-1.939,13.16-3.878,26.32c-.677,4.539-1.13,9.136-2.186,13.587-1.54,6.492-5.308,11.2-12.1,12.92-.427.108-.845.246-1.268.37h-4.48c-.654-.2-1.3-.411-1.961-.6a16.059,16.059,0,1,1,10.453-30.311c.249.1.5.2.872.341.5-3.4.991-6.716,1.475-10.032.181-1.242.368-2.484.516-3.73a2.062,2.062,0,0,1,2.091-2.1,2.041,2.041,0,0,1,1.442,2.564c-.791,5.232-1.638,10.46-2.247,15.714-.237,2.046-1.795,2.766-3.541,1.6a12.346,12.346,0,0,0-16.415,2.577,12.483,12.483,0,0,0,.718,16.626c4.289,4.437,11.354,5.1,15.808,1.481a3.9,3.9,0,0,0,.588-.354,14.2,14.2,0,0,0,4.8-8.551c1.049-6.222,1.917-12.476,2.844-18.718q1.969-13.262,3.911-26.527c.442-3.022.835-6.051,1.251-9.077.592-1.927.825-2.09,2.892-2.1,1.166,0,2.332-.032,3.5-.048h1.689c-.047-.613-.075-1.15-.131-1.684-.355-3.417-.8-6.828-1.034-10.253-.1-1.428-.588-2.253-1.949-2.579-.376-.21-.744-.434-1.128-.628q-25.384-12.833-50.769-25.662c-2.613-1.32-5.223-2.645-7.976-4.04a10.067,10.067,0,0,1-.014,1.641c-.221,1.216.375,1.755,1.407,2.28q25.087,12.768,50.134,25.615c1.506.77,1.726,1.215,1.478,2.9Q210.216,678.667,208,693.8C207.8,695.226,207.348,695.654,205.871,695.8Zm-46.445-57.543c0,.9.044,1.564-.012,2.22a1.285,1.285,0,0,0,.888,1.413q23.54,11.987,47.053,24.027c.322.165.659.3,1.033.471a10.733,10.733,0,0,1,.22-1.2c.376-1.2.005-1.838-1.178-2.437q-20.521-10.4-40.981-20.915C164.186,640.674,161.919,639.525,159.426,638.256Z" fill="#030303"/>
      <path id="Trazado_617923" data-name="Trazado 617923" d="M428.8,864.513c-1.447.629-1.684,1.062-1.477,2.624q1.693,12.773,3.381,25.547l-1.108.58a5.733,5.733,0,0,1-.766-1.566c-.392-2.7-.669-5.412-1.033-8.114-.588-4.36-1.234-8.712-1.817-13.073-.588-4.4-1.107-8.81-1.7-13.21-.281-2.079-1.177-2.852-3.146-2.9l-.421-2.507h4.561c.269,2,.511,4.014.818,6.015.219,1.428.74,1.826,2.2,1.858Z" transform="translate(-202.402 -172.285)" fill="#a0a8b5"/>
      <path id="Trazado_617924" data-name="Trazado 617924" d="M232.1,690.969c-1.166.017-2.332.043-3.5.048-2.066.008-2.3.171-2.892,2.1-1.142.04-1.418.967-1.569,1.775-.4,2.146-.669,4.318-.988,6.481q-.888,6.022-1.774,12.045-.771,5.27-1.532,10.543-.762,5.213-1.533,10.424c-.508,3.436-1.036,6.869-1.525,10.307a22.411,22.411,0,0,1-2.819,8.995c-.554.885-1.1,1.772-1.654,2.659-4.453,3.619-11.519,2.957-15.808-1.48a12.483,12.483,0,0,1-.718-16.626,12.346,12.346,0,0,1,16.415-2.577c1.747,1.164,3.3.444,3.541-1.6.609-5.254,1.456-10.482,2.247-15.714a2.041,2.041,0,0,0-1.442-2.564l.7-4.945c1.477-.145,1.925-.573,2.132-1.995q2.211-15.138,4.429-30.275c.248-1.69.028-2.134-1.478-2.9q-25.06-12.821-50.134-25.615c-1.033-.526-1.629-1.064-1.407-2.28a10.067,10.067,0,0,0,.014-1.641c2.753,1.394,5.363,2.719,7.976,4.04q25.385,12.83,50.769,25.662c.384.194.752.418,1.128.628.249,2.987.473,5.976.756,8.96C231.612,687.269,231.878,689.117,232.1,690.969Zm-26.631,46.263a8.923,8.923,0,1,0,8.931,8.912A8.984,8.984,0,0,0,205.472,737.232Z" transform="translate(-11.38 -15.036)" fill="#c5ced8"/>
      <path id="Trazado_617925" data-name="Trazado 617925" d="M422.495,862.524c1.969.051,2.866.825,3.146,2.9.594,4.4,1.113,8.809,1.7,13.21.583,4.361,1.229,8.713,1.817,13.073.365,2.7.641,5.416,1.033,8.114a5.733,5.733,0,0,0,.766,1.566l1.108-.58c1.175,1.152,1.771,1.209,3.166.306a12.164,12.164,0,0,1,13.346-.226c.5.72.972,1.464,1.509,2.156a14.256,14.256,0,0,1-.3,17.322c-.461.559-.825,1.2-1.234,1.8a11.7,11.7,0,0,1-16.277-3.626c-2.017-3.048-2.554-6.522-3.062-10.026-1.356-9.356-2.752-18.705-4.121-28.059Q423.78,871.492,422.495,862.524Zm19.686,40.082a8.923,8.923,0,1,0,8.918,8.927A8.974,8.974,0,0,0,442.181,902.606Z" transform="translate(-203.768 -180.41)" fill="#c4ced8"/>
      <path id="Trazado_617926" data-name="Trazado 617926" d="M170.935,676.524c2.493,1.269,4.76,2.417,7.022,3.574q20.483,10.473,40.981,20.915c1.184.6,1.555,1.241,1.179,2.437a10.733,10.733,0,0,0-.22,1.2c-.374-.17-.711-.306-1.033-.471q-23.523-12.021-47.053-24.027a1.285,1.285,0,0,1-.888-1.413C170.979,678.088,170.935,677.423,170.935,676.524Z" transform="translate(-11.509 -38.268)" fill="#9ea7b4"/>
      <path id="Trazado_617927" data-name="Trazado 617927" d="M347.06,908.641c.551-.886,1.1-1.774,1.654-2.659a22.412,22.412,0,0,0,2.819-9c.489-3.438,1.017-6.871,1.525-10.307q.77-5.211,1.533-10.424.77-5.271,1.532-10.543.882-6.023,1.774-12.045c.319-2.162.584-4.334.988-6.481.152-.808.427-1.735,1.569-1.775-.416,3.026-.809,6.055-1.251,9.077q-1.939,13.266-3.911,26.527c-.927,6.243-1.8,12.5-2.844,18.718a14.2,14.2,0,0,1-4.8,8.551A3.9,3.9,0,0,1,347.06,908.641Z" transform="translate(-146.12 -167.334)" fill="#9ea7b4"/>
      <path id="Trazado_617928" data-name="Trazado 617928" d="M533.011,1046.511c.409-.6.773-1.241,1.234-1.8a14.256,14.256,0,0,0,.3-17.322c-.537-.693-1.008-1.436-1.509-2.156a11.559,11.559,0,0,1,5.724,7.636,12.47,12.47,0,0,1-5.123,13.358A4.167,4.167,0,0,1,533.011,1046.511Z" transform="translate(-288.225 -304.754)" fill="#9ea7b4"/>
      <path id="Trazado_617929" data-name="Trazado 617929" d="M426.348,789.265c-.226-1.851-.492-3.7-.668-5.555-.283-2.984-.507-5.973-.756-8.96,1.36.325,1.853,1.151,1.949,2.579.23,3.426.679,6.836,1.034,10.253.055.534.084,1.07.131,1.684Z" transform="translate(-205.624 -113.333)" fill="#9ea7b4"/>
      <path id="Trazado_617930" data-name="Trazado 617930" d="M289.111,1032.513a8.923,8.923,0,1,1-8.92,8.926A8.973,8.973,0,0,1,289.111,1032.513Zm-.007,3.539a5.384,5.384,0,1,0,5.4,5.393A5.433,5.433,0,0,0,289.1,1036.052Z" transform="translate(-95.018 -310.317)" fill="#040404"/>
      <path id="Trazado_617931" data-name="Trazado 617931" d="M477.033,1032.514a8.923,8.923,0,1,1-8.933,8.909A8.982,8.982,0,0,1,477.033,1032.514Zm-5.395,8.874a5.387,5.387,0,1,0,5.457-5.335A5.445,5.445,0,0,0,471.638,1041.388Z" transform="translate(-238.62 -310.318)" fill="#040404"/>
    </g>
    <g id="Grupo_877852" data-name="Grupo 877852" transform="translate(758 14436.538)">
      <path id="Trazado_617932" data-name="Trazado 617932" d="M171.228,994.5c-.5-1.8-.414-2.052,1.138-3.242,3.067-2.353,6.145-4.693,9.186-7.079a3.4,3.4,0,0,0,.751-1.234,7.619,7.619,0,0,1,.871-1.929c1.259-1.35,2.674-2.552,3.982-3.858a3.545,3.545,0,0,0,.765-1.293,237.337,237.337,0,0,1,13.545-31,203.793,203.793,0,0,1,23.577-35.821c1.723-2.068,3.1-2.125,5.021-.208q20.69,20.687,41.377,41.377c1.921,1.922,1.87,3.305-.2,5.021a206.165,206.165,0,0,1-45.99,28.56c-6.779,3.113-13.806,5.684-20.7,8.544a6.142,6.142,0,0,0-1.753,1.283c-1.227,1.163-2.38,2.4-3.607,3.567a2.133,2.133,0,0,1-1.248.66,2.894,2.894,0,0,0-2.378,1.524c-6.45,8.45-12.954,16.859-19.386,25.323-2.651,3.49-5.939,5.835-10.362,6.406-.049.006-.083.119-.125.182h-4.353a7.773,7.773,0,0,0-1.04-.444,14.694,14.694,0,0,1-10.787-10.5c-.147-.472-.34-.931-.511-1.4v-4.838c.2-.585.4-1.167.585-1.757a14.5,14.5,0,0,1,4.852-7.3c2.675-2.119,5.409-4.162,8.095-6.268a2.043,2.043,0,0,1,2.91.077,2.165,2.165,0,0,1-.923,2.9q-3.765,2.812-7.469,5.7a11.167,11.167,0,0,0-3.2,14.143c3.7,7.422,14,8.22,19.082,1.5,2.786-3.687,5.62-7.337,8.431-11,3.935-5.136,7.878-10.265,11.774-15.429a1.371,1.371,0,0,0,.034-1.3c-1.288-1.378-2.676-2.662-4.03-3.977-1.4-1.439-2.817-2.871-4.209-4.321-.493-.515-.881-.318-1.351.045-3.026,2.336-6.1,4.612-9.088,7C173.41,994.979,172.426,995.289,171.228,994.5Zm89.055-46.672,6.688,6.392,1.663-1.385-6.4-6.736c-.129-.151-.246-.314-.386-.453Q245,928.8,228.154,911.951c-.157-.157-.335-.294-.543-.473l-1.791,2.175a13.108,13.108,0,0,1,1.073.865q11.638,11.625,23.26,23.263c1.191,1.192,1.266,1.723.484,3.048-1.4.7-1.779.628-3.045-.638q-11.461-11.457-22.908-22.928a5.8,5.8,0,0,1-.712-1.209c-.43.494-.539.605-.632.729A226.919,226.919,0,0,0,191.2,977.135a1.2,1.2,0,0,0,.376,1.462c3.268,3.231,6.543,6.457,9.744,9.753a1.916,1.916,0,0,0,2.388.546,232.1,232.1,0,0,0,44.143-21.261c5.495-3.412,10.765-7.184,16.235-10.857-.468-.5-.729-.8-1.008-1.082q-3.327-3.343-6.658-6.681c-1.179-1.188-1.234-1.664-.4-3.052a2.01,2.01,0,0,1,2.79.453C259.27,946.917,259.789,947.36,260.283,947.829Zm-74.1,35.183,10.973,11.008,2.309-2.042L188.38,980.891Z" fill="#030202"/>
      <path id="Trazado_617933" data-name="Trazado 617933" d="M149,1031.665v0Z" transform="translate(0 -16.343)" fill="#1b1b1b"/>
      <path id="Trazado_617934" data-name="Trazado 617934" d="M171.765,1006.517c1.2.788,2.182.478,3.264-.386,2.987-2.386,6.062-4.662,9.088-7,.47-.363.858-.56,1.351-.045,1.392,1.45,2.805,2.882,4.209,4.321-.715.758-1.446,1.5-2.142,2.277q-5.136,5.719-10.254,11.452c-1.731,1.941-3.42,3.921-5.171,5.844-.848.931-1.8,1.772-2.7,2.654l-.437-.577a6.41,6.41,0,0,0-11.5,3.819,7.547,7.547,0,0,0,1.81,4.73l-4.894.016a11.167,11.167,0,0,1,3.2-14.143q3.71-2.885,7.469-5.7a2.165,2.165,0,0,0,.923-2.9Z" transform="translate(-0.538 -12.016)" fill="#765045"/>
      <path id="Trazado_617935" data-name="Trazado 617935" d="M262.4,947.268c-.833,1.388-.778,1.864.4,3.052q3.323,3.346,6.658,6.681c.279.281.54.577,1.008,1.082-5.47,3.673-10.741,7.445-16.235,10.857A232.1,232.1,0,0,1,210.086,990.2a1.916,1.916,0,0,1-2.388-.546c-3.2-3.3-6.476-6.522-9.744-9.753a1.2,1.2,0,0,1-.376-1.462,226.919,226.919,0,0,1,32.141-60.353c.093-.123.2-.234.632-.729a5.8,5.8,0,0,0,.712,1.209q11.439,11.48,22.908,22.928c1.266,1.266,1.647,1.34,3.045.638.323.3.652.588.968.892Q260.193,945.144,262.4,947.268Z" transform="translate(-6.377 -1.304)" fill="#caddeb"/>
      <path id="Trazado_617936" data-name="Trazado 617936" d="M169.609,1026.338c.9-.881,1.851-1.723,2.7-2.654,1.751-1.923,3.44-3.9,5.171-5.844q5.117-5.736,10.254-11.452c.7-.775,1.428-1.519,2.142-2.277,1.355,1.315,2.743,2.6,4.03,3.977a1.371,1.371,0,0,1-.034,1.3c-3.9,5.164-7.839,10.293-11.774,15.429-2.81,3.667-5.645,7.317-8.431,11-5.081,6.723-15.378,5.924-19.082-1.5l4.894-.015c.53.35,1.036.744,1.593,1.044a6.448,6.448,0,0,0,7.559-1.161A6.339,6.339,0,0,0,169.609,1026.338Z" transform="translate(-0.735 -12.718)" fill="#524640"/>
      <path id="Trazado_617937" data-name="Trazado 617937" d="M267.658,946.575q-2.207-2.122-4.413-4.244c-.316-.3-.645-.595-.968-.892.782-1.325.707-1.857-.484-3.048q-11.625-11.637-23.26-23.263a13.108,13.108,0,0,0-1.073-.865l1.791-2.175c.208.18.386.316.543.473q16.848,16.846,33.692,33.7c.14.14.257.3.386.453l-1.949,1.729c-.493-.469-1.013-.913-1.473-1.411A2.01,2.01,0,0,0,267.658,946.575Z" transform="translate(-11.638 -0.61)" fill="#fefefe"/>
      <path id="Trazado_617938" data-name="Trazado 617938" d="M191.818,994.139l2.2-2.121,11.086,11.087-2.309,2.042Z" transform="translate(-5.633 -11.127)" fill="#8d6e62"/>
      <path id="Trazado_617939" data-name="Trazado 617939" d="M277.142,953.685l1.949-1.729,6.4,6.736-1.663,1.385Z" transform="translate(-16.859 -5.856)" fill="#caddeb"/>
      <path id="Trazado_617940" data-name="Trazado 617940" d="M170.076,1029.235a6.339,6.339,0,0,1-.979,7.856,6.448,6.448,0,0,1-7.559,1.161c-.557-.3-1.063-.694-1.593-1.044a7.551,7.551,0,0,1-1.81-4.731,6.41,6.41,0,0,1,11.5-3.819Zm-2.664,3.285a2.858,2.858,0,0,0-2.847-2.826,2.929,2.929,0,0,0-2.913,2.908,3.018,3.018,0,0,0,2.87,2.853A2.932,2.932,0,0,0,167.411,1032.52Z" transform="translate(-1.202 -15.615)" fill="#030202"/>
    </g>
    <g id="Grupo_877853" data-name="Grupo 877853" transform="translate(1094 14474.252)">
      <path id="Trazado_617941" data-name="Trazado 617941" d="M266.046,918.163a64.233,64.233,0,0,0-5.36,8.308c-3.164,6.016-6.7,11.838-10.178,17.686a18.518,18.518,0,0,1-2.8,3.331,16.715,16.715,0,0,0-5.02,11.6c-.048,1.793-.008,3.589-.008,5.426.319.1.6.184.888.267a4.6,4.6,0,0,1-1.177,9.045c-.268.008-.536.022-.8.033H214.641v18.955h25.6v-14.07l.162-1.429,1.183-.077,1.075.1c0,1.424,0,2.8,0,4.174,0,3.985.006,7.97,0,11.956,0,1.453-.31,1.743-1.769,1.744q-13.418,0-26.836,0c-1.58,0-1.833-.259-1.833-1.906q-.006-9.024,0-18.047v-1.331c-2.654-.586-4.391-2.045-4.339-4.929.041-2.266,1.447-3.672,4.339-4.491,0-.412,0-.861,0-1.31.04-11.418-.138-22.842.181-34.253.326-11.674,1.137-23.335,1.743-35,.052-.994.18-1.984.24-2.977a4.444,4.444,0,0,1,7.573-3.025c.1.1.225.172.5.375.016-2.367.247-4.55,2.433-5.806,2.11-1.212,4.109-.86,6.148.772,0-.571-.018-.97,0-1.367a4.455,4.455,0,0,1,2.674-4.095,3.512,3.512,0,0,0,.529-.381h2.3c2.621.969,3.691,2.94,3.47,5.807,1.864-1.5,3.7-1.9,5.655-.918s2.623,2.709,2.689,4.833c.089,2.87.367,5.732.51,8.6q.606,12.275,1.17,24.551c.017.358.046.715.082,1.282.41-.431.671-.689.913-.963,2.076-2.36,4.139-4.732,6.227-7.081a4.817,4.817,0,0,1,6.877-.753,13.763,13.763,0,0,1,1.907,2.595Zm-18.4.242c.006-1.263.078-2.53.008-3.789q-.589-10.73-1.238-21.456c-.13-2.218-.269-4.436-.432-6.652a2.486,2.486,0,0,0-2.136-2.361,2.446,2.446,0,0,0-2.581,1.516,5.492,5.492,0,0,0-.193,1.7q-.018,10.808-.013,21.617a3.067,3.067,0,0,1-.143,1.349,1.439,1.439,0,0,1-1,.724,1.493,1.493,0,0,1-1.053-.663,2.552,2.552,0,0,1-.186-1.227q-.4-11.029-.787-22.058c-.061-1.723-.1-3.448-.217-5.168-.122-1.841-2.033-2.869-3.354-1.728a3.339,3.339,0,0,0-.947,2.185c-.386,8.881-.693,17.766-1.025,26.649a2.343,2.343,0,0,1-.132,1.123c-.262.388-.737.884-1.108.873s-.843-.521-1.069-.925a2.768,2.768,0,0,1-.086-1.243q0-10.808.006-21.616a2.825,2.825,0,0,0-1.235-2.779c-1.786-1.054-3.729.151-3.887,2.45-.423,6.153-.815,12.308-1.227,18.462-.1,1.567-.164,3.143-.406,4.689a1.518,1.518,0,0,1-1.123.979c-.386-.011-.825-.613-1.1-1.045-.159-.247-.043-.672-.043-1.017,0-5.9.008-11.8-.009-17.708a2.123,2.123,0,1,0-4.236-.162c-.1.991-.195,1.983-.247,2.977-.605,11.437-1.425,22.869-1.739,34.314-.319,11.644-.137,23.3-.174,34.953,0,.375,0,.752,0,1.179h25.791c0-1.687-.02-3.3,0-4.9a19.659,19.659,0,0,1,5.7-13.768,25.1,25.1,0,0,0,3.257-4.138c2.449-3.979,4.733-8.06,7.133-12.069,2.332-3.894,3.7-8.336,6.882-11.762,1.054-1.134.354-2.972-1.074-3.661a2.684,2.684,0,0,0-3.375.927c-2.884,3.286-5.735,6.6-8.67,9.842a3.172,3.172,0,0,1-1.931.947,18.7,18.7,0,0,0-15.119,8.77c-.621.952-1.108,1.99-1.7,3.067l-2.045-.976c.664-1.277,1.277-2.458,1.89-3.639.192-.234.394-.461.573-.7a20.982,20.982,0,0,1,12.19-8.206c1.173-.29,2.38-.44,3.61-.661ZM227.4,971.524c4.911,0,9.822.011,14.733-.006a2.3,2.3,0,0,0,2.483-2.9c-.264-1.085-1.2-1.684-2.677-1.685q-10.187-.006-20.373,0c-2.955,0-5.909-.015-8.863.007a2.3,2.3,0,1,0,.079,4.582C217.649,971.531,222.522,971.524,227.4,971.524Z" transform="translate(-19.046 0)" fill="#263b65"/>
      <path id="Trazado_617942" data-name="Trazado 617942" d="M160.574,877.449c2.571,1,3.693,2.908,3.419,5.823,2.021-1.578,4.048-2,6.185-.741s2.408,3.39,2.4,5.759c.31-.225.514-.355.7-.507a4.438,4.438,0,0,1,7.381,3.095c1.514,16.576,2.152,33.188,2.167,49.828q.01,11.268,0,22.536v1.221c3.09,1.044,4.387,2.49,4.365,4.8s-1.328,3.731-4.365,4.7v1.209q0,9.025,0,18.051c0,1.77-.225,1.99-1.982,1.99h-26.5c-1.749,0-1.961-.215-1.962-2.009,0-6.4,0-12.8,0-19.325a4.6,4.6,0,0,1-3.7-2.358,5.714,5.714,0,0,1-.6-2.628c.068-2.233,1.456-3.583,4.192-4.347.591-6.513-.16-12.591-5.26-17.435a18.392,18.392,0,0,1-3.221-4.163c-3.7-6.474-7.283-13.019-10.941-19.52-.559-.994-1.293-1.89-1.952-2.828-.627-.893-1.261-1.783-1.893-2.675v-2.76a3.108,3.108,0,0,0,.406-.506,4.929,4.929,0,0,1,8.434-1.11c2.76,3.079,5.478,6.2,8.214,9.3.485.284.95.766,1.46.82a23.352,23.352,0,0,1,7.912,2.165,22.539,22.539,0,0,1,8.353,7.327l1.869,3.63-1.989.963a2.007,2.007,0,0,1-.24-.26c-.108-.2-.2-.412-.306-.617q-5.136-10.252-16.6-10.922a2.667,2.667,0,0,1-1.621-.856c-2.923-3.25-5.769-6.571-8.693-9.82a4.035,4.035,0,0,0-1.872-1.2,2.327,2.327,0,0,0-2.64,1.2,2.483,2.483,0,0,0,.219,2.994,37.389,37.389,0,0,1,2.838,3.883c3.13,5.528,6.156,11.116,9.234,16.673a36.716,36.716,0,0,0,5.628,7.8,17.83,17.83,0,0,1,5.016,12.145c.06,1.906.01,3.815.01,5.83h22.206l.237,1.216v1.106h-1.357q-11.291,0-22.582,0c-1.8,0-2.788.85-2.763,2.345.024,1.434,1,2.248,2.744,2.249q14.459.006,28.918,0c1.818,0,2.805-.825,2.8-2.308,0-1.444-.948-2.285-2.7-2.271a1.463,1.463,0,0,1-1.684-1.2c.028-.418.081-.837.081-1.255-.008-19.579.209-39.163-1.074-58.719-.324-4.929-.742-9.853-1.12-14.778A2.041,2.041,0,0,0,176.579,889a1.9,1.9,0,0,0-2.206,1.078,3.916,3.916,0,0,0-.278,1.667c-.018,5.748-.01,11.5-.014,17.245A2.355,2.355,0,0,1,174,910.12c-.246.4-.7.912-1.073.917s-.79-.52-1.123-.873c-.129-.137-.1-.438-.115-.667-.33-4.968-.649-9.937-.988-14.9-.19-2.788-.376-5.579-.642-8.361a2.331,2.331,0,0,0-2.125-2.091,2.477,2.477,0,0,0-2.63,1.446,5.567,5.567,0,0,0-.23,1.805c-.014,7.2-.005,14.409-.014,21.614,0,.9.192,2.061-1.173,2.064s-1.17-1.17-1.2-2.062q-.5-13.381-.976-26.763c-.057-1.538-.886-2.474-2.154-2.489-1.311-.016-2.141.954-2.2,2.549q-.487,13.439-.983,26.878a2.39,2.39,0,0,1-.161,1.12c-.215.338-.658.759-.983.743a1.606,1.606,0,0,1-1.1-.741,2.863,2.863,0,0,1-.137-1.347q-.01-10.634-.005-21.269c0-.344.01-.69-.009-1.034a2.459,2.459,0,1,0-4.918-.029c-.088,1.3-.157,2.6-.237,3.9-.363,5.888-.759,11.773-1.074,17.664-.182,3.4-.231,6.81-.341,10.215.038.913-.013,1.754-1.3,1.565l-1.078-.159c0-1.648-.078-3.251.013-4.845q.824-14.322,1.717-28.64a4.8,4.8,0,0,1,7.381-3.746c.275.172.541.358.87.576.046-.721.052-1.332.129-1.934.243-1.916,1.606-2.92,3.14-3.775Zm19.826,101.3v-4.852H154.807v18.924H180.4Z" transform="translate(0 0)" fill="#263b65"/>
      <path id="Trazado_617943" data-name="Trazado 617943" d="M243.74,1007.931l-1.183.077c-.055.49-.109.96-.162,1.428h-25.6v-4.886H243.74Z" transform="translate(-21.198 -30.689)" fill="#f2ab7d"/>
      <path id="Trazado_617944" data-name="Trazado 617944" d="M233.383,933.907c-.613,1.181-1.226,2.362-1.89,3.64l2.045.976c.592-1.076,1.079-2.115,1.7-3.067a18.7,18.7,0,0,1,15.119-8.77,3.172,3.172,0,0,0,1.931-.947c2.935-3.241,5.786-6.556,8.67-9.842a2.684,2.684,0,0,1,3.375-.927c1.428.689,2.129,2.527,1.074,3.661-3.187,3.426-4.551,7.868-6.882,11.762-2.4,4.01-4.685,8.09-7.133,12.069a25.093,25.093,0,0,1-3.257,4.138,19.66,19.66,0,0,0-5.7,13.768c-.024,1.607,0,3.216,0,4.9H216.642c0-.427,0-.8,0-1.179.037-11.651-.145-23.309.174-34.953.314-11.445,1.133-22.876,1.739-34.314.052-.995.151-1.987.247-2.977a2.123,2.123,0,1,1,4.236.162c.017,5.9.008,11.805.009,17.708,0,.345-.115.77.043,1.017.276.432.715,1.035,1.1,1.045a1.519,1.519,0,0,0,1.123-.979c.242-1.547.3-3.122.406-4.689.412-6.153.8-12.308,1.227-18.462.158-2.3,2.1-3.5,3.887-2.45a2.824,2.824,0,0,1,1.235,2.779q-.024,10.808-.006,21.616a2.768,2.768,0,0,0,.086,1.242c.226.4.693.914,1.069.925s.847-.486,1.108-.873a2.343,2.343,0,0,0,.132-1.123c.331-8.883.639-17.768,1.025-26.649a3.339,3.339,0,0,1,.947-2.185c1.321-1.141,3.232-.113,3.354,1.728.113,1.72.156,3.445.217,5.168q.395,11.029.787,22.058a2.552,2.552,0,0,0,.186,1.227,1.493,1.493,0,0,0,1.053.663,1.439,1.439,0,0,0,1-.724,3.068,3.068,0,0,0,.143-1.349q.01-10.808.013-21.617a5.492,5.492,0,0,1,.193-1.7,2.447,2.447,0,0,1,2.581-1.516,2.486,2.486,0,0,1,2.136,2.361c.163,2.216.3,4.434.432,6.652q.631,10.727,1.238,21.456c.07,1.259,0,2.526-.009,3.789-.825.129-1.658.226-2.476.393a17.674,17.674,0,0,0-10.9,7.074A14.064,14.064,0,0,0,233.383,933.907Z" transform="translate(-21.157 -0.725)" fill="#9ad1fa"/>
      <path id="Trazado_617945" data-name="Trazado 617945" d="M216.793,1010.992h25.6v14.07h-25.6Z" transform="translate(-21.198 -32.244)" fill="#fdfdfe"/>
      <path id="Trazado_617946" data-name="Trazado 617946" d="M228.137,1000c-4.873,0-9.746.008-14.618,0a2.3,2.3,0,1,1-.079-4.582c2.954-.022,5.908-.007,8.863-.007q10.186,0,20.373,0c1.478,0,2.413.6,2.677,1.685a2.3,2.3,0,0,1-2.483,2.9C237.96,1000.015,233.048,1000,228.137,1000Z" transform="translate(-19.788 -28.481)" fill="#69bcfa"/>
      <path id="Trazado_617947" data-name="Trazado 617947" d="M238.718,946.218a14.064,14.064,0,0,1,3-7.31,17.674,17.674,0,0,1,10.9-7.074c.818-.167,1.651-.264,2.476-.393,0,1.711,0,3.422,0,5.205-1.23.221-2.437.372-3.61.661a20.981,20.981,0,0,0-12.19,8.206C239.112,945.757,238.91,945.984,238.718,946.218Z" transform="translate(-26.491 -13.036)" fill="#69baf7"/>
      <path id="Trazado_617948" data-name="Trazado 617948" d="M148.127,919.139c.109-3.405.159-6.813.341-10.215.315-5.89.712-11.776,1.074-17.664.08-1.3.149-2.6.237-3.9a2.459,2.459,0,1,1,4.918.029c.019.344.009.69.009,1.034q0,10.635.005,21.269a2.863,2.863,0,0,0,.137,1.347,1.606,1.606,0,0,0,1.1.741c.325.016.768-.405.983-.743a2.39,2.39,0,0,0,.161-1.12q.5-13.439.983-26.878c.058-1.6.888-2.565,2.2-2.549,1.268.014,2.1.951,2.154,2.489q.493,13.382.976,26.763c.033.892-.153,2.065,1.2,2.062s1.172-1.167,1.173-2.064c.009-7.2,0-14.409.014-21.614a5.566,5.566,0,0,1,.23-1.805,2.476,2.476,0,0,1,2.63-1.446,2.331,2.331,0,0,1,2.125,2.091c.267,2.782.452,5.572.642,8.361.339,4.968.658,9.937.988,14.9.015.228-.014.529.115.667.333.353.748.878,1.123.873s.827-.52,1.073-.917a2.355,2.355,0,0,0,.084-1.126c0-5.748,0-11.5.014-17.245a3.916,3.916,0,0,1,.278-1.667,1.9,1.9,0,0,1,2.206-1.078,2.041,2.041,0,0,1,1.753,1.994c.379,4.925.8,9.849,1.12,14.778,1.283,19.555,1.067,39.14,1.074,58.719,0,.418-.053.837-.08,1.255l-3.372.072-.237-1.216H155.359c0-2.016.05-3.924-.01-5.83a17.831,17.831,0,0,0-5.016-12.145,36.714,36.714,0,0,1-5.628-7.8c-3.078-5.557-6.1-11.145-9.234-16.673a37.386,37.386,0,0,0-2.838-3.883,2.483,2.483,0,0,1-.219-2.994,2.327,2.327,0,0,1,2.64-1.2,4.034,4.034,0,0,1,1.872,1.2c2.924,3.25,5.77,6.57,8.693,9.82a2.667,2.667,0,0,0,1.621.856q11.476.691,16.6,10.922c.1.206.2.415.306.617a2.008,2.008,0,0,0,.24.26l1.989-.963-1.869-3.63a28.531,28.531,0,0,0-1.752-5.263A17.859,17.859,0,0,0,148.127,919.139Z" transform="translate(-0.727 -0.734)" fill="#9bd1fa"/>
      <path id="Trazado_617949" data-name="Trazado 617949" d="M188.614,1010.988v14.072H163.021v-14.072Z" transform="translate(-8.214 -32.243)" fill="#fdfdfe"/>
      <path id="Trazado_617950" data-name="Trazado 617950" d="M183.877,993.928l3.372-.072a1.461,1.461,0,0,0,1.683,1.2c1.757-.014,2.7.827,2.705,2.271.005,1.483-.982,2.307-2.8,2.308q-14.458,0-28.918,0c-1.742,0-2.72-.815-2.744-2.249-.025-1.494.963-2.344,2.763-2.345q11.291-.007,22.582,0h1.357Z" transform="translate(-6.803 -28.106)" fill="#69baf7"/>
      <path id="Trazado_617951" data-name="Trazado 617951" d="M188.614,1009.443H163.021v-4.852h25.593Z" transform="translate(-8.214 -30.698)" fill="#f2aa7d"/>
      <path id="Trazado_617952" data-name="Trazado 617952" d="M152.829,931.441a17.86,17.86,0,0,1,14.628,9.5,28.53,28.53,0,0,1,1.752,5.263,22.539,22.539,0,0,0-8.353-7.327,23.353,23.353,0,0,0-7.912-2.165c-.51-.054-.975-.536-1.46-.82q.022-1.442.042-2.883C152.816,933.195,152.867,932.354,152.829,931.441Z" transform="translate(-5.429 -13.036)" fill="#69baf7"/>
    </g>
    <g id="Grupo_877854" data-name="Grupo 877854" transform="translate(388.958 14958.711)">
      <path id="Trazado_617953" data-name="Trazado 617953" d="M225.728,781.694c-1.28-.847-1.459-1.28-1.08-2.809.645-2.6,1.311-5.2,1.964-7.8.428-1.705.813-2.02,2.538-2.04.445-.005.89,0,1.429,0,.027-.39.069-.71.069-1.03,0-6.942.062-13.884-.058-20.824-.019-1.079-.83-2.157-1.343-3.2-.071-.146-.541-.129-.827-.13-2.127-.01-4.255,0-6.382-.009-1.384-.007-2.159-.636-2.16-1.714s.751-1.7,2.158-1.708c2.127-.016,4.255-.025,6.382.007.6.009.833-.251,1.189-.72,1.162-1.531,1.053-3.249,1.05-4.993-.015-8.546.041-17.094-.066-25.639-.014-1.078-.805-2.162-1.32-3.2-.086-.173-.6-.179-.923-.181-2.09-.015-4.181.041-6.268-.04a2.7,2.7,0,0,1-1.769-.686,1.812,1.812,0,0,1-.217-1.7,2.427,2.427,0,0,1,1.679-1.009c2.158-.119,4.327-.077,6.491-.033.726.015,1-.294,1.437-.862,1.119-1.458.951-3.064.951-4.684q0-13.547,0-27.095c0-2.058.506-2.554,2.59-2.556,1.493,0,2.986-.005,4.478,0,1.78.007,2.35.568,2.351,2.34,0,9.778.027,19.556-.027,29.333-.007,1.379,1.049,2.173,1.391,3.332.031.107.385.167.589.167q10.747-.007,21.493-.035a.823.823,0,0,0,.179-.069V690.909c-.35-.041-.71-.071-1.065-.128a1.592,1.592,0,0,1-1.471-1.689,1.614,1.614,0,0,1,1.51-1.663,5.048,5.048,0,0,1,.782-.028q9.293,0,18.585,0a4.01,4.01,0,0,1,.892.052,1.6,1.6,0,0,1,1.358,1.674,1.574,1.574,0,0,1-1.391,1.639c-.328.061-.667.064-1.095.1v11.284c1.073.112,2.1.406,2.145,1.749.045,1.443-1.1,1.675-2.239,1.9,0,2.568-.038,5.1.042,7.636.012.37.528.828.919,1.066a19.184,19.184,0,0,1,8.4,10.262,18.976,18.976,0,0,1-.69,14.688c-.29.633-.5,1.073.088,1.766a1.6,1.6,0,0,1-1.4,2.583,3.3,3.3,0,0,0-2.648,1.275,19.392,19.392,0,0,1-27.688-.332,2.581,2.581,0,0,0-2.114-.914c-5.036.043-10.073.021-15,.021a8.357,8.357,0,0,0-1.577,5.6c.107,6.082.038,12.166.038,18.249v1.337h53.046c2.4,0,2.591.155,3.176,2.514.609,2.459,1.188,4.927,1.856,7.37a2.165,2.165,0,0,1-.982,2.77Zm52.515-75.933H267.19c0,2.708-.1,5.351.036,7.982a3.218,3.218,0,0,1-2.016,3.414,15.926,15.926,0,0,0-6.2,22.378,1.587,1.587,0,0,0,1.582.9c7.644-.027,15.289-.017,22.934-.017,2.71,0,2.71,0,3.762-2.475,3.491-8.209.515-16.777-7.356-20.964a2.84,2.84,0,0,1-1.713-2.922C278.3,711.339,278.243,708.618,278.243,705.761ZM255.417,740.42c-.139-.391-.209-.632-.308-.86-3.863-8.856-1.575-18,5.994-23.939,2.708-.967,2.949-3.083,2.7-5.535a41.83,41.83,0,0,1-.027-4.282,3.513,3.513,0,0,0-.5-.1q-10.579-.01-21.158,0c-.239,0-.648.073-.689.2-.36,1.149-1.4,1.948-1.385,3.329.061,8.508.041,17.016.022,25.524,0,1.709-.1,3.381,1.027,4.885.371.5.6.8,1.255.794,3.694-.029,7.388-.014,11.083-.014ZM228.39,778.189h65.986c-.381-1.569-.809-3.027-1.071-4.514-.174-.99-.635-1.2-1.57-1.194q-30.336.039-60.672.02H229.81Zm49.787-87.295H267.256v11.222h10.922Zm-44.029,6.761h2.43V670.577h-2.43Zm.023,12.615v25.537h2.411V710.271Zm-.025,38.135v20.56h2.419v-20.56Zm48.233-4.458h-19.33A15.71,15.71,0,0,0,282.381,743.948Zm-46.99-42.867a2.872,2.872,0,1,0,2.85,2.867A3.016,3.016,0,0,0,235.391,701.081Zm-.064,43.9a2.849,2.849,0,1,0-2.842-2.856A2.958,2.958,0,0,0,235.327,744.98Z" transform="translate(0)"/>
      <path id="Trazado_617954" data-name="Trazado 617954" d="M369.255,801.486c0,2.857.054,5.579-.022,8.3a2.84,2.84,0,0,0,1.713,2.922c7.871,4.188,10.847,12.755,7.356,20.964-1.053,2.475-1.053,2.475-3.762,2.475-7.645,0-15.289-.011-22.934.017a1.587,1.587,0,0,1-1.582-.9,15.926,15.926,0,0,1,6.2-22.378,3.218,3.218,0,0,0,2.016-3.414c-.136-2.631-.036-5.274-.036-7.982Zm-5.6,18.5q-4.255,0-8.51,0a8,8,0,0,0-1.116.057,1.561,1.561,0,0,0-1.477,1.55,1.6,1.6,0,0,0,1.363,1.775,3.132,3.132,0,0,0,.777.063q9.07,0,18.139,0c.33,0,.785.03.965-.16a3.639,3.639,0,0,0,1.1-1.624,1.413,1.413,0,0,0-1.282-1.569,6.171,6.171,0,0,0-1.224-.089Q368.025,819.982,363.658,819.989Z" transform="translate(-91.012 -95.725)" fill="#148d80"/>
      <path id="Trazado_617955" data-name="Trazado 617955" d="M249.429,1038.813l1.42-5.688H252.1q30.336,0,60.672-.02c.935,0,1.4.2,1.57,1.194.261,1.487.69,2.945,1.071,4.514Z" transform="translate(-21.039 -260.624)" fill="#fff"/>
      <path id="Trazado_617956" data-name="Trazado 617956" d="M395.271,749.877V761.1H384.349V749.877Z" transform="translate(-117.093 -58.983)" fill="#fff"/>
      <path id="Trazado_617957" data-name="Trazado 617957" d="M269.42,706.425V679.347h2.43v27.078Z" transform="translate(-35.271 -8.77)" fill="#fff"/>
      <path id="Trazado_617958" data-name="Trazado 617958" d="M269.5,817.143h2.41V842.68H269.5Z" transform="translate(-35.329 -106.872)" fill="#fff"/>
      <path id="Trazado_617959" data-name="Trazado 617959" d="M269.415,949.527h2.419v20.56h-2.419Z" transform="translate(-35.267 -201.121)" fill="#fff"/>
      <path id="Trazado_617960" data-name="Trazado 617960" d="M389.081,934.051a15.71,15.71,0,0,1-19.33,0Z" transform="translate(-106.7 -190.103)" fill="#148d80"/>
      <path id="Trazado_617961" data-name="Trazado 617961" d="M266.549,785.239a2.872,2.872,0,1,1-2.906,2.814A3.006,3.006,0,0,1,266.549,785.239Z" transform="translate(-31.158 -84.158)" fill="#fff"/>
      <path id="Trazado_617962" data-name="Trazado 617962" d="M266.485,923.555a2.849,2.849,0,1,1,2.913-2.784A2.968,2.968,0,0,1,266.485,923.555Z" transform="translate(-31.158 -178.575)" fill="#fff"/>
      <path id="Trazado_617963" data-name="Trazado 617963" d="M375.606,865.716q4.367,0,8.733,0a6.177,6.177,0,0,1,1.224.089,1.413,1.413,0,0,1,1.282,1.569,3.639,3.639,0,0,1-1.1,1.624c-.18.19-.635.16-.965.16q-9.07.012-18.139,0a3.132,3.132,0,0,1-.777-.063,1.6,1.6,0,0,1-1.363-1.775,1.561,1.561,0,0,1,1.477-1.55,7.991,7.991,0,0,1,1.116-.057Q371.351,865.712,375.606,865.716Z" transform="translate(-102.96 -141.453)"/>
    </g>
    <g id="Grupo_877855" data-name="Grupo 877855" transform="translate(71.109 14982.678)">
      <path id="Trazado_617964" data-name="Trazado 617964" d="M446.99,710.652v-2.578c.076-.037.123-.079.169-.079q10.6-.006,21.192,0a3.99,3.99,0,0,1,3.78,2.755,3.8,3.8,0,0,1-1.461,4.412,5.3,5.3,0,0,1-2.557.785c-3.7.084-7.4.036-11.1.036-.195,0-.39-.006-.584,0a1.347,1.347,0,0,0-1.457,1.366,1.328,1.328,0,0,0,1.444,1.292c2.225.016,4.45-.014,6.675.016a4,4,0,0,1,3.7,2.752,3.8,3.8,0,0,1-1.461,4.412,5.293,5.293,0,0,1-2.557.786c-3.7.084-7.4.036-11.1.036-.222,0-.446-.009-.667,0a1.335,1.335,0,0,0-1.374,1.363A1.312,1.312,0,0,0,451,729.3c1.167.028,2.336.009,3.5.009q5.423,0,10.847,0a4.007,4.007,0,1,1,.015,7.994q-5.548.008-11.1,0c-.195,0-.39-.008-.584,0a1.336,1.336,0,0,0-1.375,1.363,1.317,1.317,0,0,0,1.359,1.291c.889.028,1.78.008,2.67.008,2.2,0,4.394-.014,6.591,0a3.993,3.993,0,1,1,.016,7.985c-3.782.02-7.565.006-11.347.007a6.484,6.484,0,0,0-.75.012,1.3,1.3,0,0,0-1.2,1.353,1.282,1.282,0,0,0,1.188,1.283,5.969,5.969,0,0,0,.917.016q8.26,0,16.52.005a4.007,4.007,0,0,1,3.865,2.756,3.781,3.781,0,0,1-1.394,4.362,5.215,5.215,0,0,1-2.538.835c-2.945.1-5.895.037-8.843.04-1.107,0-1.732.505-1.71,1.364.021.83.622,1.274,1.691,1.306a9.725,9.725,0,0,1,2.064.173,3.951,3.951,0,0,1,2.9,4.225,3.9,3.9,0,0,1-3.609,3.553c-4.552.075-9.107.025-13.695.025v-2.651h3.093q4.923,0,9.845,0c1.1,0,1.731-.511,1.706-1.369-.024-.829-.625-1.272-1.7-1.3a9.685,9.685,0,0,1-1.983-.157,3.946,3.946,0,0,1-2.974-4.248,3.988,3.988,0,0,1,3.862-3.573c3.031-.037,6.063-.01,9.094-.014,1.1,0,1.732-.51,1.707-1.368-.023-.829-.624-1.295-1.7-1.3-5.646,0-11.291.005-16.937-.006a3.986,3.986,0,0,1-2.555-7.1,4.139,4.139,0,0,1,2.709-.892c3.671.012,7.342,0,11.013,0,.195,0,.39,0,.584,0,.963-.022,1.564-.555,1.541-1.367a1.351,1.351,0,0,0-1.527-1.294c-3.059-.009-6.119.017-9.178-.012a3.991,3.991,0,1,1,.068-7.981c3.782-.019,7.565-.005,11.347-.006a6.4,6.4,0,0,0,.75-.012,1.307,1.307,0,0,0,1.2-1.354,1.288,1.288,0,0,0-1.189-1.284,4.706,4.706,0,0,0-.75-.014c-4.7,0-9.4.01-14.1-.008a3.984,3.984,0,0,1-2.476-7.1,4.134,4.134,0,0,1,2.709-.893c3.671.012,7.342,0,11.013,0,.195,0,.39,0,.584,0,.965-.021,1.565-.552,1.544-1.365a1.351,1.351,0,0,0-1.525-1.3c-2.169-.011-4.339.012-6.508-.01a3.985,3.985,0,0,1-2.478-7.1,4.135,4.135,0,0,1,2.709-.894c3.727.011,7.453,0,11.18,0a6.429,6.429,0,0,0,.75-.012,1.306,1.306,0,0,0,1.207-1.351,1.288,1.288,0,0,0-1.186-1.286,4.635,4.635,0,0,0-.75-.014H446.99Z" transform="translate(-200.662 -37.273)" fill="#010101"/>
      <path id="Trazado_617965" data-name="Trazado 617965" d="M703.364,710.652v-2.578c.076-.037.123-.079.169-.079q10.6-.006,21.192,0a3.991,3.991,0,0,1,3.78,2.755,3.8,3.8,0,0,1-1.461,4.412,5.3,5.3,0,0,1-2.557.785c-3.7.084-7.4.036-11.1.036-.195,0-.39-.006-.584,0a1.347,1.347,0,0,0-1.457,1.366,1.328,1.328,0,0,0,1.444,1.292c2.225.016,4.45-.014,6.675.016a3.994,3.994,0,0,1,3.7,2.752,3.8,3.8,0,0,1-1.461,4.412,5.293,5.293,0,0,1-2.557.786c-3.7.084-7.4.036-11.1.036-.222,0-.446-.009-.667,0a1.335,1.335,0,0,0-1.374,1.363,1.312,1.312,0,0,0,1.36,1.29c1.167.028,2.336.009,3.5.009q5.423,0,10.847,0a4.007,4.007,0,1,1,.015,7.994q-5.548.008-11.1,0c-.195,0-.39-.008-.584,0a1.336,1.336,0,0,0-1.375,1.363,1.317,1.317,0,0,0,1.359,1.291c.889.028,1.78.008,2.67.008,2.2,0,4.394-.014,6.591,0a3.993,3.993,0,1,1,.016,7.985c-3.782.02-7.565.006-11.347.007a6.479,6.479,0,0,0-.75.012,1.3,1.3,0,0,0-1.2,1.353,1.282,1.282,0,0,0,1.188,1.283,5.969,5.969,0,0,0,.917.016q8.26,0,16.52.005a4.007,4.007,0,0,1,3.865,2.756,3.781,3.781,0,0,1-1.394,4.362,5.215,5.215,0,0,1-2.538.835c-2.945.1-5.895.037-8.843.04-1.107,0-1.732.505-1.71,1.364.021.83.622,1.274,1.691,1.306a9.725,9.725,0,0,1,2.064.173,3.951,3.951,0,0,1,2.9,4.225,3.9,3.9,0,0,1-3.609,3.553c-4.552.075-9.107.025-13.695.025v-2.651h3.093q4.923,0,9.845,0c1.1,0,1.731-.511,1.706-1.369-.024-.829-.625-1.272-1.7-1.3a9.685,9.685,0,0,1-1.983-.157,3.946,3.946,0,0,1-2.974-4.248,3.987,3.987,0,0,1,3.862-3.573c3.031-.037,6.063-.01,9.094-.014,1.1,0,1.732-.51,1.707-1.368-.023-.829-.624-1.295-1.7-1.3-5.646,0-11.291.005-16.937-.006a3.986,3.986,0,0,1-2.555-7.1,4.139,4.139,0,0,1,2.709-.892c3.671.012,7.342,0,11.013,0,.195,0,.39,0,.584,0,.963-.022,1.564-.555,1.541-1.367a1.351,1.351,0,0,0-1.528-1.294c-3.059-.009-6.119.017-9.178-.012a3.991,3.991,0,1,1,.069-7.981c3.782-.019,7.565-.005,11.347-.006a6.4,6.4,0,0,0,.75-.012,1.307,1.307,0,0,0,1.2-1.354,1.288,1.288,0,0,0-1.188-1.284,4.707,4.707,0,0,0-.75-.014c-4.7,0-9.4.01-14.1-.008a3.984,3.984,0,0,1-2.476-7.1,4.134,4.134,0,0,1,2.709-.893c3.671.012,7.342,0,11.013,0,.195,0,.389,0,.584,0,.965-.021,1.565-.552,1.544-1.365a1.352,1.352,0,0,0-1.525-1.3c-2.169-.011-4.339.012-6.508-.01a3.985,3.985,0,0,1-2.478-7.1,4.135,4.135,0,0,1,2.709-.894c3.727.011,7.453,0,11.18,0a6.429,6.429,0,0,0,.75-.012,1.306,1.306,0,0,0,1.207-1.351,1.288,1.288,0,0,0-1.186-1.286,4.635,4.635,0,0,0-.75-.014H703.364Z" transform="translate(-400.007 -37.273)" fill="#010101"/>
      <path id="Trazado_617966" data-name="Trazado 617966" d="M214.236,766.62v2.617c-.207.016-.418.046-.628.046q-6.215,0-12.43,0a4.005,4.005,0,1,1-.03-7.994c.25,0,.5,0,.751,0,1.061-.009,1.665-.483,1.677-1.315s-.6-1.345-1.642-1.348c-2.308-.005-4.616,0-6.924,0-.723,0-1.446.014-2.169,0a3.992,3.992,0,0,1,.042-7.983c5.561-.022,11.123-.008,16.684-.009.25,0,.5.015.751-.009a1.33,1.33,0,0,0,1.268-1.3,1.3,1.3,0,0,0-1.3-1.346c-.972-.036-1.946-.012-2.919-.012-2.975,0-5.951.007-8.926,0a4,4,0,1,1,.024-7.992c2.92-.008,5.839,0,8.759,0,1.07,0,1.671-.469,1.693-1.3.022-.858-.6-1.363-1.71-1.364-3.893,0-7.786.015-11.679-.01a4,4,0,0,1-3.926-3.413,3.951,3.951,0,0,1,2.56-4.29,5.265,5.265,0,0,1,1.709-.272c4.672-.021,9.343,0,14.015-.024a1.682,1.682,0,0,0,1.149-.306,1.973,1.973,0,0,0,.46-1.377c-.1-.712-.72-.975-1.443-.973-3.086.009-6.173,0-9.26,0-.862,0-1.724.014-2.586,0a3.992,3.992,0,0,1-.008-7.984c2.113-.029,4.227,0,6.34-.009,1.1,0,1.732-.509,1.708-1.367-.023-.829-.624-1.3-1.694-1.3-3.865,0-7.73.01-11.6-.007a3.99,3.99,0,0,1-.848-7.9,4.33,4.33,0,0,1,.91-.083q10.386-.007,20.772,0h.434v2.666H193.539c-.222,0-.446-.012-.667.006a1.326,1.326,0,0,0-.035,2.65c.248.023.5.009.75.009,3.81,0,7.619-.022,11.428.012a3.99,3.99,0,0,1,.042,7.976c-.666.024-1.334.007-2,.008-1.5,0-3,0-4.5,0-1.046,0-1.653.51-1.641,1.348s.614,1.313,1.676,1.314c3.893,0,7.786-.009,11.679.008a4,4,0,0,1,3.794,2.736,3.785,3.785,0,0,1-1.439,4.417,5.393,5.393,0,0,1-2.634.8c-4.587.078-9.176.036-13.764.036-.222,0-.446-.012-.667.005a1.328,1.328,0,0,0-1.315,1.336,1.3,1.3,0,0,0,1.335,1.313c1.473.029,2.947.01,4.421.01,2.475,0,4.95-.008,7.424,0a4,4,0,1,1-.012,7.991c-2.975.011-5.951,0-8.926.005-1.029,0-1.681.641-1.565,1.5.1.732.658,1.16,1.571,1.161,3.893.005,7.786-.006,11.679.006a3.994,3.994,0,1,1,0,7.987c-5.478.018-10.956.006-16.433.006-.222,0-.445-.005-.667,0a1.353,1.353,0,0,0-1.5,1.325,1.335,1.335,0,0,0,1.486,1.334c2.92.011,5.839,0,8.759.01a6.013,6.013,0,0,1,1.4.138,3.969,3.969,0,0,1,3.014,4.3,4.037,4.037,0,0,1-3.9,3.546c-.444.013-.89-.009-1.334.008a1.33,1.33,0,1,0-.022,2.655c.722.023,1.446.006,2.169.006Z" transform="translate(0 -37.27)" fill="#010101"/>
      <path id="Trazado_617967" data-name="Trazado 617967" d="M341.642,701.364c0,12.215-.046,24.43.035,36.645a4.4,4.4,0,0,1-4.751,4.7c-5.865-.12-11.735-.034-17.6-.036a4.021,4.021,0,0,1-4.379-4.334q0-36.978,0-73.956a4.019,4.019,0,0,1,4.379-4.332q8.969,0,17.937,0a4.028,4.028,0,0,1,4.381,4.416Q341.644,682.916,341.642,701.364Zm-2.7-1.359c.017-.167.033-.248.033-.329q0-17.7,0-35.391c0-1.1-.507-1.565-1.678-1.566q-8.926-.005-17.851,0c-1.416,0-1.826.413-1.826,1.837q0,17.32,0,34.641V700Zm-21.324,2.719v.743q0,17.362,0,34.724c0,1.411.416,1.82,1.843,1.821q8.8,0,17.6,0c1.53,0,1.915-.385,1.915-1.918q0-17.237,0-34.474v-.9Z" transform="translate(-98.014 0)"/>
      <path id="Trazado_617968" data-name="Trazado 617968" d="M348.271,709.323H326.946v-.808q0-17.321,0-34.641c0-1.424.41-1.837,1.826-1.837q8.926,0,17.851,0c1.172,0,1.678.462,1.678,1.565q.007,17.7,0,35.391C348.3,709.075,348.288,709.156,348.271,709.323Zm-15.953-22.589a3.956,3.956,0,0,0,3.844,3.951c.944.03,1.89.024,2.835,0a3.994,3.994,0,0,0,0-7.988c-.889-.019-1.78.016-2.668-.012a1.325,1.325,0,1,1,0-2.649c.666-.026,1.336.029,2-.015,1.032-.068,1.82.192,2,1.281h2.612a3.974,3.974,0,0,0-3.979-3.936q-1.334-.024-2.668,0a3.995,3.995,0,1,0,0,7.99c.862.016,1.724-.013,2.585.01a1.329,1.329,0,1,1,0,2.653c-.694.022-1.39.007-2.085.006-1.222,0-1.471-.171-1.914-1.293Z" transform="translate(-107.346 -9.318)" fill="#efbb5d"/>
      <path id="Trazado_617969" data-name="Trazado 617969" d="M326.947,851.885h21.359v.9q0,17.237,0,34.474c0,1.532-.385,1.918-1.915,1.918q-8.8,0-17.6,0c-1.428,0-1.843-.41-1.843-1.821q0-17.362,0-34.724Zm15.98,31.958V870.56h-2.643V879.2a1.91,1.91,0,0,1-.489-.674c-1.241-2.479-2.474-4.962-3.733-7.432-.119-.233-.386-.539-.6-.551-1.043-.057-2.09-.026-3.122-.026v13.266h2.664v-8.824c.218.426.345.668.467.912,1.229,2.453,2.448,4.911,3.7,7.353.129.252.422.577.656.592C340.844,883.88,341.868,883.843,342.927,883.843Z" transform="translate(-107.347 -149.162)" fill="#efbb5e"/>
      <path id="Trazado_617970" data-name="Trazado 617970" d="M350.99,705.34h2.564c.442,1.123.691,1.292,1.914,1.294.695,0,1.391.017,2.085-.006a1.329,1.329,0,1,0,0-2.653c-.861-.023-1.723.006-2.585-.01a3.995,3.995,0,1,1,0-7.99q1.334-.023,2.668,0a3.974,3.974,0,0,1,3.979,3.936H359c-.182-1.09-.97-1.349-2-1.281-.664.044-1.335-.011-2,.015a1.325,1.325,0,1,0,0,2.649c.889.029,1.779-.006,2.668.013a3.994,3.994,0,0,1,0,7.988c-.945.02-1.891.026-2.835,0A3.957,3.957,0,0,1,350.99,705.34Z" transform="translate(-126.019 -27.924)" fill="#010101"/>
      <path id="Trazado_617971" data-name="Trazado 617971" d="M361.787,948.939c-1.058,0-2.083.037-3.1-.028-.234-.015-.527-.34-.656-.592-1.249-2.443-2.468-4.9-3.7-7.353-.122-.244-.249-.487-.467-.912v8.824H351.2V935.613c1.031,0,2.079-.031,3.122.026.213.012.48.318.6.551,1.258,2.47,2.492,4.953,3.733,7.432a1.91,1.91,0,0,0,.489.674v-8.639h2.643Z" transform="translate(-126.207 -214.258)" fill="#010101"/>
      <path id="Trazado_617972" data-name="Trazado 617972" d="M594.937,701.364c0,12.215-.046,24.43.035,36.645a4.4,4.4,0,0,1-4.751,4.7c-5.865-.12-11.735-.034-17.6-.036a4.021,4.021,0,0,1-4.379-4.334q0-36.978,0-73.956a4.02,4.02,0,0,1,4.379-4.332q8.969,0,17.937,0a4.028,4.028,0,0,1,4.38,4.416Q594.938,682.916,594.937,701.364Zm-2.7-1.359c.017-.167.033-.248.033-.329q0-17.7,0-35.391c0-1.1-.507-1.565-1.678-1.566q-8.926-.005-17.851,0c-1.416,0-1.826.413-1.826,1.837q0,17.32,0,34.641V700Zm-21.325,2.719v.743q0,17.362,0,34.724c0,1.411.416,1.82,1.843,1.821q8.8,0,17.6,0c1.53,0,1.915-.385,1.915-1.918q0-17.237,0-34.474v-.9Z" transform="translate(-294.964 0)"/>
      <path id="Trazado_617973" data-name="Trazado 617973" d="M601.565,709.323H580.241v-.808q0-17.321,0-34.641c0-1.424.41-1.837,1.826-1.837q8.925,0,17.851,0c1.172,0,1.678.462,1.678,1.565q.007,17.7,0,35.391C601.6,709.075,601.582,709.156,601.565,709.323Zm-15.953-22.589a3.957,3.957,0,0,0,3.844,3.951c.944.03,1.891.024,2.835,0a3.994,3.994,0,0,0,0-7.988c-.889-.019-1.78.016-2.668-.012a1.325,1.325,0,1,1,0-2.649c.666-.026,1.336.029,2-.015,1.032-.068,1.82.192,2,1.281h2.611a3.975,3.975,0,0,0-3.979-3.936q-1.334-.024-2.669,0a3.995,3.995,0,1,0,0,7.99c.861.016,1.724-.013,2.585.01a1.329,1.329,0,1,1,0,2.653c-.694.022-1.39.007-2.085.006-1.223,0-1.471-.171-1.914-1.293Z" transform="translate(-304.297 -9.318)" fill="#efbb5d"/>
      <path id="Trazado_617974" data-name="Trazado 617974" d="M580.241,851.885H601.6v.9q0,17.237,0,34.474c0,1.532-.385,1.918-1.915,1.918q-8.8,0-17.6,0c-1.428,0-1.843-.41-1.843-1.821q0-17.362,0-34.724Zm15.98,31.958V870.56h-2.643V879.2a1.909,1.909,0,0,1-.489-.674c-1.241-2.479-2.474-4.962-3.733-7.432-.119-.233-.386-.539-.6-.551-1.043-.057-2.09-.026-3.122-.026v13.266H588.3v-8.824c.218.426.345.668.467.912,1.228,2.453,2.448,4.911,3.7,7.353.129.252.421.577.656.592C594.138,883.88,595.163,883.843,596.221,883.843Z" transform="translate(-304.297 -149.162)" fill="#efbb5e"/>
      <path id="Trazado_617975" data-name="Trazado 617975" d="M604.284,705.34h2.564c.442,1.123.691,1.292,1.914,1.294.695,0,1.39.017,2.085-.006a1.329,1.329,0,1,0,0-2.653c-.861-.023-1.724.006-2.585-.01a3.995,3.995,0,1,1,0-7.99q1.334-.023,2.669,0a3.975,3.975,0,0,1,3.979,3.936H612.3c-.182-1.09-.97-1.349-2-1.281-.664.044-1.334-.011-2,.015a1.325,1.325,0,1,0,0,2.649c.889.029,1.779-.006,2.668.013a3.994,3.994,0,0,1,0,7.988c-.945.02-1.891.026-2.835,0A3.957,3.957,0,0,1,604.284,705.34Z" transform="translate(-322.969 -27.924)" fill="#010101"/>
      <path id="Trazado_617976" data-name="Trazado 617976" d="M615.081,948.939c-1.058,0-2.083.037-3.1-.028-.234-.015-.527-.34-.656-.592-1.249-2.443-2.468-4.9-3.7-7.353-.122-.244-.249-.487-.467-.912v8.824H604.5V935.613c1.032,0,2.079-.031,3.122.026.212.012.48.318.6.551,1.258,2.47,2.492,4.953,3.733,7.432a1.91,1.91,0,0,0,.489.674v-8.639h2.643Z" transform="translate(-323.157 -214.258)" fill="#010101"/>
    </g>
    <g id="Grupo_877856" data-name="Grupo 877856" transform="translate(773 14954.688)">
      <path id="Trazado_617977" data-name="Trazado 617977" d="M200.592,673.449h1.435a3.431,3.431,0,0,1,2.25,3.764c-.089,1.84-.045,3.688,0,5.531a2.017,2.017,0,0,0,.444,1.157,4.918,4.918,0,0,1,1.252,3.266c0,.668,0,1.336,0,2.015h7.013a10.184,10.184,0,0,1,.018-1.744,5.839,5.839,0,0,1,.736-2.692,5.073,5.073,0,0,0,1.005-3.871c-.022-.819,0-1.639,0-2.459,0-2.083.593-2.877,2.558-3.523,1.409-.463,2.806-.962,4.209-1.444h1.435a3.24,3.24,0,0,1,2.3,3.6c-.09,1.772.007,3.554-.033,5.33a2.481,2.481,0,0,0,.618,1.731,5.6,5.6,0,0,1,1.023,2.179,19.271,19.271,0,0,1,.227,2.92c2.126,0,4.236-.008,6.346.005a8.015,8.015,0,0,1,1.73.124c2.591.6,4.072,2.648,4.074,5.62q.009,15.224.016,30.448a1.738,1.738,0,0,0,.316,1.186A4.251,4.251,0,0,1,241,730.15q-.031,21.119-.013,42.238c0,4-2.041,6.048-6.037,6.048H142.067c-.342,0-.685.016-1.025-.009a5.218,5.218,0,0,1-4.627-3.2c-.14-.3-.277-.6-.416-.893V728.4a6.829,6.829,0,0,1,1.087-1.417,1.83,1.83,0,0,0,.682-1.677q-.023-14.951-.01-29.9c0-.443,0-.888.031-1.33a5.149,5.149,0,0,1,4.1-4.749,9.743,9.743,0,0,1,1.935-.11c2.036-.012,4.073,0,6.157,0a11.2,11.2,0,0,1,.021-1.957,5.218,5.218,0,0,1,.785-2.569c1.1-1.12.969-2.373.975-3.675,0-.854,0-1.707,0-2.56,0-2.172.55-2.893,2.608-3.576,1.337-.443,2.653-.949,3.978-1.427h1.64a3.351,3.351,0,0,1,2.276,3.73c-.093,1.873-.034,3.755-.007,5.633a1.424,1.424,0,0,0,.294.9,5.242,5.242,0,0,1,1.45,4.017c-.014.47,0,.941,0,1.423h7.016a12.969,12.969,0,0,1,.022-2.076,4.592,4.592,0,0,1,.719-2.378c1.088-1.078.982-2.3.973-3.577q-.01-1.434,0-2.868a3.022,3.022,0,0,1,2.427-3.322q2.258-.745,4.518-1.486h1.23c1.88.786,2.32,1.462,2.322,3.573,0,1.879-.028,3.759.022,5.637a2.162,2.162,0,0,0,.472,1.243A5.1,5.1,0,0,1,185,687.269c0,.635,0,1.27,0,1.878h6.99a11.493,11.493,0,0,1,.022-2,4.958,4.958,0,0,1,.776-2.47c1.069-1.085.988-2.3.974-3.578-.011-.957-.008-1.914,0-2.87a2.965,2.965,0,0,1,2.437-3.3C197.665,674.439,199.127,673.941,200.592,673.449Zm-22.764,12.322c-.272-.015-.544-.042-.816-.044-2.164-.02-2.573.307-2.463,2.463a7.848,7.848,0,0,1-1.26,4.732c-.966,1.549-1.787,3.188-2.765,4.959h11.611l3.406.153c-.485-.89-.847-1.537-1.193-2.193-1.415-2.678-3.441-5.126-2.875-8.511.159-.948-.614-1.566-1.6-1.592C179.194,685.717,178.51,685.757,177.828,685.771Zm20.916-.007c-.374-.016-.748-.045-1.123-.045-1.641,0-2.231.5-2.115,2.124a8.27,8.27,0,0,1-1.4,5.4c-.83,1.243-1.476,2.608-2.2,3.923-.118.214-.2.449-.309.713h14.864c-.713-1.294-1.306-2.511-2.026-3.648-1.336-2.111-2.347-4.266-1.993-6.884.133-.98-.565-1.586-1.554-1.622C200.175,685.7,199.459,685.749,198.744,685.763Zm-42.037,0c-.442-.015-.883-.045-1.325-.04-1.3.015-2.009.58-1.874,1.846a9.436,9.436,0,0,1-1.762,6.323c-.647,1-1.177,2.069-1.749,3.113-.138.251-.231.527-.387.889h14.876c-.518-.938-.977-1.8-1.465-2.648-1.4-2.435-3-4.77-2.527-7.854.162-1.061-.631-1.642-1.747-1.662C158.067,685.716,157.387,685.749,156.707,685.762Zm67.468,12.124h3.312c-1.068-1.913-2.041-3.745-3.1-5.523a5.656,5.656,0,0,1-.879-3.382c.214-3.308-.551-3.439-3.653-3.2-.168-.022-.336-.057-.505-.063-2.52-.087-2.909.228-2.821,2.725a7.264,7.264,0,0,1-1.122,4.248c-1.028,1.663-1.912,3.415-2.893,5.192Zm5.931-5.139h-1.495l1.722,3.044c.148.267.284.541.446.8a8.856,8.856,0,0,1,1.449,5c-.091,7.684-.038,15.37-.038,23.055v1.225h3.6a5.526,5.526,0,0,0,.063-.561q0-15.217,0-30.434a2.606,2.606,0,0,0-.006-.307,1.925,1.925,0,0,0-2.054-1.847C232.564,692.712,231.335,692.737,230.106,692.747Zm-46.948,33.165H186.6v-15.7H169.264v15.522l.159.169Zm-20.921,0h3.422V710.219H148.352V725.91Zm42.04-15.689H190.315v15.688h17.379V710.221Zm20.9-.006H211.308v15.7h17.32v-15.7Zm8.409,64.69c.443.013.887.037,1.33.038,2.074,0,2.577-.509,2.577-2.614q0-20.809,0-41.619v-1.235h-3.907c-.273-.013-.545-.036-.818-.036q-46.126,0-92.252,0h-1.025v1.268q0,20.808,0,41.616c0,2.155.475,2.622,2.665,2.622q45.152,0,90.3,0C232.838,774.941,233.214,774.918,233.589,774.905Zm-88.809-48.989v-1.31c0-7.585.041-15.17-.029-22.755a8.746,8.746,0,0,1,1.328-5.036c.82-1.277,1.486-2.652,2.289-4.107-1.676,0-3.175,0-4.674,0-1.91,0-2.525.6-2.525,2.491q0,14.812,0,29.623v1.093ZM165.7,701.562h-17.35v5.048H165.7Zm3.6,5.044h17.4c0-1.4-.05-2.725.018-4.047.045-.865-.252-1.089-1.1-1.084-5.123.036-10.246.017-15.369.021-.3,0-.6.035-.955.057Zm38.428-5.061H190.317V706.6h17.407Zm3.6-.022V706.6h17.315v-5.078Zm-10.562-24.365c-1.1.354-2.072.645-3.025.991a.774.774,0,0,0-.453.524c-.042,1.146-.021,2.294-.021,3.479H200.7a3.825,3.825,0,0,0,.06-.452C200.762,680.238,200.761,678.777,200.761,677.158Zm-45.5,4.986h3.495c0-1.519,0-2.952,0-4.385a4.7,4.7,0,0,0-.052-.5c-3.462.6-3.465.6-3.441,3.98C155.262,681.512,155.261,681.783,155.261,682.144Zm66.414-4.953c-1.1.345-2.122.658-3.138,1a.5.5,0,0,0-.281.359c-.021,1.205-.013,2.411-.013,3.618h3.431Zm-42.084,4.984v-4.943c-1.045.326-1.962.58-2.85.912a.9.9,0,0,0-.5.635c-.051,1.112-.023,2.229-.023,3.4Zm7.043,10.588L188.5,696.1l1.823-3.341Zm-21-.007L167.5,696.1l1.836-3.348Zm43.858,3.352,1.823-3.321h-3.657Z" fill="#010101"/>
      <path id="Trazado_617978" data-name="Trazado 617978" d="M242.849,923.3c-.375.013-.75.036-1.125.036q-45.152,0-90.3,0c-2.189,0-2.665-.467-2.665-2.622q0-20.808,0-41.616V877.83h1.025q46.126,0,92.252,0c.273,0,.545.023.818.036a16.67,16.67,0,0,1,.406,2.594q.039,20.121,0,40.241A16.675,16.675,0,0,1,242.849,923.3Z" transform="translate(-9.261 -148.393)" fill="#9d9d9d"/>
      <path id="Trazado_617979" data-name="Trazado 617979" d="M424.789,823.359H410.908v-15.7H424.78Q424.784,815.51,424.789,823.359Z" transform="translate(-199.6 -97.446)" fill="#02a8f3"/>
      <path id="Trazado_617980" data-name="Trazado 617980" d="M348.236,823.372H334.272V807.684h13.962Q348.235,815.528,348.236,823.372Z" transform="translate(-143.957 -97.463)" fill="#fede00"/>
      <path id="Trazado_617981" data-name="Trazado 617981" d="M194.974,823.366H181.089V807.675h13.876Q194.97,815.521,194.974,823.366Z" transform="translate(-32.737 -97.456)" fill="#e81e63"/>
      <path id="Trazado_617982" data-name="Trazado 617982" d="M257.429,823.19V807.668h13.888q0,7.848,0,15.7l-13.734,0Z" transform="translate(-88.165 -97.451)" fill="#60a817"/>
      <path id="Trazado_617983" data-name="Trazado 617983" d="M492.24,923.4a16.668,16.668,0,0,0,.406-2.594q.039-20.121,0-40.241a16.668,16.668,0,0,0-.406-2.595h3.907V879.2q0,20.809,0,41.619c0,2.1-.5,2.617-2.577,2.614C493.127,923.435,492.683,923.411,492.24,923.4Z" transform="translate(-258.651 -148.493)" fill="#6f6f6f"/>
      <path id="Trazado_617984" data-name="Trazado 617984" d="M158.471,776.961h-3.613v-1.093q0-14.811,0-29.623c0-1.887.616-2.489,2.525-2.491,1.5,0,3,0,4.674,0-.8,1.455-1.469,2.831-2.289,4.107a8.746,8.746,0,0,0-1.328,5.036c.07,7.585.029,15.17.029,22.755Z" transform="translate(-13.692 -51.045)" fill="#5d7987"/>
      <path id="Trazado_617985" data-name="Trazado 617985" d="M479.526,743.822c1.229-.01,2.459-.035,3.688-.026a1.925,1.925,0,0,1,2.054,1.847,2.606,2.606,0,0,1,.006.307q0,15.217,0,30.434a5.521,5.521,0,0,1-.063.561h-3.6V775.72c0-7.685-.053-15.371.038-23.055a8.857,8.857,0,0,0-1.449-5c-.162-.258-.3-.532-.446-.8Q479.64,745.344,479.526,743.822Z" transform="translate(-249.42 -51.075)" fill="#36454d"/>
      <path id="Trazado_617986" data-name="Trazado 617986" d="M198.424,776.073v5.048h-17.35v-5.048Z" transform="translate(-32.726 -74.511)" fill="#ac1457"/>
      <path id="Trazado_617987" data-name="Trazado 617987" d="M257.543,780.885v-5.053c.358-.022.657-.057.955-.057,5.123,0,10.246.016,15.369-.021.843-.006,1.14.219,1.1,1.084-.068,1.322-.018,2.65-.018,4.047Z" transform="translate(-88.247 -74.279)" fill="#549314"/>
      <path id="Trazado_617988" data-name="Trazado 617988" d="M351.686,776.011v5.058H334.279v-5.058Z" transform="translate(-143.962 -74.466)" fill="#fdc008"/>
      <path id="Trazado_617989" data-name="Trazado 617989" d="M410.961,775.932h17.315v5.078H410.961Z" transform="translate(-199.638 -74.409)" fill="#0378bc"/>
      <path id="Trazado_617990" data-name="Trazado 617990" d="M426.966,730.378H415.3c.982-1.777,1.866-3.529,2.893-5.192a7.264,7.264,0,0,0,1.122-4.248c-.088-2.5.3-2.812,2.821-2.725.169.006.337.042.505.063.07,1.253.109,2.51.224,3.758a4.158,4.158,0,0,0,.408,1.524C424.479,725.847,425.731,728.108,426.966,730.378Z" transform="translate(-202.791 -32.492)" fill="#02a7f2"/>
      <path id="Trazado_617991" data-name="Trazado 617991" d="M197.25,730.418H185.682c.156-.362.249-.638.387-.889.572-1.044,1.1-2.116,1.749-3.112a9.436,9.436,0,0,0,1.762-6.323c-.135-1.266.571-1.832,1.874-1.846.441-.005.883.025,1.325.04a19.156,19.156,0,0,1,.2,2.62,5.83,5.83,0,0,0,.962,3.446C195.119,726.328,196.154,728.391,197.25,730.418Z" transform="translate(-36.072 -32.526)" fill="#e61e62"/>
      <path id="Trazado_617992" data-name="Trazado 617992" d="M350.419,730.4H338.957c.113-.263.192-.5.309-.713.72-1.315,1.367-2.681,2.2-3.923a8.27,8.27,0,0,0,1.4-5.4c-.116-1.622.474-2.124,2.115-2.124.374,0,.748.029,1.123.045a12.109,12.109,0,0,1,.188,2.115,7.131,7.131,0,0,0,1.2,4.419C348.578,726.609,349.453,728.532,350.419,730.4Z" transform="translate(-147.359 -32.518)" fill="#fddd00"/>
      <path id="Trazado_617993" data-name="Trazado 617993" d="M273.638,730.418H262.027c.978-1.77,1.8-3.41,2.765-4.959a7.848,7.848,0,0,0,1.26-4.731c-.11-2.155.3-2.483,2.463-2.463.272,0,.544.029.816.044a26.266,26.266,0,0,1,.186,2.939,5.679,5.679,0,0,0,.932,3.259C271.59,726.431,272.583,728.443,273.638,730.418Z" transform="translate(-91.503 -32.538)" fill="#60a817"/>
      <path id="Trazado_617994" data-name="Trazado 617994" d="M231.752,823.366q0-7.846-.009-15.691h3.431v15.691Z" transform="translate(-69.515 -97.456)" fill="#ac1457"/>
      <path id="Trazado_617995" data-name="Trazado 617995" d="M308.133,823.363q0-7.848,0-15.7h3.451v15.7Z" transform="translate(-124.975 -97.451)" fill="#549314"/>
      <path id="Trazado_617996" data-name="Trazado 617996" d="M385.241,823.372q0-7.844,0-15.688h3.417v15.688Z" transform="translate(-180.962 -97.463)" fill="#f8be07"/>
      <path id="Trazado_617997" data-name="Trazado 617997" d="M461.554,823.359q0-7.849-.009-15.7h3.448v15.7Z" transform="translate(-236.365 -97.446)" fill="#0378bc"/>
      <path id="Trazado_617998" data-name="Trazado 617998" d="M216.06,730.428c-1.1-2.026-2.13-4.089-3.312-6.064a5.829,5.829,0,0,1-.962-3.446,19.156,19.156,0,0,0-.2-2.62c.68-.013,1.36-.046,2.039-.034,1.116.02,1.909.6,1.747,1.662-.473,3.084,1.123,5.419,2.527,7.854.488.846.947,1.71,1.465,2.648Z" transform="translate(-54.882 -32.537)" fill="#a81454"/>
      <path id="Trazado_617999" data-name="Trazado 617999" d="M446.424,730.37c-1.234-2.27-2.487-4.531-3.688-6.819a4.159,4.159,0,0,1-.408-1.524c-.115-1.249-.155-2.505-.224-3.758,3.1-.243,3.867-.112,3.653,3.2a5.657,5.657,0,0,0,.879,3.382c1.061,1.779,2.034,3.611,3.1,5.523Z" transform="translate(-222.249 -32.485)" fill="#0373b5"/>
      <path id="Trazado_618000" data-name="Trazado 618000" d="M293,730.433c-1.055-1.975-2.048-3.987-3.189-5.911a5.679,5.679,0,0,1-.932-3.259,26.257,26.257,0,0,0-.186-2.939c.682-.014,1.366-.053,2.047-.034.982.027,1.755.644,1.6,1.592-.566,3.385,1.46,5.833,2.875,8.511.346.656.708,1.3,1.193,2.193Z" transform="translate(-110.862 -32.553)" fill="#549314"/>
      <path id="Trazado_618001" data-name="Trazado 618001" d="M369.359,730.405c-.966-1.868-1.841-3.791-2.928-5.585a7.131,7.131,0,0,1-1.2-4.419,12.11,12.11,0,0,0-.188-2.115c.715-.015,1.431-.061,2.144-.036.989.036,1.687.641,1.554,1.622-.354,2.619.657,4.773,1.993,6.884.719,1.137,1.313,2.355,2.026,3.648Z" transform="translate(-166.299 -32.523)" fill="#fdc008"/>
      <path id="Trazado_618002" data-name="Trazado 618002" d="M363.12,686.989c0,1.619,0,3.08,0,4.541a3.829,3.829,0,0,1-.06.452h-3.435c0-1.185-.021-2.333.021-3.479a.774.774,0,0,1,.453-.524C361.048,687.634,362.02,687.343,363.12,686.989Z" transform="translate(-162.359 -9.831)" fill="#f8be07"/>
      <path id="Trazado_618003" data-name="Trazado 618003" d="M206.3,692.249c0-.361,0-.632,0-.9-.024-3.377-.021-3.381,3.441-3.98a4.7,4.7,0,0,1,.052.5c0,1.433,0,2.867,0,4.385Z" transform="translate(-51.039 -10.105)" fill="#a81454"/>
      <path id="Trazado_618004" data-name="Trazado 618004" d="M439.651,687.11v4.976H436.22c0-1.207-.008-2.413.013-3.618a.5.5,0,0,1,.281-.359C437.529,687.768,438.554,687.455,439.651,687.11Z" transform="translate(-217.976 -9.919)" fill="#0373b5"/>
      <path id="Trazado_618005" data-name="Trazado 618005" d="M286.171,692.2H282.8c0-1.167-.028-2.284.023-3.4a.9.9,0,0,1,.5-.635c.888-.332,1.8-.586,2.85-.912Z" transform="translate(-106.58 -10.025)" fill="#549314"/>
      <path id="Trazado_618006" data-name="Trazado 618006" d="M320.835,743.954h3.69l-1.823,3.341Z" transform="translate(-134.201 -51.191)" fill="#5d7987"/>
      <path id="Trazado_618007" data-name="Trazado 618007" d="M244.186,743.927h3.7l-1.836,3.348Z" transform="translate(-78.549 -51.171)" fill="#5d7987"/>
      <path id="Trazado_618008" data-name="Trazado 618008" d="M399.422,747.362l-1.835-3.321h3.657Z" transform="translate(-189.928 -51.254)" fill="#5d7987"/>
      <path id="Trazado_618009" data-name="Trazado 618009" d="M475.564,743.9q.114,1.522.227,3.044l-1.722-3.044Z" transform="translate(-245.458 -51.148)" fill="#5b7784"/>
      <path id="Trazado_618010" data-name="Trazado 618010" d="M257.429,864.33l.159.169Z" transform="translate(-88.165 -138.591)" fill="#549314"/>
    </g>
    <g id="Grupo_877857" data-name="Grupo 877857" transform="translate(1047 14951.861)">
      <path id="Trazado_618011" data-name="Trazado 618011" d="M235.407,746.756a1.7,1.7,0,0,1-.275,2.457c-.888.85-1.727,1.751-2.624,2.591a4.629,4.629,0,0,1-4.914,1.123.992.992,0,0,0-1.236.317c-.547.609-1.142,1.175-1.733,1.743a4.721,4.721,0,0,1-6.938-.029c-.342-.333-.654-.7-.859-.916a70.759,70.759,0,0,0-5.953,5.772c-.854,1.027-1.029,2.686-1.317,4.1-.973,4.777-2.728,9.133-6.42,12.5a20.758,20.758,0,0,1-12.363,5.079c-1.932.194-3.888.185-5.833.19a4.587,4.587,0,0,1-4.731-3.048c-.03-.077-.139-.124-.212-.185v-2.457c1.406-2.5,3.716-4.19,5.645-6.219,1.713-1.8,3.528-3.507,5.262-5.29a1.85,1.85,0,0,1,2.365-.542c.88,1.14.851,1.691-.186,2.729-3.134,3.138-6.29,6.254-9.389,9.425a1.929,1.929,0,0,0-.5,1.509,1.544,1.544,0,0,0,1.157.926c2.378-.017,4.755-.174,7.133-.283a16.725,16.725,0,0,0,9.509-4.063,16.953,16.953,0,0,0,5.419-10.6,12.711,12.711,0,0,1,4.411-8.336c1.263-1.074,2.378-2.32,3.514-3.443l-3.163-3.218-2.1,2.193q-4.978,4.933-9.957,9.865c-1.021,1.011-1.51,1.061-2.667.291a1.862,1.862,0,0,1,.532-2.524q8.578-8.512,17.122-17.058a1.306,1.306,0,0,0,.435-1.564,4.547,4.547,0,0,1,1.078-4.644c.114-.126.235-.247.355-.368q24.243-24.2,48.492-48.4c4.853-4.837,11.994-5.013,16.825-.462a11.334,11.334,0,0,1,3.527,6.64,1.06,1.06,0,0,0,.181.317v3.48c-.172.532-.351,1.061-.514,1.6a12.3,12.3,0,0,1-3.181,5.16q-20.137,20.095-40.272,40.191c-.922.92-1.343.963-2.526.336-.643-1.28-.591-1.575.512-2.675l39.718-39.651c.338-.338.681-.672,1-1.03a8.8,8.8,0,0,0-13.25-11.585q-24,23.986-48.023,47.95c-.169.169-.345.332-.5.51a1.741,1.741,0,0,0,.006,2.559c3.032,3.044,6.093,6.06,9.143,9.086,1.542,1.725,2.312,1.755,3.91.151.623-.626,1.245-1.253,1.875-1.871C233.829,746.165,234.226,746.117,235.407,746.756Zm-20.585-1.707L213.6,746.2l5.572,5.836a11.055,11.055,0,0,0,.829.885,1.6,1.6,0,0,0,2.3.019c.78-.7,1.513-1.445,2.225-2.131l-7.766-7.779Z" fill="#020303"/>
      <path id="Trazado_618012" data-name="Trazado 618012" d="M204.882,942.047c1.157.77,1.646.72,2.667-.291q4.98-4.931,9.957-9.865a2.075,2.075,0,0,1-.367,2.589c-1.228,1.232-2.409,2.516-3.7,3.674a10.087,10.087,0,0,0-3.106,6.328,22.012,22.012,0,0,1-3.655,9.305,18.676,18.676,0,0,1-6.761,5.568c-2.378.109-4.755.266-7.133.283a1.544,1.544,0,0,1-1.157-.926,1.928,1.928,0,0,1,.5-1.509c3.1-3.171,6.255-6.287,9.389-9.425,1.037-1.038,1.066-1.589.186-2.729Z" transform="translate(-8.429 -181.106)" fill="#e8f4fd"/>
      <path id="Trazado_618013" data-name="Trazado 618013" d="M360.578,755.06c-1.181-.639-1.577-.59-2.515.329-.63.619-1.252,1.246-1.875,1.871-1.6,1.6-2.368,1.574-3.91-.151.308-.267.634-.515.922-.8q23.023-22.975,46.035-45.961a7.353,7.353,0,0,0,1.372-1.635,24.949,24.949,0,0,0,1.1-2.766,4.9,4.9,0,0,0,.213-5.356c.041-.234.188-.515.107-.694a20.393,20.393,0,0,0-1.575-3.144,26.554,26.554,0,0,0-2.387-2.679,8.738,8.738,0,0,1,6.84,14.517c-.316.357-.659.692-1,1.03L364.19,749.27c-1.1,1.1-1.155,1.4-.512,2.675Z" transform="translate(-125.171 -8.305)" fill="#0ab59e"/>
      <path id="Trazado_618014" data-name="Trazado 618014" d="M372.272,694.113a26.568,26.568,0,0,1,2.387,2.679,20.4,20.4,0,0,1,1.575,3.144c.081.179-.065.46-.107.694-2.257-2.635-5.1-2.865-7.434-.546q-9.169,9.116-18.3,18.267c-.9.9-.947,1.408-.283,2.521l-2.707,2.719c-1.146-.669-1.621-.63-2.525.262-1.384,1.365-2.772,2.727-4.123,4.123a4.643,4.643,0,1,0,6.569,6.563q14.32-14.254,28.593-28.554a24.957,24.957,0,0,1-1.1,2.766,7.352,7.352,0,0,1-1.372,1.635q-23.01,22.988-46.035,45.96c-.288.287-.614.535-.922.8-3.05-3.026-6.111-6.042-9.143-9.086a1.741,1.741,0,0,1-.006-2.559c.158-.178.334-.341.5-.51q24.014-23.972,48.023-47.95A8.826,8.826,0,0,1,372.272,694.113Z" transform="translate(-99.379 -8.345)" fill="#0ed1b2"/>
      <path id="Trazado_618015" data-name="Trazado 618015" d="M222,953.529a18.675,18.675,0,0,0,6.761-5.568,22.011,22.011,0,0,0,3.655-9.305,10.087,10.087,0,0,1,3.106-6.328c1.294-1.158,2.475-2.443,3.7-3.674a2.076,2.076,0,0,0,.367-2.589l2.1-2.193,3.163,3.218c-1.136,1.123-2.251,2.37-3.514,3.443a12.71,12.71,0,0,0-4.411,8.336,16.952,16.952,0,0,1-5.419,10.6A16.725,16.725,0,0,1,222,953.529Z" transform="translate(-30.516 -175.28)" fill="#c5ecfa"/>
      <path id="Trazado_618016" data-name="Trazado 618016" d="M307.35,905.535l1.938-2.024,7.766,7.779c-.712.686-1.446,1.434-2.225,2.131a1.6,1.6,0,0,1-2.3-.019,11.06,11.06,0,0,1-.829-.885,2.172,2.172,0,0,0-.061-2.754C310.287,908.284,308.788,906.938,307.35,905.535Z" transform="translate(-92.528 -160.486)" fill="#62d9f9"/>
      <path id="Trazado_618017" data-name="Trazado 618017" d="M304.107,910.914c1.438,1.4,2.937,2.749,4.29,4.228a2.171,2.171,0,0,1,.061,2.754l-5.572-5.836Z" transform="translate(-89.284 -165.865)" fill="#95e0f6"/>
      <path id="Trazado_618018" data-name="Trazado 618018" d="M435.858,717.613q-14.292,14.282-28.593,28.554A4.643,4.643,0,1,1,400.7,739.6c1.351-1.4,2.74-2.758,4.123-4.123.9-.893,1.379-.931,2.525-.262a1.807,1.807,0,0,1-.42,2.539c-1.309,1.249-2.574,2.544-3.846,3.83-.83.839-.914,1.753-.25,2.428s1.585.6,2.435-.2c.124-.118.243-.239.364-.36l27.035-26.989c.145-.145.294-.285.433-.436a1.567,1.567,0,1,0-2.181-2.23c-.2.184-.389.383-.582.576q-8.843,8.827-17.686,17.654c-1.026,1.024-1.411,1.088-2.595.472-.664-1.113-.622-1.617.283-2.521q9.144-9.141,18.3-18.267c2.332-2.319,5.177-2.089,7.434.546A4.9,4.9,0,0,1,435.858,717.613Z" transform="translate(-159.323 -19.972)" fill="#020706"/>
      <path id="Trazado_618019" data-name="Trazado 618019" d="M418.3,740.809c1.183.616,1.569.552,2.595-.472q8.845-8.825,17.686-17.654c.193-.193.381-.392.582-.576a1.567,1.567,0,1,1,2.181,2.23c-.138.151-.287.291-.433.436l-27.035,26.989c-.121.121-.24.242-.364.36-.85.807-1.766.883-2.435.2s-.58-1.588.25-2.428c1.272-1.286,2.537-2.581,3.846-3.83a1.807,1.807,0,0,0,.42-2.539Z" transform="translate(-167.571 -28.281)" fill="#5cdfc3"/>
    </g>
    <g id="Grupo_877858" data-name="Grupo 877858" transform="translate(248.087 15226.353)">
      <path id="Trazado_618020" data-name="Trazado 618020" d="M313.452,714.913l2.78-2.3c1.195.887,1.817.881,2.894-.049q1.2-1.036,2.374-2.1c1.113-1.008,1.182-1.5.436-2.857l2.567-2.3c1.242.947,1.787.939,2.977-.105q12.746-11.194,25.485-22.4c2-1.761,4.01-3.519,6.183-5.425-.2,1.422-.336,2.592-.529,3.754-.213,1.283-.449,2.563-.722,3.835-3.09,14.4-9.1,27.379-19.212,38.184-4.33,4.625-9.039,8.917-13.781,13.127-8.3,7.371-16.758,14.569-25.173,21.812a2.476,2.476,0,0,1-1.578.643c-2.429-.181-4.852-.736-7.27-.7-3.085.047-5.106-1.316-6.867-3.681-1.613-2.166-3.527-4.106-5.358-6.2.477-.428.864-.781,1.257-1.126q16.5-14.5,33-29.007C314.26,716.839,314.34,716.306,313.452,714.913ZM293.24,752.531a5.619,5.619,0,1,0-5.594-5.562A5.619,5.619,0,0,0,293.24,752.531Zm50.2-39.509c-.51-.517-.907-1.176-1.485-1.444-.851-.4-1.541.134-2.053.864A70.65,70.65,0,0,1,329.8,723.832c-1.2,1.1-2.395,2.2-3.557,3.343a1.585,1.585,0,0,0-.11,2.395,1.634,1.634,0,0,0,2.406.111c.513-.4.952-.887,1.434-1.324a82.215,82.215,0,0,0,12.443-13.543C342.757,714.325,343.013,713.777,343.443,713.022Z" transform="translate(-61.369 -11.915)" fill="#e8e8ee"/>
      <path id="Trazado_618021" data-name="Trazado 618021" d="M252.084,703c.888,1.393.808,1.926-.541,3.113q-16.495,14.507-33,29.008c-.393.345-.78.7-1.257,1.126,1.831,2.1,3.746,4.037,5.358,6.2,1.761,2.365,3.782,3.728,6.867,3.681,2.418-.037,4.841.518,7.27.7a2.477,2.477,0,0,0,1.578-.643c8.415-7.243,16.871-14.441,25.173-21.812,4.742-4.21,9.451-8.5,13.781-13.127,10.115-10.8,16.122-23.782,19.212-38.184.273-1.272.509-2.552.722-3.835.193-1.162.331-2.332.529-3.754-2.173,1.906-4.18,3.664-6.183,5.425q-12.742,11.2-25.485,22.4c-1.19,1.045-1.735,1.053-2.977.105a2.021,2.021,0,0,1,.7-2.668q17.158-15.044,34.282-30.127c.691-.607,1.363-1.2,2.376-.713s1.005,1.371.954,2.3A84.286,84.286,0,0,1,291.57,697.1a79.481,79.481,0,0,1-16.406,21.232c-11.5,10.693-23.079,21.3-35.347,31.114a3.968,3.968,0,0,1-3.255.86q-5.139-.642-10.3-1.088a3.456,3.456,0,0,0-1.826.6,6.993,6.993,0,0,0-1.468,1.278,2.182,2.182,0,0,1-3.138.42c-1.133-2.457,1.406-2.994,2.364-4.467l-7.495-8.541c-1.926,1.7-3.751,3.308-5.58,4.915q-8.159,7.162-16.316,14.325a4.45,4.45,0,0,0-1.322,5.2c.265-.2.531-.369.766-.576q7.147-6.28,14.288-12.567c1.4-1.235,2.791-2.492,4.224-3.693a1.653,1.653,0,0,1,2.5.041,1.818,1.818,0,0,1-.244,2.511c-.143.144-.3.278-.449.412q-7.427,6.517-14.853,13.033c-1.424,1.251-2.833,2.52-4.354,3.874,1.554,1.721,2.955,3.413,4.507,4.953a4.61,4.61,0,0,0,5.44.623c1.766-.936,2.36-2.265,2-4.619a7.37,7.37,0,0,1,2.715-7.265c1.655-1.379,3.263-2.818,4.838-4.287a1.818,1.818,0,1,1,2.313,2.572c-1.709,1.44-3.356,2.954-5.054,4.409a4.025,4.025,0,0,0-1.437,4.017c.628,3.8-.743,6.639-3.889,8.25a8.048,8.048,0,0,1-9.549-1.454c-2.051-2.14-4.029-4.368-5.865-6.695-2.778-3.52-2.2-8.293,1.281-11.385q8.576-7.608,17.208-15.151,20.651-18.16,41.295-36.328C250.061,702.83,250.917,702.313,252.084,703Z" fill="#23162f"/>
      <path id="Trazado_618022" data-name="Trazado 618022" d="M223.014,918.051a2.016,2.016,0,0,0-2.922.3c-1.575,1.47-3.184,2.908-4.838,4.287a7.37,7.37,0,0,0-2.715,7.265c.364,2.354-.231,3.683-2,4.619a4.61,4.61,0,0,1-5.44-.623c-1.552-1.539-2.953-3.231-4.507-4.953,1.521-1.355,2.93-2.623,4.354-3.874q7.422-6.521,14.853-13.033c.153-.134.307-.268.449-.412a1.818,1.818,0,0,0,.244-2.511,1.653,1.653,0,0,0-2.5-.042c-1.433,1.2-2.82,2.458-4.224,3.693q-7.144,6.284-14.288,12.567c-.235.207-.5.378-.766.575a4.45,4.45,0,0,1,1.322-5.2q8.146-7.177,16.316-14.325c1.83-1.606,3.655-3.218,5.58-4.915l7.495,8.541c-.958,1.473-3.5,2.01-2.364,4.467Z" transform="translate(-7.235 -162.966)" fill="#d94b12"/>
      <path id="Trazado_618023" data-name="Trazado 618023" d="M399.083,769.243c.746,1.355.677,1.849-.436,2.857q-1.173,1.063-2.374,2.1c-1.076.93-1.7.936-2.894.049a1.949,1.949,0,0,1,.645-2.648c.811-.657,1.6-1.348,2.354-2.067A1.947,1.947,0,0,1,399.083,769.243Z" transform="translate(-138.516 -73.549)" fill="#251831"/>
      <path id="Trazado_618024" data-name="Trazado 618024" d="M311.833,884.7a5.619,5.619,0,1,1,5.614-5.666A5.618,5.618,0,0,1,311.833,884.7Zm.058-7.807a2.194,2.194,0,1,0,2.141,2.214A2.236,2.236,0,0,0,311.891,876.893Z" transform="translate(-79.961 -144.084)" fill="#23162f"/>
      <path id="Trazado_618025" data-name="Trazado 618025" d="M440.608,783.457c-.43.755-.686,1.3-1.028,1.792a82.213,82.213,0,0,1-12.443,13.543c-.482.437-.921.928-1.434,1.324A1.634,1.634,0,0,1,423.3,800a1.585,1.585,0,0,1,.11-2.395c1.162-1.138,2.36-2.241,3.557-3.343a70.646,70.646,0,0,0,10.107-11.389c.512-.73,1.2-1.26,2.053-.864C439.7,782.281,440.1,782.94,440.608,783.457Z" transform="translate(-158.534 -82.349)" fill="#251831"/>
      <path id="Trazado_618026" data-name="Trazado 618026" d="M318.954,883.988a2.194,2.194,0,1,1-2.236,2.117A2.234,2.234,0,0,1,318.954,883.988Z" transform="translate(-87.024 -151.179)" fill="#d64a13"/>
    </g>
    <g id="Grupo_877859" data-name="Grupo 877859" transform="translate(539.241 15205.211)">
      <path id="Trazado_618027" data-name="Trazado 618027" d="M232.771,740.736q.009-.754.019-1.508a1.452,1.452,0,0,0,1.468-1.486,10.223,10.223,0,0,0,.009-1.656c-.056-.925-.483-1.531-1.49-1.562q0-.756.005-1.512c1.226-.276,1.5-.653,1.5-2.156,0-8.265-.028-16.53.012-24.795a11.757,11.757,0,0,1,12.043-11.984q26.627-.019,53.254,0a11.735,11.735,0,0,1,12.033,11.993q.04,41.14,0,82.279a11.752,11.752,0,0,1-12.1,12.036q-26.571.016-53.143-.01a13.583,13.583,0,0,1-2.96-.327,12,12,0,0,1-9.164-11.833c.093-14.936.031-29.872.031-44.809,0-.371.019-.743-.012-1.111C234.19,741.378,233.812,740.731,232.771,740.736Zm40.186-17.77q8.654,0,17.307-.008a13.632,13.632,0,0,0,2.2-.187,9.049,9.049,0,0,0,7.47-8.925,8.936,8.936,0,0,0-7.259-8.856,37.684,37.684,0,0,0-5.854-.236q-15.92-.029-31.84,0a9.108,9.108,0,1,0,.336,18.214C261.2,722.975,267.078,722.966,272.957,722.966Z" transform="translate(-3.038 -6.349)" fill="#8ad4ee"/>
      <path id="Trazado_618028" data-name="Trazado 618028" d="M229.733,734.387c1.041,0,1.419.642,1.5,1.558.031.368.012.74.012,1.111,0,14.936.063,29.873-.031,44.809a12,12,0,0,0,9.164,11.833,13.575,13.575,0,0,0,2.96.327q26.572.029,53.143.01A11.752,11.752,0,0,0,308.583,782q.035-41.139,0-82.279a11.735,11.735,0,0,0-12.033-11.993q-26.627-.02-53.254,0a11.757,11.757,0,0,0-12.043,11.984c-.04,8.265-.009,16.53-.012,24.795,0,1.5-.27,1.88-1.5,2.156a1.505,1.505,0,0,1-1.255-1.7c.006-8.563-.114-17.128.046-25.688a14.411,14.411,0,0,1,14.735-14.227q26.632-.016,53.264,0a14.529,14.529,0,0,1,14.8,14.642c.037,2.335.007,4.671.007,7.006q0,37.422,0,74.843c0,6.562-3.4,11.876-9.221,14.111a14.616,14.616,0,0,1-5.063,1.013q-27.131.107-54.263.03a14.425,14.425,0,0,1-14.277-14.468c-.079-15.346-.024-30.693-.028-46.04C228.489,735.287,228.708,734.563,229.733,734.387Z" fill="#2275a2"/>
      <path id="Trazado_618029" data-name="Trazado 618029" d="M229.814,830.541c1.007.031,1.434.637,1.49,1.562a10.225,10.225,0,0,1-.009,1.656,1.452,1.452,0,0,1-1.468,1.486c-1.6-.4-1.211-1.7-1.258-2.8C228.529,831.517,228.732,830.736,229.814,830.541Z" transform="translate(-0.075 -102.367)" fill="#2275a2"/>
      <path id="Trazado_618030" data-name="Trazado 618030" d="M304.333,748.293q-8.82,0-17.64,0a9.108,9.108,0,1,1-.336-18.214q15.92-.023,31.84,0a37.692,37.692,0,0,1,5.854.236,8.936,8.936,0,0,1,7.259,8.856,9.049,9.049,0,0,1-7.47,8.925,13.646,13.646,0,0,1-2.2.187Q312.986,748.308,304.333,748.293Zm0-15.552q-8.7,0-17.407,0a8.154,8.154,0,0,0-1.651.116,6.437,6.437,0,0,0,1.263,12.758q17.684.031,35.368,0a6.341,6.341,0,0,0,6.671-6.479c-.009-3.755-2.777-6.4-6.727-6.4Q313.09,732.733,304.331,732.742Z" transform="translate(-34.413 -31.677)" fill="#1e72a0"/>
      <path id="Trazado_618031" data-name="Trazado 618031" d="M310.772,739.087q8.759,0,17.518,0c3.95,0,6.717,2.648,6.727,6.4a6.341,6.341,0,0,1-6.671,6.479q-17.684.017-35.368,0a6.437,6.437,0,0,1-1.263-12.758,8.154,8.154,0,0,1,1.651-.116Q302.069,739.081,310.772,739.087Zm-.09,11.077c5.472,0,10.944.013,16.416,0,3.533-.011,5.792-2.686,4.968-5.835a4.652,4.652,0,0,0-4.632-3.429c-2.847-.028-5.694-.007-8.541-.007q-12.367,0-24.735.005a4.613,4.613,0,0,0-4.676,5.871c.576,2.116,2.434,3.392,5,3.4Q302.585,750.175,310.682,750.164Z" transform="translate(-40.855 -38.023)" fill="#89d3ed"/>
      <path id="Trazado_618032" data-name="Trazado 618032" d="M317.291,754.425q-8.1,0-16.194,0c-2.57,0-4.429-1.281-5-3.4a4.613,4.613,0,0,1,4.676-5.871q12.367-.022,24.735-.005c2.847,0,5.694-.02,8.541.007a4.652,4.652,0,0,1,4.632,3.429c.824,3.149-1.435,5.824-4.968,5.835C328.235,754.438,322.763,754.425,317.291,754.425Zm-.021-2.837q8.37,0,16.741,0c1.306,0,2.035-.666,2.037-1.8a1.7,1.7,0,0,0-1.925-1.794q-16.741-.016-33.482.009a2.357,2.357,0,0,0-1.235.359,1.661,1.661,0,0,0-.593,2.077,1.82,1.82,0,0,0,1.938,1.162C306.257,751.578,311.764,751.588,317.27,751.588Z" transform="translate(-47.463 -42.283)" fill="#2275a2"/>
    </g>
    <g id="Grupo_883388" data-name="Grupo 883388">
      <line id="Lnea_500" data-name="Lnea 500" x2="168" transform="translate(420.5 15414.5)" fill="none" stroke="#148d80" stroke-width="1"/>
      <circle id="Elipse_5336" data-name="Elipse 5336" cx="4.5" cy="4.5" r="4.5" transform="translate(416 15410)" fill="#148d80"/>
      <circle id="Elipse_5337" data-name="Elipse 5337" cx="4.5" cy="4.5" r="4.5" transform="translate(584 15410)" fill="#148d80"/>
    </g>
    <g id="Grupo_883391" data-name="Grupo 883391" transform="translate(0 274)">
      <line id="Lnea_500-2" data-name="Lnea 500" x2="168" transform="translate(420.5 15414.5)" fill="none" stroke="#148d80" stroke-width="1"/>
      <circle id="Elipse_5336-2" data-name="Elipse 5336" cx="4.5" cy="4.5" r="4.5" transform="translate(416 15410)" fill="#148d80"/>
      <circle id="Elipse_5337-2" data-name="Elipse 5337" cx="4.5" cy="4.5" r="4.5" transform="translate(584 15410)" fill="#148d80"/>
    </g>
    <g id="Grupo_883393" data-name="Grupo 883393" transform="translate(637 274)">
      <line id="Lnea_500-3" data-name="Lnea 500" x2="168" transform="translate(420.5 15414.5)" fill="none" stroke="#148d80" stroke-width="1"/>
      <circle id="Elipse_5336-3" data-name="Elipse 5336" cx="4.5" cy="4.5" r="4.5" transform="translate(416 15410)" fill="#148d80"/>
      <circle id="Elipse_5337-3" data-name="Elipse 5337" cx="4.5" cy="4.5" r="4.5" transform="translate(584 15410)" fill="#148d80"/>
    </g>
    <g id="Grupo_883392" data-name="Grupo 883392" transform="translate(297 274)">
      <line id="Lnea_500-4" data-name="Lnea 500" x2="168" transform="translate(420.5 15414.5)" fill="none" stroke="#148d80" stroke-width="1"/>
      <circle id="Elipse_5336-4" data-name="Elipse 5336" cx="4.5" cy="4.5" r="4.5" transform="translate(416 15410)" fill="#148d80"/>
      <circle id="Elipse_5337-4" data-name="Elipse 5337" cx="4.5" cy="4.5" r="4.5" transform="translate(584 15410)" fill="#148d80"/>
    </g>
    <g id="Grupo_883394" data-name="Grupo 883394" transform="translate(145 534)">
      <line id="Lnea_500-5" data-name="Lnea 500" x2="168" transform="translate(420.5 15414.5)" fill="none" stroke="#148d80" stroke-width="1"/>
      <circle id="Elipse_5336-5" data-name="Elipse 5336" cx="4.5" cy="4.5" r="4.5" transform="translate(416 15410)" fill="#148d80"/>
      <circle id="Elipse_5337-5" data-name="Elipse 5337" cx="4.5" cy="4.5" r="4.5" transform="translate(584 15410)" fill="#148d80"/>
    </g>
    <g id="Grupo_883395" data-name="Grupo 883395" transform="translate(464 534)">
      <line id="Lnea_500-6" data-name="Lnea 500" x2="168" transform="translate(420.5 15414.5)" fill="none" stroke="#148d80" stroke-width="1"/>
      <circle id="Elipse_5336-6" data-name="Elipse 5336" cx="4.5" cy="4.5" r="4.5" transform="translate(416 15410)" fill="#148d80"/>
      <circle id="Elipse_5337-6" data-name="Elipse 5337" cx="4.5" cy="4.5" r="4.5" transform="translate(584 15410)" fill="#148d80"/>
    </g>
    <g id="Grupo_883389" data-name="Grupo 883389" transform="translate(302)">
      <line id="Lnea_500-7" data-name="Lnea 500" x2="168" transform="translate(420.5 15414.5)" fill="none" stroke="#148d80" stroke-width="1"/>
      <circle id="Elipse_5336-7" data-name="Elipse 5336" cx="4.5" cy="4.5" r="4.5" transform="translate(416 15410)" fill="#148d80"/>
      <circle id="Elipse_5337-7" data-name="Elipse 5337" cx="4.5" cy="4.5" r="4.5" transform="translate(584 15410)" fill="#148d80"/>
    </g>
    <g id="Grupo_883390" data-name="Grupo 883390" transform="translate(619)">
      <line id="Lnea_500-8" data-name="Lnea 500" x2="168" transform="translate(420.5 15414.5)" fill="none" stroke="#148d80" stroke-width="1"/>
      <circle id="Elipse_5336-8" data-name="Elipse 5336" cx="4.5" cy="4.5" r="4.5" transform="translate(416 15410)" fill="#148d80"/>
      <circle id="Elipse_5337-8" data-name="Elipse 5337" cx="4.5" cy="4.5" r="4.5" transform="translate(584 15410)" fill="#148d80"/>
    </g>
  </g>
</svg>
