<svg xmlns="http://www.w3.org/2000/svg" width="133.722" height="137.678" viewBox="0 0 133.722 137.678">
  <g id="Grupo_883419" data-name="Grupo 883419" transform="translate(-370 -14542.322)">
    <circle id="Elipse_5213" data-name="Elipse 5213" cx="62.5" cy="62.5" r="62.5" transform="translate(370 14548)" fill="#148d80"/>
    <g id="Grupo_877831" data-name="Grupo 877831" transform="translate(249.167 13928.948)">
      <path id="Trazado_617709" data-name="Trazado 617709" d="M181.5,642.449c2.222.86,2.832,1.77,2.913,4.239.061,1.859.13,3.719.263,5.574a1.571,1.571,0,0,1-1.031,1.865c-1.091-.335-1.205-.477-1.263-1.674q-.147-3.066-.28-6.133c-.051-1.168-.444-1.571-1.589-1.571q-9.231,0-18.463,0c-1.1,0-1.495.413-1.544,1.527-.391,8.792-.8,17.583-1.169,26.375-.075,1.781-.011,3.567-.011,5.276,1.237-.232,2.631-.521,4.037-.747,1.06-.17,1.357.04,1.742,1.027l-.019.323-.014.062a1.726,1.726,0,0,1-1.4.883c-1.4.233-2.784.594-4.18.873-.413.083-.508.286-.525.679q-.428,9.879-.88,19.758c-.028.627,0,1.257,0,1.91H184.59l-.114-1.919q-.377-8.846-.754-17.691c-.042-.984-.091-1.967-.139-3-.2.029-.322.044-.443.065a25.108,25.108,0,0,1-8.208.505c-2.037-.306-4.049-.773-6.078-1.133a1.239,1.239,0,0,1-1.2-1.316c.333-.868.654-1.087,1.555-.938.979.162,1.96.334,2.919.583a23.239,23.239,0,0,0,11.347-.147c0-.176.006-.327,0-.478q-.425-9.386-.854-18.772c-.055-1.184.09-1.469,1.034-1.842,1.009.231,1.2.453,1.243,1.508q.69,15.522,1.377,31.045.293,6.592.6,13.183a.776.776,0,0,0,.313.574c2.233,1.106,2.8,1.884,3.2,4.493h2.8v-.89q0-15.463,0-30.927c-.006-5.269,2.03-9.5,6.43-12.427A14.083,14.083,0,0,1,221.34,673.1c.245,1.864.1,3.777.181,5.666a3.1,3.1,0,0,0,.365.917,5.992,5.992,0,0,1,.665,1.73c.092,1.658.046,3.324.029,4.986a2.4,2.4,0,0,1-2.433,2.514c-1.377.047-2.758.046-4.135,0a2.451,2.451,0,0,1-2.462-2.585c-.018-1.586-.078-3.177.031-4.756a6.706,6.706,0,0,1,.739-1.937c.073-.175.293-.328.292-.49a36.48,36.48,0,0,0-.121-5.36,7.144,7.144,0,0,0-7.958-6.01,7.272,7.272,0,0,0-6.457,7.186c-.055,3.376-.014,6.753-.015,10.13,0,4.374-.018,8.749.015,13.122.007.867-.252,1.423-1.11,1.639a1.307,1.307,0,0,1-1.2-1.422c.008-7.879-.049-15.758.029-23.636a9.564,9.564,0,1,1,19.124.434c.006,1.221,0,2.442,0,3.693H219.2c0-1.473.026-2.9,0-4.33a11.862,11.862,0,0,0-23.716.59q-.028,15.847,0,31.694c0,.172.019.344.032.549h2.259c0-1.2,0-2.346,0-3.5,0-1.014.234-1.3,1.2-1.556a1.287,1.287,0,0,1,1.1,1.49c-.037,1.17-.009,2.343-.009,3.606.766,0,1.471-.006,2.176,0a4.617,4.617,0,0,1,4.831,4.883q.009,1.879,0,3.758a4.593,4.593,0,0,1-3.721,4.829c-.037.01-.061.071-.091.108H149.936a2.267,2.267,0,0,1-1.039-1.835c.031-1.073-.023-2.15.017-3.222a3.694,3.694,0,0,1,2.194-3.414,11.173,11.173,0,0,1,1.149-.41c0-1.629-.035-3.24.009-4.848a4.406,4.406,0,0,1,2.916-4.27.77.77,0,0,0,.571-.827c.048-1.789.128-3.578.208-5.366q.655-14.639,1.315-29.278c.322-7.23.623-14.461.952-21.691a3.424,3.424,0,0,1,2.164-3.166,3.1,3.1,0,0,0,.423-.275ZM151.232,718.7h40.145c0-.683,0-1.322,0-1.961,0-1.795-.42-2.22-2.2-2.22H153.419a6.6,6.6,0,0,0-.764.022,1.423,1.423,0,0,0-1.412,1.434C151.194,716.861,151.232,717.754,151.232,718.7Zm42.461.053c2.928,0,5.781.008,8.635,0a2.324,2.324,0,0,0,2.442-2.458c.015-1.252,0-2.5,0-3.755,0-1.887-.874-2.77-2.751-2.772q-5.163-.005-10.327,0h-1.311v2.42c2.434.73,3.308,1.916,3.309,4.47C193.692,717.337,193.692,718.021,193.692,718.751Zm-34.773-13.7c-.806,0-1.544-.037-2.277.009a1.99,1.99,0,0,0-1.994,1.777c-.114,1.766-.031,3.544-.031,5.306h4.3Zm29.126,7.115c0-1.7.032-3.305-.011-4.909a2.14,2.14,0,0,0-1.884-2.168c-.8-.077-1.614-.015-2.435-.015v7.093Zm-17.922-7.076h-3.239v7.06h3.239Zm2.356,7.047h3.228v-7.051h-3.228Zm43.407-25.559h4.338v-5.261h-4.338Zm-51.413,25.607v-7.116H161.3v7.116Zm13.62-.032h3.23v-7.075h-3.23Z" fill="#040404"/>
      <path id="Trazado_617710" data-name="Trazado 617710" d="M224.085,665.545c-.944.373-1.089.658-1.034,1.842q.434,9.385.854,18.772c.007.151,0,.3,0,.478a23.24,23.24,0,0,1-11.347.147c-.959-.249-1.94-.421-2.919-.583-.9-.149-1.222.07-1.555.939l-2.406.02a1.1,1.1,0,0,0-.142-.023c-.385-.986-.682-1.2-1.742-1.027-1.405.225-2.8.515-4.037.747,0-1.709-.064-3.5.011-5.276.37-8.792.778-17.583,1.169-26.375.05-1.114.446-1.527,1.544-1.527q9.231,0,18.463,0c1.144,0,1.538.4,1.589,1.571q.133,3.067.28,6.133c.058,1.2.171,1.339,1.263,1.674Q224.08,664.3,224.085,665.545Z" transform="translate(-40.43 -8.928)" fill="#f2edec"/>
      <path id="Trazado_617711" data-name="Trazado 617711" d="M379.94,782.659c-.969.251-1.2.542-1.2,1.556-.005,1.149,0,2.3,0,3.5h-2.259c-.012-.205-.032-.377-.032-.549q0-15.847,0-31.694a11.862,11.862,0,0,1,23.716-.59c.031,1.428,0,2.857,0,4.33h-2.284c0-1.252,0-2.472,0-3.693a9.564,9.564,0,1,0-19.124-.434c-.078,7.878-.021,15.757-.029,23.636a1.307,1.307,0,0,0,1.2,1.422Z" transform="translate(-180.966 -80.283)" fill="#f2edec"/>
      <path id="Trazado_617712" data-name="Trazado 617712" d="M461.914,900.812c-4.636.019-8.049-5.056-5.608-9.112a47.334,47.334,0,0,1,3.915-5.355,2.256,2.256,0,0,1,3.353-.053,22.99,22.99,0,0,1,4.193,5.808C469.643,895.935,466.565,900.82,461.914,900.812Zm-.119-13.113c-1.223,1.762-2.421,3.346-3.466,5.025-1.614,2.594.667,5.755,3.519,5.8,2.768.04,4.943-2.777,3.939-5.187A20.966,20.966,0,0,0,461.794,887.7Z" transform="translate(-243.84 -193.358)" fill="#040404"/>
      <path id="Trazado_617713" data-name="Trazado 617713" d="M225.625,817.174l2.406-.021a1.239,1.239,0,0,0,1.2,1.316c2.029.36,4.041.827,6.078,1.133a25.11,25.11,0,0,0,8.208-.505c.121-.022.242-.036.443-.065.048,1.031.1,2.014.139,3q.378,8.845.754,17.691-8.458,0-16.917.005a3.16,3.16,0,0,1-3.037-2.442,17.489,17.489,0,0,1-.03-3.1q.06-2.906.159-5.811c.04-1.2.113-2.391.159-3.587q.138-3.624.262-7.249l.014-.062Z" transform="translate(-60.377 -138.944)" fill="#b2e4ed"/>
      <path id="Trazado_617714" data-name="Trazado 617714" d="M200.715,819.025q-.13,3.625-.262,7.249c-.045,1.2-.119,2.391-.159,3.587q-.1,2.905-.159,5.811a17.49,17.49,0,0,0,.03,3.1,3.16,3.16,0,0,0,3.037,2.442q8.458.01,16.917-.006c.037.627.075,1.254.114,1.919H193.722c0-.654-.024-1.283,0-1.91q.437-9.879.88-19.758c.017-.393.112-.6.525-.679,1.4-.279,2.777-.64,4.18-.873A1.726,1.726,0,0,0,200.715,819.025Z" transform="translate(-35.643 -140.432)" fill="#84d4e1"/>
      <path id="Trazado_617715" data-name="Trazado 617715" d="M160.253,998.707c0-.943-.038-1.836.011-2.724a1.423,1.423,0,0,1,1.412-1.434,6.589,6.589,0,0,1,.764-.022H198.2c1.775,0,2.195.425,2.2,2.22,0,.639,0,1.277,0,1.961Z" transform="translate(-9.021 -280.009)" fill="#f2edec"/>
      <path id="Trazado_617716" data-name="Trazado 617716" d="M354.884,980.283c0-.729,0-1.414,0-2.1,0-2.554-.875-3.74-3.309-4.47v-2.42h1.311q5.163,0,10.327,0c1.877,0,2.749.885,2.751,2.772,0,1.252.012,2.5,0,3.755a2.324,2.324,0,0,1-2.442,2.458C360.666,980.291,357.812,980.283,354.884,980.283Z" transform="translate(-161.192 -261.532)" fill="#f2edec"/>
      <path id="Trazado_617717" data-name="Trazado 617717" d="M181.034,948.214V955.3h-4.3c0-1.761-.083-3.54.031-5.306a1.99,1.99,0,0,1,1.994-1.777C179.49,948.177,180.228,948.214,181.034,948.214Z" transform="translate(-22.115 -243.165)" fill="#f2edec"/>
      <path id="Trazado_617718" data-name="Trazado 617718" d="M323.329,955.379H319v-7.093c.821,0,1.635-.062,2.435.015a2.14,2.14,0,0,1,1.884,2.168C323.361,952.074,323.329,953.68,323.329,955.379Z" transform="translate(-135.284 -243.215)" fill="#f2edec"/>
      <path id="Trazado_617719" data-name="Trazado 617719" d="M240.01,948.462v7.06h-3.239v-7.06Z" transform="translate(-69.888 -243.374)" fill="#f2edec"/>
      <path id="Trazado_617720" data-name="Trazado 617720" d="M264.105,955.495v-7.051h3.228v7.051Z" transform="translate(-91.627 -243.36)" fill="#f2edec"/>
      <path id="Trazado_617721" data-name="Trazado 617721" d="M476.165,837.588v-5.261H480.5v5.261Z" transform="translate(-260.279 -151.011)" fill="#f2edec"/>
      <path id="Trazado_617722" data-name="Trazado 617722" d="M212.662,955.474h-3.174v-7.116h3.174Z" transform="translate(-48.189 -243.292)" fill="#f2edec"/>
      <path id="Trazado_617723" data-name="Trazado 617723" d="M291.532,955.479V948.4h3.23v7.075Z" transform="translate(-113.439 -243.328)" fill="#f2edec"/>
      <path id="Trazado_617724" data-name="Trazado 617724" d="M228.155,817.165l-.161.3q.009-.161.019-.323A1.056,1.056,0,0,1,228.155,817.165Z" transform="translate(-62.907 -138.935)" fill="#84d4e1"/>
      <path id="Trazado_617725" data-name="Trazado 617725" d="M470.724,895.963a20.965,20.965,0,0,1,3.992,5.635c1,2.41-1.17,5.227-3.939,5.187-2.852-.041-5.134-3.2-3.519-5.8C468.3,899.309,469.5,897.725,470.724,895.963Z" transform="translate(-252.769 -201.621)" fill="#b1e2eb"/>
    </g>
    <g id="Grupo_881806" data-name="Grupo 881806" transform="translate(370 14542.322)">
      <g id="Grupo_875403" data-name="Grupo 875403" transform="translate(0 0)">
        <path id="Trazado_612672" data-name="Trazado 612672" d="M742.946,514.331c15.253-33.089,52.448-49.655,87.048-37.717.7.215,2.633.982,3.358,1.27.627.219,1.584.654,2.2.943l2.177,1c1.036.48,2.151,1.161,3.18,1.679,1.222.651,2.931,1.753,4.117,2.466.595.4,2.339,1.623,2.964,2.049a69.019,69.019,0,0,1,24.933,77.8c-.3.742-.961,2.722-1.273,3.449-.239.552-.714,1.7-.954,2.259-.326.864-1.185,2.489-1.565,3.33-.5,1.034-1.2,2.227-1.738,3.244-.448.822-1.442,2.342-1.91,3.148-.464.623-1.605,2.427-2.086,3.035-.37.471-1.121,1.476-1.492,1.951-1.166,1.488-2.695,3.286-4,4.648-15.532,16.862-39.9,24.888-62.36,20.22a1.93,1.93,0,0,1,.587-3.811,72.6,72.6,0,0,0,18.194-.14c.795-.112,2.6-.435,3.353-.544.635-.153,2.636-.568,3.315-.725,2.373-.6,4.708-1.332,7.022-2.123,1.2-.492,2.482-.95,3.664-1.463.733-.324,2.371-1.111,3.067-1.421a66.411,66.411,0,0,0,13.995-9.36c.971-.8,2.406-2.143,3.317-3.042.454-.4,1.135-1.172,1.566-1.616,22.662-23.692,23.86-61.953,2.557-87-26.347-31.55-75.747-30.837-100.826,1.916a61.294,61.294,0,0,0-8.847,16.028,1.93,1.93,0,1,1-3.562-1.482Z" transform="translate(-742.764 -472.746)" fill="#fda829"/>
      </g>
    </g>
  </g>
</svg>
