<svg xmlns="http://www.w3.org/2000/svg" xmlns:xlink="http://www.w3.org/1999/xlink" width="142.698" height="141.855" viewBox="0 0 142.698 141.855">
  <defs>
    <clipPath id="clip-path">
      <ellipse id="Elipse_3994" data-name="Elipse 3994" cx="68.496" cy="68.05" rx="68.496" ry="68.05" transform="translate(0)" fill="#f2f6fe"/>
    </clipPath>
  </defs>
  <g id="Grupo_894647" data-name="Grupo 894647" transform="translate(-277 -2596.96)">
    <g id="Grupo_894443" data-name="Grupo 894443" transform="translate(8950 870.478)">
      <path id="Trazado_99503" data-name="Trazado 99503" d="M968.645,321.3A68.266,68.266,0,0,1,900.42,253" transform="translate(-9572.42 1546.033)" fill="none" stroke="#fefefe" stroke-miterlimit="10" stroke-width="2"/>
      <ellipse id="Elipse_3992" data-name="Elipse 3992" cx="69.561" cy="69.138" rx="69.561" ry="69.138" transform="translate(-8669.424 1726.482)" fill="#5f4ad9"/>
      <path id="Trazado_175808" data-name="Trazado 175808" d="M68.5,0c37.829,0,68.5,30.476,68.5,68.069s-30.667,68.069-68.5,68.069S0,105.662,0,68.069,30.667,0,68.5,0Z" transform="translate(-8669.456 1727.77)" fill="#d3e6b1"/>
    </g>
    <g id="Grupo_881880" data-name="Grupo 881880" transform="translate(113.608 1910.273)">
      <path id="Trazado_619991" data-name="Trazado 619991" d="M199.262,776.691a14.068,14.068,0,0,1-1.65-.365,4.553,4.553,0,0,1-2.964-4.932,4.654,4.654,0,0,1,4.4-3.852c1.038-.041,2.083.044,3.116-.039a2.1,2.1,0,0,0,1.269-.559c3.639-3.886,1.98,3.916,5.587,0,10.782-1.272,10.049,4.233,14.664-1.893,3.613,3.911,9.637-2.036,13.23,1.893a1.669,1.669,0,0,0,1.375.6q19.611-.025,39.222-.011a4.537,4.537,0,1,1,.41,9.064c-.346.02-.693.01-1.039.01q-15.5,0-31,0c-2.956,0-4.661,1.429-5.017,4.375-.646,5.345-1.22,10.7-1.816,16.049a7.5,7.5,0,0,1-7.442,6.79q-11.294.048-22.588,0a7.5,7.5,0,0,1-7.436-6.8q-1.123-10.091-2.258-20.181A.546.546,0,0,0,199.262,776.691Zm39.2-6.136H200a7.8,7.8,0,0,0-.85.011A1.676,1.676,0,0,0,197.638,772a1.553,1.553,0,0,0,1.556,1.567c.407.029.819,0,1.228.009,1.117.02,1.626.46,1.75,1.543.2,1.777.385,3.557.587,5.335.615,5.426,1.247,10.851,1.849,16.278a4.45,4.45,0,0,0,4.261,4.049q11.432.055,22.864,0a4.444,4.444,0,0,0,4.285-4.023c.074-.75.159-1.5.244-2.248q.534-4.724,1.072-9.448c.21-1.84.294-3.706.669-5.512a7.486,7.486,0,0,1,7.488-5.976q15.731-.012,31.463,0c.315,0,.7.1.93-.043a3.188,3.188,0,0,0,1.276-1.111,1.429,1.429,0,0,0-.334-1.33,2.748,2.748,0,0,0-1.63-.518Q257.827,770.535,238.458,770.555Z" transform="translate(0 -25.771)" fill="#010101"/>
      <path id="Trazado_619992" data-name="Trazado 619992" d="M247.464,800.81q19.369,0,38.738.021a2.748,2.748,0,0,1,1.63.518,1.429,1.429,0,0,1,.334,1.33,3.188,3.188,0,0,1-1.276,1.111c-.234.141-.615.043-.93.043q-15.731,0-31.463,0a7.486,7.486,0,0,0-7.488,5.976c-.375,1.806-.459,3.672-.669,5.512q-.539,4.724-1.072,9.448c-.085.749-.17,1.5-.244,2.248a4.444,4.444,0,0,1-4.285,4.023q-11.432.047-22.865,0a4.45,4.45,0,0,1-4.261-4.049c-.6-5.428-1.234-10.852-1.849-16.279-.2-1.778-.384-3.558-.587-5.336-.124-1.083-.633-1.523-1.75-1.543-.409-.007-.821.02-1.228-.009a1.553,1.553,0,0,1-1.556-1.567,1.676,1.676,0,0,1,1.516-1.437,7.819,7.819,0,0,1,.85-.011Z" transform="translate(-9.006 -56.026)" fill="#115467"/>
      <path id="Trazado_619993" data-name="Trazado 619993" d="M273.115,761.681a13.333,13.333,0,0,1-1.623-.515,5.229,5.229,0,1,1,3.039.45,1.277,1.277,0,0,0-.2.064Zm-3.3-5.446c-.016.521.2.826.6.85a.663.663,0,0,0,.692-.664A2.617,2.617,0,0,1,273.7,753.8a.663.663,0,0,0,.68-.676.674.674,0,0,0-.765-.628A3.925,3.925,0,0,0,269.815,756.235Z" transform="translate(-55.236 -18.942)" fill="#e26c1e"/>
      <path id="Trazado_619994" data-name="Trazado 619994" d="M227.5,760.837a13.321,13.321,0,0,1-1.623-.515,5.229,5.229,0,1,1,3.039.45,1.279,1.279,0,0,0-.2.065Zm-3.3-5.446c-.016.521.2.826.6.85a.663.663,0,0,0,.693-.664,2.617,2.617,0,0,1,2.593-2.618.663.663,0,0,0,.681-.676.674.674,0,0,0-.765-.628A3.925,3.925,0,0,0,224.2,755.391Z" transform="translate(-21.139 -18.311)" fill="#e26c1e"/>
      <path id="Trazado_619995" data-name="Trazado 619995" d="M248.619,739.72A13.354,13.354,0,0,1,247,739.2a5.229,5.229,0,1,1,3.039.45,1.285,1.285,0,0,0-.2.065Zm-3.3-5.446c-.016.521.2.826.6.85a.663.663,0,0,0,.693-.664,2.617,2.617,0,0,1,2.593-2.618.663.663,0,0,0,.681-.676.674.674,0,0,0-.765-.628A3.925,3.925,0,0,0,245.319,734.273Z" transform="translate(-36.925 -2.526)" fill="#fda829"/>
      <path id="Trazado_619996" data-name="Trazado 619996" d="M311.126,760.837a13.34,13.34,0,0,1-1.623-.515,5.229,5.229,0,1,1,3.039.45,1.28,1.28,0,0,0-.2.065Zm-3.3-5.446c-.016.521.2.826.6.85a.663.663,0,0,0,.693-.664,2.617,2.617,0,0,1,2.593-2.618.663.663,0,0,0,.68-.676.674.674,0,0,0-.765-.628A3.925,3.925,0,0,0,307.825,755.391Z" transform="translate(-83.649 -18.311)" fill="#e26c1e"/>
      <path id="Trazado_619997" data-name="Trazado 619997" d="M286.63,736.341a13.334,13.334,0,0,1-1.623-.515,5.229,5.229,0,1,1,3.039.45,1.29,1.29,0,0,0-.2.064Zm-3.3-5.446c-.016.52.2.825.6.85a.663.663,0,0,0,.692-.664,2.617,2.617,0,0,1,2.593-2.618.663.663,0,0,0,.68-.676.674.674,0,0,0-.765-.628A3.924,3.924,0,0,0,283.33,730.895Z" transform="translate(-65.338 0)" fill="#fda829"/>
    </g>
  </g>
</svg>
