<svg xmlns="http://www.w3.org/2000/svg" xmlns:xlink="http://www.w3.org/1999/xlink" width="142.698" height="141.855" viewBox="0 0 142.698 141.855">
  <defs>
    <clipPath id="clip-path">
      <ellipse id="Elipse_3994" data-name="Elipse 3994" cx="68.496" cy="68.05" rx="68.496" ry="68.05" transform="translate(0)" fill="#f2f6fe"/>
    </clipPath>
  </defs>
  <g id="Grupo_894646" data-name="Grupo 894646" transform="translate(-277 -2382.155)">
    <g id="Grupo_894444" data-name="Grupo 894444" transform="translate(8950 655.673)">
      <path id="Trazado_99503" data-name="Trazado 99503" d="M968.645,321.3A68.266,68.266,0,0,1,900.42,253" transform="translate(-9572.42 1546.033)" fill="none" stroke="#fefefe" stroke-miterlimit="10" stroke-width="2"/>
      <ellipse id="Elipse_3992" data-name="Elipse 3992" cx="69.561" cy="69.138" rx="69.561" ry="69.138" transform="translate(-8669.424 1726.482)" fill="#5f4ad9"/>
      <path id="Trazado_175808" data-name="Trazado 175808" d="M68.5,0c37.829,0,68.5,30.476,68.5,68.069s-30.667,68.069-68.5,68.069S0,105.662,0,68.069,30.667,0,68.5,0Z" transform="translate(-8669.456 1727.77)" fill="#d3e6b1"/>
    </g>
    <g id="Grupo_881882" data-name="Grupo 881882" transform="translate(170.802 1747.938)">
      <path id="Trazado_620035" data-name="Trazado 620035" d="M158.807,914.153c-.9-.083-1.168-.286-1.193-1.172a27.333,27.333,0,0,1,.13-2.985.7.7,0,0,0-.351-.8,7.3,7.3,0,1,1,10.232-9.634,1.013,1.013,0,0,0,1.142.665,11.71,11.71,0,0,1,11.714,8.2c4.441.393,6.78,2.015,7.724,5.355a7.338,7.338,0,0,1-11.836,7.563,11.53,11.53,0,0,1-5.729,2.272c-.027,0-.049.064-.073.1h-2.8c-.626-.173-1.256-.334-1.878-.522a11.485,11.485,0,0,1-6.486-4.888c-.5-.768-.416-1.161.33-1.739a1.229,1.229,0,0,1,1.373.68,9.2,9.2,0,0,0,5.68,4.089,9.467,9.467,0,0,0,8.284-1.512l-.611-1.08c-.047-.147-.089-.3-.141-.442a7.285,7.285,0,0,1,1.982-7.968,21.527,21.527,0,0,1,2.155-1.495,2.341,2.341,0,0,0-.074-.318,9.721,9.721,0,0,0-18.793,4.211A1.18,1.18,0,0,1,158.807,914.153Zm26.958-1a5.239,5.239,0,0,0-8.034-1.425,5.034,5.034,0,0,0-1.707,5.221,4.912,4.912,0,0,0,3.555,3.844,5.254,5.254,0,0,0,6.186-7.639Zm-19.851-12.466a5.171,5.171,0,0,0-5.4-3.023,5.347,5.347,0,0,0-4.58,4.3,5.231,5.231,0,0,0,2.5,5.48A11.829,11.829,0,0,1,165.914,900.686Z" transform="translate(-3.815 -185.886)" fill="#030303"/>
      <path id="Trazado_620036" data-name="Trazado 620036" d="M157.558,669.449c.238.072.474.154.715.216a7.239,7.239,0,0,1,4.721,3.706.735.735,0,0,0,.679.489,11.738,11.738,0,1,1-12.476,11.2c.035-.792.255-1.575.338-2.367a1.053,1.053,0,0,0-.195-.747,7.341,7.341,0,0,1,3.954-12.373c.05-.01.088-.078.132-.119Zm2.905,25.52a.764.764,0,0,0,.173.093,9.662,9.662,0,0,0,10.7-4.625,9.3,9.3,0,0,0,.356-8.986,3.023,3.023,0,0,0-.115-.307,9.724,9.724,0,0,0-17.81,7.723A9.313,9.313,0,0,0,160.463,694.969Zm.549-21.053a5.313,5.313,0,0,0-9.5,1.125,5.011,5.011,0,0,0,.97,5.054C155.253,676.109,156.281,675.362,161.012,673.917Z" fill="#040303"/>
      <path id="Trazado_620037" data-name="Trazado 620037" d="M255.151,725.928c-.01-.837.222-1.215,1-1.3a30.046,30.046,0,0,1,3.443-.178,1.049,1.049,0,0,0,1.141-.778c1.252-3.906,2.075-4.955,5.49-6.9a6.357,6.357,0,0,1-.207-5.27,6.065,6.065,0,0,1,2.844-3.149,6.268,6.268,0,0,1,7.339,9.991l2.515,3.68a7.344,7.344,0,1,1-3.275,10.873,23.511,23.511,0,0,1-2.231,1.13,24.771,24.771,0,0,1-2.468.686v4.512a9.33,9.33,0,0,1-1.915,18.493c-4.756-.063-8.219-3.39-9.144-8.828a12.435,12.435,0,0,1-4.97-.587,12.177,12.177,0,0,1-5.972-4.377.607.607,0,0,0-.807-.278,7.32,7.32,0,1,1-3.442-14.2,6.977,6.977,0,0,1,3.773.307c.96-.958,1.851-1.909,2.812-2.783.711-.647,1.138-.575,1.826.114a1.387,1.387,0,0,1-.609,1.488c-.759.658-1.44,1.406-2.18,2.143a7.418,7.418,0,0,1,.107,11.812,9.762,9.762,0,0,0,6.24,4.13c.036.025.069.064.109.072a10.262,10.262,0,0,0,12.095-8.127c.144-.829.156-1.682.242-2.681l-.778.385c-.149.041-.3.08-.446.124a7.306,7.306,0,0,1-9.412-8.128c.094-.645.311-1.273.491-1.989-.73.089-1.433.151-2.128.265C255.978,726.692,255.435,726.621,255.151,725.928Zm20.32,19.238-.138-.265a7.057,7.057,0,0,0-4.844-3.611c-.426-.1-.574.089-.734.436a12.164,12.164,0,0,1-6.847,6.435c-.384.15-.778.273-1.176.412a7.154,7.154,0,0,0,1.807,4.654,6.449,6.449,0,0,0,3.737,2.237,6.582,6.582,0,0,0,5.021-.527c3.607-1.8,5.115-6.48,3.171-9.778Zm-.132-33.548a4.119,4.119,0,0,0-4.586-1.851,4.211,4.211,0,0,0-3.194,3.874,4.258,4.258,0,0,0,7.482,2.987A4.177,4.177,0,0,0,275.339,711.618ZM263.4,722.4a7.391,7.391,0,0,1,9.278,8.481l-.4,1.336c4.1-1.237,6.18-6.62,4-10.2-.563-.729-1.111-1.47-1.7-2.174a.655.655,0,0,0-.576-.092,6.247,6.247,0,0,1-6.243-1.069.618.618,0,0,0-.512-.1,6.85,6.85,0,0,0-3.938,3.717l-.082.092Zm16.454,11.424a5.287,5.287,0,1,0-.432-9.86.83.83,0,0,0-.313.6c-.075.86-.031,1.734-.158,2.584a8.88,8.88,0,0,1-2.014,4.261A4.885,4.885,0,0,0,279.853,733.822Zm-35.524,7.912a5.159,5.159,0,0,0,5.689-1.847,5.334,5.334,0,0,0-5.692-8.338,5.31,5.31,0,0,0-3.826,5.314A5.193,5.193,0,0,0,244.329,741.734Zm25.671-15a2.909,2.909,0,0,0-.181-.35,5.316,5.316,0,0,0-9.666,2.939,5.249,5.249,0,0,0,3.8,5.177A5.255,5.255,0,0,0,270,726.735Z" transform="translate(-73.39 -31.38)" fill="#030303"/>
      <path id="Trazado_620038" data-name="Trazado 620038" d="M189.721,951.72a9.2,9.2,0,0,1-5.68-4.089,1.229,1.229,0,0,0-1.373-.68l-.928-2.407a1.181,1.181,0,0,0,.782-1.427,9.721,9.721,0,0,1,18.793-4.211,2.343,2.343,0,0,1,.074.318,21.529,21.529,0,0,0-2.155,1.495,7.285,7.285,0,0,0-1.982,7.968c.052.145.094.294.141.441a7.984,7.984,0,0,1-3.734,2.166A11.967,11.967,0,0,1,189.721,951.72Z" transform="translate(-26.747 -216.277)" fill="#89c8fc"/>
      <path id="Trazado_620039" data-name="Trazado 620039" d="M308.811,810.407c.284.693.827.764,1.48.658.695-.113,1.4-.176,2.128-.265-.18.716-.4,1.344-.491,1.989a7.306,7.306,0,0,0,9.412,8.128c.148-.044.3-.083.446-.124-.04.283-.074.567-.121.849a10.955,10.955,0,0,1-5.75,8.078,12.581,12.581,0,0,1-5.8,1.424,9.762,9.762,0,0,1-6.24-4.13,7.418,7.418,0,0,0-.107-11.812c.74-.736,1.421-1.485,2.18-2.143a1.387,1.387,0,0,0,.609-1.488c.506-.3,1.006-.613,1.523-.895A5.158,5.158,0,0,1,308.811,810.407Z" transform="translate(-127.049 -115.859)" fill="#a1ade4"/>
      <path id="Trazado_620040" data-name="Trazado 620040" d="M281.248,989.295a4.911,4.911,0,0,1-3.555-3.844,5.034,5.034,0,0,1,1.707-5.221,5.239,5.239,0,0,1,8.034,1.425,13.83,13.83,0,0,1-.083,2.514A6.351,6.351,0,0,1,281.248,989.295Z" transform="translate(-105.484 -254.389)" fill="#fc79b5"/>
      <path id="Trazado_620041" data-name="Trazado 620041" d="M175.192,910.069a11.829,11.829,0,0,0-7.482,6.758,5.231,5.231,0,0,1-2.5-5.48,5.347,5.347,0,0,1,4.58-4.3A5.171,5.171,0,0,1,175.192,910.069Z" transform="translate(-13.093 -195.269)" fill="#fab240"/>
      <path id="Trazado_620042" data-name="Trazado 620042" d="M298.4,1001.8a6.35,6.35,0,0,0,6.1-5.125,13.825,13.825,0,0,0,.083-2.514,5.254,5.254,0,0,1-6.186,7.639Z" transform="translate(-122.632 -266.891)" fill="#f75aa3"/>
      <path id="Trazado_620043" data-name="Trazado 620043" d="M226.562,1028.113a11.965,11.965,0,0,0,3.938-.426,7.982,7.982,0,0,0,3.734-2.166l.611,1.08A9.467,9.467,0,0,1,226.562,1028.113Z" transform="translate(-63.588 -292.67)" fill="#5eb1f6"/>
      <path id="Trazado_620044" data-name="Trazado 620044" d="M178.774,724.373a9.313,9.313,0,0,1-6.7-6.1,9.724,9.724,0,0,1,17.81-7.723,3.015,3.015,0,0,1,.115.308c.011.2.027.4.033.6a23.339,23.339,0,0,1,.072,3.818,10.246,10.246,0,0,1-5.558,7.878A10.851,10.851,0,0,1,178.774,724.373Z" transform="translate(-18.31 -29.404)" fill="#fbb341"/>
      <path id="Trazado_620045" data-name="Trazado 620045" d="M170.352,683.185c-4.73,1.445-5.759,2.193-8.529,6.179a5.011,5.011,0,0,1-.97-5.054,5.313,5.313,0,0,1,9.5-1.125Z" transform="translate(-9.34 -9.269)" fill="#88c6fa"/>
      <path id="Trazado_620046" data-name="Trazado 620046" d="M212.462,750.372a10.851,10.851,0,0,0,5.771-1.225,10.246,10.246,0,0,0,5.558-7.878,23.341,23.341,0,0,0-.072-3.818c-.006-.2-.022-.4-.033-.6a9.3,9.3,0,0,1-.356,8.986,9.662,9.662,0,0,1-10.7,4.625A.764.764,0,0,1,212.462,750.372Z" transform="translate(-51.999 -55.403)" fill="#f7a213"/>
      <path id="Trazado_620047" data-name="Trazado 620047" d="M374.579,910.724a6.449,6.449,0,0,1-3.737-2.237,7.154,7.154,0,0,1-1.807-4.654c.4-.139.792-.261,1.176-.412a12.164,12.164,0,0,0,6.847-6.435c.16-.347.308-.54.734-.436a7.056,7.056,0,0,1,4.844,3.611l.139.265,0-.008a5.369,5.369,0,0,0,.024.663,8.107,8.107,0,0,1-2.271,7.113A8.678,8.678,0,0,1,374.579,910.724Z" transform="translate(-180.693 -186.641)" fill="#fbb341"/>
      <path id="Trazado_620048" data-name="Trazado 620048" d="M363.957,810.674a5.249,5.249,0,0,1-3.8-5.177,5.316,5.316,0,0,1,9.666-2.939,2.91,2.91,0,0,1,.181.35,4.02,4.02,0,0,0,.014.466,6.15,6.15,0,0,1-2.6,6.074A7.482,7.482,0,0,1,363.957,810.674Z" transform="translate(-173.397 -107.554)" fill="#89c8fc"/>
      <path id="Trazado_620049" data-name="Trazado 620049" d="M253.6,851.237a5.193,5.193,0,0,1-3.829-4.871,5.31,5.31,0,0,1,3.826-5.314,5.22,5.22,0,0,1,5.968,2.353,1.353,1.353,0,0,0,0,.264,6.093,6.093,0,0,1-3.338,6.762A17.87,17.87,0,0,1,253.6,851.237Z" transform="translate(-82.661 -140.884)" fill="#fc79b5"/>
      <path id="Trazado_620050" data-name="Trazado 620050" d="M457.338,807.035a4.885,4.885,0,0,1-2.917-2.416,8.88,8.88,0,0,0,2.014-4.261c.127-.85.083-1.724.158-2.584a.83.83,0,0,1,.313-.6,5.215,5.215,0,0,1,6.707,2.232,14.137,14.137,0,0,1-.062,2.461A6.294,6.294,0,0,1,457.338,807.035Z" transform="translate(-250.875 -104.594)" fill="#89c8fc"/>
      <path id="Trazado_620051" data-name="Trazado 620051" d="M387.262,781.369a7.391,7.391,0,0,0-9.278-8.481q-.042-.049-.089-.093a6.85,6.85,0,0,1,3.938-3.717.618.618,0,0,1,.512.1,6.247,6.247,0,0,0,6.243,1.069.655.655,0,0,1,.576.092c.591.7,1.139,1.445,1.7,2.174a2.436,2.436,0,0,0,0,.4,7.924,7.924,0,0,1-1.512,6.586A16.614,16.614,0,0,1,387.262,781.369Z" transform="translate(-187.975 -81.87)" fill="#fc79b5"/>
      <path id="Trazado_620052" data-name="Trazado 620052" d="M404.4,727.085a4.113,4.113,0,0,1-2.671-4.164,4.211,4.211,0,0,1,3.194-3.874,4.119,4.119,0,0,1,4.586,1.851c0,.288-.014.575-.006.863A5.222,5.222,0,0,1,404.4,727.085Z" transform="translate(-207.561 -40.659)" fill="#fbb341"/>
      <path id="Trazado_620053" data-name="Trazado 620053" d="M339.416,877.314a12.581,12.581,0,0,0,5.8-1.424,10.955,10.955,0,0,0,5.75-8.078c.047-.282.081-.566.121-.849l.778-.385c-.087,1-.1,1.852-.242,2.681a10.262,10.262,0,0,1-12.095,8.128C339.485,877.378,339.452,877.339,339.416,877.314Z" transform="translate(-156.348 -162.028)" fill="#8593da"/>
      <path id="Trazado_620054" data-name="Trazado 620054" d="M400.169,928.712a8.678,8.678,0,0,0,5.945-2.529,8.107,8.107,0,0,0,2.271-7.113,5.363,5.363,0,0,1-.024-.663c1.944,3.3.436,7.974-3.171,9.778A6.582,6.582,0,0,1,400.169,928.712Z" transform="translate(-206.283 -204.628)" fill="#f8a213"/>
      <path id="Trazado_620055" data-name="Trazado 620055" d="M428.653,797.314a16.61,16.61,0,0,0,2.1-1.874,7.923,7.923,0,0,0,1.512-6.586,2.438,2.438,0,0,1,0-.4c2.175,3.575.093,8.958-4,10.2Z" transform="translate(-229.366 -97.816)" fill="#f75aa3"/>
      <path id="Trazado_620056" data-name="Trazado 620056" d="M470.8,819.528a6.293,6.293,0,0,0,6.214-5.167,14.133,14.133,0,0,0,.062-2.461,5.258,5.258,0,0,1-6.276,7.628Z" transform="translate(-264.34 -117.086)" fill="#5eb3f9"/>
      <path id="Trazado_620057" data-name="Trazado 620057" d="M381.487,822.7a7.482,7.482,0,0,0,3.464-1.225,6.15,6.15,0,0,0,2.6-6.074,4.027,4.027,0,0,1-.014-.466,5.255,5.255,0,0,1-6.051,7.766Z" transform="translate(-190.927 -119.583)" fill="#5eb3f9"/>
      <path id="Trazado_620058" data-name="Trazado 620058" d="M271.3,863.02a17.87,17.87,0,0,0,2.626-.805,6.093,6.093,0,0,0,3.338-6.762,1.353,1.353,0,0,1,0-.264,5.218,5.218,0,0,1-.276,5.985A5.159,5.159,0,0,1,271.3,863.02Z" transform="translate(-100.358 -152.666)" fill="#f75aa3"/>
      <path id="Trazado_620059" data-name="Trazado 620059" d="M416.767,736.228a5.222,5.222,0,0,0,5.1-5.326c-.008-.287,0-.575.006-.863a4.177,4.177,0,0,1-.3,5.01A4.135,4.135,0,0,1,416.767,736.228Z" transform="translate(-219.926 -49.802)" fill="#f7a213"/>
      <path id="Trazado_620060" data-name="Trazado 620060" d="M445.557,917.226l-.139-.265Z" transform="translate(-243.475 -203.44)" fill="#f8a213"/>
      <path id="Trazado_620061" data-name="Trazado 620061" d="M377.6,790.151h-.171l.082-.092Q377.563,790.1,377.6,790.151Z" transform="translate(-187.596 -99.133)" fill="#fc79b5"/>
    </g>
  </g>
</svg>
