<svg xmlns="http://www.w3.org/2000/svg" xmlns:xlink="http://www.w3.org/1999/xlink" width="142.698" height="141.855" viewBox="0 0 142.698 141.855">
  <defs>
    <clipPath id="clip-path">
      <ellipse id="Elipse_3994" data-name="Elipse 3994" cx="68.496" cy="68.05" rx="68.496" ry="68.05" transform="translate(0)" fill="#f2f6fe"/>
    </clipPath>
  </defs>
  <g id="Grupo_894645" data-name="Grupo 894645" transform="translate(-277 -2169.782)">
    <g id="Grupo_894445" data-name="Grupo 894445" transform="translate(8950 443.3)">
      <path id="Trazado_99503" data-name="Trazado 99503" d="M968.645,321.3A68.266,68.266,0,0,1,900.42,253" transform="translate(-9572.42 1546.033)" fill="none" stroke="#fefefe" stroke-miterlimit="10" stroke-width="2"/>
      <ellipse id="Elipse_3992" data-name="Elipse 3992" cx="69.561" cy="69.138" rx="69.561" ry="69.138" transform="translate(-8669.424 1726.482)" fill="#5f4ad9"/>
      <path id="Trazado_175808" data-name="Trazado 175808" d="M68.5,0c37.829,0,68.5,30.476,68.5,68.069s-30.667,68.069-68.5,68.069S0,105.662,0,68.069,30.667,0,68.5,0Z" transform="translate(-8669.456 1727.77)" fill="#d3e6b1"/>
    </g>
    <g id="Grupo_881883" data-name="Grupo 881883" transform="translate(221.631 1533.3)">
      <path id="Trazado_620062" data-name="Trazado 620062" d="M120.961,670.449l.747.245a5.455,5.455,0,0,1,1.413,9.8,1.228,1.228,0,0,0-.6.889c-.227,1.391-.494,2.776-.7,4.17a.8.8,0,0,0,.281.646,9.838,9.838,0,0,1,4.355,10.734.733.733,0,0,0,.187.623c2.809,2.068,5.635,4.112,8.458,6.16.1.075.213.143.341.228a10.039,10.039,0,0,1,4.966-1.686,9.637,9.637,0,0,1,5.481,1.271.579.579,0,0,0,.782-.047c1.282-1.035,2.6-2.031,3.878-3.067a1.076,1.076,0,0,0,.367-.673,5.493,5.493,0,0,1,10.81-1.035,3.007,3.007,0,0,0,.159.378v2.055a4.64,4.64,0,0,0-.254.548,5.5,5.5,0,0,1-6.188,3.737,1.161,1.161,0,0,0-.8.2c-1.317.991-2.6,2.022-3.91,3.026a.542.542,0,0,0-.23.692,9.839,9.839,0,0,1-7.425,12.388.791.791,0,0,0-.479.519c-.282,1.381-.54,2.768-.744,4.162a1.446,1.446,0,0,0,.253.972,5.484,5.484,0,1,1-7.293-1.307,1.335,1.335,0,0,0,.526-.773c.284-1.4.494-2.819.766-4.223a.55.55,0,0,0-.31-.662A9.769,9.769,0,0,1,131.43,709.7a.734.734,0,0,0-.194-.623c-2.81-2.066-5.636-4.109-8.46-6.156-.1-.075-.213-.142-.34-.225a9.881,9.881,0,0,1-6.575,1.658,9.239,9.239,0,0,1-3.873-1.247.578.578,0,0,0-.782.06c-1.283,1.034-2.6,2.029-3.875,3.07a1.149,1.149,0,0,0-.363.737,5.494,5.494,0,0,1-10.7,1.327c-.068-.211-.175-.41-.264-.614v-2.183a2.664,2.664,0,0,0,.224-.422,5.444,5.444,0,0,1,6.273-3.851,1.09,1.09,0,0,0,.741-.2c1.314-.994,2.6-2.026,3.907-3.025.288-.219.287-.408.229-.75a14.3,14.3,0,0,1-.364-3.164,9.7,9.7,0,0,1,7.781-9.148.591.591,0,0,0,.531-.583c.209-1.35.462-2.693.717-4.035a1.273,1.273,0,0,0-.259-1.113,5.439,5.439,0,0,1,2.815-8.527c.234-.069.463-.156.694-.235Zm.1,5.8,1.708,1.634a3.253,3.253,0,0,0-2.839-5.211c-2.236.165-3.8,2.585-2.77,4.311A3.4,3.4,0,0,1,121.058,676.248Zm16.5,57.726a3.064,3.064,0,0,0,2.934-1.468,2.866,2.866,0,0,0,.351-2.726l-1.995.915a3.42,3.42,0,0,1-3.636-2.086,3.2,3.2,0,0,0-.464,3.477A3.069,3.069,0,0,0,137.553,733.974Zm-36.281-24.12a3.259,3.259,0,1,0,0-6.5,3.255,3.255,0,0,0,0,6.5Zm54.815-13.063a3.26,3.26,0,0,0,0,6.5,3.265,3.265,0,1,0,0-6.5Zm-37.97-9.859a7.687,7.687,0,0,0-8.752,9.224c2.01-.847,3.385-.728,4.41.483,1.37,1.619,1.107,3.238-.261,4.8a7.226,7.226,0,0,0,4.866.581,3.167,3.167,0,0,0,.438-.048,7.682,7.682,0,0,0-.7-15.038Zm24.2,32.682.2-.055.191-.054a2.163,2.163,0,0,0,.381-.026,7.752,7.752,0,0,0,5.528-6.2,6.27,6.27,0,0,0-.1-2.676l-2.095.482a3.615,3.615,0,0,1-2.523-1.232,3.46,3.46,0,0,1,.546-4.705l-1.878-.508a6.832,6.832,0,0,0-.814-.162,7.652,7.652,0,1,0,.563,15.141ZM125.48,699.447l-1.311,1.782,8.227,5.966,1.31-1.78Zm25.956,3.071c-1.824,1.431-3.641,2.848-5.449,4.278a1.107,1.107,0,0,0-.336,1.66,1.153,1.153,0,0,0,1.708.049q2.6-2.026,5.2-4.067a1.692,1.692,0,0,0,.213-.23Zm-45,1.609c1.8-1.416,3.6-2.823,5.4-4.238.687-.542.817-1.156.388-1.7s-1.072-.541-1.749-.012q-2.527,1.972-5.048,3.952c-.128.1-.242.22-.33.3Zm13.215-19.067c.336-1.891.674-3.759.994-5.629a1.084,1.084,0,0,0-.877-1.283,1.054,1.054,0,0,0-1.269.886c-.127.562-.217,1.132-.317,1.7q-.346,1.973-.687,3.947Zm18.562,36.515c-.339,1.928-.7,3.854-1.007,5.787a1.086,1.086,0,0,0,2.15.274c.359-1.879.681-3.765,1.021-5.67Z" fill="#030302"/>
      <path id="Trazado_620063" data-name="Trazado 620063" d="M96,947.71a2.462,2.462,0,0,0,.158-.319,4.383,4.383,0,0,1,4.263-3.174,1.109,1.109,0,0,0,.578-.193c.883-.64,1.731-1.331,2.632-1.943.412-.28.246-.583.19-.893A7.675,7.675,0,1,1,119,940.624a.731.731,0,0,0,.338.788c1.14.834,2.255,1.7,3.4,2.527a1.521,1.521,0,0,0,.8.272,4.378,4.378,0,0,1,.893,8.644,4.433,4.433,0,0,1-5.145-2.819,2.243,2.243,0,0,0-.674-.938c-.984-.789-2.018-1.516-3.016-2.288a.734.734,0,0,0-.906-.106,7.336,7.336,0,0,1-5.975.3.8.8,0,0,0-.912.138c-.561.461-1.149.892-1.744,1.309a4.492,4.492,0,0,0-1.767,2.071,4.117,4.117,0,0,1-4.221,2.431,4.3,4.3,0,0,1-3.815-2.893c-.075-.189-.17-.37-.255-.555Zm26.762-1.155a2.113,2.113,0,0,0-1.515,1.976,2.16,2.16,0,0,0,1.517,2.111,2.128,2.128,0,0,0,2.442-.743,2.223,2.223,0,0,0,0-2.621A2.1,2.1,0,0,0,122.762,946.555Zm-23.033-.006a2.1,2.1,0,0,0-1.534,2.012,2.209,2.209,0,0,0,3.972,1.314,2.206,2.206,0,0,0,0-2.573A2.1,2.1,0,0,0,99.729,946.549Zm12.091-1.3,1.722-.338a3.4,3.4,0,0,1,.235-3.612l.876-.789,2.155-.615c.325-2.541-1.983-5.211-4.868-5.491a5.179,5.179,0,0,0-5.148,2.437,5.125,5.125,0,0,0-.132,5.744A5.188,5.188,0,0,0,111.82,945.253Zm8.836-.126c-1.189-.884-2.411-1.818-3.664-2.71a1.036,1.036,0,0,0-1.433.247,1.023,1.023,0,0,0,.161,1.49c1.191.932,2.413,1.823,3.6,2.711Zm-15.839-1.22-1.615,1.225,1.324,1.735,1.706-1.283Z" transform="translate(0 -216.778)" fill="#030202"/>
      <path id="Trazado_620064" data-name="Trazado 620064" d="M326.257,675.714c-.084.186-.181.368-.248.559a4.4,4.4,0,0,1-4.048,2.938,1.571,1.571,0,0,0-.807.271c-.788.552-1.53,1.17-2.324,1.714a.876.876,0,0,0-.412,1.048,7.663,7.663,0,1,1-15.155.544.723.723,0,0,0-.348-.783c-1.139-.835-2.256-1.7-3.4-2.526a1.528,1.528,0,0,0-.8-.268,4.383,4.383,0,0,1-1.432-8.495,5.773,5.773,0,0,0,.544-.268h1.673c.027.029.051.08.082.086a4.3,4.3,0,0,1,3.449,3.067,1.339,1.339,0,0,0,.43.592c1.083.835,2.193,1.635,3.275,2.471a.642.642,0,0,0,.8.07,7.568,7.568,0,0,1,6.1-.313,1,1,0,0,0,.778-.127c.861-.594,1.674-1.257,2.53-1.86a2.232,2.232,0,0,0,.845-1.136,4.214,4.214,0,0,1,3.075-2.727,1.555,1.555,0,0,0,.262-.123h1.415c.043.038.081.1.128.111a4.042,4.042,0,0,1,3.019,2.116,10.9,10.9,0,0,1,.583,1.368Zm-20.8,7.7a5.387,5.387,0,0,0,3.653,5.368,5.478,5.478,0,0,0,5.848-8.852,5.313,5.313,0,0,0-6.15-1.321A3.367,3.367,0,0,1,305.453,683.41Zm16.4-6.4a2.184,2.184,0,0,0,2.21-2.182,2.214,2.214,0,0,0-2.216-2.19,2.181,2.181,0,0,0-2.163,2.163A2.155,2.155,0,0,0,321.852,677.011Zm-23.014,0a2.2,2.2,0,0,0,2.173-2.225,2.225,2.225,0,0,0-2.2-2.148,2.176,2.176,0,0,0-2.185,2.2A2.152,2.152,0,0,0,298.838,677.011ZM301.6,678.3c1.188.884,2.393,1.8,3.626,2.687a1.047,1.047,0,0,0,1.481-.244,1.012,1.012,0,0,0-.144-1.442c-1.2-.945-2.433-1.847-3.62-2.74Zm14.42-.458,1.417,1.676,1.616-1.225-1.324-1.727Z" transform="translate(-164.381)" fill="#030202"/>
      <path id="Trazado_620065" data-name="Trazado 620065" d="M324.148,874.023a3.615,3.615,0,0,0,2.523,1.232,8.592,8.592,0,0,1-3.549,8.1c-.087.065-.114.212-.169.321l-.192.054-.2.056A7.652,7.652,0,1,1,322,868.648a6.831,6.831,0,0,1,.814.162l.42.548c-.364.273-.717.53-1.061.8a2.23,2.23,0,0,0-.666,2.793A2.141,2.141,0,0,0,324.148,874.023Z" transform="translate(-180.249 -164.174)" fill="#ed314b"/>
      <path id="Trazado_620066" data-name="Trazado 620066" d="M182,781.094a7.226,7.226,0,0,1-4.866-.581c1.368-1.559,1.631-3.178.261-4.8-1.025-1.212-2.4-1.331-4.41-.483a7.687,7.687,0,0,1,8.752-9.224,18.922,18.922,0,0,1,1.632,1.4,8.625,8.625,0,0,1,2.51,7.208,8.447,8.447,0,0,1-2.449,5.142C182.972,780.218,182.481,780.65,182,781.094Z" transform="translate(-63.624 -79.076)" fill="#ed314b"/>
      <path id="Trazado_620067" data-name="Trazado 620067" d="M225.186,781.618c.477-.445.968-.876,1.43-1.336a8.447,8.447,0,0,0,2.449-5.142,8.625,8.625,0,0,0-2.51-7.208,18.922,18.922,0,0,0-1.632-1.4,7.682,7.682,0,0,1,.7,15.038A3.167,3.167,0,0,1,225.186,781.618Z" transform="translate(-106.806 -79.601)" fill="#b9193a"/>
      <path id="Trazado_620068" data-name="Trazado 620068" d="M261.513,839.482l8.226,5.968-1.31,1.78-8.227-5.966Z" transform="translate(-136.033 -140.035)" fill="#cbd4d7"/>
      <path id="Trazado_620069" data-name="Trazado 620069" d="M431.873,830.5a3.26,3.26,0,0,1,0-6.5C433.775,826.248,433.775,828.382,431.873,830.5Z" transform="translate(-275.785 -127.211)" fill="#fcda00"/>
      <path id="Trazado_620070" data-name="Trazado 620070" d="M111.868,868.759a3.255,3.255,0,0,1,0-6.5,2.361,2.361,0,0,0,.222.373,4.349,4.349,0,0,1,.247,5.464C112.176,868.314,112.024,868.538,111.868,868.759Z" transform="translate(-10.596 -158.905)" fill="#fcda00"/>
      <path id="Trazado_620071" data-name="Trazado 620071" d="M390.009,857.385l1.334,1.69a1.692,1.692,0,0,1-.213.23q-2.6,2.037-5.2,4.067a1.153,1.153,0,0,1-1.708-.049,1.107,1.107,0,0,1,.336-1.66C386.368,860.233,388.184,858.816,390.009,857.385Z" transform="translate(-238.573 -154.867)" fill="#cbd4d7"/>
      <path id="Trazado_620072" data-name="Trazado 620072" d="M150.375,836.129l-1.342-1.7c.087-.08.2-.2.33-.3q2.522-1.979,5.048-3.952c.677-.528,1.331-.52,1.749.012s.3,1.161-.388,1.7C153.979,833.306,152.18,834.713,150.375,836.129Z" transform="translate(-43.935 -132.001)" fill="#cbd4d7"/>
      <path id="Trazado_620073" data-name="Trazado 620073" d="M368.244,913.392c.055-.109.081-.255.169-.321a8.592,8.592,0,0,0,3.549-8.1l2.095-.482a6.27,6.27,0,0,1,.1,2.676,7.752,7.752,0,0,1-5.528,6.2A2.163,2.163,0,0,1,368.244,913.392Z" transform="translate(-225.54 -193.887)" fill="#b8193a"/>
      <path id="Trazado_620074" data-name="Trazado 620074" d="M223.484,722.153l-2.154-.379q.343-1.974.687-3.947c.1-.568.19-1.138.317-1.7a1.054,1.054,0,0,1,1.269-.886,1.084,1.084,0,0,1,.877,1.283C224.158,718.395,223.82,720.262,223.484,722.153Z" transform="translate(-103.829 -37.092)" fill="#cbd4d7"/>
      <path id="Trazado_620075" data-name="Trazado 620075" d="M337.175,968.475l2.164.391c-.34,1.9-.661,3.791-1.021,5.67a1.086,1.086,0,0,1-2.15-.274C336.48,972.329,336.836,970.4,337.175,968.475Z" transform="translate(-198.958 -246.899)" fill="#cbd4d7"/>
      <path id="Trazado_620076" data-name="Trazado 620076" d="M323.111,1014.837a3.069,3.069,0,0,1-2.81-1.887,3.2,3.2,0,0,1,.464-3.477,3.42,3.42,0,0,0,3.636,2.086c-.021.208-.045.416-.062.625A6,6,0,0,1,323.111,1014.837Z" transform="translate(-185.557 -280.864)" fill="#fcda00"/>
      <path id="Trazado_620077" data-name="Trazado 620077" d="M126.726,868.722c.156-.221.308-.445.468-.663a4.349,4.349,0,0,0-.247-5.464,2.367,2.367,0,0,1-.222-.373,3.259,3.259,0,1,1,0,6.5Z" transform="translate(-25.454 -158.868)" fill="#f9be08"/>
      <path id="Trazado_620078" data-name="Trazado 620078" d="M446.258,830.451c1.9-2.117,1.9-4.251,0-6.5a3.265,3.265,0,1,1,0,6.5Z" transform="translate(-290.17 -127.163)" fill="#f9be08"/>
      <path id="Trazado_620079" data-name="Trazado 620079" d="M221.66,686.977a3.4,3.4,0,0,0-3.9.734c-1.033-1.727.533-4.146,2.77-4.311a8.906,8.906,0,0,1,.676.974A2.8,2.8,0,0,1,221.66,686.977Z" transform="translate(-100.602 -10.729)" fill="#fcda00"/>
      <path id="Trazado_620080" data-name="Trazado 620080" d="M361.307,874.937a2.141,2.141,0,0,1-2.64-1.074,2.23,2.23,0,0,1,.666-2.793c.344-.269.7-.525,1.061-.8l-.42-.548,1.878.508A3.46,3.46,0,0,0,361.307,874.937Z" transform="translate(-217.408 -165.089)" fill="#b9193a"/>
      <path id="Trazado_620081" data-name="Trazado 620081" d="M236.6,686.939a2.8,2.8,0,0,0-.455-2.6,8.906,8.906,0,0,0-.676-.974,3.253,3.253,0,0,1,2.839,5.211Z" transform="translate(-115.546 -10.691)" fill="#f9be08"/>
      <path id="Trazado_620082" data-name="Trazado 620082" d="M338.22,1020.489a6,6,0,0,0,1.227-2.654c.017-.209.041-.417.062-.625l1.995-.915a2.867,2.867,0,0,1-.351,2.726A3.064,3.064,0,0,1,338.22,1020.489Z" transform="translate(-200.667 -286.515)" fill="#f9be08"/>
      <path id="Trazado_620083" data-name="Trazado 620083" d="M365.982,956.772l.2-.056Z" transform="translate(-223.666 -237.157)" fill="#b8193a"/>
      <path id="Trazado_620084" data-name="Trazado 620084" d="M162.19,951.416l-.876.789a2.1,2.1,0,0,0-2.4.858,2.213,2.213,0,0,0,.187,2.667,2.87,2.87,0,0,1,.253.425,5.188,5.188,0,0,1-5.16-2.663,5.125,5.125,0,0,1,.132-5.744,5.179,5.179,0,0,1,5.148-2.437A7.083,7.083,0,0,1,162.19,951.416Z" transform="translate(-47.536 -227.68)" fill="#ed314b"/>
      <path id="Trazado_620085" data-name="Trazado 620085" d="M213.907,993.96l-1.339,1.738c-1.184-.888-2.406-1.779-3.6-2.711a1.023,1.023,0,0,1-.161-1.49,1.036,1.036,0,0,1,1.433-.247C211.5,992.142,212.718,993.077,213.907,993.96Z" transform="translate(-93.251 -265.611)" fill="#cbd4d7"/>
      <path id="Trazado_620086" data-name="Trazado 620086" d="M191.63,951.579a7.083,7.083,0,0,0-2.713-6.106c2.885.28,5.193,2.951,4.868,5.491Z" transform="translate(-76.977 -227.843)" fill="#b8193a"/>
      <path id="Trazado_620087" data-name="Trazado 620087" d="M117.736,1015.646a2.1,2.1,0,0,1,2.435.752,2.206,2.206,0,0,1,0,2.573,2.12,2.12,0,0,1-2.437.771A3.543,3.543,0,0,0,117.736,1015.646Z" transform="translate(-18.007 -285.875)" fill="#f9be08"/>
      <path id="Trazado_620088" data-name="Trazado 620088" d="M252,1015.64a2.1,2.1,0,0,1,2.44.722,2.223,2.223,0,0,1,0,2.621,2.128,2.128,0,0,1-2.442.743A3.405,3.405,0,0,0,252,1015.64Z" transform="translate(-129.237 -285.863)" fill="#f9be08"/>
      <path id="Trazado_620089" data-name="Trazado 620089" d="M184.351,989.177a2.869,2.869,0,0,0-.253-.425,2.213,2.213,0,0,1-.187-2.667,2.1,2.1,0,0,1,2.4-.858,3.4,3.4,0,0,0-.235,3.612Z" transform="translate(-72.531 -260.703)" fill="#b9193a"/>
      <path id="Trazado_620090" data-name="Trazado 620090" d="M110.326,1016.242a3.543,3.543,0,0,1,0,4.1,2.126,2.126,0,0,1-1.534-2.085A2.1,2.1,0,0,1,110.326,1016.242Z" transform="translate(-10.597 -286.471)" fill="#fcda00"/>
      <path id="Trazado_620091" data-name="Trazado 620091" d="M244.673,1016.277a3.405,3.405,0,0,1,0,4.087,2.16,2.16,0,0,1-1.517-2.111A2.113,2.113,0,0,1,244.673,1016.277Z" transform="translate(-121.911 -286.5)" fill="#fcda00"/>
      <path id="Trazado_620092" data-name="Trazado 620092" d="M139.592,1000.846l1.415,1.678-1.706,1.283-1.324-1.735Z" transform="translate(-34.776 -273.717)" fill="#c9d2d5"/>
      <path id="Trazado_620093" data-name="Trazado 620093" d="M358.653,720.433A3.367,3.367,0,0,0,362,715.628a5.313,5.313,0,0,1,6.15,1.321,5.478,5.478,0,0,1-5.848,8.852A5.387,5.387,0,0,1,358.653,720.433Z" transform="translate(-217.581 -37.023)" fill="#ed314b"/>
      <path id="Trazado_620094" data-name="Trazado 620094" d="M443.846,687.585a2.155,2.155,0,0,1-2.17-2.209,2.181,2.181,0,0,1,2.163-2.163,2.214,2.214,0,0,1,2.216,2.19A2.184,2.184,0,0,1,443.846,687.585Z" transform="translate(-286.375 -10.575)" fill="#fcda00"/>
      <path id="Trazado_620095" data-name="Trazado 620095" d="M309.5,687.584a2.152,2.152,0,0,1-2.21-2.168,2.176,2.176,0,0,1,2.185-2.2,2.225,2.225,0,0,1,2.2,2.148A2.2,2.2,0,0,1,309.5,687.584Z" transform="translate(-175.043 -10.573)" fill="#fcda00"/>
      <path id="Trazado_620096" data-name="Trazado 620096" d="M336.292,707.795l1.343-1.74c1.187.894,2.421,1.795,3.62,2.74a1.011,1.011,0,0,1,.144,1.442,1.047,1.047,0,0,1-1.481.244C338.685,709.6,337.48,708.679,336.292,707.795Z" transform="translate(-199.069 -29.498)" fill="#cbd4d7"/>
      <path id="Trazado_620097" data-name="Trazado 620097" d="M420.35,707.355l1.709-1.277,1.324,1.727-1.616,1.225Z" transform="translate(-268.707 -29.517)" fill="#c9d2d5"/>
    </g>
  </g>
</svg>
