<svg xmlns="http://www.w3.org/2000/svg" width="133.722" height="137.678" viewBox="0 0 133.722 137.678">
  <g id="Grupo_883429" data-name="Grupo 883429" transform="translate(-285 -1928.076)">
    <g id="Elipse_5266" data-name="Elipse 5266" transform="translate(288 1935.415)" fill="#fff" stroke="#148d80" stroke-width="8">
      <circle cx="60.5" cy="60.5" r="60.5" stroke="none"/>
      <circle cx="60.5" cy="60.5" r="56.5" fill="none"/>
    </g>
    <g id="Grupo_881873" data-name="Grupo 881873" transform="translate(285 1928.076)">
      <g id="Grupo_875403" data-name="Grupo 875403" transform="translate(0 0)">
        <path id="Trazado_612672" data-name="Trazado 612672" d="M742.946,514.331c15.253-33.089,52.448-49.655,87.048-37.717.7.215,2.633.982,3.358,1.27.627.219,1.584.654,2.2.943l2.177,1c1.036.48,2.151,1.161,3.18,1.679,1.222.651,2.931,1.753,4.117,2.466.595.4,2.339,1.623,2.964,2.049a69.019,69.019,0,0,1,24.933,77.8c-.3.742-.961,2.722-1.273,3.449-.239.552-.714,1.7-.954,2.259-.326.864-1.185,2.489-1.565,3.33-.5,1.034-1.2,2.227-1.738,3.244-.448.822-1.442,2.342-1.91,3.148-.464.623-1.605,2.427-2.086,3.035-.37.471-1.121,1.476-1.492,1.951-1.166,1.488-2.695,3.286-4,4.648-15.532,16.862-39.9,24.888-62.36,20.22a1.93,1.93,0,0,1,.587-3.811,72.6,72.6,0,0,0,18.194-.14c.795-.112,2.6-.435,3.353-.544.635-.153,2.636-.568,3.315-.725,2.373-.6,4.708-1.332,7.022-2.123,1.2-.492,2.482-.95,3.664-1.463.733-.324,2.371-1.111,3.067-1.421a66.411,66.411,0,0,0,13.995-9.36c.971-.8,2.406-2.143,3.317-3.042.454-.4,1.135-1.172,1.566-1.616,22.662-23.692,23.86-61.953,2.557-87-26.347-31.55-75.747-30.837-100.826,1.916a61.294,61.294,0,0,0-8.847,16.028,1.93,1.93,0,1,1-3.562-1.482Z" transform="translate(-742.764 -472.746)" fill="#fda829"/>
      </g>
    </g>
    <g id="Grupo_881881" data-name="Grupo 881881" transform="translate(108.806 1330.605)">
      <path id="Trazado_619998" data-name="Trazado 619998" d="M341.458,626.449c.883.237,1.788.413,2.645.722a11.949,11.949,0,1,1-5.832-.575,1.132,1.132,0,0,0,.3-.147Zm.91,2.6a2.007,2.007,0,0,0-.356-.129,9.383,9.383,0,0,0-9.652,3.709,9.2,9.2,0,0,0-.812,10.351,9.517,9.517,0,0,0,10.988,4.773,6.561,6.561,0,0,0,.657-.156,9.646,9.646,0,0,0-.825-18.549Z" transform="translate(-99.383)" fill="#040404"/>
      <path id="Trazado_619999" data-name="Trazado 619999" d="M218.649,712.566l.933-1.124a1.33,1.33,0,0,0,1.8-.076,7.579,7.579,0,0,1,.743-.526,9.205,9.205,0,0,1,7.616-1.194,2.572,2.572,0,0,0,.385.43,10.448,10.448,0,0,1,4.4,6.694,10.283,10.283,0,0,1-2.759,9.592c-.674.7-1.447,1.31-2.175,1.961a7.966,7.966,0,0,1-4.485.048A9.64,9.64,0,0,1,218.8,714.49,1.464,1.464,0,0,0,218.649,712.566Zm7.173,3.137h.783c1.138,0,2.277.017,3.415-.008a1.15,1.15,0,0,0,1.243-1.151,1.126,1.126,0,0,0-1.2-1.112q-2.694-.031-5.389,0a1.075,1.075,0,0,0-1.159,1.139c-.019,2.909-.014,5.819-.007,8.729a1.055,1.055,0,0,0,1.043,1.177q2.844.071,5.69,0a1.033,1.033,0,0,0,1.016-1.12,1.116,1.116,0,0,0-1.115-1.113c-.276-.023-.556-.009-.835-.01h-3.47v-2.552c1.062,0,2.069.018,3.076-.007a.973.973,0,0,0,1-.858,1.025,1.025,0,0,0-.616-1.246,2.724,2.724,0,0,0-.964-.147c-.826-.019-1.653-.006-2.516-.006Z" transform="translate(-10.007 -67.077)" fill="#a88652"/>
      <path id="Trazado_620000" data-name="Trazado 620000" d="M205.659,850.642a11.979,11.979,0,1,1,11.87,11.968A11.958,11.958,0,0,1,205.659,850.642Zm14.333-9.327a16.216,16.216,0,0,0-3.523-.255,9.666,9.666,0,0,0-5.393,16.7,9.057,9.057,0,0,0,8.92,2.227,3.887,3.887,0,0,0,.516-.085,9.633,9.633,0,0,0,6.556-11.462A9.271,9.271,0,0,0,219.992,841.315Z" transform="translate(-0.253 -171.853)" fill="#040404"/>
      <path id="Trazado_620001" data-name="Trazado 620001" d="M474.844,850.8a11.975,11.975,0,1,1-11.927-12.062A11.991,11.991,0,0,1,474.844,850.8Zm-9.751,9.265-.007.009a4.3,4.3,0,0,0,.52-.088,9.655,9.655,0,0,0,6.308-12.74,9.154,9.154,0,0,0-6.845-5.929,6.943,6.943,0,0,0-1.095-.254,9.454,9.454,0,0,0-9.342,4.568,9.25,9.25,0,0,0-.11,9.993c2.008,3.549,6.59,5.543,10.236,4.534Z" transform="translate(-198.828 -171.895)" fill="#040404"/>
      <path id="Trazado_620002" data-name="Trazado 620002" d="M466.265,719.481c-.039.96-.338,1.342-1.173,1.475a11.98,11.98,0,0,1-7.013-22.75,11.978,11.978,0,0,1,10.982,21.238c-.724.421-1.131.345-1.789-.333-.276-.83.134-1.322.794-1.754a9.412,9.412,0,0,0,4.5-8.207,9.531,9.531,0,0,0-7.188-9.279,8.841,8.841,0,0,0-4.415-.177,9.632,9.632,0,0,0-7.594,7.635,9.75,9.75,0,0,0,4.1,9.906,10.023,10.023,0,0,0,7.609,1.417Z" transform="translate(-198.84 -57.302)" fill="#040404"/>
      <path id="Trazado_620003" data-name="Trazado 620003" d="M208.642,702.9a1.464,1.464,0,0,1,.152,1.924,9.64,9.64,0,0,0,6.309,13.881,7.966,7.966,0,0,0,4.485-.048,4.169,4.169,0,0,0,.518-.08,9.679,9.679,0,0,0,5.5-14.418,8.9,8.9,0,0,0-5.872-4.178,9.2,9.2,0,0,0-7.616,1.194,7.592,7.592,0,0,0-.743.526,1.33,1.33,0,0,1-1.8.076c-.454-.946-.352-1.3.464-1.929a11.956,11.956,0,1,1,9.413,21.2,11.33,11.33,0,0,1-11.718-4.711c-2.9-3.984-3.113-8.312-.895-12.729C207.264,702.768,207.647,702.636,208.642,702.9Z" transform="translate(0 -57.412)" fill="#040404"/>
      <path id="Trazado_620004" data-name="Trazado 620004" d="M343.052,910.82c.577-.771.942-.893,1.729-.541a11.7,11.7,0,0,1,7.207,9.1,11.975,11.975,0,1,1-23.774,1.307,12.02,12.02,0,0,1,11.69-11.327c.838-.022,1.194.261,1.425,1.134l-.431.918c-.518.093-1.032.229-1.554.274a9.688,9.688,0,0,0-7.223,15.029c2.266,3.4,6.791,5.144,10.339,3.994,4.843-.845,8.343-6.337,7.226-11.292a9.49,9.49,0,0,0-5.577-6.919C343.364,912.156,342.862,911.72,343.052,910.82Z" transform="translate(-99.475 -229.075)" fill="#040404"/>
      <path id="Trazado_620005" data-name="Trazado 620005" d="M352.962,776.764a7.664,7.664,0,0,0-.181-1.563,10.018,10.018,0,0,0-15.839-4.964,17.92,17.92,0,0,0-2.535,2.878,8.986,8.986,0,0,0-.463.78,1.1,1.1,0,0,1-1.564.441,1.145,1.145,0,0,1-.379-1.589,12.382,12.382,0,0,1,23.443,4.1c.193-.087.354-.229.49-.208a2.932,2.932,0,0,1,1.283.33.866.866,0,0,1,.076,1.295,22.13,22.13,0,0,1-2.394,2.31,1.276,1.276,0,0,1-1.224-.044,21.1,21.1,0,0,1-2.339-2.373.978.978,0,0,1,.179-1.479.931.931,0,0,1,1.45.084c.034-.041.069-.081,0,0C353.015,776.672,352.988,776.718,352.962,776.764Z" transform="translate(-102.423 -112.815)" fill="#040404"/>
      <path id="Trazado_620006" data-name="Trazado 620006" d="M318.264,823.937c-.278.126-.516.335-.721.306-.394-.055-.929-.138-1.11-.407a1.342,1.342,0,0,1-.062-1.226,19.246,19.246,0,0,1,2.087-2.4,1.08,1.08,0,0,1,1.573.057c.636.542,1.243,1.116,1.873,1.665.514.449.868.942.5,1.645-.3.585-.821.7-1.787.374a9.673,9.673,0,0,0,3.063,5.453,10.079,10.079,0,0,0,15.353-2.037,6.58,6.58,0,0,1,.386-.562,1.122,1.122,0,0,1,1.538-.336,1.079,1.079,0,0,1,.311,1.594A21.962,21.962,0,0,1,338.1,831.7a12.291,12.291,0,0,1-16.842-1.493A13.006,13.006,0,0,1,318.264,823.937Z" transform="translate(-89.803 -156.638)" fill="#040404"/>
      <path id="Trazado_620007" data-name="Trazado 620007" d="M397.106,915.651c-.19.9.313,1.335,1.055,1.673a9.49,9.49,0,0,1,5.577,6.919c1.117,4.955-2.383,10.447-7.226,11.292a2.473,2.473,0,0,1,.389-.427,10.188,10.188,0,0,0,3.145-3.314,10.779,10.779,0,0,0-2.552-14.129,16.818,16.818,0,0,0-2.543-1.426l.431-.918Z" transform="translate(-153.529 -233.905)" fill="#a0ae6d"/>
      <path id="Trazado_620008" data-name="Trazado 620008" d="M525.619,711.169a9.531,9.531,0,0,1,7.188,9.279,9.412,9.412,0,0,1-4.5,8.207c-.66.432-1.069.924-.794,1.754l-1.007.37-1.2-.829a4.426,4.426,0,0,1,.368-.439,30.772,30.772,0,0,0,2.419-2.251,10.158,10.158,0,0,0,2.338-8.126,10.594,10.594,0,0,0-4.347-7.428A3.475,3.475,0,0,1,525.619,711.169Z" transform="translate(-259.087 -68.599)" fill="#ec6a49"/>
      <path id="Trazado_620009" data-name="Trazado 620009" d="M352.105,657.551a9.517,9.517,0,0,1-10.988-4.773,9.2,9.2,0,0,1,.812-10.351,9.384,9.384,0,0,1,9.652-3.71,2.007,2.007,0,0,1,.356.129c.188.189.375.378.565.565a19.208,19.208,0,0,1,2.582,2.6,10.488,10.488,0,0,1,1.893,7.413,10.85,10.85,0,0,1-4.293,7.493A5.017,5.017,0,0,0,352.105,657.551Zm-.676-6.357c.136.551.245,1.044.379,1.53a1.153,1.153,0,1,0,2.228-.526c-.613-2.5-1.226-5-1.895-7.492a2.535,2.535,0,0,0-4.962,0c-.67,2.487-1.282,4.99-1.9,7.491a1.164,1.164,0,0,0,.779,1.513,1.18,1.18,0,0,0,1.45-.99c.141-.5.258-1.013.387-1.524Z" transform="translate(-108.953 -9.796)" fill="#f0dfa7"/>
      <path id="Trazado_620010" data-name="Trazado 620010" d="M403.333,658.829a5.017,5.017,0,0,1,.578-.629,10.85,10.85,0,0,0,4.293-7.493,10.487,10.487,0,0,0-1.893-7.413,19.2,19.2,0,0,0-2.582-2.6c-.19-.187-.377-.377-.565-.565a9.646,9.646,0,0,1,.825,18.549A6.564,6.564,0,0,1,403.333,658.829Z" transform="translate(-160.18 -11.073)" fill="#ebd495"/>
      <path id="Trazado_620011" data-name="Trazado 620011" d="M250.513,733.27v1.712c.863,0,1.69-.013,2.516.006a2.721,2.721,0,0,1,.964.147,1.025,1.025,0,0,1,.616,1.246.973.973,0,0,1-1,.858c-1.007.025-2.015.007-3.076.007V739.8H254c.278,0,.558-.014.835.01a1.116,1.116,0,0,1,1.115,1.113,1.033,1.033,0,0,1-1.016,1.12q-2.844.075-5.69,0a1.055,1.055,0,0,1-1.043-1.177c-.007-2.91-.012-5.819.007-8.729A1.075,1.075,0,0,1,249.367,731q2.694-.038,5.389,0a1.126,1.126,0,0,1,1.2,1.112,1.15,1.15,0,0,1-1.243,1.151c-1.138.025-2.277.007-3.415.008Z" transform="translate(-34.698 -84.644)" fill="#020201"/>
      <path id="Trazado_620012" data-name="Trazado 620012" d="M280.355,711.168a8.9,8.9,0,0,1,5.872,4.178,9.679,9.679,0,0,1-5.5,14.418,4.183,4.183,0,0,1-.518.08c.728-.651,1.5-1.258,2.175-1.961a10.283,10.283,0,0,0,2.759-9.592,10.448,10.448,0,0,0-4.4-6.694A2.569,2.569,0,0,1,280.355,711.168Z" transform="translate(-60.62 -68.599)" fill="#905e42"/>
      <path id="Trazado_620013" data-name="Trazado 620013" d="M229.538,869.89a9.056,9.056,0,0,1-8.92-2.227,9.666,9.666,0,0,1,5.393-16.7,16.224,16.224,0,0,1,3.523.255,6.035,6.035,0,0,0,.608.636,10.555,10.555,0,0,1,4.239,10.591,9.994,9.994,0,0,1-3.6,6.288C230.346,869.093,229.952,869.5,229.538,869.89Zm-6.822-9.422c0,1.417-.013,2.834,0,4.25.011.88.4,1.343,1.188,1.367a22.581,22.581,0,0,0,2.654-.031,5.513,5.513,0,0,0,2.047-10.4,8.729,8.729,0,0,0-4.373-.642c-1.1.006-1.511.412-1.519,1.514C222.708,857.837,222.716,859.152,222.716,860.468Z" transform="translate(-9.795 -181.757)" fill="#9ebfb5"/>
      <path id="Trazado_620014" data-name="Trazado 620014" d="M281,871.169c.414-.387.809-.8,1.245-1.157a9.994,9.994,0,0,0,3.6-6.288,10.554,10.554,0,0,0-4.239-10.591,6.037,6.037,0,0,1-.608-.636,9.271,9.271,0,0,1,7.076,7.125,9.633,9.633,0,0,1-6.556,11.462A3.887,3.887,0,0,1,281,871.169Z" transform="translate(-61.257 -183.036)" fill="#82a89c"/>
      <path id="Trazado_620015" data-name="Trazado 620015" d="M474.19,869.9c-3.647,1.008-8.228-.985-10.236-4.534a9.25,9.25,0,0,1,.11-9.993,9.454,9.454,0,0,1,9.342-4.568,6.943,6.943,0,0,1,1.095.254,5.269,5.269,0,0,0,.488.444,10.391,10.391,0,0,1,4.651,8.919,27.617,27.617,0,0,1-.335,3.065c-.771-.693-1.559-.664-1.965.072a2.623,2.623,0,0,0,.5,2.7,9.509,9.509,0,0,1-1.027,1.536c-.712.726-1.525,1.352-2.295,2.021l.007-.009Zm-9.069-9.812c0,1.366-.013,2.732,0,4.1.013.959.4,1.42,1.282,1.442,1.365.033,2.733.055,4.1-.009a3.4,3.4,0,0,0,3.264-2.291,3.293,3.293,0,0,0-.9-3.8c-.311-.295-.243-.524-.135-.856a3.087,3.087,0,0,0-2.849-4.108c-1.086-.04-2.175-.02-3.262-.014-1.11.006-1.484.382-1.494,1.516C465.112,857.409,465.121,858.749,465.121,860.09Zm11.544,4.582h-.023c0-.2.009-.4,0-.607a1.051,1.051,0,0,0-1.052-1.083.988.988,0,0,0-1.131.892,5.542,5.542,0,0,0,.049,1.719.947.947,0,0,0,1.111.708,1.017,1.017,0,0,0,1-.873A5.285,5.285,0,0,0,476.665,864.671Z" transform="translate(-208.259 -181.638)" fill="#fccc55"/>
      <path id="Trazado_620016" data-name="Trazado 620016" d="M525.4,871.05c.77-.668,1.583-1.3,2.295-2.021a9.508,9.508,0,0,0,1.027-1.536c1.189.11,1.638-.268,1.632-1.441a10.758,10.758,0,0,0-.166-1.331,27.62,27.62,0,0,0,.335-3.065,10.391,10.391,0,0,0-4.651-8.919,5.282,5.282,0,0,1-.488-.444,9.154,9.154,0,0,1,6.845,5.929,9.655,9.655,0,0,1-6.308,12.74A4.323,4.323,0,0,1,525.4,871.05Z" transform="translate(-259.143 -182.87)" fill="#f3c652"/>
      <path id="Trazado_620017" data-name="Trazado 620017" d="M523.752,950.913l.335-.093Z" transform="translate(-257.822 -262.65)" fill="#f3c652"/>
      <path id="Trazado_620018" data-name="Trazado 620018" d="M475.055,709.59a3.476,3.476,0,0,0,.473.535,10.594,10.594,0,0,1,4.347,7.428,10.158,10.158,0,0,1-2.338,8.126,30.777,30.777,0,0,1-2.419,2.251,4.424,4.424,0,0,0-.368.439,10.023,10.023,0,0,1-7.609-1.416,9.75,9.75,0,0,1-4.1-9.906,9.632,9.632,0,0,1,7.594-7.635A8.842,8.842,0,0,1,475.055,709.59Zm-.906,8.088c.026-.106.037-.181.063-.251a3.1,3.1,0,0,0-2.976-4.4c-1.036-.026-2.073-.017-3.11,0-1.017.015-1.41.414-1.413,1.443q-.013,4.058,0,8.115c0,1.1.409,1.505,1.516,1.519a32.414,32.414,0,0,0,3.562-.027,5.544,5.544,0,0,0,2.338-.7A3.5,3.5,0,0,0,474.149,717.678Zm1.953,5.333a5.154,5.154,0,0,0,.067.886,1.06,1.06,0,0,0,1.083.882,1,1,0,0,0,1.086-.864,3.417,3.417,0,0,0-.04-1.642,1.4,1.4,0,0,0-1.027-.781c-.36,0-.774.433-1.064.765C476.058,722.428,476.126,722.79,476.1,723.011Z" transform="translate(-208.522 -67.02)" fill="#fc7e53"/>
      <path id="Trazado_620019" data-name="Trazado 620019" d="M350.617,920.144a16.817,16.817,0,0,1,2.543,1.426,10.779,10.779,0,0,1,2.552,14.129,10.188,10.188,0,0,1-3.145,3.314,2.474,2.474,0,0,0-.389.427c-3.547,1.151-8.073-.6-10.339-3.994a9.688,9.688,0,0,1,7.223-15.029C349.585,920.372,350.1,920.237,350.617,920.144Zm-5.137,9.89h.009c0,.835-.034,1.671.008,2.5a3.142,3.142,0,0,0,2.666,2.97,16.909,16.909,0,0,0,3.473,0,3.2,3.2,0,0,0,2.667-2.737c.113-.889-.2-1.46-.879-1.607s-1.2.276-1.368,1.168a1.067,1.067,0,0,1-1.066.984,17.561,17.561,0,0,1-2.2,0,1,1,0,0,1-1.032-1.082c-.007-1.442-.014-2.884,0-4.325a1.008,1.008,0,0,1,1.107-1.079c.556-.017,1.113-.01,1.669-.007,1.136.005,1.257.094,1.556,1.212a1.124,1.124,0,0,0,2.229-.3,3.252,3.252,0,0,0-2.916-3.155,23.081,23.081,0,0,0-2.8-.017,3.237,3.237,0,0,0-3.118,3.195C345.456,928.515,345.48,929.275,345.48,930.034Z" transform="translate(-109.195 -237.811)" fill="#b6c56e"/>
      <path id="Trazado_620020" data-name="Trazado 620020" d="M442.861,823.3c.027-.046.053-.092,0,0,.071-.083.036-.043,0,0Z" transform="translate(-192.322 -159.352)" fill="#fdfdfd"/>
      <path id="Trazado_620021" data-name="Trazado 620021" d="M374.139,668.834H370.61c-.129.512-.246,1.021-.387,1.524a1.18,1.18,0,0,1-1.45.99,1.164,1.164,0,0,1-.779-1.513c.613-2.5,1.225-5,1.9-7.491a2.535,2.535,0,0,1,4.962,0c.669,2.487,1.282,4.99,1.895,7.492a1.153,1.153,0,1,1-2.228.526C374.383,669.878,374.274,669.385,374.139,668.834Zm-2.944-2.351h2.349c-.3-1.2-.576-2.355-.879-3.5-.035-.132-.216-.225-.33-.336-.09.109-.23.2-.262.329C371.775,664.123,371.5,665.273,371.195,666.483Z" transform="translate(-131.661 -27.435)" fill="#040404"/>
      <path id="Trazado_620022" data-name="Trazado 620022" d="M245.147,877.837c0-1.316-.007-2.631,0-3.947.008-1.1.417-1.508,1.519-1.514a8.729,8.729,0,0,1,4.373.642,5.513,5.513,0,0,1-2.047,10.4,22.581,22.581,0,0,1-2.654.031c-.783-.024-1.177-.487-1.188-1.367C245.135,880.671,245.148,879.254,245.147,877.837Zm2.316,3.309c1.582.174,2.936-.117,3.8-1.518a3.055,3.055,0,0,0-.058-3.5,3.565,3.565,0,0,0-3.744-1.428Z" transform="translate(-32.227 -199.126)" fill="#040404"/>
      <path id="Trazado_620023" data-name="Trazado 620023" d="M476.072,876.137c0-1.34-.009-2.681,0-4.021.01-1.133.384-1.51,1.494-1.516,1.087-.005,2.176-.026,3.262.014a3.087,3.087,0,0,1,2.849,4.108c-.108.332-.177.561.135.856a3.293,3.293,0,0,1,.9,3.8,3.4,3.4,0,0,1-3.264,2.291c-1.363.064-2.731.042-4.1.009-.877-.021-1.27-.483-1.282-1.442C476.058,878.869,476.072,877.5,476.072,876.137Zm2.314.739v2.511c1.066,0,2.093.044,3.114-.015a1.25,1.25,0,0,0,1.191-1.241,1.289,1.289,0,0,0-1.277-1.244C480.436,876.843,479.453,876.876,478.386,876.876Zm.01-4v1.712c.764,0,1.491,0,2.219,0a.828.828,0,0,0,.952-.848.815.815,0,0,0-.929-.865C479.932,872.881,479.226,872.88,478.4,872.88Z" transform="translate(-219.21 -197.686)" fill="#040404"/>
      <path id="Trazado_620024" data-name="Trazado 620024" d="M541.483,915.482a10.723,10.723,0,0,1,.166,1.331c.005,1.172-.443,1.551-1.632,1.441a2.623,2.623,0,0,1-.5-2.7C539.923,914.818,540.712,914.789,541.483,915.482Z" transform="translate(-270.438 -233.63)" fill="#040404"/>
      <path id="Trazado_620025" data-name="Trazado 620025" d="M527.177,916.611a5.29,5.29,0,0,1-.051.756,1.017,1.017,0,0,1-1,.873.947.947,0,0,1-1.111-.708,5.541,5.541,0,0,1-.049-1.719.988.988,0,0,1,1.131-.892A1.051,1.051,0,0,1,527.152,916c.01.2,0,.4,0,.607Z" transform="translate(-258.772 -233.578)" fill="#040404"/>
      <path id="Trazado_620026" data-name="Trazado 620026" d="M490.485,733.8a3.5,3.5,0,0,1-.022,5.693,5.545,5.545,0,0,1-2.338.7,32.383,32.383,0,0,1-3.562.027c-1.107-.014-1.513-.424-1.516-1.519q-.009-4.058,0-8.115c0-1.029.4-1.429,1.413-1.443,1.036-.015,2.074-.024,3.11,0a3.1,3.1,0,0,1,2.976,4.4C490.522,733.622,490.511,733.7,490.485,733.8Zm-5.125,4.08c1.113,0,2.194.047,3.268-.017a1.207,1.207,0,0,0,.022-2.376c-1.094-.077-2.2-.022-3.291-.022Zm.017-6.446v1.7c.8,0,1.558.022,2.311-.008a.793.793,0,0,0,.838-.871.757.757,0,0,0-.8-.818C486.95,731.421,486.175,731.437,485.377,731.437Z" transform="translate(-224.859 -83.145)" fill="#020201"/>
      <path id="Trazado_620027" data-name="Trazado 620027" d="M532.419,775.244c.024-.221-.044-.583.106-.753.29-.331.7-.767,1.064-.765a1.4,1.4,0,0,1,1.027.781,3.418,3.418,0,0,1,.04,1.641,1,1,0,0,1-1.086.864,1.06,1.06,0,0,1-1.083-.882A5.164,5.164,0,0,1,532.419,775.244Z" transform="translate(-264.84 -119.253)" fill="#040404"/>
      <path id="Trazado_620028" data-name="Trazado 620028" d="M367.916,948.692c0-.759-.024-1.518,0-2.276a3.237,3.237,0,0,1,3.118-3.195,23.056,23.056,0,0,1,2.8.017,3.252,3.252,0,0,1,2.916,3.155,1.124,1.124,0,0,1-2.229.3c-.3-1.118-.42-1.207-1.556-1.212-.556,0-1.113-.01-1.669.007a1.008,1.008,0,0,0-1.107,1.079c-.017,1.441-.009,2.883,0,4.325a1,1,0,0,0,1.032,1.082,17.562,17.562,0,0,0,2.2,0,1.067,1.067,0,0,0,1.066-.984c.166-.893.7-1.312,1.368-1.168s.992.718.879,1.607a3.2,3.2,0,0,1-2.667,2.737,16.913,16.913,0,0,1-3.473,0,3.142,3.142,0,0,1-2.666-2.97c-.041-.832-.008-1.669-.008-2.5Z" transform="translate(-131.631 -256.469)" fill="#040404"/>
      <path id="Trazado_620029" data-name="Trazado 620029" d="M385.026,676.348c.3-1.21.58-2.36.878-3.505.032-.124.172-.22.262-.329.113.111.295.2.33.336.3,1.143.58,2.294.879,3.5Z" transform="translate(-145.493 -37.3)" fill="#f0dfa7"/>
      <path id="Trazado_620030" data-name="Trazado 620030" d="M257.335,890.866v-6.442a3.565,3.565,0,0,1,3.744,1.428,3.055,3.055,0,0,1,.058,3.5C260.271,890.749,258.917,891.04,257.335,890.866Z" transform="translate(-42.099 -208.846)" fill="#9ebfb5"/>
      <path id="Trazado_620031" data-name="Trazado 620031" d="M488.254,903.574c1.067,0,2.05-.033,3.029.011a1.289,1.289,0,0,1,1.277,1.244,1.25,1.25,0,0,1-1.191,1.241c-1.021.059-2.049.015-3.114.015Z" transform="translate(-229.078 -224.384)" fill="#f3c652"/>
      <path id="Trazado_620032" data-name="Trazado 620032" d="M488.3,882.622c.831,0,1.536,0,2.242,0a.815.815,0,0,1,.929.865.828.828,0,0,1-.952.848c-.728,0-1.455,0-2.219,0Z" transform="translate(-229.12 -207.428)" fill="#f3c652"/>
      <path id="Trazado_620033" data-name="Trazado 620033" d="M495.22,764.759v-2.415c1.094,0,2.2-.055,3.291.022a1.207,1.207,0,0,1-.022,2.376C497.414,764.807,496.333,764.759,495.22,764.759Z" transform="translate(-234.719 -110.022)" fill="#fc7e53"/>
      <path id="Trazado_620034" data-name="Trazado 620034" d="M495.309,741.219c.8,0,1.573-.016,2.347.005a.757.757,0,0,1,.8.818.793.793,0,0,1-.838.871c-.752.029-1.506.008-2.311.008Z" transform="translate(-234.791 -92.927)" fill="#fc7e53"/>
    </g>
  </g>
</svg>
