<svg xmlns="http://www.w3.org/2000/svg" width="133.722" height="137.678" viewBox="0 0 133.722 137.678">
  <g id="Grupo_883433" data-name="Grupo 883433" transform="translate(-1099.278 -1387.661)">
    <g id="Elipse_5269" data-name="Elipse 5269" transform="translate(1103.278 1394)" fill="#fff" stroke="#148d80" stroke-width="8">
      <ellipse cx="60" cy="60.5" rx="60" ry="60.5" stroke="none"/>
      <ellipse cx="60" cy="60.5" rx="56" ry="56.5" fill="none"/>
    </g>
    <g id="Grupo_881877" data-name="Grupo 881877" transform="translate(1099.278 1387.661)">
      <g id="Grupo_875403" data-name="Grupo 875403" transform="translate(0 0)">
        <path id="Trazado_612672" data-name="Trazado 612672" d="M742.946,514.331c15.253-33.089,52.448-49.655,87.048-37.717.7.215,2.633.982,3.358,1.27.627.219,1.584.654,2.2.943l2.177,1c1.036.48,2.151,1.161,3.18,1.679,1.222.651,2.931,1.753,4.117,2.466.595.4,2.339,1.623,2.964,2.049a69.019,69.019,0,0,1,24.933,77.8c-.3.742-.961,2.722-1.273,3.449-.239.552-.714,1.7-.954,2.259-.326.864-1.185,2.489-1.565,3.33-.5,1.034-1.2,2.227-1.738,3.244-.448.822-1.442,2.342-1.91,3.148-.464.623-1.605,2.427-2.086,3.035-.37.471-1.121,1.476-1.492,1.951-1.166,1.488-2.695,3.286-4,4.648-15.532,16.862-39.9,24.888-62.36,20.22a1.93,1.93,0,0,1,.587-3.811,72.6,72.6,0,0,0,18.194-.14c.795-.112,2.6-.435,3.353-.544.635-.153,2.636-.568,3.315-.725,2.373-.6,4.708-1.332,7.022-2.123,1.2-.492,2.482-.95,3.664-1.463.733-.324,2.371-1.111,3.067-1.421a66.411,66.411,0,0,0,13.995-9.36c.971-.8,2.406-2.143,3.317-3.042.454-.4,1.135-1.172,1.566-1.616,22.662-23.692,23.86-61.953,2.557-87-26.347-31.55-75.747-30.837-100.826,1.916a61.294,61.294,0,0,0-8.847,16.028,1.93,1.93,0,1,1-3.562-1.482Z" transform="translate(-742.764 -472.746)" fill="#fda829"/>
      </g>
    </g>
    <g id="Grupo_881895" data-name="Grupo 881895" transform="translate(934.986 569.508)">
      <path id="Trazado_620144" data-name="Trazado 620144" d="M219.818,851.871h1.665a3.62,3.62,0,0,0,.379.126c1.162.256,2.334.47,3.483.775a1.223,1.223,0,0,1,.965,1.451c-1.328,7.09-6.749,10.962-13.1,10.112-.453-.061-.907-.124-1.39-.19v5.428c1.682,0,3.343-.016,5,0a2.887,2.887,0,0,1,2.881,2.838c.024.791.013,1.582,0,2.373a2.722,2.722,0,0,1-1.246,2.33.853.853,0,0,0-.419.832c.011,3.87.007,7.74.007,11.609v.545c2.211,0,4.361.009,6.511-.018.167,0,.385-.224.487-.4,1.2-2.041,2.369-4.1,3.571-6.135a.788.788,0,0,0-.033-.923c-1.187-2.022-2.353-4.057-3.524-6.089-.224-.388-.461-.769-.652-1.173a1.181,1.181,0,0,1,.282-1.461,1.138,1.138,0,0,1,1.47-.176,2.229,2.229,0,0,1,.663.754q2,3.422,3.964,6.868a.833.833,0,0,0,.85.491q3.457-.031,6.914,0a.884.884,0,0,0,.9-.517c1.291-2.282,2.628-4.538,3.918-6.821a1.682,1.682,0,0,1,1.644-.962c2.624.03,5.249,0,7.874.021a.871.871,0,0,0,.9-.506c1.308-2.322,2.652-4.623,3.989-6.928.4-.7.887-1,1.5-.78a4.175,4.175,0,0,1,1.01.76v.9c-.035.015-.087.02-.1.046-1.413,2.45-2.817,4.9-4.239,7.35a.742.742,0,0,0,0,.865c.795,1.333,1.556,2.687,2.341,4.026.66,1.127,1.336,2.245,2.005,3.366v.9c-.021,0-.055,0-.062.01-1.445,2.5-2.9,5-4.316,7.51a.883.883,0,0,0,.055.726c.914,1.633,1.855,3.25,2.8,4.867.5.853,1.016,1.694,1.525,2.541v.9c-.021,0-.056,0-.062.006-1.446,2.5-2.9,5-4.32,7.51a.809.809,0,0,0,.031.67c.71,1.284,1.449,2.553,2.189,3.819.714,1.22,1.441,2.432,2.162,3.647v.77a1.748,1.748,0,0,1-1.28,1.027h-.256a9.8,9.8,0,0,1-1.224-1.385c-1.281-2.133-2.514-4.3-3.741-6.462a.818.818,0,0,0-.829-.51c-2.342.027-4.685.023-7.027,0a.779.779,0,0,0-.791.464c-1.313,2.312-2.638,4.619-4,6.9a4.49,4.49,0,0,1-.949.872l-10.135,0a4.38,4.38,0,0,1-.958-.863c-1.268-2.122-2.525-4.253-3.7-6.425a1.572,1.572,0,0,0-1.671-.969c-1.869.076-3.743.023-5.682.023,0,.306.008.558,0,.809A7.523,7.523,0,0,1,203,909.5c-.017-2.95,0-5.9,0-8.85,0-2.779-.007-5.558.006-8.337a1.242,1.242,0,0,1,1.221-1.361,1.27,1.27,0,0,1,1.329,1.332c.024.448.006.9.006,1.347,0,1.17.251,1.492,1.434,1.578a5.821,5.821,0,0,0,1.565-.2c.493-.1.691-.4.688-.96-.026-5.237-.015-10.475-.015-15.713V877.7h-3.672c0,.987.017,1.945-.005,2.9A1.285,1.285,0,1,1,203,880.57c-.013-.9.023-1.8-.021-2.693a1.073,1.073,0,0,0-.369-.7,2.955,2.955,0,0,1-1.27-2.331c-.017-.854-.036-1.711.009-2.564a2.809,2.809,0,0,1,2.124-2.585,4.632,4.632,0,0,1,1.137-.118c1.53-.012,3.06-.005,4.574-.005v-5.428c-.132.014-.217.019-.3.033-.147.024-.293.055-.44.079a11.48,11.48,0,0,1-8.185-1.436c-3.207-1.985-4.82-5.019-5.523-8.62a1.217,1.217,0,0,1,.921-1.422c.626-.2,1.266-.37,1.906-.528.584-.144,1.176-.254,1.764-.379h1.793a.783.783,0,0,0,.249.122,10.61,10.61,0,0,1,7.522,3.867c.615.737,1.118,1.57,1.674,2.362.082-.143.168-.29.252-.438a10.927,10.927,0,0,1,7.485-5.6C218.807,852.073,219.313,851.974,219.818,851.871Zm29.612,38.234c1.215,0,2.431.015,3.645-.015a.811.811,0,0,0,.586-.328q1.855-3.136,3.65-6.308a.812.812,0,0,0,0-.677c-1.185-2.1-2.4-4.173-3.595-6.266a.69.69,0,0,0-.706-.394q-3.55.024-7.1,0a.738.738,0,0,0-.756.423q-1.748,3.087-3.55,6.143a.745.745,0,0,0,0,.865q1.8,3.059,3.552,6.142a.729.729,0,0,0,.754.422C247.085,890.093,248.258,890.105,249.43,890.105Zm.034,16.547c1.173,0,2.346-.014,3.518.009a.733.733,0,0,0,.754-.423q1.75-3.086,3.547-6.145a.738.738,0,0,0,0-.865c-1.2-2.04-2.364-4.1-3.571-6.132a.941.941,0,0,0-.671-.4q-3.581-.044-7.163,0a.94.94,0,0,0-.683.382c-1.219,2.052-2.4,4.128-3.6,6.186a.693.693,0,0,0,0,.807c1.206,2.059,2.385,4.135,3.6,6.186a.954.954,0,0,0,.685.383C247.075,906.673,248.27,906.652,249.464,906.652Zm-14.336,8.258c1.173,0,2.346-.012,3.518.008a.741.741,0,0,0,.762-.42c1.167-2.058,2.369-4.1,3.528-6.157a.952.952,0,0,0,.013-.791q-1.751-3.123-3.58-6.2a.951.951,0,0,0-.691-.388c-2.367-.029-4.734-.011-7.1-.025a.746.746,0,0,0-.758.428q-1.75,3.087-3.55,6.146a.747.747,0,0,0,.017.871c1.186,2.023,2.364,4.05,3.517,6.091a.779.779,0,0,0,.807.447C232.782,914.9,233.955,914.91,235.128,914.91Zm.021-30.5c-1.215,0-2.431-.018-3.646.017a.891.891,0,0,0-.639.364q-1.824,3.08-3.58,6.2a.952.952,0,0,0-.005.792q1.753,3.122,3.584,6.2a.948.948,0,0,0,.693.378c2.367.028,4.733.008,7.1.025a.747.747,0,0,0,.754-.436q1.736-3.058,3.516-6.091a.787.787,0,0,0,.01-.923q-1.785-3.029-3.517-6.089a.787.787,0,0,0-.814-.443C237.452,884.42,236.3,884.406,235.149,884.406ZM205.58,897.55c0,4.178-.052,8.277.019,12.374a4.938,4.938,0,0,0,9.866-.111c.044-4.527.022-9.056,0-13.583a.861.861,0,0,0-.389-.615,2.953,2.953,0,0,0-3.5.423A5.923,5.923,0,0,1,205.58,897.55Zm12.48,9.1c2.2,0,4.35.009,6.5-.018.167,0,.385-.225.488-.4,1.2-2.041,2.37-4.1,3.567-6.137a.746.746,0,0,0,0-.87q-1.8-3.06-3.552-6.146a.739.739,0,0,0-.76-.416c-1.919.015-3.839.006-5.759.009-.161,0-.321.03-.488.047Zm-2.618-13.769V877.706h-3.616v15.187a15.4,15.4,0,0,1,1.788-.2A16.43,16.43,0,0,1,215.441,892.883Zm8.051-37.976c-5.987-1.6-10.311,1.971-11.371,6.549C216.109,862.767,221.774,861.292,223.492,854.906Zm-25.913.007c.85,4.96,7.152,8.584,11.356,6.53A8.782,8.782,0,0,0,197.579,854.914Zm13.02,17.225c-2,0-4.008.015-6.012-.01-.538-.007-.727.191-.7.711.028.575.009,1.153.007,1.73,0,.371.167.537.547.536q6.075-.008,12.152,0c.414,0,.574-.177.563-.58-.014-.555-.032-1.113.005-1.666s-.183-.74-.739-.733C214.48,872.156,212.539,872.139,210.6,872.139Z" transform="translate(0 0)" fill="#030303"/>
      <path id="Trazado_620145" data-name="Trazado 620145" d="M314.115,923.651c-1.173,0-2.345-.013-3.518.008a.729.729,0,0,1-.754-.422q-1.749-3.087-3.552-6.142a.745.745,0,0,1,0-.865q1.8-3.059,3.55-6.143a.737.737,0,0,1,.756-.423q3.55.022,7.1,0a.69.69,0,0,1,.706.394c1.191,2.092,2.41,4.17,3.595,6.266a.812.812,0,0,1,0,.677q-1.795,3.171-3.65,6.308a.812.812,0,0,1-.586.328C316.546,923.666,315.331,923.651,314.115,923.651Z" transform="translate(-64.685 -33.545)" fill="#cff0d1"/>
      <path id="Trazado_620146" data-name="Trazado 620146" d="M314.142,963.1c-1.194,0-2.388.021-3.581-.018a.955.955,0,0,1-.685-.383c-1.219-2.051-2.4-4.127-3.6-6.186a.693.693,0,0,1,0-.807c1.207-2.058,2.385-4.134,3.6-6.186a.939.939,0,0,1,.683-.382q3.581-.042,7.163,0a.94.94,0,0,1,.671.4c1.207,2.034,2.373,4.093,3.571,6.132a.738.738,0,0,1,0,.866q-1.8,3.059-3.547,6.145a.733.733,0,0,1-.754.423C316.488,963.082,315.315,963.1,314.142,963.1Z" transform="translate(-64.678 -56.444)" fill="#cff0d1"/>
      <path id="Trazado_620147" data-name="Trazado 620147" d="M279.987,982.79c-1.173,0-2.346-.014-3.518.008a.779.779,0,0,1-.807-.447c-1.153-2.041-2.331-4.069-3.517-6.091a.747.747,0,0,1-.017-.871q1.8-3.059,3.55-6.146a.745.745,0,0,1,.758-.428c2.367.014,4.735,0,7.1.025a.952.952,0,0,1,.691.388q1.828,3.078,3.58,6.2a.952.952,0,0,1-.013.791c-1.159,2.062-2.361,4.1-3.528,6.157a.741.741,0,0,1-.762.42C282.333,982.778,281.16,982.79,279.987,982.79Z" transform="translate(-44.859 -67.88)" fill="#cff0d1"/>
      <path id="Trazado_620148" data-name="Trazado 620148" d="M280.087,929.407c1.152,0,2.3.014,3.454-.008a.787.787,0,0,1,.814.444q1.731,3.06,3.517,6.089a.786.786,0,0,1-.01.923q-1.782,3.031-3.516,6.091a.747.747,0,0,1-.754.436c-2.367-.017-4.733,0-7.1-.025a.948.948,0,0,1-.693-.378q-1.831-3.076-3.584-6.2a.952.952,0,0,1,.005-.792q1.753-3.121,3.58-6.2a.891.891,0,0,1,.639-.364C277.656,929.389,278.872,929.407,280.087,929.407Z" transform="translate(-44.938 -45.001)" fill="#cff0d1"/>
      <path id="Trazado_620149" data-name="Trazado 620149" d="M220.589,957.53a5.923,5.923,0,0,0,6-1.514,2.953,2.953,0,0,1,3.5-.423.861.861,0,0,1,.389.616c.019,4.528.042,9.056,0,13.583a4.938,4.938,0,0,1-9.866.111C220.536,965.807,220.589,961.708,220.589,957.53Z" transform="translate(-15.009 -59.98)" fill="#fde5b3"/>
      <path id="Trazado_620150" data-name="Trazado 620150" d="M250.36,963.091v-13.93c.167-.017.327-.047.487-.048,1.919,0,3.839.006,5.759-.009a.739.739,0,0,1,.76.416q1.75,3.088,3.552,6.146a.746.746,0,0,1,0,.87c-1.2,2.041-2.37,4.1-3.567,6.137-.1.175-.321.4-.488.4C254.71,963.1,252.561,963.091,250.36,963.091Z" transform="translate(-32.3 -56.439)" fill="#cff0d1"/>
      <path id="Trazado_620151" data-name="Trazado 620151" d="M247.576,858.568c-1.718,6.386-7.383,7.861-11.371,6.549C237.265,860.539,241.59,856.966,247.576,858.568Z" transform="translate(-24.084 -3.661)" fill="#9ee2a3"/>
      <path id="Trazado_620152" data-name="Trazado 620152" d="M201.545,858.568A8.782,8.782,0,0,1,212.9,865.1C208.7,867.152,202.395,863.528,201.545,858.568Z" transform="translate(-3.966 -3.654)" fill="#9ee2a3"/>
      <path id="Trazado_620153" data-name="Trazado 620153" d="M223.286,900.166c1.94,0,3.88.017,5.82-.01.556-.008.777.167.739.732s-.019,1.111-.005,1.666c.011.4-.149.581-.563.58q-6.076-.01-12.152,0c-.38,0-.548-.165-.547-.536,0-.576.021-1.155-.007-1.73-.025-.52.164-.717.7-.711C219.278,900.181,221.282,900.166,223.286,900.166Z" transform="translate(-12.686 -28.027)" fill="#ced2de"/>
      <path id="Trazado_620154" data-name="Trazado 620154" d="M214.48,932.583a1.244,1.244,0,0,1,1.244-1.263,1.269,1.269,0,0,1,1.3,1.279,1.308,1.308,0,0,1-1.257,1.28A1.287,1.287,0,0,1,214.48,932.583Z" transform="translate(-11.474 -46.116)" fill="#060606"/>
    </g>
  </g>
</svg>
