<svg xmlns="http://www.w3.org/2000/svg" width="133.722" height="137.678" viewBox="0 0 133.722 137.678">
  <g id="Grupo_883434" data-name="Grupo 883434" transform="translate(-2416.278 10302.339)">
    <g id="Elipse_5271" data-name="Elipse 5271" transform="translate(2420.278 -10296)" fill="#fff" stroke="#148d80" stroke-width="8">
      <ellipse cx="60" cy="60.5" rx="60" ry="60.5" stroke="none"/>
      <ellipse cx="60" cy="60.5" rx="56" ry="56.5" fill="none"/>
    </g>
    <g id="Grupo_881890" data-name="Grupo 881890" transform="translate(2416.278 -10302.339)">
      <g id="Grupo_875403" data-name="Grupo 875403" transform="translate(0 0)">
        <path id="Trazado_612672" data-name="Trazado 612672" d="M742.946,514.331c15.253-33.089,52.448-49.655,87.048-37.717.7.215,2.633.982,3.358,1.27.627.219,1.584.654,2.2.943l2.177,1c1.036.48,2.151,1.161,3.18,1.679,1.222.651,2.931,1.753,4.117,2.466.595.4,2.339,1.623,2.964,2.049a69.019,69.019,0,0,1,24.933,77.8c-.3.742-.961,2.722-1.273,3.449-.239.552-.714,1.7-.954,2.259-.326.864-1.185,2.489-1.565,3.33-.5,1.034-1.2,2.227-1.738,3.244-.448.822-1.442,2.342-1.91,3.148-.464.623-1.605,2.427-2.086,3.035-.37.471-1.121,1.476-1.492,1.951-1.166,1.488-2.695,3.286-4,4.648-15.532,16.862-39.9,24.888-62.36,20.22a1.93,1.93,0,0,1,.587-3.811,72.6,72.6,0,0,0,18.194-.14c.795-.112,2.6-.435,3.353-.544.635-.153,2.636-.568,3.315-.725,2.373-.6,4.708-1.332,7.022-2.123,1.2-.492,2.482-.95,3.664-1.463.733-.324,2.371-1.111,3.067-1.421a66.411,66.411,0,0,0,13.995-9.36c.971-.8,2.406-2.143,3.317-3.042.454-.4,1.135-1.172,1.566-1.616,22.662-23.692,23.86-61.953,2.557-87-26.347-31.55-75.747-30.837-100.826,1.916a61.294,61.294,0,0,0-8.847,16.028,1.93,1.93,0,1,1-3.562-1.482Z" transform="translate(-742.764 -472.746)" fill="#fda829"/>
      </g>
    </g>
    <g id="Grupo_881891" data-name="Grupo 881891" transform="translate(2168.124 -10941.084)">
      <path id="Trazado_620098" data-name="Trazado 620098" d="M330.082,739.07H293.519l-1.359-.211c-2.335-.28-4.819-2.768-4.937-5.075,0-.58.01-1.159.01-1.738q0-29.01,0-58.02c0-.314-.015-.627-.022-.941a.107.107,0,0,1,.041-.1l.257-.317,0,0,.329-.206c.312-.02.625-.058.938-.058q23.027,0,46.055,0c.312,0,.625.038.937.057l.329.208,0,0,.26.318a2.707,2.707,0,0,1,.251.768c.022,1.787.012,3.574.012,5.362v53.111a6.617,6.617,0,0,1-2.43,5.357,5.571,5.571,0,0,1-2.744,1.272Zm-40.71-5.562a4.126,4.126,0,0,0,.21.825,4.332,4.332,0,0,0,4.177,2.589q17.747.019,35.494,0a10.5,10.5,0,0,0,2.136-.248,4.059,4.059,0,0,0,2.839-3.163,6.124,6.124,0,0,0,.236-1.194q.018-28.464.01-56.927c0-.927,0-.929-.984-.929H290.111c-.984,0-.984,0-.984,1q0,23.242,0,46.484c0,3.578,0,7.155.012,10.733A3.207,3.207,0,0,0,289.373,733.508Z" transform="translate(-0.163)" fill="#004694"/>
      <path id="Trazado_620099" data-name="Trazado 620099" d="M287.048,673.528c.008.314.022.627.022.941q0,29.01,0,58.02c0,.579-.007,1.158-.01,1.738a1.485,1.485,0,0,1-.232-.47c-.039-.407-.029-.82-.029-1.23q0-29.019.01-58.038A4.068,4.068,0,0,1,287.048,673.528Z" transform="translate(0 -0.443)" fill="#3f65ad"/>
      <path id="Trazado_620100" data-name="Trazado 620100" d="M295.387,782.165l1.359.211Z" transform="translate(-3.389 -43.307)" fill="#7189c4"/>
      <path id="Trazado_620101" data-name="Trazado 620101" d="M358.022,782.377l1.358-.211Z" transform="translate(-28.102 -43.307)" fill="#7189c4"/>
      <path id="Trazado_620102" data-name="Trazado 620102" d="M288.029,672.505l-.329.206Z" transform="translate(-0.356 -0.039)" fill="#3f65ad"/>
      <path id="Trazado_620103" data-name="Trazado 620103" d="M367.737,672.712l-.329-.208Z" transform="translate(-31.806 -0.039)" fill="#3f65ad"/>
      <path id="Trazado_620104" data-name="Trazado 620104" d="M287.535,672.842l-.257.317Z" transform="translate(-0.189 -0.172)" fill="#3f65ad"/>
      <path id="Trazado_620105" data-name="Trazado 620105" d="M368.207,673.161l-.26-.318Z" transform="translate(-32.018 -0.172)" fill="#3f65ad"/>
      <path id="Trazado_620106" data-name="Trazado 620106" d="M335.637,735.053a4.059,4.059,0,0,1-2.839,3.163,10.5,10.5,0,0,1-2.136.248q-17.747.022-35.494,0a4.332,4.332,0,0,1-4.177-2.589,4.125,4.125,0,0,1-.209-.825c0-.555.014-1.109.014-1.664q0-27.923,0-55.846v-1.222h44.827v1.366q0,27.851,0,55.7C335.624,733.944,335.632,734.5,335.637,735.053ZM316.4,705.427l-.307-.274a4.273,4.273,0,0,0-5.776,0l-.307.274h0l-1.307.727-.591,0-.641-.2-.227-.1-.883-.715-1.572-.9-.655-.165-1.19-.009-.786.193c-.752.482-1.53.929-2.249,1.456a1.958,1.958,0,0,1-2.507.019,18.064,18.064,0,0,0-1.781-1.283c-1.722-.984-2.9-.318-2.9,1.6,0,9.234.028,18.468-.03,27.7a2.591,2.591,0,0,0,2.611,2.591q17.874-.061,35.748,0a2.6,2.6,0,0,0,2.661-2.621c-.058-9.379-.029-18.758-.029-28.136,0-.145.005-.291,0-.435a1,1,0,0,0-1.038-1.036,3.957,3.957,0,0,0-3.039,1.13c-1.538,1.292-2.254,1.351-3.673.033a4.545,4.545,0,0,0-5.583-.415l-1.258,1.051-.154.04-.639.2-.591,0-1.306-.728ZM294.893,687.91c0-.575.027-1.032-.007-1.485-.038-.506.157-.683.661-.676,1.259.017,2.518-.007,3.777-.013a1.043,1.043,0,0,0,1.016-.977c.047-.277-.306-.708-.589-.927a1.706,1.706,0,0,0-.96-.216c-1.274-.023-2.549-.01-3.855-.01v-2.114c1.39,0,2.739,0,4.088,0,.694,0,1.4-.607,1.38-1.158-.019-.46-.756-1.012-1.393-1.015-1.671-.008-3.342-.011-5.012,0a1.162,1.162,0,0,0-1.268,1.31q-.005,8.373,0,16.747a1.177,1.177,0,0,0,1.326,1.327c1.646.01,3.293.007,4.94,0a1.447,1.447,0,0,0,1.407-1.073c.03-.492-.706-1.112-1.375-1.121-1.114-.016-2.228,0-3.342-.008-.252,0-.506-.036-.733-.053v-2.057c1.437,0,2.815.015,4.192-.005a1,1,0,0,0,.948-1.557,1.06,1.06,0,0,0-1.1-.62c-1.347.015-2.695,0-4.047,0v-2.117c.266-.012.481-.03.694-.03,1.211,0,2.422-.013,3.632,0a1.015,1.015,0,0,0,1.036-.908c.051-.3-.276-.738-.546-1a1.373,1.373,0,0,0-.863-.237C297.6,687.9,296.293,687.91,294.893,687.91Z" transform="translate(-1.572 -1.545)" fill="#fdfdfe"/>
      <path id="Trazado_620107" data-name="Trazado 620107" d="M335.477,734.846c0-.555-.013-1.109-.014-1.664q0-27.85,0-55.7v-1.366H290.636v1.222q0,27.922,0,55.846c0,.555-.009,1.109-.014,1.664a3.206,3.206,0,0,1-.234-.831c-.016-3.578-.012-7.155-.012-10.733q0-23.242,0-46.484c0-1,0-1,.984-1h43.379c.983,0,.984,0,.984.929q0,28.463-.01,56.927A6.126,6.126,0,0,1,335.477,734.846Z" transform="translate(-1.411 -1.337)" fill="#8e9fd1"/>
      <path id="Trazado_620108" data-name="Trazado 620108" d="M318.961,724.194l.591,0,.639-.2.153-.041,1.259-1.05a4.545,4.545,0,0,1,5.583.415c1.419,1.318,2.135,1.259,3.673-.033a3.956,3.956,0,0,1,3.039-1.13,1,1,0,0,1,1.038,1.036c.009.144,0,.289,0,.435,0,9.379-.028,18.758.029,28.136a2.6,2.6,0,0,1-2.661,2.621q-17.873-.071-35.748,0a2.591,2.591,0,0,1-2.611-2.591c.058-9.234.03-18.468.03-27.7,0-1.916,1.175-2.581,2.9-1.6a18.084,18.084,0,0,1,1.781,1.283,1.958,1.958,0,0,0,2.507-.019c.719-.527,1.5-.974,2.249-1.456l.786-.193,1.19.009.655.165,1.572.9.883.715.227.1.641.2.591,0a1.259,1.259,0,0,0,1.307-.727h0l.307-.274a4.273,4.273,0,0,1,5.776,0l.307.274h0A1.256,1.256,0,0,0,318.961,724.194ZM296.2,752.113h36.489V724.622c-.307.266-.483.416-.656.569a4.515,4.515,0,0,1-6.415-.26c-1.152-1.005-2.166-.849-3.217.183a4.42,4.42,0,0,1-6.228-.044c-1.053-1.112-1.962-1.115-3.189-.248-.253.179-.451.433-.689.634a3.877,3.877,0,0,1-2.281.929,4.668,4.668,0,0,1-3.6-1.357c-.969-.867-1.851-1.018-2.658-.467a8.224,8.224,0,0,0-1.142.866,4.251,4.251,0,0,1-5.431-.018c-.262-.252-.575-.451-.98-.765Z" transform="translate(-2.821 -19.584)" fill="#004593"/>
      <path id="Trazado_620109" data-name="Trazado 620109" d="M296.161,689.856c1.4,0,2.7-.013,4.008.01a1.372,1.372,0,0,1,.863.237c.27.26.6.7.546,1a1.015,1.015,0,0,1-1.037.908c-1.21-.012-2.421,0-3.632,0-.214,0-.428.018-.694.03v2.117c1.352,0,2.7.01,4.047,0a1.06,1.06,0,0,1,1.1.62,1,1,0,0,1-.948,1.557c-1.377.021-2.755.005-4.192.005v2.057c.227.018.48.052.733.053,1.114.007,2.228-.007,3.342.009.669.009,1.4.63,1.375,1.121a1.448,1.448,0,0,1-1.407,1.073c-1.647.007-3.294.01-4.94,0A1.177,1.177,0,0,1,294,699.321q0-8.373,0-16.747a1.162,1.162,0,0,1,1.268-1.31c1.67-.013,3.341-.009,5.012,0,.637,0,1.374.555,1.393,1.015.022.552-.685,1.155-1.38,1.158-1.349.006-2.7,0-4.088,0v2.114c1.305,0,2.58-.013,3.855.01a1.706,1.706,0,0,1,.96.216c.283.219.636.651.589.927a1.044,1.044,0,0,1-1.016.977c-1.259.007-2.519.031-3.777.013-.5-.007-.7.171-.661.676C296.188,688.824,296.161,689.282,296.161,689.856Z" transform="translate(-2.84 -3.492)" fill="#004694"/>
      <path id="Trazado_620110" data-name="Trazado 620110" d="M338.8,723.47l-1.259,1.051Z" transform="translate(-20.023 -20.148)" fill="#8e9fd1"/>
      <path id="Trazado_620111" data-name="Trazado 620111" d="M321.7,724.4a1.259,1.259,0,0,1-1.307.727Z" transform="translate(-13.254 -20.513)" fill="#8e9fd1"/>
      <path id="Trazado_620112" data-name="Trazado 620112" d="M334.41,725.122a1.256,1.256,0,0,1-1.307-.728Z" transform="translate(-18.27 -20.512)" fill="#8e9fd1"/>
      <path id="Trazado_620113" data-name="Trazado 620113" d="M317.4,724.647l-.883-.715Z" transform="translate(-11.728 -20.33)" fill="#8e9fd1"/>
      <path id="Trazado_620114" data-name="Trazado 620114" d="M310.365,722.151l-.786.193Z" transform="translate(-8.988 -19.627)" fill="#8e9fd1"/>
      <path id="Trazado_620115" data-name="Trazado 620115" d="M313.5,722.331l-.655-.165Z" transform="translate(-10.276 -19.633)" fill="#8e9fd1"/>
      <path id="Trazado_620116" data-name="Trazado 620116" d="M319,725.474l-.641-.2Z" transform="translate(-12.451 -20.861)" fill="#8e9fd1"/>
      <path id="Trazado_620117" data-name="Trazado 620117" d="M336.876,725.272l-.639.2Z" transform="translate(-19.507 -20.859)" fill="#8e9fd1"/>
      <path id="Trazado_620118" data-name="Trazado 620118" d="M322.856,723.943l-.307.274Z" transform="translate(-14.106 -20.334)" fill="#8e9fd1"/>
      <path id="Trazado_620119" data-name="Trazado 620119" d="M332.9,724.216l-.307-.274Z" transform="translate(-18.07 -20.334)" fill="#8e9fd1"/>
      <path id="Trazado_620120" data-name="Trazado 620120" d="M297.666,753.521V726.052c.405.314.718.513.98.765a4.251,4.251,0,0,0,5.431.018,8.23,8.23,0,0,1,1.142-.866c.808-.551,1.689-.4,2.658.467a4.668,4.668,0,0,0,3.6,1.357,3.877,3.877,0,0,0,2.281-.929c.238-.2.436-.455.689-.634,1.227-.866,2.136-.864,3.189.248a4.42,4.42,0,0,0,6.228.044c1.052-1.032,2.065-1.189,3.217-.183a4.515,4.515,0,0,0,6.415.26c.173-.153.349-.3.656-.569v27.491Zm24.83-4.27c-1.451,0-2.9-.01-4.351,0a1.143,1.143,0,0,0-1.16,1.067,1.051,1.051,0,0,0,.933,1.109,3.971,3.971,0,0,0,.786.1q3.7.011,7.4,0a3.39,3.39,0,0,0,.714-.089,1.116,1.116,0,0,0,1.012-1.188,1.231,1.231,0,0,0-1.27-1C325.2,749.246,323.849,749.25,322.5,749.25Zm7.988,0c-.193,0-.387.007-.579,0a1.111,1.111,0,0,0-.577,2.02,2.329,2.329,0,0,0,2.448-.136,1.018,1.018,0,0,0,.272-.558C332.172,749.67,331.664,749.249,330.484,749.251Z" transform="translate(-4.288 -20.992)" fill="#498ccb"/>
      <path id="Trazado_620121" data-name="Trazado 620121" d="M335.085,764.654c1.354,0,2.708,0,4.062,0a1.231,1.231,0,0,1,1.27,1,1.116,1.116,0,0,1-1.012,1.188,3.393,3.393,0,0,1-.714.089q-3.7.01-7.4,0a3.971,3.971,0,0,1-.786-.1,1.052,1.052,0,0,1-.933-1.109,1.143,1.143,0,0,1,1.16-1.067C332.184,764.644,333.635,764.655,335.085,764.654Z" transform="translate(-16.878 -36.396)" fill="#004593"/>
      <path id="Trazado_620122" data-name="Trazado 620122" d="M350.8,764.655c1.18,0,1.689.42,1.564,1.326a1.017,1.017,0,0,1-.272.558,2.329,2.329,0,0,1-2.448.136,1.111,1.111,0,0,1,.577-2.02C350.409,764.664,350.6,764.656,350.8,764.655Z" transform="translate(-24.6 -36.397)" fill="#004593"/>
    </g>
  </g>
</svg>
