<svg xmlns="http://www.w3.org/2000/svg" xmlns:xlink="http://www.w3.org/1999/xlink" width="536.282" height="494.261" viewBox="0 0 536.282 494.261">
  <defs>
    <linearGradient id="linear-gradient" x1="0.5" x2="0.5" y2="1" gradientUnits="objectBoundingBox">
      <stop offset="0" stop-color="#93eac2"/>
      <stop offset="1" stop-color="#20cb7d"/>
    </linearGradient>
    <clipPath id="clip-path">
      <path id="Trazado_624494" data-name="Trazado 624494" d="M376.626,80.75H165.709L60.25,263.407,165.709,446.074H376.626L482.085,263.407Z" transform="translate(870.565 48.829)" fill="#dbefec"/>
    </clipPath>
  </defs>
  <g id="Grupo_894681" data-name="Grupo 894681" transform="translate(11285.789 12777.485)">
    <g id="BACKGROUND" transform="translate(-11285.229 -12777)">
      <path id="Trazado_251609" data-name="Trazado 251609" d="M91.654,197.63h-45.4l-22.7,39.321,22.7,39.321h45.4l22.69-39.321Z" transform="translate(-23.55 -18.741)" fill="none" stroke="#28965a" stroke-miterlimit="10" stroke-width="0.97" opacity="0.3"/>
      <path id="Trazado_251610" data-name="Trazado 251610" d="M332.353,28.78H286.961L264.26,68.1l22.7,39.321h45.391l22.7-39.321Z" transform="translate(24.286 -14.136)" fill="#169788" stroke="#2ceaa3" stroke-miterlimit="10" stroke-width="0.97" opacity="0.28"/>
      <path id="Trazado_251611" data-name="Trazado 251611" d="M476.673,264.12H431.281l-22.7,39.309,22.7,39.321h45.391l22.7-39.321Z" transform="translate(35.788 -8.494)" fill="none" stroke="#2ceaa3" stroke-miterlimit="10" stroke-width="0.97"/>
      <path id="Trazado_251612" data-name="Trazado 251612" d="M469.058,163.9H446.253l-11.4,19.747,11.4,19.758h22.805l11.4-19.758Z" transform="translate(39.837 -23.939)" fill="none" stroke="#28965a" stroke-miterlimit="10" stroke-width="0.97" opacity="0.3"/>
      <path id="Trazado_251613" data-name="Trazado 251613" d="M74.7,314.66H51.893l-11.4,19.758,11.4,19.747H74.7l11.4-19.747Z" transform="translate(-20.939 -0.705)" fill="none" stroke="#2ceaa3" stroke-miterlimit="10" stroke-width="0.97"/>
      <path id="Trazado_251614" data-name="Trazado 251614" d="M196.758,25.29H173.953l-11.4,19.747,11.4,19.758h22.805l11.4-19.758Z" transform="translate(47.083 -25.29)" fill="#169788" stroke="#28965a" stroke-miterlimit="10" stroke-width="0.97" opacity="0.28"/>
      <path id="Trazado_251615" data-name="Trazado 251615" d="M333.728,441.01H310.923l-11.4,19.747,11.4,19.747h22.805l11.4-19.747Z" transform="translate(18.981 5.099)" fill="none" stroke="#2ceaa3" stroke-miterlimit="10" stroke-width="0.97" opacity="0.5"/>
      <path id="Trazado_251616" data-name="Trazado 251616" d="M255.752,414.21H222.04l-16.85,29.2,16.85,29.2h33.712l16.85-29.2Z" transform="translate(4.443 14.637)" fill="none" stroke="#28965a" stroke-miterlimit="10" stroke-width="0.97" opacity="0.3"/>
    </g>
    <path id="Trazado_251617" data-name="Trazado 251617" d="M125.151,73.67H59.344l-32.9,56.99,32.9,56.99h65.808l32.892-56.99Z" transform="translate(-11308.335 -12814.845)" fill="rgba(254,254,254,0.15)" stroke="#fefefe" stroke-miterlimit="10" stroke-width="0.89"/>
    <path id="Trazado_251618" data-name="Trazado 251618" d="M115.661,69.523l-.577-.993H113.93" transform="translate(-11294.852 -12815.637)" fill="none" stroke="#28965a" stroke-miterlimit="10" stroke-width="0.98"/>
    <line id="Línea_473" data-name="Línea 473" x1="66.95" transform="translate(-11250.134 -12747.106)" fill="none" stroke="#fefefe" stroke-miterlimit="10" stroke-width="0.98" stroke-dasharray="1.97 1.97"/>
    <line id="Línea_476" data-name="Línea 476" x2="66.95" transform="translate(-11249.002 -12621.262)" fill="none" stroke="#fefefe" stroke-miterlimit="10" stroke-width="0.98" stroke-dasharray="1.97 1.97"/>
    <path id="Trazado_251622" data-name="Trazado 251622" d="M113.93,177.7h1.154l.577-1" transform="translate(-11294.852 -12798.966)" fill="none" stroke="#28965a" stroke-miterlimit="10" stroke-width="0.98"/>
    <line id="Línea_477" data-name="Línea 477" y1="57.971" x2="33.469" transform="translate(-11178.048 -12682.199)" fill="none" stroke="#28965a" stroke-miterlimit="10" stroke-width="0.98" stroke-dasharray="1.97 1.97"/>
    <path id="Trazado_251623" data-name="Trazado 251623" d="M145.91,124.177l.577-.993-.577-1" transform="translate(-11289.923 -12807.368)" fill="none" stroke="#28965a" stroke-miterlimit="10" stroke-width="0.98"/>
    <line id="Línea_478" data-name="Línea 478" x1="33.469" y1="57.983" transform="translate(-11178.613 -12745.133)" fill="none" stroke="#fefefe" stroke-miterlimit="10" stroke-width="0.98" stroke-dasharray="1.97 1.97"/>
    <path id="Trazado_251624" data-name="Trazado 251624" d="M68.11,88.11v18.581a17.462,17.462,0,0,0,17.462,17.462h0a17.473,17.473,0,0,1,17.473,17.473v24.548" transform="translate(-11301.913 -12812.619)" fill="none" stroke="#2a6041" stroke-linecap="round" stroke-miterlimit="10" stroke-width="1.54"/>
    <path id="Trazado_251625" data-name="Trazado 251625" d="M100.49,88.355a1.835,1.835,0,1,1-1.835-1.835A1.835,1.835,0,0,1,100.49,88.355Z" transform="translate(-11297.488 -12812.864)" fill="#28965a"/>
    <path id="Trazado_251626" data-name="Trazado 251626" d="M100.49,92.415a1.835,1.835,0,1,1-1.835-1.835,1.835,1.835,0,0,1,1.835,1.835Z" transform="translate(-11297.488 -12812.238)" fill="#28965a"/>
    <path id="Trazado_251627" data-name="Trazado 251627" d="M100.49,96.485a1.835,1.835,0,1,1-1.835-1.835A1.835,1.835,0,0,1,100.49,96.485Z" transform="translate(-11297.488 -12811.611)" fill="#28965a"/>
    <path id="Trazado_251628" data-name="Trazado 251628" d="M100.49,100.555a1.835,1.835,0,1,1-1.835-1.835A1.835,1.835,0,0,1,100.49,100.555Z" transform="translate(-11297.488 -12810.984)" fill="#28965a"/>
    <path id="Trazado_251629" data-name="Trazado 251629" d="M100.49,104.625a1.835,1.835,0,1,1-1.835-1.835A1.835,1.835,0,0,1,100.49,104.625Z" transform="translate(-11297.488 -12810.356)" fill="#28965a"/>
    <path id="Trazado_251630" data-name="Trazado 251630" d="M99.96,108.7a1.835,1.835,0,1,1-1.835-1.835A1.835,1.835,0,0,1,99.96,108.7Z" transform="translate(-11297.569 -12809.729)" fill="#28965a"/>
    <path id="Trazado_251631" data-name="Trazado 251631" d="M98.37,112.175a1.835,1.835,0,1,1-1.835-1.835,1.835,1.835,0,0,1,1.835,1.835Z" transform="translate(-11297.814 -12809.193)" fill="#28965a"/>
    <path id="Trazado_251632" data-name="Trazado 251632" d="M95.97,115.245a1.835,1.835,0,1,1-1.835-1.835,1.835,1.835,0,0,1,1.835,1.835Z" transform="translate(-11298.185 -12808.72)" fill="#28965a"/>
    <path id="Trazado_251633" data-name="Trazado 251633" d="M93.05,117.525a1.835,1.835,0,1,1-1.8-1.835,1.835,1.835,0,0,1,1.8,1.835Z" transform="translate(-11298.635 -12808.368)" fill="#28965a"/>
    <path id="Trazado_251634" data-name="Trazado 251634" d="M89.61,118.955a1.835,1.835,0,1,1-1.835-1.835A1.835,1.835,0,0,1,89.61,118.955Z" transform="translate(-11299.165 -12808.148)" fill="#28965a"/>
    <path id="Trazado_251635" data-name="Trazado 251635" d="M66.54,150.505a1.835,1.835,0,1,1,1.835,1.835A1.835,1.835,0,0,1,66.54,150.505Z" transform="translate(-11302.154 -12803.286)" fill="#28965a"/>
    <path id="Trazado_251636" data-name="Trazado 251636" d="M66.54,146.435a1.835,1.835,0,1,1,1.835,1.835A1.835,1.835,0,0,1,66.54,146.435Z" transform="translate(-11302.154 -12803.913)" fill="#28965a"/>
    <path id="Trazado_251637" data-name="Trazado 251637" d="M66.54,142.365a1.835,1.835,0,1,1,1.835,1.835A1.835,1.835,0,0,1,66.54,142.365Z" transform="translate(-11302.154 -12804.54)" fill="#28965a"/>
    <path id="Trazado_251638" data-name="Trazado 251638" d="M66.54,138.3a1.835,1.835,0,1,1,1.835,1.835A1.835,1.835,0,0,1,66.54,138.3Z" transform="translate(-11302.154 -12805.168)" fill="#28965a"/>
    <path id="Trazado_251639" data-name="Trazado 251639" d="M66.54,134.243a1.835,1.835,0,1,1,.533,1.305A1.835,1.835,0,0,1,66.54,134.243Z" transform="translate(-11302.154 -12805.79)" fill="#28965a"/>
    <circle id="Elipse_5983" data-name="Elipse 5983" cx="1.835" cy="1.835" r="1.835" transform="translate(-11235.037 -12678.091)" fill="#28965a"/>
    <path id="Trazado_251640" data-name="Trazado 251640" d="M68.63,126.69a1.835,1.835,0,1,1,1.835,1.8,1.835,1.835,0,0,1-1.835-1.8Z" transform="translate(-11301.833 -12806.962)" fill="#28965a"/>
    <path id="Trazado_251641" data-name="Trazado 251641" d="M71,123.593a1.835,1.835,0,1,1,.533,1.3A1.835,1.835,0,0,1,71,123.593Z" transform="translate(-11301.467 -12807.432)" fill="#28965a"/>
    <path id="Trazado_251642" data-name="Trazado 251642" d="M74,121.335a1.835,1.835,0,1,1,1.835,1.835A1.835,1.835,0,0,1,74,121.335Z" transform="translate(-11301.005 -12807.781)" fill="#28965a"/>
    <path id="Trazado_251643" data-name="Trazado 251643" d="M77.39,119.9a1.835,1.835,0,1,1,.546,1.306A1.835,1.835,0,0,1,77.39,119.9Z" transform="translate(-11300.482 -12808.003)" fill="#28965a"/>
    <path id="Trazado_251644" data-name="Trazado 251644" d="M85.58,119.465a1.835,1.835,0,1,1-1.835-1.835A1.835,1.835,0,0,1,85.58,119.465Z" transform="translate(-11299.786 -12808.069)" fill="#28965a"/>
    <path id="Trazado_251645" data-name="Trazado 251645" d="M99.417,90.036H70.829a.508.508,0,0,1-.519-.508h0a.519.519,0,0,1,.519-.508H99.417a.508.508,0,0,1,.508.508h0A.508.508,0,0,1,99.417,90.036Z" transform="translate(-11301.573 -12812.479)" fill="#2ceaa3"/>
    <path id="Trazado_251646" data-name="Trazado 251646" d="M99.417,93.136H70.829a.508.508,0,0,1-.519-.508h0a.519.519,0,0,1,.519-.508H99.417a.508.508,0,0,1,.508.508h0A.508.508,0,0,1,99.417,93.136Z" transform="translate(-11301.573 -12812.001)" fill="#2ceaa3"/>
    <path id="Trazado_251647" data-name="Trazado 251647" d="M99.417,96.216H70.829a.508.508,0,0,1-.519-.508h0a.519.519,0,0,1,.519-.508H99.417a.508.508,0,0,1,.508.508h0A.508.508,0,0,1,99.417,96.216Z" transform="translate(-11301.573 -12811.526)" fill="#2ceaa3"/>
    <path id="Trazado_251648" data-name="Trazado 251648" d="M99.417,99.306H70.829a.508.508,0,0,1-.519-.508h0a.519.519,0,0,1,.519-.508H99.417a.508.508,0,0,1,.508.508h0A.508.508,0,0,1,99.417,99.306Z" transform="translate(-11301.573 -12811.05)" fill="#2ceaa3"/>
    <path id="Trazado_251649" data-name="Trazado 251649" d="M99.417,102.4H70.829a.508.508,0,0,1-.519-.508h0a.519.519,0,0,1,.519-.508H99.417a.508.508,0,0,1,.508.508h0A.508.508,0,0,1,99.417,102.4Z" transform="translate(-11301.573 -12810.574)" fill="#2ceaa3"/>
    <path id="Trazado_251650" data-name="Trazado 251650" d="M99.417,105.5H70.829a.519.519,0,0,1-.519-.519h0a.519.519,0,0,1,.519-.508H99.417a.508.508,0,0,1,.508.508h0a.519.519,0,0,1-.508.519Z" transform="translate(-11301.573 -12810.098)" fill="#2ceaa3"/>
    <path id="Trazado_251651" data-name="Trazado 251651" d="M99.417,108.587H70.829a.519.519,0,0,1-.519-.519h0a.519.519,0,0,1,.519-.508H99.417a.508.508,0,0,1,.542.508h0a.519.519,0,0,1-.542.519Z" transform="translate(-11301.573 -12809.622)" fill="#2ceaa3"/>
    <path id="Trazado_251652" data-name="Trazado 251652" d="M96.1,111.677H73.4a.519.519,0,0,1-.519-.519h0a.519.519,0,0,1,.519-.508H96.1a.519.519,0,0,1,.519.508h0A.519.519,0,0,1,96.1,111.677Z" transform="translate(-11301.178 -12809.146)" fill="#2ceaa3"/>
    <path id="Trazado_251653" data-name="Trazado 251653" d="M92.681,114.767H75.969a.519.519,0,0,1-.519-.519h0a.519.519,0,0,1,.519-.508H92.681a.519.519,0,0,1,.519.508h0a.519.519,0,0,1-.519.519Z" transform="translate(-11300.781 -12808.669)" fill="#2ceaa3"/>
    <path id="Trazado_251654" data-name="Trazado 251654" d="M70.829,149.41H99.417a.508.508,0,0,1,.508.508h0a.519.519,0,0,1-.508.519H70.829a.519.519,0,0,1-.519-.519h0A.519.519,0,0,1,70.829,149.41Z" transform="translate(-11301.573 -12803.172)" fill="#2ceaa3"/>
    <path id="Trazado_251655" data-name="Trazado 251655" d="M70.829,152.57H99.417a.508.508,0,0,1,.542.5h0a.519.519,0,0,1-.508.519H70.829a.519.519,0,0,1-.519-.519h0a.519.519,0,0,1,.519-.5Z" transform="translate(-11301.573 -12802.685)" fill="#2ceaa3"/>
    <path id="Trazado_251656" data-name="Trazado 251656" d="M70.829,146.32H99.417a.508.508,0,0,1,.508.508h0a.519.519,0,0,1-.508.519H70.829a.519.519,0,0,1-.519-.519h0A.519.519,0,0,1,70.829,146.32Z" transform="translate(-11301.573 -12803.648)" fill="#2ceaa3"/>
    <path id="Trazado_251657" data-name="Trazado 251657" d="M70.829,143.23H99.417a.508.508,0,0,1,.508.508h0a.519.519,0,0,1-.508.519H70.829a.519.519,0,0,1-.519-.519h0A.519.519,0,0,1,70.829,143.23Z" transform="translate(-11301.573 -12804.124)" fill="#2ceaa3"/>
    <path id="Trazado_251658" data-name="Trazado 251658" d="M70.829,140.14H99.417a.508.508,0,0,1,.508.508h0a.519.519,0,0,1-.508.519H70.829a.519.519,0,0,1-.519-.519h0a.519.519,0,0,1,.519-.508Z" transform="translate(-11301.573 -12804.601)" fill="#2ceaa3"/>
    <path id="Trazado_251659" data-name="Trazado 251659" d="M70.829,137.05H99.417a.508.508,0,0,1,.508.508h0a.519.519,0,0,1-.508.519H70.829a.519.519,0,0,1-.519-.519h0A.519.519,0,0,1,70.829,137.05Z" transform="translate(-11301.573 -12805.077)" fill="#2ceaa3"/>
    <path id="Trazado_251660" data-name="Trazado 251660" d="M70.829,134H99.417a.508.508,0,0,1,.508.508h0a.519.519,0,0,1-.508.519H70.829a.519.519,0,0,1-.519-.519h0a.519.519,0,0,1,.519-.508Z" transform="translate(-11301.573 -12805.547)" fill="#2ceaa3"/>
    <path id="Trazado_251661" data-name="Trazado 251661" d="M70.829,130.87H99.417a.508.508,0,0,1,.508.508h0a.519.519,0,0,1-.508.519H70.829a.519.519,0,0,1-.519-.519h0a.519.519,0,0,1,.519-.508Z" transform="translate(-11301.573 -12806.029)" fill="#2ceaa3"/>
    <path id="Trazado_251662" data-name="Trazado 251662" d="M73.4,127.78H96.1a.519.519,0,0,1,.519.508h0a.519.519,0,0,1-.519.519H73.4a.519.519,0,0,1-.519-.519h0A.519.519,0,0,1,73.4,127.78Z" transform="translate(-11301.178 -12806.505)" fill="#2ceaa3"/>
    <path id="Trazado_251663" data-name="Trazado 251663" d="M75.969,124.69H92.681a.519.519,0,0,1,.519.508h0a.519.519,0,0,1-.519.519H75.969a.519.519,0,0,1-.519-.519h0A.519.519,0,0,1,75.969,124.69Z" transform="translate(-11300.781 -12806.981)" fill="#2ceaa3"/>
    <path id="Trazado_251664" data-name="Trazado 251664" d="M447.492,355.53H375.187L339.04,418.141l36.147,62.622h72.305l36.158-62.622Z" transform="translate(-11260.158 -12771.406)" fill="none" stroke="#28965a" stroke-miterlimit="10" stroke-width="0.97"/>
    <path id="Trazado_251665" data-name="Trazado 251665" d="M452.523,349.57H372.277L332.16,419.059l40.117,69.5h80.246l40.129-69.5Z" transform="translate(-11261.219 -12772.324)" fill="none" stroke="#28965a" stroke-miterlimit="10" stroke-width="1.08" stroke-dasharray="2"/>
    <path id="Trazado_251668" data-name="Trazado 251668" d="M408.738,72.3H169.906L50.49,279.129l119.416,206.84H408.738l119.416-206.84Z" transform="translate(-11304.988 -12815.128)" fill="#169788" opacity="0.5"/>
    <path id="Trazado_251669" data-name="Trazado 251669" d="M394.639,80.75H171.713L60.25,273.807,171.713,466.874H394.639L506.1,273.807Z" transform="translate(-11298.15 -12809.91)" fill="#addbd5"/>
    <path id="Trazado_251769" data-name="Trazado 251769" d="M376.626,80.75H165.709L60.25,263.407,165.709,446.074H376.626L482.085,263.407Z" transform="translate(-11286.435 -12799.171)" fill="#dbefec"/>
    <path id="Trazado_251739" data-name="Trazado 251739" d="M455.854,56.04H390.739l-32.569,56.4,32.569,56.39h65.115l32.558-56.39Z" transform="translate(-11257.21 -12817.562)" fill="#f4522b" opacity="0.4"/>
    <path id="Trazado_251740" data-name="Trazado 251740" d="M452.928,59.52h-60.5L362.18,111.905l30.249,52.385h60.5l30.238-52.385Z" transform="translate(-11256.593 -12817.025)" fill="none" stroke="#6bffb8" stroke-miterlimit="10" stroke-width="0.98" stroke-dasharray="2"/>
    <g id="Grupo_894407" data-name="Grupo 894407" transform="translate(-11257.616 -12832.035)">
      <circle id="Elipse_6316" data-name="Elipse 6316" cx="33.03" cy="33.03" r="33.03" transform="translate(383.757 83.799)" fill="#fff"/>
      <g id="Grupo_894403" data-name="Grupo 894403" transform="translate(392.506 92.547)">
        <path id="Trazado_624489" data-name="Trazado 624489" d="M449.855,125.615c0-2.612-4.305-4.6-10.288-5.8,3.386-5.074,5.023-9.526,3.176-11.373s-6.3-.211-11.374,3.175c-1.193-5.982-3.184-10.287-5.8-10.287s-4.6,4.306-5.8,10.288c-5.074-3.386-9.526-5.023-11.373-3.176s-.211,6.3,3.175,11.373c-5.982,1.193-10.287,3.184-10.287,5.8s4.305,4.6,10.287,5.8c-3.386,5.074-5.023,9.526-3.175,11.373a2.948,2.948,0,0,0,2.172.771c2.267,0,5.575-1.528,9.2-3.948,1.193,5.983,3.184,10.289,5.8,10.289s4.6-4.305,5.8-10.288c3.625,2.42,6.933,3.947,9.2,3.947a2.952,2.952,0,0,0,2.173-.771c1.847-1.848.211-6.3-3.176-11.373C445.55,130.218,449.855,128.227,449.855,125.615Zm-9.337-16.966a2.077,2.077,0,0,1,1.519.5c1.3,1.3.052,5.267-3.492,10.474-1.938-.347-4.028-.613-6.187-.795-.182-2.159-.448-4.247-.795-6.185C435.424,110.018,438.6,108.648,440.518,108.648Zm-8.875,16.966q0,1.277-.035,2.5-.841.889-1.743,1.792t-1.792,1.743q-1.224.034-2.5.035t-2.5-.035q-.889-.841-1.792-1.743t-1.743-1.792q-.034-1.224-.034-2.5t.034-2.5q.841-.889,1.743-1.792c.6-.6,1.2-1.181,1.8-1.743q1.221-.034,2.5-.035t2.5.035c.6.562,1.193,1.14,1.8,1.743s1.182,1.2,1.743,1.792Q431.643,124.338,431.644,125.615Zm-1.073-5q-.5-.5-1-.982.957.043,1.876.107.063.92.107,1.877Q431.066,121.114,430.571,120.617Zm-2.093-2.017q-1.065-.992-2.151-1.934c1.52-1.29,2.983-2.428,4.37-3.414.283,1.676.512,3.518.675,5.5C430.416,118.686,429.45,118.635,428.479,118.6Zm-1.5-.04c-.467-.008-.934-.013-1.4-.013s-.934.005-1.4.013c.471-.43.938-.845,1.4-1.248C426.036,117.715,426.5,118.13,426.974,118.56Zm-4.306.04c-.97.034-1.937.085-2.892.153.162-1.983.391-3.825.675-5.5,1.387.985,2.85,2.124,4.369,3.413Q423.734,117.605,422.667,118.6Zm-1.091,1.034q-.5.488-1,.982t-.982,1q.044-.957.107-1.877Q420.62,119.679,421.577,119.635Zm-3.018,3.075q-.993,1.066-1.937,2.154c-1.29-1.519-2.431-2.985-3.417-4.372,1.678-.283,3.521-.513,5.507-.675C418.644,120.772,418.593,121.739,418.559,122.709Zm-.04,1.5c-.008.468-.013.936-.013,1.4s.005.935.013,1.4q-.647-.707-1.251-1.4Q417.874,124.92,418.519,124.212Zm.04,4.308c.034.971.085,1.937.154,2.893-1.986-.162-3.829-.392-5.507-.675.986-1.387,2.127-2.852,3.417-4.372Q417.563,127.452,418.559,128.52Zm1.034,1.091q.488.5.982,1t1,.982q-.957-.043-1.876-.107Q419.637,130.568,419.593,129.611Zm3.073,3.018q1.066.994,2.155,1.937c-1.519,1.289-2.984,2.431-4.371,3.416-.283-1.677-.513-3.521-.675-5.506C420.73,132.544,421.7,132.595,422.666,132.629Zm1.5.04c.467.008.935.014,1.4.014s.935-.006,1.4-.014q-.708.647-1.4,1.251Q424.878,133.314,424.171,132.669Zm4.31-.04c.97-.034,1.936-.085,2.891-.154-.162,1.986-.392,3.83-.675,5.508-1.387-.986-2.852-2.127-4.372-3.417Q427.411,133.624,428.481,132.629Zm1.09-1.034q.5-.488,1-.982t.982-1q-.043.957-.107,1.877Q430.527,131.551,429.57,131.6Zm3.018-3.075q.993-1.066,1.937-2.154c1.29,1.519,2.431,2.985,3.417,4.372-1.678.283-3.521.513-5.507.675C432.5,130.457,432.553,129.491,432.588,128.52Zm.04-1.5c.008-.467.013-.936.013-1.4s-.005-.935-.013-1.4q.646.707,1.251,1.4Q433.274,126.31,432.628,127.017Zm-.04-4.308c-.034-.971-.085-1.937-.153-2.893,1.986.162,3.829.392,5.507.675-.986,1.387-2.127,2.852-3.417,4.372Q433.584,123.777,432.588,122.709Zm-7.015-20.379c1.84,0,3.761,3.687,4.937,9.875-1.616,1.125-3.282,2.414-4.937,3.813-1.655-1.4-3.321-2.687-4.936-3.812C421.812,106.019,423.733,102.331,425.573,102.331Zm-16.464,6.82a2.074,2.074,0,0,1,1.519-.5c1.915,0,5.1,1.37,8.955,4-.347,1.938-.613,4.027-.795,6.185-2.159.182-4.249.448-6.187.795C409.057,114.418,407.808,110.452,409.109,109.151Zm-6.82,16.464c0-1.84,3.687-3.761,9.875-4.937,1.125,1.616,2.414,3.282,3.813,4.937-1.4,1.655-2.688,3.321-3.813,4.937C405.977,129.376,402.29,127.455,402.29,125.615Zm6.82,16.464c-1.3-1.3-.052-5.267,3.492-10.474,1.938.347,4.028.613,6.187.795.182,2.159.448,4.249.795,6.187C414.376,142.131,410.41,143.38,409.109,142.079Zm16.464,6.82c-1.84,0-3.761-3.688-4.937-9.877,1.616-1.126,3.282-2.413,4.937-3.812,1.655,1.4,3.321,2.687,4.938,3.813C429.335,145.211,427.413,148.9,425.573,148.9Zm16.464-6.82c-1.3,1.3-5.268.053-10.474-3.491.347-1.938.613-4.028.795-6.188,2.159-.182,4.249-.448,6.187-.795C442.09,136.812,443.339,140.778,442.038,142.079Zm-3.056-11.527c-1.125-1.616-2.414-3.282-3.813-4.937,1.4-1.655,2.688-3.321,3.813-4.937,6.188,1.176,9.875,3.1,9.875,4.937S445.17,129.376,438.982,130.552Z" transform="translate(-401.292 -101.333)" fill="#81ad20"/>
        <circle id="Elipse_6317" data-name="Elipse 6317" cx="1.996" cy="1.996" r="1.996" transform="translate(12.265 6.632)" fill="#148d80"/>
        <circle id="Elipse_6318" data-name="Elipse 6318" cx="1.497" cy="1.497" r="1.497" transform="translate(26.734 4.012)" fill="#148d80"/>
        <circle id="Elipse_6319" data-name="Elipse 6319" cx="2.224" cy="2.224" r="2.224" transform="translate(22.057 22.057)" fill="#148d80"/>
        <path id="Trazado_624490" data-name="Trazado 624490" d="M428.613,179.4a2.837,2.837,0,1,1-2.837-2.837A2.837,2.837,0,0,1,428.613,179.4Z" transform="translate(-412.139 -139.028)" fill="#148d80"/>
        <path id="Trazado_624491" data-name="Trazado 624491" d="M488.639,156.09a1.632,1.632,0,1,1-1.632-1.632A1.632,1.632,0,0,1,488.639,156.09Z" transform="translate(-443.423 -127.952)" fill="#148d80"/>
      </g>
      <g id="Grupo_894404" data-name="Grupo 894404" transform="translate(414.007 144.368)">
        <path id="Trazado_624492" data-name="Trazado 624492" d="M460.658,222.216a.747.747,0,0,1-.529-.22l-15.523-15.523a.748.748,0,0,1,1.058-1.058l15.523,15.523a.749.749,0,0,1-.529,1.278Z" transform="translate(-444.387 -205.195)" fill="#148d80"/>
      </g>
      <g id="Grupo_894405" data-name="Grupo 894405" transform="translate(439.766 136.57)">
        <path id="Trazado_624493" data-name="Trazado 624493" d="M503.652,194.193a.748.748,0,0,1-.309-.067L496.453,191a.749.749,0,1,1,.619-1.363l6.89,3.129a.748.748,0,0,1-.31,1.43Z" transform="translate(-496.014 -189.567)" fill="#148d80"/>
      </g>
      <g id="Grupo_894406" data-name="Grupo 894406" transform="translate(442.188 161.004)">
        <rect id="Rectángulo_294595" data-name="Rectángulo 294595" width="15.051" height="1.331" fill="#fff"/>
        <rect id="Rectángulo_294596" data-name="Rectángulo 294596" width="15.051" height="1.33" transform="translate(0 2.536)" fill="#fff"/>
        <rect id="Rectángulo_294597" data-name="Rectángulo 294597" width="8.731" height="1.331" transform="translate(0 5.073)" fill="#fff"/>
      </g>
      <circle id="Elipse_6320" data-name="Elipse 6320" cx="4.906" cy="4.906" r="4.906" transform="translate(428.842 159.203)" fill="#fff"/>
      <circle id="Elipse_6321" data-name="Elipse 6321" cx="3.151" cy="3.151" r="3.151" transform="matrix(0.937, -0.35, 0.35, 0.937, 446.219, 139.903)" fill="#fff"/>
    </g>
    <g id="Grupo_874302" data-name="Grupo 874302" transform="translate(-10950.85 -12636.717)">
      <line id="Línea_763" data-name="Línea 763" x1="5.138" y1="36.245" transform="translate(82.5 284.046)" fill="none" stroke="#96d1ab" stroke-miterlimit="10" stroke-width="2"/>
      <path id="Trazado_273626" data-name="Trazado 273626" d="M121.35,343.909l1.33-11.141,23.062-35.128C155.178,335.1,133.669,330.635,121.35,343.909Z" transform="translate(-39.094 -57.08)" fill="#169788"/>
      <path id="Trazado_273627" data-name="Trazado 273627" d="M120.922,343.909c-6.882-16.31,13.42-30.357,24.393-46.269C152.517,326.261,123.667,323.05,120.922,343.909Z" transform="translate(-38.666 -57.08)" fill="url(#linear-gradient)"/>
      <path id="Trazado_273628" data-name="Trazado 273628" d="M138.29,391.607c0-31.007,7.387-37.537,7.387-37.537" transform="translate(-43.081 -70.36)" fill="none" stroke="#96d1ab" stroke-miterlimit="10" stroke-width="2"/>
      <path id="Trazado_273629" data-name="Trazado 273629" d="M141.48,355.69c4.894-7.264,36.7,5.131,39.1-32.88C163.349,333.141,147.7,331.053,141.48,355.69Z" transform="translate(-43.832 -63.004)" fill="#169788"/>
      <path id="Trazado_273630" data-name="Trazado 273630" d="M141.48,355.69c6.882-14.613,28.17-12.3,39.1-32.88C163.349,333.141,147.7,331.053,141.48,355.69Z" transform="translate(-43.832 -63.004)" fill="url(#linear-gradient)"/>
      <path id="Trazado_273631" data-name="Trazado 273631" d="M109.41,373.08V394.7a6.484,6.484,0,0,0,6.484,6.484h20.118A6.484,6.484,0,0,0,142.5,394.7V373.08Z" transform="translate(-36.284 -74.834)" fill="#b0c0d2"/>
      <path id="Trazado_273632" data-name="Trazado 273632" d="M109.41,373.08V394.7a6.484,6.484,0,0,0,6.484,6.484h19.376c-7.532-4.037-13.076-14.444-18.222-28.109Z" transform="translate(-36.284 -74.834)" fill="#727997"/>
    </g>
    <g id="Enmascarar_grupo_130523" data-name="Enmascarar grupo 130523" transform="translate(-12157 -12848)" clip-path="url(#clip-path)">
      <g id="Grupo_894408" data-name="Grupo 894408" transform="translate(12704.37 12286.826)">
        <g id="Grupo_894375" data-name="Grupo 894375" transform="translate(-11732.569 -12132.115)">
          <g id="Grupo_894353" data-name="Grupo 894353" transform="translate(50.326 0)">
            <g id="Grupo_894337" data-name="Grupo 894337" transform="translate(0 125.596)">
              <path id="Trazado_624358" data-name="Trazado 624358" d="M302.9,213.042l-27.343,7.275a43.764,43.764,0,0,0-29.131,25.428L215.5,319.8l37.908,17.8-3.773,70.311H387.923l-2.338-18.994a321.373,321.373,0,0,1-2.4-38.009l-.51-133.8-42.894-6.273Z" transform="translate(-215.5 -210.833)" fill="#fff"/>
              <path id="Trazado_624359" data-name="Trazado 624359" d="M312.477,213.357,297.347,229a2.625,2.625,0,0,0,.178,3.818l6.561,5.63-11.381,17.8a2.624,2.624,0,0,0,.305,3.22l26.821,28.309Z" transform="translate(-225.08 -211.148)" fill="#c7d2d7"/>
              <path id="Trazado_624360" data-name="Trazado 624360" d="M353.283,210.833l15.06,18.041a3.5,3.5,0,0,1-.858,5.229l-11.424,7,10.7,15.134a3.5,3.5,0,0,1-1,4.99l-42,26.231Z" transform="translate(-229.006 -210.833)" fill="#c7d2d7"/>
              <path id="Trazado_624361" data-name="Trazado 624361" d="M323.757,287.458l29.526-76.625,11.5,16.866a3.5,3.5,0,0,1-.855,4.819l-10.645,7.619,9.861,15.29a3.5,3.5,0,0,1-.917,4.753Z" transform="translate(-229.006 -210.833)" fill="#fff"/>
              <path id="Trazado_624362" data-name="Trazado 624362" d="M312.977,213.357l7.355,74.416-23.282-29.7a3.5,3.5,0,0,1-.287-3.892l9.467-16.63-5.363-5.275a3.5,3.5,0,0,1-.186-4.8Z" transform="translate(-225.581 -211.148)" fill="#fff"/>
              <path id="Trazado_624363" data-name="Trazado 624363" d="M323.327,298.38l1.344,57-1.344,59.954-3.015-60.1Z" transform="translate(-228.576 -221.755)" fill="#c7d2d7"/>
              <path id="Trazado_624364" data-name="Trazado 624364" d="M395.383,247.947l-4.376,49.279-26.259-16.411,12.7,4.626a5.985,5.985,0,0,0,7.973-4.772h0a111.864,111.864,0,0,1,9.072-30.778Z" transform="translate(-234.12 -215.463)" fill="#c7d2d7"/>
              <path id="Trazado_624365" data-name="Trazado 624365" d="M397.592,308.534,360.735,285.5,332.584,293a22.99,22.99,0,0,0,7.8,8.909l6.127,14.5c-.438,11.321,2.626,24.45,2.626,24.45L382.469,365.2a26.205,26.205,0,0,0,15.517,5.037q-.175-5-.2-10.014Z" transform="translate(-230.107 -220.148)" fill="#c7d2d7"/>
              <g id="Grupo_894335" data-name="Grupo 894335" transform="translate(118.724 158.353)">
                <path id="Trazado_624366" data-name="Trazado 624366" d="M387.783,394.129a290.234,290.234,0,0,1-36.636-.246c.287,3.873.606,7.9.9,11.817a2.6,2.6,0,0,0,1.9,2.311c6.3,1.784,12.735,3.905,19.014,5.651a2.608,2.608,0,0,0,1.472-.016A71.954,71.954,0,0,0,388.08,407.7a2.627,2.627,0,0,0,1.23-3A34.833,34.833,0,0,1,387.783,394.129Z" transform="translate(-351.147 -392.023)" fill="#c7d2d7"/>
                <path id="Trazado_624367" data-name="Trazado 624367" d="M386.363,392a245.863,245.863,0,0,1-33.716-.246c.3,4.476.649,9.162.954,13.638,6.531,1.941,13.266,4.4,19.8,6.345a60,60,0,0,0,14.673-6.558A45.9,45.9,0,0,1,386.363,392Z" transform="translate(-351.334 -391.758)" fill="#fff"/>
              </g>
              <g id="Grupo_894336" data-name="Grupo 894336" transform="translate(41.695 158.353)">
                <path id="Trazado_624368" data-name="Trazado 624368" d="M264.462,394.129a192.713,192.713,0,0,0,29.845-.246c-.234,3.873-.494,7.9-.733,11.817a2.535,2.535,0,0,1-1.545,2.311c-5.128,1.784-10.374,3.905-15.489,5.651a1.748,1.748,0,0,1-1.2-.016A53.679,53.679,0,0,1,264.22,407.7a2.9,2.9,0,0,1-1-3A42.264,42.264,0,0,0,264.462,394.129Z" transform="translate(-263.138 -392.023)" fill="#c7d2d7"/>
                <path id="Trazado_624369" data-name="Trazado 624369" d="M265.889,392a149.693,149.693,0,0,0,26.3-.246c-.238,4.476-.507,9.162-.744,13.638-5.095,1.941-10.348,4.4-15.442,6.345a42.586,42.586,0,0,1-11.444-6.558A58.155,58.155,0,0,0,265.889,392Z" transform="translate(-263.315 -391.758)" fill="#fff"/>
              </g>
              <path id="Trazado_624370" data-name="Trazado 624370" d="M260.769,304.791a79.6,79.6,0,0,1,22.513.569,15.374,15.374,0,0,1,9.505,5.563,38.569,38.569,0,0,1,4.889,8.021,10.562,10.562,0,0,1-1.5,11.179c-2.035,2.417-4.182,4.969-5.776,6.91a2.787,2.787,0,0,1-2.19,1.026h-.088a2.908,2.908,0,0,1-2.379-4.529,47.133,47.133,0,0,0,3.679-6.791,54.151,54.151,0,0,1-8.785,9.234,11.255,11.255,0,0,1-8.223,2.529c-4.576-.415-9.213-.8-13.811-1.207a13.605,13.605,0,0,1-11.725-9.266q-.273-.823-.509-1.662A17.006,17.006,0,0,1,260.769,304.791Z" transform="translate(-219.269 -222.487)" fill="#148d80"/>
            </g>
            <g id="Grupo_894340" data-name="Grupo 894340" transform="translate(87.397 89.11)">
              <g id="Grupo_894338" data-name="Grupo 894338" transform="translate(0.857)">
                <path id="Trazado_624371" data-name="Trazado 624371" d="M316.333,181.709V204.9l15.317,7.585,17.541-12.4-5.623-30.944Z" transform="translate(-316.333 -169.146)" fill="#f0bf9c"/>
                <path id="Trazado_624372" data-name="Trazado 624372" d="M332.331,198.473c5.454-4.635,8.754-11.4,10.444-18.358a62.95,62.95,0,0,0,1.352-7.893l-.558-3.076-27.236,12.563v22.062A21.95,21.95,0,0,0,332.331,198.473Z" transform="translate(-316.333 -169.146)" fill="#472948"/>
              </g>
              <path id="Trazado_624373" data-name="Trazado 624373" d="M333.833,216.9l10.62,19.323,10.088-26.179-3.166-5.543Z" transform="translate(-317.66 -173.557)" fill="#81ad20"/>
              <path id="Trazado_624374" data-name="Trazado 624374" d="M316.211,210l15.317,7.585-14.114,16.192-2.06-20.839Z" transform="translate(-315.354 -174.243)" fill="#81ad20"/>
              <path id="Trazado_624375" data-name="Trazado 624375" d="M331.821,218.667l-14.114,16.192L323,288.435l19.439-50.446Z" transform="translate(-315.648 -175.324)" fill="#148d80"/>
              <g id="Grupo_894339" data-name="Grupo 894339" transform="translate(4.339 43.343)">
                <path id="Trazado_624376" data-name="Trazado 624376" d="M332.768,218.667l-7.475,8.576,2.515,7.616,6.072.583,4.176-7.153Z" transform="translate(-320.933 -218.667)" fill="#81ad20"/>
                <path id="Trazado_624377" data-name="Trazado 624377" d="M327.187,237.167l-6.875,23.064,3.015,30.512,12.431-32.259-2.5-20.734Z" transform="translate(-320.311 -220.975)" fill="#81ad20"/>
                <path id="Trazado_624378" data-name="Trazado 624378" d="M325.293,228.215l2.515,7.616,6.072.583,1.332-2.282-2.164-.209a6.321,6.321,0,0,1-5.506-4.7l-.721-2.766Z" transform="translate(-320.933 -219.639)" fill="#81ad20"/>
              </g>
            </g>
            <g id="Grupo_894352" data-name="Grupo 894352" transform="translate(39.228)">
              <path id="Trazado_624379" data-name="Trazado 624379" d="M275.251,151.018a43.378,43.378,0,0,1,10.407-72.229,36.126,36.126,0,0,1,19.5-3.255,26.985,26.985,0,0,1,17.269,9.18,63.488,63.488,0,0,0,1.794-17.38,13,13,0,0,1,3.761,8.38,11.553,11.553,0,0,1-2.787,8.184,15.8,15.8,0,0,1,13.934-4.756c-3.261,1.793-6.556,3.863-9.818,5.658,4.522-1.5,10.028-.691,14.366,1.274a19.383,19.383,0,0,1,9.748,10c1.654,3.911,1.965,8.257,1.893,12.5a75.2,75.2,0,0,1-6.154,28.494c-2.153,4.976-7.625,8.45-12.221,11.326-3.778-5.788-10.028-10.787-15.6-14.876-10.147,2.48-20.271,5.212-29.629,9.852a71.061,71.061,0,0,0-9.638,5.769C280.359,150.356,276.839,152.394,275.251,151.018Z" transform="translate(-260.319 -67.334)" fill="#6a3649"/>
              <path id="Trazado_624380" data-name="Trazado 624380" d="M331.684,140.172c-6.958-3.083-14.43-16.379-14.175-26.25-11.687,13.378-27.452,22.236-44.615,26.744a112.145,112.145,0,0,0,8.285,25.87c4.816,10.681,12.763,21.276,24.258,23.543,11.026,2.174,22.492-4.374,28.578-13.823,4.438-6.892,6.413-15.009,6.937-23.25A32.811,32.811,0,0,1,331.684,140.172Z" transform="translate(-261.888 -73.146)" fill="#f0bf9c"/>
              <g id="Grupo_894344" data-name="Grupo 894344" transform="translate(12.68 62.101)">
                <g id="Grupo_894343" data-name="Grupo 894343">
                  <g id="Grupo_894341" data-name="Grupo 894341" transform="translate(28.767)">
                    <path id="Trazado_624381" data-name="Trazado 624381" d="M317.768,138.287A12.624,12.624,0,0,1,327.8,143.35l-20.128-.12A12.626,12.626,0,0,1,317.768,138.287Z" transform="translate(-307.674 -138.287)" fill="#6a3649"/>
                  </g>
                  <path id="Trazado_624382" data-name="Trazado 624382" d="M314.347,154.682a3.413,3.413,0,1,0,3.624-3.188A3.412,3.412,0,0,0,314.347,154.682Z" transform="translate(-279.739 -139.934)" fill="#472948"/>
                  <g id="Grupo_894342" data-name="Grupo 894342" transform="translate(0 5.259)">
                    <path id="Trazado_624383" data-name="Trazado 624383" d="M281.36,144.431c-3.118.593-5.454,3.038-6.553,6.332l15.27-2.9C287.667,145.233,284.478,143.838,281.36,144.431Z" transform="translate(-274.807 -144.296)" fill="#6a3649"/>
                  </g>
                  <path id="Trazado_624384" data-name="Trazado 624384" d="M288.808,159.849c.489,1.82-.251,3.6-1.655,3.98s-2.939-.792-3.428-2.612.251-3.6,1.655-3.979S288.319,158.029,288.808,159.849Z" transform="translate(-275.901 -140.642)" fill="#472948"/>
                </g>
              </g>
              <g id="Grupo_894350" data-name="Grupo 894350" transform="translate(17.528 71.906)">
                <path id="Trazado_624385" data-name="Trazado 624385" d="M336.125,159.06l12.716-9.57v3.748l-10.746,8.9Z" transform="translate(-287.305 -149.49)" fill="#fff"/>
                <path id="Trazado_624386" data-name="Trazado 624386" d="M345.75,171.377l4.013-8.211,3.1-.542-4.85,11.415Z" transform="translate(-288.506 -151.129)" fill="#fff"/>
                <g id="Grupo_894345" data-name="Grupo 894345" transform="translate(0 6.814)">
                  <path id="Trazado_624387" data-name="Trazado 624387" d="M289.855,171.116c3.123-1.685,6.024-3.949,9.485-4.734,4.063-.921,8.263.332,12.421.592a26.54,26.54,0,0,0,19.375-6.942,24.515,24.515,0,0,0-3.166-2.756,22.568,22.568,0,0,1-17.947,6.457c-3.553-.349-7.095-1.554-10.618-.979-3.38.551-6.26,2.658-9.261,4.31s-6.633,2.89-9.8,1.58c.584,1.439,1.157,2.891,1.776,4.367A13.488,13.488,0,0,0,289.855,171.116Z" transform="translate(-280.346 -157.275)" fill="#81ad20"/>
                  <path id="Trazado_624388" data-name="Trazado 624388" d="M331.389,160.424a26.54,26.54,0,0,1-19.375,6.942c-4.157-.26-8.358-1.512-12.421-.592-3.461.785-6.362,3.049-9.485,4.734a13.488,13.488,0,0,1-7.734,1.893,54.5,54.5,0,0,0,10.612,16.847c7.44,8.169,34.426,16.046,47.117-16.483A48.816,48.816,0,0,0,331.389,160.424Z" transform="translate(-280.599 -157.668)" fill="#81ad20"/>
                </g>
                <g id="Grupo_894349" data-name="Grupo 894349" transform="translate(6.496 18.239)">
                  <g id="Grupo_894346" data-name="Grupo 894346">
                    <path id="Trazado_624389" data-name="Trazado 624389" d="M329.184,170.329a64.635,64.635,0,0,1-9.65,2.267,51.508,51.508,0,0,1-11,.489,44.779,44.779,0,0,0-5.915-.168,14.477,14.477,0,0,0-3.047.528,15.215,15.215,0,0,0-2.744,1.145c-1.675.88-3.1,1.84-4.575,2.492a8.657,8.657,0,0,1-4.483.879,7.818,7.818,0,0,0,4.862.307,37.467,37.467,0,0,0,5.063-1.727,13.538,13.538,0,0,1,5.033-.958c1.774-.013,3.651.215,5.629.342a34.343,34.343,0,0,0,11.635-1.244A30.286,30.286,0,0,0,329.184,170.329Z" transform="translate(-287.768 -170.329)" fill="#148d80"/>
                  </g>
                  <g id="Grupo_894347" data-name="Grupo 894347" transform="translate(5.672 7.675)">
                    <path id="Trazado_624390" data-name="Trazado 624390" d="M321.156,179.1c-3.772.56-8.576,1.408-13.416,2.017-4.837.628-9.7,1.017-13.492,1.424a44.608,44.608,0,0,0,26.908-3.441Z" transform="translate(-294.248 -179.098)" fill="#148d80"/>
                  </g>
                  <g id="Grupo_894348" data-name="Grupo 894348" transform="translate(10.82 13.029)">
                    <path id="Trazado_624391" data-name="Trazado 624391" d="M317.548,185.215c-2.434.438-5.534,1.038-8.668,1.421-3.131.4-6.283.576-8.751.749a26.182,26.182,0,0,0,17.418-2.17Z" transform="translate(-300.13 -185.215)" fill="#148d80"/>
                  </g>
                </g>
              </g>
              <g id="Grupo_894351" data-name="Grupo 894351" transform="translate(75.685 66.753)">
                <path id="Trazado_624392" data-name="Trazado 624392" d="M352.713,145.471c1.718-1.293,3.9-2.223,6-1.737,2.606.606,4.331,3.349,4.395,6.023a11.549,11.549,0,0,1-2.91,7.3,12.314,12.314,0,0,1-4.557,3.7,6.919,6.919,0,0,1-5.745.032C343.253,157.486,348.751,148.454,352.713,145.471Z" transform="translate(-346.792 -143.602)" fill="#f0bf9c"/>
                <path id="Trazado_624393" data-name="Trazado 624393" d="M361.363,151.332a5.094,5.094,0,0,0-8.87,4.535,2.417,2.417,0,0,0,1.47,1.806,2.594,2.594,0,0,0,2.42-.969,3.748,3.748,0,0,0,1.181-2.405,1.959,1.959,0,0,0-1.491-2.017A6.043,6.043,0,0,1,361.363,151.332Z" transform="translate(-347.484 -144.337)" fill="#eba58e"/>
              </g>
              <path id="Trazado_624394" data-name="Trazado 624394" d="M266.843,109.954a44.63,44.63,0,0,1,27.764-26.77c8.156-2.639,20.622-2,27.817,2.662a26.985,26.985,0,0,0-17.269-9.18,36.125,36.125,0,0,0-19.5,3.255,43.321,43.321,0,0,0-15.941,66.387A44.7,44.7,0,0,1,266.843,109.954Z" transform="translate(-260.319 -68.466)" fill="#8e5a61"/>
            </g>
          </g>
          <g id="Grupo_894365" data-name="Grupo 894365" transform="translate(0 117.351)">
            <g id="Grupo_894354" data-name="Grupo 894354" transform="translate(21.172 40.729)">
              <path id="Trazado_624395" data-name="Trazado 624395" d="M234.332,362.431c-33.259-21.006-11.546-86.338,28.568-93.952l7.473-20.532c-62.954,8.8-108.9,123.893-36.041,149.056Z" transform="translate(-184.048 -247.947)" fill="#99a3b0"/>
              <rect id="Rectángulo_294562" data-name="Rectángulo 294562" width="13.034" height="34.572" transform="translate(37.251 114.484)" fill="#acbbbf"/>
              <path id="Trazado_624396" data-name="Trazado 624396" d="M219.44,362.431c-33.259-21.006-11.546-86.338,28.568-93.952l7.474-20.532C192.527,256.746,146.576,371.84,219.44,397Z" transform="translate(-182.19 -247.947)" fill="#c7d2d7"/>
            </g>
            <path id="Trazado_624397" data-name="Trazado 624397" d="M276.213,247.947a60.62,60.62,0,0,0-14.47,3.948l1.437-3.948a59.593,59.593,0,0,0-11.568,2.844l-7.721,21.8,8.71,2.517a44.853,44.853,0,0,1,16.139-6.625Z" transform="translate(-168.716 -207.218)" fill="#21255c" opacity="0.3"/>
            <g id="Grupo_894360" data-name="Grupo 894360" transform="translate(55.458)">
              <g id="Grupo_894355" data-name="Grupo 894355" transform="translate(60.583)">
                <path id="Trazado_624398" data-name="Trazado 624398" d="M308.413,209.736c.846-2.326-2.277-5.6-6.977-7.307s-9.2-1.212-10.043,1.113l-.654,1.8.812.295c.844,1.923,3.418,3.978,6.819,5.216s6.693,1.319,8.575.388l.813.3Z" transform="translate(-290.602 -201.412)" fill="#797c99"/>
                <path id="Trazado_624399" data-name="Trazado 624399" d="M307.739,211.789c-.846,2.326-5.342,2.824-10.043,1.113s-7.823-4.982-6.977-7.307,5.342-2.824,10.042-1.114S308.586,209.464,307.739,211.789Z" transform="translate(-290.582 -201.668)" fill="#495375"/>
              </g>
              <path id="Trazado_624400" data-name="Trazado 624400" d="M298.989,206.485c-3.554-1.294-6.954-.917-7.594.842l-10,27.487,12.87,4.684,10-27.487C304.905,210.253,302.543,207.779,298.989,206.485Z" transform="translate(-228.852 -201.949)" fill="#99a3b0"/>
              <g id="Grupo_894356" data-name="Grupo 894356" transform="translate(33.086 20.673)">
                <path id="Trazado_624401" data-name="Trazado 624401" d="M306.59,246.149c2.066-5.678-5.56-13.666-17.035-17.843s-22.452-2.959-24.518,2.719l-1.6,4.387,1.984.722c2.059,4.694,8.344,9.712,16.647,12.734s16.343,3.218,20.938.946l1.984.722Z" transform="translate(-259.699 -225.13)" fill="#797c99"/>
                <ellipse id="Elipse_6304" data-name="Elipse 6304" cx="10.941" cy="22.11" rx="10.941" ry="22.11" transform="translate(0 20.561) rotate(-70)" fill="#495375"/>
              </g>
              <path id="Trazado_624402" data-name="Trazado 624402" d="M283.58,238.209c-8.677-3.159-16.979-2.238-18.541,2.056l-24.427,67.113,31.424,11.438L296.463,251.7C298.025,247.409,292.257,241.368,283.58,238.209Z" transform="translate(-223.765 -205.768)" fill="#99a3b0"/>
              <path id="Trazado_624403" data-name="Trazado 624403" d="M265.783,310.193h0a4.81,4.81,0,0,1-2.874-6.163l19.163-52.648a4.808,4.808,0,0,1,6.163-2.873h0a4.808,4.808,0,0,1,2.873,6.163l-19.162,52.647A4.809,4.809,0,0,1,265.783,310.193Z" transform="translate(-226.51 -207.251)" fill="#fff" opacity="0.3"/>
              <g id="Grupo_894359" data-name="Grupo 894359" transform="translate(0 87.202)">
                <g id="Grupo_894357" data-name="Grupo 894357">
                  <path id="Trazado_624404" data-name="Trazado 624404" d="M282.355,328.2c2.658-7.3-7.151-17.577-21.908-22.947s-28.874-3.806-31.532,3.5l-2.053,5.642,2.552.929c2.648,6.037,10.731,12.491,21.409,16.377s21.018,4.139,26.928,1.217l2.551.929Z" transform="translate(-222.049 -301.171)" fill="#797c99"/>
                  <ellipse id="Elipse_6305" data-name="Elipse 6305" cx="14.07" cy="28.435" rx="14.07" ry="28.435" transform="translate(0 26.443) rotate(-70)" fill="#495375"/>
                </g>
                <g id="Grupo_894358" data-name="Grupo 894358" transform="translate(6.917 16.715)">
                  <path id="Trazado_624405" data-name="Trazado 624405" d="M267.686,334.213c1.431-3.932-3.849-9.461-11.793-12.353s-15.543-2.049-16.974,1.882l-6.693,18.39,1.373.5c1.426,3.25,5.777,6.724,11.525,8.816s11.314,2.228,14.5.655l1.373.5Z" transform="translate(-229.635 -320.141)" fill="#797c99"/>
                  <ellipse id="Elipse_6306" data-name="Elipse 6306" cx="7.574" cy="15.307" rx="7.574" ry="15.307" transform="translate(0 29.108) rotate(-70)" fill="#495375"/>
                </g>
              </g>
            </g>
            <g id="Grupo_894361" data-name="Grupo 894361" transform="translate(42.23 124.103)">
              <path id="Trazado_624406" data-name="Trazado 624406" d="M306.081,372.991H232.113L206.25,348.75h73.968Z" transform="translate(-206.25 -343.897)" fill="#797c99"/>
              <path id="Trazado_624407" data-name="Trazado 624407" d="M206.25,348.058l1.164-4.853h73.968l-1.164,4.853Z" transform="translate(-206.25 -343.205)" fill="#21255c"/>
              <path id="Trazado_624408" data-name="Trazado 624408" d="M317.789,367.446l-1.164,4.853-25.863-24.241,1.164-4.853Z" transform="translate(-216.793 -343.205)" fill="#495375"/>
            </g>
            <g id="Grupo_894362" data-name="Grupo 894362" transform="translate(0 196.131)">
              <rect id="Rectángulo_294563" data-name="Rectángulo 294563" width="124.284" height="9.19" fill="#21255c"/>
              <rect id="Rectángulo_294564" data-name="Rectángulo 294564" width="56.67" height="9.19" transform="translate(124.284)" fill="#495375"/>
            </g>
            <g id="Grupo_894364" data-name="Grupo 894364" transform="translate(15.973 160.543)">
              <g id="Grupo_894363" data-name="Grupo 894363">
                <path id="Trazado_624409" data-name="Trazado 624409" d="M210.507,384.858h0a2.738,2.738,0,0,0-.5,0h-6.5l-.766,8.894-18.49,26.676h28.664V387.47A2.6,2.6,0,0,0,210.507,384.858Z" transform="translate(-177.248 -384.84)" fill="#797c99"/>
                <path id="Trazado_624410" data-name="Trazado 624410" d="M204.914,420.427V387.469a2.626,2.626,0,0,0-4.784-1.495l-23.88,34.453Z" transform="translate(-176.25 -384.839)" fill="#99a3b0"/>
              </g>
              <path id="Trazado_624411" data-name="Trazado 624411" d="M204.3,403.007c0,2.557-1.538,4.631-3.434,4.631s-3.435-2.073-3.435-4.631,1.538-4.632,3.435-4.632S204.3,400.448,204.3,403.007Z" transform="translate(-178.893 -386.528)" fill="#495375"/>
            </g>
          </g>
          <g id="Grupo_894374" data-name="Grupo 894374" transform="translate(108.977 131.869)">
            <g id="Grupo_894366" data-name="Grupo 894366" transform="translate(66.728)">
              <path id="Trazado_624412" data-name="Trazado 624412" d="M394.635,244.211l-4.376,49.279-16.848-10.5-14.66,43.106,30.1,22.455a25.533,25.533,0,0,0,25.9,2.749h0a25.531,25.531,0,0,0,14.9-23.212V258.878a42.7,42.7,0,0,0-23.948-38.36L400.543,218Z" transform="translate(-358.75 -218)" fill="#fff"/>
              <path id="Trazado_624413" data-name="Trazado 624413" d="M394.75,303.839l24.741,15.424C414.005,302.308,406.2,300.744,395,300.978Z" transform="translate(-363.241 -228.35)" fill="#c7d2d7"/>
            </g>
            <path id="Trazado_624414" data-name="Trazado 624414" d="M358.684,335.356s19.037-20.787,14.66-43.106C360.872,296.845,356.714,318.07,358.684,335.356Z" transform="translate(-291.956 -227.263)" fill="#99a3b0"/>
            <g id="Grupo_894367" data-name="Grupo 894367" transform="translate(84.156 104.646)">
              <path id="Trazado_624415" data-name="Trazado 624415" d="M379.72,338.4l-.547.635.172.148a2.549,2.549,0,0,0,.972,2.594,2.577,2.577,0,0,0,2.513.4l.193.167.713-.83a2.555,2.555,0,0,0-4.016-3.118Z" transform="translate(-378.726 -337.563)" fill="#99a3b0"/>
              <path id="Trazado_624416" data-name="Trazado 624416" d="M382.53,338.867a2.313,2.313,0,1,1-3.42.258A2.432,2.432,0,0,1,382.53,338.867Z" transform="translate(-378.663 -337.653)" fill="#c7d2d7"/>
            </g>
            <g id="Grupo_894368" data-name="Grupo 894368" transform="translate(91.353 109.585)">
              <path id="Trazado_624417" data-name="Trazado 624417" d="M387.942,344.041l-.547.636.172.147a2.55,2.55,0,0,0,.972,2.594,2.577,2.577,0,0,0,2.513.4l.194.166.713-.83a2.555,2.555,0,0,0-4.017-3.118Z" transform="translate(-386.949 -343.205)" fill="#99a3b0"/>
              <path id="Trazado_624418" data-name="Trazado 624418" d="M390.752,344.509a2.313,2.313,0,1,1-3.42.259A2.431,2.431,0,0,1,390.752,344.509Z" transform="translate(-386.885 -343.295)" fill="#c7d2d7"/>
            </g>
            <g id="Grupo_894369" data-name="Grupo 894369" transform="translate(61.914 59.079)">
              <path id="Trazado_624419" data-name="Trazado 624419" d="M372.724,291.408c2.413,12.307-2.292,24.148-7,32.295L353.25,307.555,363.314,285.5Z" transform="translate(-353.25 -285.5)" fill="#f0bf9c"/>
              <path id="Trazado_624420" data-name="Trazado 624420" d="M363.061,307.324a29.964,29.964,0,0,0,2.6-20.349l-2.349-1.475L353.25,307.555,365.724,323.7c.892-1.543,1.784-3.221,2.627-5.007-1.546-1.824-3.086-3.669-4.638-5.469A5.281,5.281,0,0,1,363.061,307.324Z" transform="translate(-353.25 -285.5)" fill="#eba58e"/>
            </g>
            <g id="Grupo_894373" data-name="Grupo 894373" transform="translate(0 26.211)">
              <path id="Trazado_624421" data-name="Trazado 624421" d="M355.584,279.283l-15.463-11.378L315.18,250.289a12.674,12.674,0,0,0-11.938-1.475,64.951,64.951,0,0,0-17.8,10.768c-1.4,1.186-2.8,2.536-2.928,4.5a2.789,2.789,0,0,0,.848,2.24c1.364,1.239,3.13.505,4.586-.221l19.527-9.726c-5.862,3.764-12.027,8.019-17.889,11.783a10.7,10.7,0,0,0-3.435,2.977,3.229,3.229,0,0,0,3.311,5.233,10.662,10.662,0,0,0,3.3-1.356l18.077-9.915c-4.872,3.7-9.713,7.486-14.586,11.189a9.889,9.889,0,0,0-2.746,2.725,2.983,2.983,0,0,0,3.016,4.74,9.869,9.869,0,0,0,3.136-1.095l14.329-6.9c-3.414,3.066-7.112,5.64-10.527,8.707-1.121,1.007-2.357,2.411-1.743,3.837a2.3,2.3,0,0,0,1.594,1.264,5.461,5.461,0,0,0,3.455-.61,35.334,35.334,0,0,0,8.913-5.576c10.576,6.849,19.547,6.281,19.547,6.281l9.628,17.854C360.617,301.164,355.584,279.283,355.584,279.283Z" transform="translate(-282.511 -247.947)" fill="#148d80"/>
              <g id="Grupo_894370" data-name="Grupo 894370" transform="translate(62.251 31.769)">
                <path id="Trazado_624422" data-name="Trazado 624422" d="M353.635,306.251a16.654,16.654,0,0,0,4.39-3.826,19.694,19.694,0,0,0,4.4-12.447,16.612,16.612,0,0,0-1.007-5.735,29.887,29.887,0,0,1-7.785,22.007Z" transform="translate(-353.635 -284.244)" fill="#148d80"/>
              </g>
              <g id="Grupo_894371" data-name="Grupo 894371" transform="translate(61.79 35.224)">
                <path id="Trazado_624423" data-name="Trazado 624423" d="M353.108,303.806a16.28,16.28,0,0,0,5.108-15.614,31.154,31.154,0,0,1-5.108,15.614Z" transform="translate(-353.108 -288.192)" fill="#148d80"/>
              </g>
              <g id="Grupo_894372" data-name="Grupo 894372" transform="translate(54.058 20.698)">
                <path id="Trazado_624424" data-name="Trazado 624424" d="M344.274,290.842a11.959,11.959,0,0,0,3.285-3.772,13.233,13.233,0,0,0,.82-11.266,11.945,11.945,0,0,0-2.7-4.209,17.651,17.651,0,0,1-1.4,19.247Z" transform="translate(-344.274 -271.595)" fill="#148d80"/>
              </g>
            </g>
          </g>
        </g>
        <g id="Grupo_894376" data-name="Grupo 894376" transform="translate(-11840.37 -11809.367)">
          <rect id="Rectángulo_294565" data-name="Rectángulo 294565" width="318.804" height="18.739" transform="translate(0 0)" fill="#a59b95"/>
          <rect id="Rectángulo_294566" data-name="Rectángulo 294566" width="145.366" height="18.739" transform="translate(318.804 0)" fill="#d4cfbe"/>
        </g>
        <g id="Grupo_894381" data-name="Grupo 894381" transform="translate(-11823.886 -11960.755)">
          <path id="Rectángulo_294567" data-name="Rectángulo 294567" d="M0,0H34.462a5,5,0,0,1,5,5V58.309a5,5,0,0,1-5,5H0a0,0,0,0,1,0,0V0A0,0,0,0,1,0,0Z" transform="translate(74.833 104.924) rotate(90)" fill="#7dd3e9"/>
          <g id="Grupo_894378" data-name="Grupo 894378" transform="translate(8.309 0)">
            <path id="Trazado_624425" data-name="Trazado 624425" d="M91.24,307.217a19.484,19.484,0,0,0-4.448-7.512,19.03,19.03,0,0,0-6.913-4.692,21.23,21.23,0,0,0-16.72.576h0a20.6,20.6,0,0,0,4.6,6.454,23.716,23.716,0,0,0,6.691,4.339,24.205,24.205,0,0,0,16.791.835Z" transform="translate(-63.16 -266.918)" fill="#91b66a"/>
            <path id="Trazado_624426" data-name="Trazado 624426" d="M97.532,329.224A19.7,19.7,0,0,0,87.384,316a21.4,21.4,0,0,0-16.7-1.015h0a19.094,19.094,0,0,0,3.967,6.874,21.412,21.412,0,0,0,6.271,4.951,23.878,23.878,0,0,0,16.609,2.416Z" transform="translate(-64.099 -269.438)" fill="#638674"/>
            <path id="Trazado_624427" data-name="Trazado 624427" d="M101.747,351.7a17.814,17.814,0,0,0-1.07-4.338,21.237,21.237,0,0,0-1.9-3.873,19.786,19.786,0,0,0-5.921-5.9,19.431,19.431,0,0,0-3.7-1.877,21.185,21.185,0,0,0-4.1-1.068,22.84,22.84,0,0,0-8.739.373h0a19.424,19.424,0,0,0,1.34,3.8,18.439,18.439,0,0,0,1.97,3.419,20.746,20.746,0,0,0,2.656,2.985,22.132,22.132,0,0,0,3.116,2.533,24.435,24.435,0,0,0,7.625,3.389,23.225,23.225,0,0,0,8.726.561Z" transform="translate(-64.801 -272.01)" fill="#91b66a"/>
            <path id="Trazado_624428" data-name="Trazado 624428" d="M103.825,374.442a21.977,21.977,0,0,0-.611-4.423,19.6,19.6,0,0,0-1.575-4.03,18.92,18.92,0,0,0-5.321-6.431,21.272,21.272,0,0,0-16.2-4.111h0a18.589,18.589,0,0,0,2.625,7.492,21.474,21.474,0,0,0,5.207,6.032,25.185,25.185,0,0,0,7.226,4.09,23.315,23.315,0,0,0,8.649,1.381Z" transform="translate(-65.276 -274.61)" fill="#638674"/>
            <path id="Trazado_624429" data-name="Trazado 624429" d="M95.068,304.948a25.263,25.263,0,0,1-1.195-8.718,26.256,26.256,0,0,1,1.806-8.378,22.872,22.872,0,0,1,11.654-12.471h0a23.113,23.113,0,0,1,2.066,9.383,21.1,21.1,0,0,1-1.74,8.79,20.256,20.256,0,0,1-12.591,11.394Z" transform="translate(-66.988 -264.65)" fill="#638674"/>
            <path id="Trazado_624430" data-name="Trazado 624430" d="M101.273,327.4a24.863,24.863,0,0,1,2.231-16.967,22.671,22.671,0,0,1,12.786-11.31h0a24.625,24.625,0,0,1,1.161,9.528,22.891,22.891,0,0,1-2.544,8.578,20.494,20.494,0,0,1-13.634,10.17Z" transform="translate(-67.84 -267.611)" fill="#91b66a"/>
            <path id="Trazado_624431" data-name="Trazado 624431" d="M105.342,350.354a29.3,29.3,0,0,1-.182-4.47,22.57,22.57,0,0,1,.635-4.318,24.984,24.984,0,0,1,3.333-7.89,25.794,25.794,0,0,1,2.653-3.412,23,23,0,0,1,3.175-2.9,21.266,21.266,0,0,1,7.947-3.751h0a24.551,24.551,0,0,1,.661,4.872,25.285,25.285,0,0,1-.392,4.718,23.432,23.432,0,0,1-1.227,4.378,22.454,22.454,0,0,1-2.117,3.925,20.381,20.381,0,0,1-6.182,5.962,20.908,20.908,0,0,1-8.3,2.882Z" transform="translate(-68.396 -270.667)" fill="#638674"/>
            <path id="Trazado_624432" data-name="Trazado 624432" d="M107.2,373.621a22.389,22.389,0,0,1,.285-4.471,24.91,24.91,0,0,1,.988-4.236,26.417,26.417,0,0,1,4.08-7.545,22.806,22.806,0,0,1,14.686-8.731h0a25.27,25.27,0,0,1-.625,9.578,22.826,22.826,0,0,1-4.13,7.96,19.927,19.927,0,0,1-6.76,5.359,20.854,20.854,0,0,1-8.523,2.087Z" transform="translate(-68.653 -273.789)" fill="#91b66a"/>
            <path id="Trazado_624433" data-name="Trazado 624433" d="M88.189,291.229a20.4,20.4,0,0,0,1.666-8.684,21.119,21.119,0,0,0-7.379-15.308,21.1,21.1,0,0,0-7.809-4.117h0a23.02,23.02,0,0,0-.754,8.673,23.334,23.334,0,0,0,7.046,14.617,23.948,23.948,0,0,0,7.23,4.82Z" transform="translate(-64.486 -263.12)" fill="#638674"/>
            <g id="Grupo_894377" data-name="Grupo 894377" transform="translate(22.326 24.809)">
              <path id="Trazado_624434" data-name="Trazado 624434" d="M103.96,394.786c-.186-.019-.242-1.508-.184-4.174.016-1.335.113-2.96.142-4.851s.045-4.041.071-6.418a243.162,243.162,0,0,0-2.625-36.959,249.166,249.166,0,0,0-8.17-36.143c-.314-1.147-.667-2.222-1-3.238s-.639-1.982-.929-2.88c-.577-1.8-1.035-3.369-1.484-4.622-.851-2.526-1.241-3.962-1.069-4.033s.892,1.229,2.047,3.651c.6,1.2,1.208,2.723,1.925,4.486l1.133,2.832c.4,1,.819,2.066,1.2,3.2a190.333,190.333,0,0,1,9.029,36.349A186.844,186.844,0,0,1,105.9,379.4l-.473,6.454c-.172,1.895-.424,3.519-.6,4.847C104.443,393.353,104.145,394.806,103.96,394.786Z" transform="translate(-88.668 -291.465)" fill="#456179"/>
            </g>
          </g>
          <path id="Rectángulo_294568" data-name="Rectángulo 294568" d="M0,0H77.313a0,0,0,0,1,0,0V55.456a13,13,0,0,1-13,13H13a13,13,0,0,1-13-13V0A0,0,0,0,1,0,0Z" transform="translate(4.522 82.932)" fill="#fff" opacity="0.7"/>
          <path id="Trazado_624435" data-name="Trazado 624435" d="M137.892,357.265H55.8a2.132,2.132,0,0,1-2.132-2.133h0A2.132,2.132,0,0,1,55.8,353h82.092a2.132,2.132,0,0,1,2.132,2.132h0A2.133,2.133,0,0,1,137.892,357.265Z" transform="translate(-53.667 -274.333)" fill="#fff" opacity="0.9"/>
          <rect id="Rectángulo_294569" data-name="Rectángulo 294569" width="77.313" height="3.647" transform="translate(4.522 82.932)" fill="#21255c" opacity="0.3"/>
          <g id="Grupo_894379" data-name="Grupo 894379" transform="translate(13.311 88.531)">
            <path id="Trazado_624436" data-name="Trazado 624436" d="M80.472,370.719H69.86a.985.985,0,0,1-.985-.985h0a.985.985,0,0,1,.985-.985H80.472a.985.985,0,0,1,.985.985h0A.985.985,0,0,1,80.472,370.719Z" transform="translate(-68.875 -364.829)" fill="#99a3b0"/>
            <path id="Trazado_624437" data-name="Trazado 624437" d="M87.117,366.239H69.86a.985.985,0,0,1-.985-.985h0a.984.984,0,0,1,.985-.985H87.117a.984.984,0,0,1,.985.985h0A.984.984,0,0,1,87.117,366.239Z" transform="translate(-68.875 -364.27)" fill="#99a3b0"/>
            <path id="Trazado_624438" data-name="Trazado 624438" d="M80.472,375.552H69.86a.984.984,0,0,1-.985-.985h0a.985.985,0,0,1,.985-.985H80.472a.985.985,0,0,1,.985.985h0A.984.984,0,0,1,80.472,375.552Z" transform="translate(-68.875 -365.432)" fill="#99a3b0"/>
            <path id="Trazado_624439" data-name="Trazado 624439" d="M80.472,380.386H69.86a.985.985,0,0,1-.985-.985h0a.984.984,0,0,1,.985-.985H80.472a.984.984,0,0,1,.985.985h0A.985.985,0,0,1,80.472,380.386Z" transform="translate(-68.875 -366.035)" fill="#99a3b0"/>
            <path id="Trazado_624440" data-name="Trazado 624440" d="M87.117,385.219H69.86a.985.985,0,0,1-.985-.985h0a.985.985,0,0,1,.985-.985H87.117a.984.984,0,0,1,.985.985h0A.984.984,0,0,1,87.117,385.219Z" transform="translate(-68.875 -366.638)" fill="#99a3b0"/>
            <path id="Trazado_624441" data-name="Trazado 624441" d="M80.472,390.052H69.86a.984.984,0,0,1-.985-.985h0a.985.985,0,0,1,.985-.985H80.472a.985.985,0,0,1,.985.985h0A.984.984,0,0,1,80.472,390.052Z" transform="translate(-68.875 -367.241)" fill="#99a3b0"/>
            <path id="Trazado_624442" data-name="Trazado 624442" d="M80.472,394.886H69.86a.985.985,0,0,1-.985-.985h0a.984.984,0,0,1,.985-.985H80.472a.984.984,0,0,1,.985.985h0A.985.985,0,0,1,80.472,394.886Z" transform="translate(-68.875 -367.844)" fill="#99a3b0"/>
            <path id="Trazado_624443" data-name="Trazado 624443" d="M80.472,399.719H69.86a.985.985,0,0,1-.985-.985h0a.985.985,0,0,1,.985-.985H80.472a.985.985,0,0,1,.985.985h0A.985.985,0,0,1,80.472,399.719Z" transform="translate(-68.875 -368.447)" fill="#99a3b0"/>
            <path id="Trazado_624444" data-name="Trazado 624444" d="M87.117,404.552H69.86a.984.984,0,0,1-.985-.985h0a.985.985,0,0,1,.985-.985H87.117a.984.984,0,0,1,.985.985h0A.984.984,0,0,1,87.117,404.552Z" transform="translate(-68.875 -369.05)" fill="#99a3b0"/>
            <path id="Trazado_624445" data-name="Trazado 624445" d="M80.472,409.386H69.86a.985.985,0,0,1-.985-.985h0a.984.984,0,0,1,.985-.985H80.472a.984.984,0,0,1,.985.985h0A.985.985,0,0,1,80.472,409.386Z" transform="translate(-68.875 -369.653)" fill="#99a3b0"/>
            <path id="Trazado_624446" data-name="Trazado 624446" d="M80.472,414.219H69.86a.985.985,0,0,1-.985-.985h0a.985.985,0,0,1,.985-.985H80.472a.985.985,0,0,1,.985.985h0A.985.985,0,0,1,80.472,414.219Z" transform="translate(-68.875 -370.256)" fill="#99a3b0"/>
            <path id="Trazado_624447" data-name="Trazado 624447" d="M80.472,419.052H69.86a.984.984,0,0,1-.985-.985h0a.985.985,0,0,1,.985-.985H80.472a.985.985,0,0,1,.985.985h0A.984.984,0,0,1,80.472,419.052Z" transform="translate(-68.875 -370.859)" fill="#99a3b0"/>
            <path id="Trazado_624448" data-name="Trazado 624448" d="M87.117,423.886H69.86a.985.985,0,0,1-.985-.985h0a.984.984,0,0,1,.985-.985H87.117a.984.984,0,0,1,.985.985h0A.984.984,0,0,1,87.117,423.886Z" transform="translate(-68.875 -371.462)" fill="#99a3b0"/>
          </g>
          <g id="Grupo_894380" data-name="Grupo 894380" transform="translate(60.683 88.531)" opacity="0.9">
            <path id="Trazado_624449" data-name="Trazado 624449" d="M128.361,376.506h0A5.361,5.361,0,0,1,123,371.145v-1.514a5.361,5.361,0,0,1,5.361-5.361h0a5.361,5.361,0,0,1,5.361,5.361v1.514A5.361,5.361,0,0,1,128.361,376.506Z" transform="translate(-123 -364.27)" fill="#fff"/>
            <path id="Trazado_624450" data-name="Trazado 624450" d="M128.361,416.759h0A5.361,5.361,0,0,1,123,411.4V389.736a5.361,5.361,0,0,1,5.361-5.361h0a5.361,5.361,0,0,1,5.361,5.361V411.4A5.361,5.361,0,0,1,128.361,416.759Z" transform="translate(-123 -366.778)" fill="#fff"/>
          </g>
        </g>
        <g id="Grupo_894391" data-name="Grupo 894391" transform="translate(-11507.778 -11953.821)">
          <g id="Grupo_894388" data-name="Grupo 894388" transform="translate(44.11 0)">
            <g id="Grupo_894386" data-name="Grupo 894386">
              <g id="Grupo_894383" data-name="Grupo 894383" transform="translate(27.149)">
                <path id="Trazado_624451" data-name="Trazado 624451" d="M519.978,301.422a17.858,17.858,0,0,0-.585-12.282,16.4,16.4,0,0,0-8.536-8.815h0a16.55,16.55,0,0,0-1.363,6.724,15.222,15.222,0,0,0,1.341,6.275,14.672,14.672,0,0,0,9.143,8.1Z" transform="translate(-497.901 -272.2)" fill="#91b66a"/>
                <path id="Trazado_624452" data-name="Trazado 624452" d="M515.464,317.585a17.7,17.7,0,0,0-1.651-12.189,16.273,16.273,0,0,0-9.27-8.042h0a17.592,17.592,0,0,0-.771,6.813,16.446,16.446,0,0,0,1.868,6.13,14.824,14.824,0,0,0,9.824,7.287Z" transform="translate(-497.179 -274.325)" fill="#638674"/>
                <path id="Trazado_624453" data-name="Trazado 624453" d="M512.335,334.082a17.089,17.089,0,0,0-.29-6.324,17.73,17.73,0,0,0-6.577-10.2,15.334,15.334,0,0,0-5.723-2.686h0a17.524,17.524,0,0,0-.466,3.479,18.043,18.043,0,0,0,.28,3.371,16.826,16.826,0,0,0,.88,3.133,16.188,16.188,0,0,0,1.512,2.815,14.762,14.762,0,0,0,4.427,4.3,15.132,15.132,0,0,0,5.959,2.115Z" transform="translate(-496.627 -276.51)" fill="#91b66a"/>
                <path id="Trazado_624454" data-name="Trazado 624454" d="M510.636,350.792a16.033,16.033,0,0,0-.157-3.219,17.61,17.61,0,0,0-.674-3.055,18.686,18.686,0,0,0-2.877-5.453,16.358,16.358,0,0,0-10.519-6.34h0a17.973,17.973,0,0,0,.4,6.844,16.408,16.408,0,0,0,2.908,5.725,14.758,14.758,0,0,0,10.92,5.5Z" transform="translate(-496.249 -278.737)" fill="#638674"/>
                <path id="Trazado_624455" data-name="Trazado 624455" d="M521.472,303a14.2,14.2,0,0,1,8.079-8.888,15.322,15.322,0,0,1,12.046.2h0a14.94,14.94,0,0,1-3.257,4.745,16.95,16.95,0,0,1-4.789,3.215,17.267,17.267,0,0,1-12.079.73Z" transform="translate(-499.396 -273.778)" fill="#638674"/>
                <path id="Trazado_624456" data-name="Trazado 624456" d="M517.141,318.868a14.3,14.3,0,0,1,7.274-9.555,15.429,15.429,0,0,1,12.017-.848h0a13.907,13.907,0,0,1-2.832,5.016,15.461,15.461,0,0,1-4.506,3.617,17.057,17.057,0,0,1-11.953,1.771Z" transform="translate(-498.855 -275.607)" fill="#91b66a"/>
                <path id="Trazado_624457" data-name="Trazado 624457" d="M514.2,335.045a14.741,14.741,0,0,1,2.171-5.9,14.442,14.442,0,0,1,9.893-6.372,16.371,16.371,0,0,1,6.289.255h0a14.22,14.22,0,0,1-.967,2.761,13.5,13.5,0,0,1-1.428,2.48,14.971,14.971,0,0,1-1.918,2.163,15.82,15.82,0,0,1-2.256,1.828,17.4,17.4,0,0,1-5.5,2.423,16.635,16.635,0,0,1-6.283.361Z" transform="translate(-498.488 -277.472)" fill="#638674"/>
                <path id="Trazado_624458" data-name="Trazado 624458" d="M512.687,351.41a15.886,15.886,0,0,1,.487-3.175,14.2,14.2,0,0,1,1.169-2.887,13.775,13.775,0,0,1,3.879-4.6,15.35,15.35,0,0,1,11.685-2.891h0a13.585,13.585,0,0,1-1.94,5.426,15.492,15.492,0,0,1-3.8,4.333,17.167,17.167,0,0,1-11.48,3.789Z" transform="translate(-498.3 -279.356)" fill="#91b66a"/>
                <path id="Trazado_624459" data-name="Trazado 624459" d="M524.777,291.459a17.1,17.1,0,0,0,5.153-3.549,16.714,16.714,0,0,0,4.871-10.639,16.481,16.481,0,0,0-.695-6.229h0a15.233,15.233,0,0,0-5.541,3.1,15.258,15.258,0,0,0-5.08,11.1,14.778,14.778,0,0,0,1.293,6.225Z" transform="translate(-499.646 -271.042)" fill="#638674"/>
                <g id="Grupo_894382" data-name="Grupo 894382" transform="translate(13.43 18.029)">
                  <path id="Trazado_624460" data-name="Trazado 624460" d="M512.788,366.04c-.134.01-.321-1.042-.546-2.957-.1-.958-.252-2.131-.345-3.5-.07-1.37-.15-2.928-.238-4.648a145.374,145.374,0,0,1,1.694-26.889,147.634,147.634,0,0,1,6.459-26.157c.536-1.639,1.148-3.078,1.63-4.36.5-1.274.926-2.373,1.345-3.244.807-1.753,1.311-2.7,1.435-2.647s-.141,1.086-.726,2.913c-.31.908-.628,2.038-1.029,3.339-.382,1.307-.9,2.767-1.346,4.418a198.741,198.741,0,0,0-5.847,26.031,194.4,194.4,0,0,0-2.24,26.585c-.019,1.71-.036,3.259-.051,4.62.005,1.359.01,2.532.014,3.492C512.989,364.96,512.922,366.03,512.788,366.04Z" transform="translate(-511.593 -291.641)" fill="#456179"/>
                </g>
              </g>
              <g id="Grupo_894385" data-name="Grupo 894385" transform="translate(0 32.949)">
                <path id="Trazado_624461" data-name="Trazado 624461" d="M483.165,329.4a8.772,8.772,0,0,0-7.247-4.745,17.9,17.9,0,0,0-10.688,2.481h0c1.292,2.308,3.87,3.653,7.085,4.087a20.231,20.231,0,0,0,10.85-1.823Z" transform="translate(-465.23 -310.667)" fill="#91b66a"/>
                <path id="Trazado_624462" data-name="Trazado 624462" d="M487.569,339.656c-1.057-2.776-3.673-4.616-6.9-5.233a17.965,17.965,0,0,0-10.833,1.739h0a7.017,7.017,0,0,0,2.622,2.938,11.49,11.49,0,0,0,4.171,1.628,20.078,20.078,0,0,0,10.94-1.072Z" transform="translate(-465.805 -311.868)" fill="#638674"/>
                <path id="Trazado_624463" data-name="Trazado 624463" d="M491.267,350.174a8.8,8.8,0,0,0-6.534-5.689,17.936,17.936,0,0,0-10.932,1h0a7.382,7.382,0,0,0,2.417,3.111,12.215,12.215,0,0,0,4.047,1.911,20.219,20.219,0,0,0,11-.328h0Z" transform="translate(-466.299 -313.096)" fill="#91b66a"/>
                <path id="Trazado_624464" data-name="Trazado 624464" d="M494.236,360.915a7.517,7.517,0,0,0-2.144-3.755,10.184,10.184,0,0,0-3.979-2.369,17.912,17.912,0,0,0-10.963.243h0a6.924,6.924,0,0,0,2.2,3.267,11.474,11.474,0,0,0,3.9,2.184,20.148,20.148,0,0,0,10.987.43Z" transform="translate(-466.717 -314.346)" fill="#638674"/>
                <path id="Trazado_624465" data-name="Trazado 624465" d="M485.611,327.693c-1.244-2.684-.947-5.811.495-8.848a18.676,18.676,0,0,1,7.686-8h0a9.913,9.913,0,0,1-.042,9.355,16.7,16.7,0,0,1-8.138,7.5Z" transform="translate(-467.675 -308.956)" fill="#638674"/>
                <path id="Trazado_624466" data-name="Trazado 624466" d="M490.018,338.119c-1.053-2.765-.561-5.856,1.1-8.8a18.6,18.6,0,0,1,8.219-7.457h0a9.339,9.339,0,0,1,.828,4.672,11.394,11.394,0,0,1-1.509,4.655,16.82,16.82,0,0,1-8.642,6.926Z" transform="translate(-468.253 -310.331)" fill="#91b66a"/>
                <path id="Trazado_624467" data-name="Trazado 624467" d="M493.7,348.83c-.873-2.825-.151-5.882,1.7-8.7a18.649,18.649,0,0,1,8.7-6.876h0a8.913,8.913,0,0,1,.509,4.716,10.814,10.814,0,0,1-1.828,4.542,16.691,16.691,0,0,1-9.081,6.314h0Z" transform="translate(-468.736 -311.753)" fill="#638674"/>
                <path id="Trazado_624468" data-name="Trazado 624468" d="M496.642,359.78a8.95,8.95,0,0,1,.129-4.354,12.808,12.808,0,0,1,2.164-4.207,18.658,18.658,0,0,1,9.165-6.268h0a9.459,9.459,0,0,1,.186,4.74,11.4,11.4,0,0,1-2.14,4.409,16.761,16.761,0,0,1-9.5,5.68Z" transform="translate(-469.123 -313.211)" fill="#91b66a"/>
                <path id="Trazado_624469" data-name="Trazado 624469" d="M481.334,321.769a10.55,10.55,0,0,0,1.209-4.718,7.975,7.975,0,0,0-4.19-7.124,10.726,10.726,0,0,0-4.7-1.241h0c-2.526,6.727.6,12.01,7.684,13.082Z" transform="translate(-466.172 -308.687)" fill="#638674"/>
                <g id="Grupo_894384" data-name="Grupo 894384" transform="translate(14.324 11.548)">
                  <path id="Trazado_624470" data-name="Trazado 624470" d="M497.275,370.447c-.571.081-2.136-11.309-6.523-24.7-4.278-13.424-9.6-23.613-9.126-23.862.216-.116,1.814,2.291,3.953,6.44a114.1,114.1,0,0,1,6.915,16.86,112.79,112.79,0,0,1,4.227,17.727c.334,2.309.551,4.183.614,5.49C497.415,369.705,497.4,370.431,497.275,370.447Z" transform="translate(-481.596 -321.881)" fill="#456179"/>
                </g>
              </g>
            </g>
            <g id="Grupo_894387" data-name="Grupo 894387" transform="translate(2.875 80.134)">
              <rect id="Rectángulo_294570" data-name="Rectángulo 294570" width="63.601" height="12.121" fill="#a64f5a"/>
              <path id="Trazado_624471" data-name="Trazado 624471" d="M516.709,428.646H484.947l-12.322-52.2h56.405Z" transform="translate(-469.028 -364.326)" fill="#8c404c"/>
              <path id="Trazado_624472" data-name="Trazado 624472" d="M529.031,376.447H472.625l1.212,5.135h53.981Z" transform="translate(-469.028 -364.326)" fill="#21255c" opacity="0.3"/>
            </g>
          </g>
          <g id="Grupo_894390" data-name="Grupo 894390" transform="translate(0 98.456)">
            <path id="Rectángulo_294571" data-name="Rectángulo 294571" d="M0,0H19.969a7,7,0,0,1,7,7V59.811a7,7,0,0,1-7,7H0a0,0,0,0,1,0,0V0A0,0,0,0,1,0,0Z" transform="translate(76.584 13.785) rotate(90)" fill="#7dd3e9"/>
            <path id="Rectángulo_294572" data-name="Rectángulo 294572" d="M0,0H77.313a0,0,0,0,1,0,0V28.741a13,13,0,0,1-13,13H13a13,13,0,0,1-13-13V0A0,0,0,0,1,0,0Z" transform="translate(4.522 4.265)" fill="#fff" opacity="0.7"/>
            <path id="Trazado_624473" data-name="Trazado 624473" d="M499.058,387.8H416.965a2.133,2.133,0,0,1-2.132-2.133h0a2.132,2.132,0,0,1,2.132-2.132h82.092a2.132,2.132,0,0,1,2.133,2.132h0A2.133,2.133,0,0,1,499.058,387.8Z" transform="translate(-414.833 -383.532)" fill="#fff" opacity="0.9"/>
            <rect id="Rectángulo_294573" data-name="Rectángulo 294573" width="77.313" height="3.647" transform="translate(4.522 4.265)" fill="#21255c" opacity="0.3"/>
            <g id="Grupo_894389" data-name="Grupo 894389" transform="translate(59.261 11.26)" opacity="0.9">
              <path id="Trazado_624474" data-name="Trazado 624474" d="M489.738,403.445h-3.673a3.524,3.524,0,0,1-3.525-3.524h0a3.525,3.525,0,0,1,3.525-3.525h3.673a3.525,3.525,0,0,1,3.525,3.525h0A3.524,3.524,0,0,1,489.738,403.445Z" transform="translate(-482.541 -396.397)" fill="#fff"/>
              <rect id="Rectángulo_294574" data-name="Rectángulo 294574" width="10.722" height="18.656" rx="4.027" transform="translate(0 10.137)" fill="#fff"/>
            </g>
          </g>
        </g>
      </g>
    </g>
    <path id="Trazado_251720" data-name="Trazado 251720" d="M177.633,339.23H92.1L49.33,413.313,92.1,487.384h85.531L220.4,413.313Z" transform="translate(-11304.807 -12773.918)" fill="#dbefec" opacity="0.8"/>
    <path id="Trazado_251721" data-name="Trazado 251721" d="M172.909,344.83H94.822L55.79,412.449l39.032,67.62h78.087l39.044-67.62Z" transform="translate(-11303.812 -12773.055)" fill="none" stroke="#169788" stroke-miterlimit="10" stroke-width="0.98" stroke-dasharray="2"/>
    <g id="Grupo_894402" data-name="Grupo 894402" transform="translate(-11272.836 -12469.325)">
      <circle id="Elipse_6307" data-name="Elipse 6307" cx="40.009" cy="40.009" r="40.009" transform="translate(63.386 72.747)" fill="#fff"/>
      <g id="Grupo_894396" data-name="Grupo 894396" transform="translate(74.252 83.613)">
        <g id="Grupo_894392" data-name="Grupo 894392" transform="translate(18.424 18.424)">
          <rect id="Rectángulo_294575" data-name="Rectángulo 294575" width="0.927" height="10.561" transform="translate(0 13.969) rotate(-45)" fill="#e26c1e"/>
          <rect id="Rectángulo_294576" data-name="Rectángulo 294576" width="0.927" height="15.419" transform="translate(0.501 10.033) rotate(-45.002)" fill="#e26c1e"/>
          <rect id="Rectángulo_294577" data-name="Rectángulo 294577" width="0.927" height="17.273" transform="translate(2.065 7.158) rotate(-45)" fill="#e26c1e"/>
          <rect id="Rectángulo_294578" data-name="Rectángulo 294578" width="0.927" height="17.666" transform="translate(4.145 4.8) rotate(-45)" fill="#e26c1e"/>
          <rect id="Rectángulo_294579" data-name="Rectángulo 294579" width="0.927" height="17.273" transform="translate(6.503 2.72) rotate(-45)" fill="#e26c1e"/>
          <rect id="Rectángulo_294580" data-name="Rectángulo 294580" width="0.927" height="15.419" transform="translate(9.377 1.157) rotate(-44.998)" fill="#e26c1e"/>
          <rect id="Rectángulo_294581" data-name="Rectángulo 294581" width="0.927" height="10.561" transform="translate(13.314 0.656) rotate(-45)" fill="#e26c1e"/>
        </g>
        <g id="Grupo_894393" data-name="Grupo 894393" transform="translate(3.252 40.1)">
          <rect id="Rectángulo_294582" data-name="Rectángulo 294582" width="0.927" height="10.561" transform="translate(14.934 7.468) rotate(135)" fill="#e26c1e"/>
          <rect id="Rectángulo_294583" data-name="Rectángulo 294583" width="0.927" height="15.419" transform="translate(14.433 11.404) rotate(135.002)" fill="#e26c1e"/>
          <rect id="Rectángulo_294584" data-name="Rectángulo 294584" width="0.927" height="17.273" transform="translate(12.87 14.279) rotate(135)" fill="#e26c1e"/>
        </g>
        <g id="Grupo_894394" data-name="Grupo 894394" transform="translate(40.1 3.252)">
          <rect id="Rectángulo_294585" data-name="Rectángulo 294585" width="0.927" height="10.561" transform="translate(0 7.467) rotate(-45)" fill="#e26c1e"/>
          <rect id="Rectángulo_294586" data-name="Rectángulo 294586" width="0.927" height="15.419" transform="translate(0.501 3.53) rotate(-45.002)" fill="#e26c1e"/>
          <rect id="Rectángulo_294587" data-name="Rectángulo 294587" width="0.927" height="17.273" transform="translate(2.065 0.656) rotate(-45)" fill="#e26c1e"/>
        </g>
        <g id="Grupo_894395" data-name="Grupo 894395" transform="translate(12.514 12.515)">
          <path id="Trazado_624475" data-name="Trazado 624475" d="M137.327,181.468a15.984,15.984,0,0,1,18.827-18.827c-.067-.327-.142-.655-.229-.981a19.942,19.942,0,0,1-.515-2.612,19.42,19.42,0,0,0-21.675,21.675,20.031,20.031,0,0,1,2.612.515C136.672,181.326,137,181.4,137.327,181.468Z" transform="translate(-130.112 -155.426)" fill="#81ad20"/>
          <path id="Trazado_624476" data-name="Trazado 624476" d="M191.685,155.345c.067.328.142.655.229.981a20.032,20.032,0,0,1,.515,2.612,19.178,19.178,0,0,0,16.137-5.539l-2.421-2.42A15.805,15.805,0,0,1,191.685,155.345Z" transform="translate(-162.795 -150.979)" fill="#81ad20"/>
          <path id="Trazado_624477" data-name="Trazado 624477" d="M130.031,217a15.8,15.8,0,0,1-4.367,14.461l2.421,2.421a19.178,19.178,0,0,0,5.539-16.137,20.03,20.03,0,0,1-2.612-.515C130.685,217.141,130.358,217.066,130.031,217Z" transform="translate(-125.664 -188.109)" fill="#81ad20"/>
        </g>
        <path id="Trazado_624478" data-name="Trazado 624478" d="M134.878,138.517a19.943,19.943,0,0,0,.515,2.612c.088.326.162.654.229.981A15.985,15.985,0,0,1,116.8,160.937c-.327-.067-.655-.142-.981-.229a20.03,20.03,0,0,0-2.612-.515,19.18,19.18,0,0,0-16.137,5.539l2.42,2.421a15.805,15.805,0,0,1,14.461-4.367c.327.067.655.142.981.229a20.029,20.029,0,0,0,2.612.515,19.421,19.421,0,0,0,21.676-21.676,20.033,20.033,0,0,0-.515-2.612c-.088-.326-.162-.653-.229-.981a15.8,15.8,0,0,1,4.367-14.46l-2.421-2.421A19.177,19.177,0,0,0,134.878,138.517Z" transform="translate(-97.066 -122.38)" fill="#148d80"/>
      </g>
      <g id="Grupo_894397" data-name="Grupo 894397" transform="translate(76.732 87.968)">
        <path id="Trazado_624479" data-name="Trazado 624479" d="M108.118,189.506a2.692,2.692,0,1,1-2.692-2.693A2.693,2.693,0,0,1,108.118,189.506Z" transform="translate(-102.733 -162.973)" fill="#148d80"/>
        <path id="Trazado_624480" data-name="Trazado 624480" d="M114.941,171.987a1.658,1.658,0,1,1-1.658-1.658A1.658,1.658,0,0,1,114.941,171.987Z" transform="translate(-107.734 -153.702)" fill="#148d80"/>
        <path id="Trazado_624481" data-name="Trazado 624481" d="M111.578,149.337a1.346,1.346,0,1,1-1.346-1.346A1.346,1.346,0,0,1,111.578,149.337Z" transform="translate(-106.193 -141.139)" fill="#148d80"/>
        <path id="Trazado_624482" data-name="Trazado 624482" d="M131.794,145.741a1.225,1.225,0,1,1-1.226-1.225A1.225,1.225,0,0,1,131.794,145.741Z" transform="translate(-117.699 -139.185)" fill="#148d80"/>
        <path id="Trazado_624483" data-name="Trazado 624483" d="M150.765,134.8a2.466,2.466,0,1,1-2.466-2.466A2.466,2.466,0,0,1,150.765,134.8Z" transform="translate(-126.973 -132.333)" fill="#148d80"/>
        <path id="Trazado_624484" data-name="Trazado 624484" d="M215.389,190.619a2.207,2.207,0,1,1-2.208-2.208A2.207,2.207,0,0,1,215.389,190.619Z" transform="translate(-163.609 -163.872)" fill="#148d80"/>
        <path id="Trazado_624485" data-name="Trazado 624485" d="M225.528,220.056a1.389,1.389,0,1,1-1.389-1.389A1.389,1.389,0,0,1,225.528,220.056Z" transform="translate(-170.232 -180.888)" fill="#148d80"/>
        <circle id="Elipse_6308" data-name="Elipse 6308" cx="1.754" cy="1.754" r="1.754" transform="translate(41.286 37.049)" fill="#148d80"/>
        <circle id="Elipse_6309" data-name="Elipse 6309" cx="4.47" cy="4.47" r="4.47" transform="translate(61.616 36.827) rotate(-77.571)" fill="#148d80"/>
        <circle id="Elipse_6310" data-name="Elipse 6310" cx="2.008" cy="2.008" r="2.008" transform="translate(57.769 18.813)" fill="#148d80"/>
        <path id="Trazado_624486" data-name="Trazado 624486" d="M176.614,240.4a1.4,1.4,0,1,1-1.4-1.4A1.4,1.4,0,0,1,176.614,240.4Z" transform="translate(-142.705 -192.324)" fill="#148d80"/>
      </g>
      <g id="Grupo_894398" data-name="Grupo 894398" transform="translate(63.19 81.427)">
        <path id="Trazado_624487" data-name="Trazado 624487" d="M86.058,132.312a.654.654,0,0,1-.464-.192L71.98,118.5a.656.656,0,1,1,.928-.928l13.614,13.614a.656.656,0,0,1-.464,1.121Z" transform="translate(-71.787 -117.384)" fill="#81ad20"/>
      </g>
      <g id="Grupo_894399" data-name="Grupo 894399" transform="translate(87.512 62.711)">
        <path id="Trazado_624488" data-name="Trazado 624488" d="M135.116,93.828a.657.657,0,0,1-.61-.415l-7.089-17.9a.656.656,0,0,1,1.22-.484l7.089,17.9a.657.657,0,0,1-.61.9Z" transform="translate(-127.37 -74.614)" fill="#81ad20"/>
      </g>
      <g id="Grupo_894400" data-name="Grupo 894400" transform="translate(94.534 55.769)">
        <rect id="Rectángulo_294588" data-name="Rectángulo 294588" width="13.201" height="1.167" transform="translate(0 0)" fill="#fff"/>
        <rect id="Rectángulo_294589" data-name="Rectángulo 294589" width="13.201" height="1.167" transform="translate(0 2.224)" fill="#fff"/>
        <rect id="Rectángulo_294590" data-name="Rectángulo 294590" width="7.658" height="1.167" transform="translate(0 4.449)" fill="#fff"/>
      </g>
      <g id="Grupo_894401" data-name="Grupo 894401" transform="translate(128.119 59.525)">
        <rect id="Rectángulo_294591" data-name="Rectángulo 294591" width="13.201" height="1.167" transform="translate(0)" fill="#fff"/>
        <rect id="Rectángulo_294592" data-name="Rectángulo 294592" width="13.201" height="1.167" transform="translate(0 2.188)" fill="#fff"/>
        <rect id="Rectángulo_294593" data-name="Rectángulo 294593" width="13.201" height="1.167" transform="translate(0 4.376)" fill="#fff"/>
        <rect id="Rectángulo_294594" data-name="Rectángulo 294594" width="8.952" height="1.167" transform="translate(0 6.563)" fill="#fff"/>
      </g>
      <circle id="Elipse_6311" data-name="Elipse 6311" cx="4.777" cy="4.777" r="4.777" transform="translate(61.022 129.993)" fill="#148d80"/>
      <circle id="Elipse_6312" data-name="Elipse 6312" cx="3.61" cy="3.61" r="3.61" transform="translate(96.175 160.074)" fill="#81ad20"/>
      <circle id="Elipse_6313" data-name="Elipse 6313" cx="1.583" cy="1.583" r="1.583" transform="translate(109.236 158.522)" fill="#fda829"/>
      <circle id="Elipse_6314" data-name="Elipse 6314" cx="4.303" cy="4.303" r="4.303" transform="translate(56.501 74.737)" fill="#fff"/>
      <circle id="Elipse_6315" data-name="Elipse 6315" cx="4.303" cy="4.303" r="4.303" transform="translate(80.667 57.947) rotate(-31.506)" fill="#fff"/>
    </g>
  </g>
</svg>
