<svg xmlns="http://www.w3.org/2000/svg" xmlns:xlink="http://www.w3.org/1999/xlink" width="142.698" height="141.855" viewBox="0 0 142.698 141.855">
  <defs>
    <clipPath id="clip-path">
      <ellipse id="Elipse_3994" data-name="Elipse 3994" cx="68.496" cy="68.05" rx="68.496" ry="68.05" transform="translate(0)" fill="#f2f6fe"/>
    </clipPath>
  </defs>
  <g id="Grupo_894601" data-name="Grupo 894601" transform="translate(-727.808 -8799.313)">
    <g id="Grupo_894420" data-name="Grupo 894420" transform="translate(9400.808 7072.831)">
      <path id="Trazado_99503" data-name="Trazado 99503" d="M968.645,321.3A68.266,68.266,0,0,1,900.42,253" transform="translate(-9572.42 1546.033)" fill="none" stroke="#fefefe" stroke-miterlimit="10" stroke-width="2"/>
      <ellipse id="Elipse_3992" data-name="Elipse 3992" cx="69.561" cy="69.138" rx="69.561" ry="69.138" transform="translate(-8669.424 1726.482)" fill="#5f4ad9"/>
      <path id="Trazado_175808" data-name="Trazado 175808" d="M68.5,0c37.829,0,68.5,30.476,68.5,68.069s-30.667,68.069-68.5,68.069S0,105.662,0,68.069,30.667,0,68.5,0Z" transform="translate(-8669.456 1727.77)" fill="#d3e6b1"/>
    </g>
    <g id="Grupo_877832" data-name="Grupo 877832" transform="translate(581.937 8164.833)">
      <path id="Trazado_617726" data-name="Trazado 617726" d="M286.511,701.432c.06.2.113.4.181.59a1.2,1.2,0,0,1-.439,1.477,1.18,1.18,0,0,1-1.538-.049c-.346-.277-.649-.607-1-.939-1.391,1.385-2.756,2.747-4.124,4.107-1,1-1.513.993-2.53-.021-.993-.99-1.988-1.978-2.974-2.976-.847-.857-.841-1.432.022-2.3,1.4-1.4,2.8-2.8,4.2-4.2-1.663-1.933-1.669-1.938.13-3.729.542-.54,1.122-1.042,1.9-1.758a8.245,8.245,0,0,1-.993-.742,1.284,1.284,0,0,1,.014-2.017c.108-.116.224-.225.336-.338l18.688-18.7c1.312-1.312,1.662-1.316,2.986-.033.094.091.2.175.249.221l3.707-3.688a5.883,5.883,0,0,1-.885-.661,1.262,1.262,0,1,1,1.774-1.795c.583.538,1.128,1.117,1.689,1.678,2.919,2.919,5.848,5.828,8.743,8.771a2.089,2.089,0,0,1,.618,1.281,1.333,1.333,0,0,1-.721,1,1.888,1.888,0,0,1-1.306-.167,3.716,3.716,0,0,1-.886-.809l-3.688,3.712a5.918,5.918,0,0,1,.9.683,1.2,1.2,0,0,1,.006,1.777c-.571.624-1.178,1.217-1.794,1.8a1.341,1.341,0,0,1-1.811.043c-.877-1.238.143-1.947.778-2.626l-2.161-2.307-3.189-3.065c-.086.076-.211.174-.322.285q-6.371,6.369-12.737,12.742a3.759,3.759,0,0,0-.288.367l-4.223,4.512L291,698.735c.123-.111.321-.276.5-.458,1.03-1.024,2.036-2.072,3.093-3.066a1.029,1.029,0,0,0,.317-1.3,6.9,6.9,0,0,1,.171-5.459,24.537,24.537,0,0,1,1.434-2.432,9.441,9.441,0,0,1,5.067-2.26,8.451,8.451,0,0,1,1.782.155c1.061.319,2.082.768,3.12,1.163.414.4.862.777,1.237,1.213a7.444,7.444,0,0,1,1.463,7.838.956.956,0,0,0,.2,1.168,29.747,29.747,0,0,1,7.931,18.989,1.767,1.767,0,0,0,.486,1.065c4.071,3.96,5.579,8.723,4.024,14.181-1.583,5.554-5.451,8.834-11.107,9.978a12.249,12.249,0,0,1-1.972.181c-1,.037-1.34-.25-1.606-1.253.249-1,.56-1.238,1.586-1.284a11.063,11.063,0,0,0,6.829-2.531c5.359-3.968,5.783-12.257.871-17.056-4.859-4.747-12.977-4.249-16.888,1.036a10.575,10.575,0,0,0-2.516,6.767c-.068,3.753-.021,7.508-.021,11.262,0,.152.021.3.038.53,2.049,0,4.051,0,6.053,0,1.091,0,1.357.205,1.7,1.273-.329,1.049-.613,1.267-1.694,1.268q-3.523,0-7.046,0c-1.023,0-1.346-.262-1.607-1.253v-5.085H275.736c-2.368-.2-4.92,1.672-5.1,3.8h.87q9.4,0,18.792,0c1.1,0,1.426.264,1.647,1.287-.257.968-.587,1.252-1.534,1.252q-10.558.006-21.117,0c-1.063,0-1.522-.506-1.5-1.586a7.62,7.62,0,0,1,7.62-7.3c6.033-.028,12.066-.008,18.1-.008h.906v-3.26c-1.272-.126-2.553-.257-3.835-.379-3.475-.329-6.96-.578-10.423-1a6.593,6.593,0,0,1-5.7-4.736c-.043-.125-.08-.252-.116-.379s-.063-.243-.1-.4c-1.27,0-2.511.007-3.752,0a6.367,6.367,0,0,1-6.454-5.5c-.25-1.54.238-2.12,1.787-2.12h19.211c1.5,0,2.062.6,1.746,2.064a29.044,29.044,0,0,1-.989,3.017h1.992c2.779,0,5.557.008,8.335-.013a1.122,1.122,0,0,0,.808-.289,14.264,14.264,0,0,1,10.058-5.991,26.7,26.7,0,0,0-.688-3.3c-.6-1.769-1.314-3.5-2.059-5.217a1.488,1.488,0,0,1,.316-1.982,1.314,1.314,0,0,1,1.895.71,24.71,24.71,0,0,1,2.951,9.038.842.842,0,0,0,.833.855,15.192,15.192,0,0,1,2.084.424c.767.215,1.512.509,2.425.824l-.535-2.993a23.331,23.331,0,0,0-3.357-8.715c-.983-1.541-2.223-2.918-3.347-4.368-.092-.012-.226-.069-.269-.029a8.538,8.538,0,0,1-4.179,1.989c-3.093-.023-3.883-.3-6.463-2.267-1.432,1.444-2.872,2.9-4.32,4.354-1.121,1.123-1.576,1.111-2.7.011-.463-.455-.968-.867-1.454-1.3-.821-.85-1.635-1.708-2.465-2.55q-1.637-1.659-3.3-3.289c-.133-.13-.331-.677-.587-.063l-1.537,1.23,4.546,4.7Zm-7.129-1.751-2.726,2.9,1.284,1.262c.207.071.532.263.605.193,1.132-1.078,2.232-2.19,3.325-3.28l-1.762-1.831Zm25.1-28.58c-.333.342-1.23.52-.59,1.2,1.481,1.583,3.042,3.092,4.6,4.6a.72.72,0,0,0,.7.033c1.092-1.035,2.143-2.111,3.264-3.233L311.3,672.69l-4.229-4.4Zm-34.79,44.487h-2.835a3.543,3.543,0,0,0,3.428,2.509q5.114.038,10.229,0a3.336,3.336,0,0,0,2.717-1.233l.94-1.275Zm15.577,5.076h-8.223a3.82,3.82,0,0,0,3.253,2.977c1.226.159,2.464.23,3.7.348,1.991.191,3.981.391,5.972.583,1.284.124,2.569.238,3.853.364.379.037.654,0,.736-.473.221-1.257.477-2.509.726-3.8H293.5Zm-.672-33.376-2.549,2.652,1.582,1.625,3.278-3.113c.142-.116.295-.222.424-.351q6.985-6.98,13.965-13.965a1.254,1.254,0,0,0,.191-.229l-1.681-2.018c-.218.271-.366.494-.551.68q-4.76,4.774-9.528,9.54Q287.15,684.69,284.593,687.289Zm13.7.825a5.028,5.028,0,0,0,7.037,7.154,4.643,4.643,0,0,0,1.746-4.7,5.04,5.04,0,0,0-8.783-2.456Z" transform="translate(-66.239 -0.012)" fill="#454b52"/>
      <path id="Trazado_617727" data-name="Trazado 617727" d="M196.825,671.48a1.3,1.3,0,0,1,1.817.417c3.721,5.816,1.739,11.868-2.89,14.715a10.146,10.146,0,0,1-7.105,1.272c-.94-.147-1.883-.267-2.825-.4-3.614-.519-7.482-5.341-5.207-10.054a4.479,4.479,0,0,0,.182-3.612,8.415,8.415,0,0,1-.583-5.335,6.883,6.883,0,0,1,7.679-4.934,11.7,11.7,0,0,1,6.561,2.7,13.565,13.565,0,0,1,1.446,1.575,1.391,1.391,0,0,1-.063,2.165c-.994.312-1.325.219-1.965-.64a6.849,6.849,0,0,0-3.355-2.558c-1.721-.557-3.474-1.187-5.316-.424a4.066,4.066,0,0,0-2.4,5.321,9.371,9.371,0,0,1-.042,7.37c-1.1,2.52,1.1,5.7,3.881,6.015,1.1.125,2.2.327,3.3.411a6.716,6.716,0,0,0,4.649-1.189,12.452,12.452,0,0,0,1.673-1.41c2.217-2.635,2.355-6,.447-9.274C196.123,672.593,196.136,672.341,196.825,671.48Z" fill="#454b52"/>
      <path id="Trazado_617728" data-name="Trazado 617728" d="M438.508,939.815a11.063,11.063,0,0,1-6.829,2.531c-1.026.046-1.338.284-1.586,1.284l-2.352,0c-.338-1.067-.6-1.271-1.7-1.273-2,0-4,0-6.053,0-.017-.227-.038-.379-.038-.53,0-3.754-.047-7.509.021-11.262a10.575,10.575,0,0,1,2.516-6.767A16.547,16.547,0,0,0,438.508,939.815Z" transform="translate(-189.185 -205.203)" fill="#57b6ea"/>
      <path id="Trazado_617729" data-name="Trazado 617729" d="M204.8,675.8c1.842-.763,3.595-.133,5.316.424a6.848,6.848,0,0,1,3.355,2.558c.64.859.971.952,1.965.64l.988,1.5c-.688.861-.7,1.114-.113,2.123,1.909,3.277,1.771,6.639-.447,9.274a12.441,12.441,0,0,1-1.673,1.41,6.525,6.525,0,0,1-4.953-2.07c.277-.084.559-.155.832-.253a3.79,3.79,0,0,0,1.517-6.111c-1.536-1.685-3.715-1.683-5.693,0a1.555,1.555,0,0,1-.148-.424c-.064-1.449-.114-2.9-.168-4.349.965-.024,1.5-.379,1.575-1.1a1.215,1.215,0,0,0-.845-1.365,1.4,1.4,0,0,0-1.5.45Zm7.448,4.715a1.266,1.266,0,1,0-1.232,1.28A1.268,1.268,0,0,0,212.248,680.514Z" transform="translate(-19.601 -9.439)" fill="#c2f036"/>
      <path id="Trazado_617730" data-name="Trazado 617730" d="M227.949,802.422c0-1.8,0-3.6,0-5.393,0-.994.487-1.571,1.285-1.56s1.253.584,1.254,1.593c0,3.172.022,6.345-.016,9.517a1.006,1.006,0,0,0,.729,1.1c3.12,1.357,6.224,2.75,9.333,4.131.217.1.438.185.646.3a1.234,1.234,0,0,1,.619,1.663,1.211,1.211,0,0,1-1.657.625c-1.457-.616-2.9-1.272-4.344-1.915-2.242-1-4.471-2.02-6.729-2.978a1.651,1.651,0,0,1-1.134-1.766C227.977,805.965,227.949,804.193,227.949,802.422Z" transform="translate(-37.837 -104.048)" fill="#454b52"/>
      <path id="Trazado_617731" data-name="Trazado 617731" d="M316.749,998.543c-.221-1.023-.551-1.287-1.647-1.287q-9.4,0-18.792,0h-.87c.185-2.124,2.737-4,5.1-3.8a3.543,3.543,0,0,0,3.26,2.517q4.669.042,9.339,0a3.544,3.544,0,0,0,3.261-2.517h2.853v5.085Z" transform="translate(-91.048 -260.103)" fill="#929899"/>
      <path id="Trazado_617732" data-name="Trazado 617732" d="M448.524,823.965a8.538,8.538,0,0,0,4.179-1.989c.042-.04.177.017.269.029-.063.144-.089.331-.2.424-.65.565-.4,1.034.05,1.6a27.636,27.636,0,0,1,4.6,8.484,3.726,3.726,0,0,0,2.246,2.576l.535,2.993c-.913-.314-1.658-.609-2.425-.824a15.192,15.192,0,0,0-2.084-.424.842.842,0,0,1-.833-.855,24.71,24.71,0,0,0-2.951-9.038,1.314,1.314,0,0,0-1.895-.71Z" transform="translate(-211.718 -124.932)" fill="#929899"/>
      <path id="Trazado_617733" data-name="Trazado 617733" d="M295.022,725.981c-1.822,0-3.645.005-5.468,0-.975,0-1.56-.513-1.535-1.309.024-.768.584-1.228,1.533-1.23q5.468-.007,10.935,0c.933,0,1.5.493,1.5,1.267s-.564,1.266-1.495,1.27C298.667,725.987,296.845,725.981,295.022,725.981Z" transform="translate(-85.198 -47.268)" fill="#454b52"/>
      <path id="Trazado_617734" data-name="Trazado 617734" d="M295.009,701.982c-1.822,0-3.645.005-5.468,0-.941,0-1.5-.475-1.521-1.244-.017-.8.562-1.293,1.548-1.295q5.428-.007,10.856,0c.992,0,1.57.486,1.561,1.283s-.584,1.254-1.589,1.257C298.6,701.985,296.805,701.982,295.009,701.982Z" transform="translate(-85.2 -28.351)" fill="#454b52"/>
      <path id="Trazado_617735" data-name="Trazado 617735" d="M305.769,677.979c-1.4,0-2.8.005-4.2,0-.986,0-1.565-.5-1.55-1.293.014-.77.575-1.243,1.517-1.245q4.2-.009,8.4,0c.938,0,1.5.482,1.512,1.251.011.8-.57,1.283-1.557,1.287C308.515,677.983,307.142,677.979,305.769,677.979Z" transform="translate(-94.659 -9.43)" fill="#454b52"/>
      <path id="Trazado_617736" data-name="Trazado 617736" d="M446.629,735.419l2.161,2.307c-.634.679-1.654,1.389-.778,2.626l-1.474,1.428c-1.038-.4-2.06-.844-3.12-1.163a8.447,8.447,0,0,0-1.782-.155Z" transform="translate(-206.287 -56.713)" fill="#93999a"/>
      <path id="Trazado_617737" data-name="Trazado 617737" d="M291.809,749.955c-.818,0-1.636.018-2.453,0a1.266,1.266,0,1,1,0-2.528c1.661-.02,3.323-.022,4.984,0a1.263,1.263,0,1,1,0,2.525C293.5,749.976,292.653,749.955,291.809,749.955Z" transform="translate(-85.201 -66.163)" fill="#454b52"/>
      <path id="Trazado_617738" data-name="Trazado 617738" d="M347.988,806.261c.256-.614.454-.067.587.063q1.67,1.626,3.3,3.289c.83.841,1.644,1.7,2.465,2.55l-1.6,1.587L351,812.19a3.61,3.61,0,0,0-1-3.811C349.338,807.661,348.657,806.967,347.988,806.261Z" transform="translate(-132.469 -112.33)" fill="#646a75"/>
      <path id="Trazado_617739" data-name="Trazado 617739" d="M448.012,923.8a16.547,16.547,0,0,1-16.017-16.019c3.911-5.286,12.029-5.784,16.888-1.036C453.794,911.541,453.371,919.831,448.012,923.8Zm-7.924-5.1c.291,0,.582.025.872.011a6.147,6.147,0,0,0,5.73-3.82,5.95,5.95,0,0,0-1.11-6.78,6.023,6.023,0,0,0-6.64-1.781c-2.885.892-4.455,3.382-4.389,6.834A5.1,5.1,0,0,0,440.087,918.7Z" transform="translate(-198.689 -189.186)" fill="#a8dff7"/>
      <path id="Trazado_617740" data-name="Trazado 617740" d="M377.875,769.91a24.538,24.538,0,0,0-1.434,2.432,6.9,6.9,0,0,0-.171,5.458,1.029,1.029,0,0,1-.317,1.3c-1.057.994-2.063,2.043-3.093,3.066-.182.181-.381.347-.5.458l-5.181-5.176,4.223-4.512c.605,0,1.212.016,1.816-.007a2.569,2.569,0,0,0,2.6-1.336A3,3,0,0,1,377.875,769.91Z" transform="translate(-147.595 -83.901)" fill="#929899"/>
      <path id="Trazado_617741" data-name="Trazado 617741" d="M393.6,731.311a3,3,0,0,0-2.061,1.683,2.569,2.569,0,0,1-2.6,1.336c-.6.022-1.211.006-1.816.007a3.752,3.752,0,0,1,.288-.367q6.366-6.374,12.737-12.742c.112-.111.236-.21.322-.285l3.189,3.065-4.994,5.044A9.44,9.44,0,0,0,393.6,731.311Z" transform="translate(-163.317 -45.303)" fill="#ccd4d6"/>
      <path id="Trazado_617742" data-name="Trazado 617742" d="M425.962,773.179a5.04,5.04,0,0,1,8.783,2.456,4.643,4.643,0,0,1-1.746,4.7,17.151,17.151,0,0,1-3.079-.534A6.29,6.29,0,0,1,425.962,773.179Zm5.064,3.341a1.266,1.266,0,1,0-1.272,1.239A1.273,1.273,0,0,0,431.026,776.52Z" transform="translate(-193.913 -85.078)" fill="#a8dff7"/>
      <path id="Trazado_617743" data-name="Trazado 617743" d="M361.38,718.564q2.565-2.591,5.132-5.181,4.76-4.774,9.528-9.54c.185-.185.333-.408.551-.68l1.681,2.018a1.251,1.251,0,0,1-.191.229q-6.98,6.985-13.965,13.965c-.129.129-.282.235-.424.351Z" transform="translate(-143.026 -31.287)" fill="#a7ddf4"/>
      <path id="Trazado_617744" data-name="Trazado 617744" d="M342.172,933.523h1.782c-.249,1.288-.505,2.539-.726,3.8-.082.468-.358.51-.736.473-1.284-.126-2.569-.24-3.853-.364-1.991-.192-3.981-.392-5.972-.583-1.232-.118-2.469-.189-3.7-.348a3.82,3.82,0,0,1-3.253-2.977h8.223a5.227,5.227,0,0,0,.729.886,5.985,5.985,0,0,0,4.194,1.107A3.763,3.763,0,0,0,342.172,933.523Z" transform="translate(-114.915 -212.868)" fill="#929899"/>
      <path id="Trazado_617745" data-name="Trazado 617745" d="M335.408,993.514a3.544,3.544,0,0,1-3.261,2.517q-4.669.042-9.339,0a3.543,3.543,0,0,1-3.26-2.517Z" transform="translate(-110.051 -260.159)" fill="#cfd7d9"/>
      <path id="Trazado_617746" data-name="Trazado 617746" d="M293.973,910.825a3.337,3.337,0,0,1-2.717,1.233q-5.114.039-10.229,0a3.543,3.543,0,0,1-3.428-2.509h2.835a4.306,4.306,0,0,0,3.225,1.24C287.1,910.825,290.535,910.816,293.973,910.825Z" transform="translate(-76.986 -193.973)" fill="#57b6ea"/>
      <path id="Trazado_617747" data-name="Trazado 617747" d="M459.08,701.037l1.151,1.019c-1.12,1.121-2.172,2.2-3.264,3.233a.72.72,0,0,1-.7-.034c-1.556-1.51-3.117-3.019-4.6-4.6-.64-.684.257-.863.59-1.2a6.68,6.68,0,0,1,.794.589,4.579,4.579,0,0,0,3.669,1.464A19.185,19.185,0,0,0,459.08,701.037Z" transform="translate(-214.019 -28.36)" fill="#929899"/>
      <path id="Trazado_617748" data-name="Trazado 617748" d="M474.031,835.251a3.725,3.725,0,0,1-2.246-2.576,27.638,27.638,0,0,0-4.6-8.484c-.454-.565-.7-1.034-.05-1.6.107-.093.133-.28.2-.424,1.124,1.45,2.364,2.827,3.347,4.368A23.33,23.33,0,0,1,474.031,835.251Z" transform="translate(-226.072 -125.094)" fill="#ccd4d6"/>
      <path id="Trazado_617749" data-name="Trazado 617749" d="M421.271,779.792a6.29,6.29,0,0,0,3.958,6.62,17.15,17.15,0,0,0,3.079.534,5.028,5.028,0,0,1-7.037-7.154Z" transform="translate(-189.222 -91.691)" fill="#56b3e5"/>
      <path id="Trazado_617750" data-name="Trazado 617750" d="M462.112,690.564a19.161,19.161,0,0,1-2.359.465,4.578,4.578,0,0,1-3.669-1.464,6.687,6.687,0,0,0-.794-.589l2.592-2.813Z" transform="translate(-217.052 -17.887)" fill="#cfd7d9"/>
      <path id="Trazado_617751" data-name="Trazado 617751" d="M304.528,910.825c-3.438-.008-6.876,0-10.313-.035a4.306,4.306,0,0,1-3.225-1.24h14.478Z" transform="translate(-87.54 -193.973)" fill="#a8dff7"/>
      <path id="Trazado_617752" data-name="Trazado 617752" d="M372.784,933.523a3.763,3.763,0,0,1-3.309,1.99,5.985,5.985,0,0,1-4.194-1.107,5.229,5.229,0,0,1-.729-.886Z" transform="translate(-145.527 -212.868)" fill="#cfd7d9"/>
      <path id="Trazado_617753" data-name="Trazado 617753" d="M342.266,807.325c.669.705,1.35,1.4,2,2.118a3.61,3.61,0,0,1,1,3.811l-4.546-4.7Z" transform="translate(-126.748 -113.394)" fill="#929899"/>
      <path id="Trazado_617754" data-name="Trazado 617754" d="M351.891,775.9l2.311,1.163-3.278,3.113-1.582-1.625Z" transform="translate(-133.537 -88.62)" fill="#56b3e5"/>
      <path id="Trazado_617755" data-name="Trazado 617755" d="M331.4,831.592l.726-.76,1.762,1.831c-1.093,1.09-2.193,2.2-3.325,3.28-.074.07-.4-.123-.606-.193A3.575,3.575,0,0,0,331.4,831.592Z" transform="translate(-118.256 -131.923)" fill="#56b3e5"/>
      <path id="Trazado_617756" data-name="Trazado 617756" d="M326.62,834.422a3.574,3.574,0,0,1-1.443,4.157l-1.284-1.262Z" transform="translate(-113.477 -134.753)" fill="#a7ddf4"/>
      <path id="Trazado_617757" data-name="Trazado 617757" d="M194.649,677.112q0,1.357.007,2.715c-.334,1.09-.194,1.454.772,2.01.054,1.45.1,2.9.168,4.349a1.556,1.556,0,0,0,.148.424,3.973,3.973,0,0,0-.877,3.158c.407,2.051,1.854,3.141,4.221,3.2a6.525,6.525,0,0,0,4.953,2.07,6.715,6.715,0,0,1-4.649,1.189c-1.1-.085-2.2-.286-3.3-.411-2.781-.315-4.978-3.494-3.881-6.015a9.371,9.371,0,0,0,.042-7.37A4.066,4.066,0,0,1,194.649,677.112Z" transform="translate(-9.449 -10.753)" fill="#9fd21d"/>
      <path id="Trazado_617758" data-name="Trazado 617758" d="M209.81,723.609c-2.367-.061-3.814-1.151-4.221-3.2a3.973,3.973,0,0,1,.877-3.158c1.978-1.687,4.157-1.689,5.693,0a3.79,3.79,0,0,1-1.517,6.111C210.369,723.454,210.087,723.526,209.81,723.609Zm-.49-5.089a1.269,1.269,0,1,0,.083,2.537,1.269,1.269,0,0,0-.083-2.537Z" transform="translate(-20.172 -41.393)" fill="#444a50"/>
      <path id="Trazado_617759" data-name="Trazado 617759" d="M230.55,694.722a1.266,1.266,0,1,1-1.259-1.252A1.271,1.271,0,0,1,230.55,694.722Z" transform="translate(-37.903 -23.647)" fill="#454b52"/>
      <path id="Trazado_617760" data-name="Trazado 617760" d="M205,689.966c-.966-.556-1.106-.92-.772-2.01a1.4,1.4,0,0,1,1.5-.45,1.214,1.214,0,0,1,.845,1.365C206.492,689.586,205.96,689.941,205,689.966Z" transform="translate(-19.017 -18.881)" fill="#454b52"/>
      <path id="Trazado_617761" data-name="Trazado 617761" d="M444.056,922.536c-.066-3.452,1.5-5.942,4.389-6.834a6.023,6.023,0,0,1,6.64,1.781,5.95,5.95,0,0,1,1.11,6.78,6.147,6.147,0,0,1-5.73,3.82c-.29.014-.581-.006-.872-.011a15.069,15.069,0,0,1-1.728-.531A6.452,6.452,0,0,1,444.056,922.536Zm3.714-3.4a3.537,3.537,0,0,0-.538,4.7c1.387,2.039,4.4,2.311,5.762.52a4.476,4.476,0,0,0,.688-.73,3.793,3.793,0,0,0-2.213-5.544A3.394,3.394,0,0,0,447.769,919.134Z" transform="translate(-208.194 -198.556)" fill="#454b52"/>
      <path id="Trazado_617762" data-name="Trazado 617762" d="M443.973,949.24a6.452,6.452,0,0,0,3.809,5,15.055,15.055,0,0,0,1.728.531A5.1,5.1,0,0,1,443.973,949.24Z" transform="translate(-208.111 -225.259)" fill="#56b3e5"/>
      <path id="Trazado_617763" data-name="Trazado 617763" d="M440.55,790.761a1.266,1.266,0,1,1-1.219-1.291A1.274,1.274,0,0,1,440.55,790.761Z" transform="translate(-203.437 -99.319)" fill="#454b52"/>
      <path id="Trazado_617764" data-name="Trazado 617764" d="M218.8,727.963a1.269,1.269,0,0,1,.083,2.537,1.269,1.269,0,1,1-.083-2.537Z" transform="translate(-29.647 -50.836)" fill="#f0da0c"/>
      <path id="Trazado_617765" data-name="Trazado 617765" d="M461.6,928.674a3.394,3.394,0,0,1,3.7-1.05,3.793,3.793,0,0,1,2.213,5.544,4.464,4.464,0,0,1-.688.73c-.2-.031-.41-.05-.611-.094a3.686,3.686,0,0,1-2.61-1.274,5.873,5.873,0,0,0,.792-.006,1.263,1.263,0,1,0-1.427-1.329,6.617,6.617,0,0,0,.026.711c-.182-.172-.455-.312-.53-.523C462.146,930.491,461.884,929.579,461.6,928.674Z" transform="translate(-222.026 -208.095)" fill="#ccd4d6"/>
      <path id="Trazado_617766" data-name="Trazado 617766" d="M457.193,933.174c.282.9.544,1.817.863,2.709.076.211.348.351.53.523l.609.624a3.686,3.686,0,0,0,2.61,1.274c.2.044.407.063.611.094-1.365,1.791-4.375,1.519-5.762-.52A3.537,3.537,0,0,1,457.193,933.174Z" transform="translate(-217.617 -212.595)" fill="#929899"/>
      <path id="Trazado_617767" data-name="Trazado 617767" d="M468.679,942l-.609-.624a6.673,6.673,0,0,1-.026-.711,1.257,1.257,0,0,1,1.252-1.187,1.263,1.263,0,0,1,.175,2.516A5.873,5.873,0,0,1,468.679,942Z" transform="translate(-227.101 -217.563)" fill="#454b52"/>
    </g>
  </g>
</svg>
