<svg xmlns="http://www.w3.org/2000/svg" xmlns:xlink="http://www.w3.org/1999/xlink" width="142.698" height="141.855" viewBox="0 0 142.698 141.855">
  <defs>
    <clipPath id="clip-path">
      <ellipse id="Elipse_3994" data-name="Elipse 3994" cx="68.496" cy="68.05" rx="68.496" ry="68.05" transform="translate(0)" fill="#f2f6fe"/>
    </clipPath>
  </defs>
  <g id="Grupo_894592" data-name="Grupo 894592" transform="translate(-728.151 -5641.102)">
    <g id="Grupo_894411" data-name="Grupo 894411" transform="translate(9401.15 3914.619)">
      <path id="Trazado_99503" data-name="Trazado 99503" d="M968.645,321.3A68.266,68.266,0,0,1,900.42,253" transform="translate(-9572.42 1546.033)" fill="none" stroke="#fefefe" stroke-miterlimit="10" stroke-width="2"/>
      <ellipse id="Elipse_3992" data-name="Elipse 3992" cx="69.561" cy="69.138" rx="69.561" ry="69.138" transform="translate(-8669.424 1726.482)" fill="#5f4ad9"/>
      <path id="Trazado_175808" data-name="Trazado 175808" d="M68.5,0c37.829,0,68.5,30.476,68.5,68.069s-30.667,68.069-68.5,68.069S0,105.662,0,68.069,30.667,0,68.5,0Z" transform="translate(-8669.456 1727.77)" fill="#d3e6b1"/>
    </g>
    <g id="Grupo_877825" data-name="Grupo 877825" transform="translate(562.901 5519.444)">
      <path id="Trazado_617608" data-name="Trazado 617608" d="M198,166.1a3.09,3.09,0,0,0,.272-.409,3.2,3.2,0,0,1,3.039-2.042c3.342-.032,6.684-.011,10.026-.011a1.137,1.137,0,0,1,1.255,1.1,1.208,1.208,0,0,1-1.345,1.157c-.464.014-.929.026-1.393.038q-3.974-.015-7.948-.03c-1.391,0-1.654.265-1.654,1.665q0,21.9,0,43.795c0,.15,0,.3,0,.449.03.8.4,1.215,1.2,1.218,2.8.01,5.6-.01,8.4-.019,1.549.024,3.1.068,4.647.068q18.344.009,36.688,0h.846v-.992q0-16.549,0-33.1c0-.225-.013-.451.007-.674a1.119,1.119,0,0,1,2.238-.014c.021.223.008.449.008.674q0,16.549,0,33.1v.931c.219.022.318.041.416.041q8.253,0,16.506,0c1.036,0,1.386-.4,1.386-1.5q0-22.053,0-44.107c0-1.218-.327-1.54-1.564-1.54q-7.99,0-15.98,0c-.239,0-.477.028-.764.045,0,2.457,0,4.85,0,7.242,0,.869-.434,1.394-1.121,1.4s-1.125-.523-1.128-1.389c-.006-2.1,0-4.194,0-6.29V165.9H221.94c-1.75,0-3.5.009-5.252,0-.95-.007-1.247-.259-1.461-1.155a1.163,1.163,0,0,1,1.333-1.106c1.425.009,2.849,0,4.274,0,16.545,0,33.09.022,49.636-.028,2.107-.006,3.623.593,4.377,2.64v46.59a3.063,3.063,0,0,0-.272.41,3.247,3.247,0,0,1-2.9,2.036c-.745.048-1.5.009-2.275.009a14.083,14.083,0,0,1-.224,1.433,3.915,3.915,0,0,1-3.574,3.026c-1.644.094-3.3.1-4.946.033a4.074,4.074,0,0,1-4.091-4.034c-.009-.12-.018-.24-.03-.393H216.348c-.049.337-.091.7-.157,1.059a3.945,3.945,0,0,1-3.627,3.331,46.846,46.846,0,0,1-5.169.016,3.994,3.994,0,0,1-3.864-3.994c-.006-.12-.015-.241-.028-.449-.549,0-1.066-.013-1.582,0a3.517,3.517,0,0,1-3.767-2.349c-.022-.057-.1-.091-.154-.136Zm15.99,49.3h-8.154c-.082,1.227.482,2.041,1.636,2.1a44.749,44.749,0,0,0,4.847,0C213.451,217.44,214.02,216.643,213.99,215.4Zm44.863-.015c-.018,1.169.52,2.04,1.467,2.088a47.718,47.718,0,0,0,5.237,0,1.634,1.634,0,0,0,1.415-2.088Z" fill="#020303"/>
      <path id="Trazado_617609" data-name="Trazado 617609" d="M261.409,169.262c.214.9.511,1.147,1.461,1.154,1.75.013,3.5,0,5.252,0h30.092v1.007c0,2.1,0,4.194,0,6.29,0,.867.439,1.392,1.128,1.389s1.12-.528,1.121-1.4c.005-2.392,0-4.785,0-7.242.287-.018.525-.045.764-.045q7.99,0,15.98,0c1.237,0,1.564.322,1.564,1.54q0,22.053,0,44.107c0,1.1-.349,1.5-1.386,1.5q-8.253.013-16.506,0c-.1,0-.2-.019-.416-.041V216.6q0-16.549,0-33.1c0-.225.013-.451-.008-.674a1.119,1.119,0,0,0-2.238.014c-.02.223-.007.449-.007.674q0,16.549,0,33.1v.992h-.846q-18.344,0-36.688,0c-1.549,0-3.1-.044-4.647-.068l-.3-3.631c.324-.013.648-.038.972-.038q18.009,0,36.018,0c1.417,0,1.736-.317,1.736-1.7q0-18.125,0-36.25c0-1.5-.248-1.748-1.727-1.748H256.793c-.35,0-.7-.014-1.05-.022q.146-1.841.292-3.683c.465-.013.929-.024,1.393-.038a1.208,1.208,0,0,0,1.345-1.157Zm43.314,12.745q0,3.108,0,6.216c0,1.307.353,1.67,1.633,1.673q3.264.009,6.528,0c1.255,0,1.631-.368,1.633-1.6q.008-6.291,0-12.582c0-1.218-.361-1.582-1.558-1.585q-3.339-.01-6.678,0c-1.2,0-1.553.366-1.557,1.586C304.719,177.813,304.723,179.91,304.723,182.007Zm9.784,15.748a4.887,4.887,0,1,0-4.887,4.857A4.917,4.917,0,0,0,314.508,197.755Zm-4.857,13.826c-1.175,0-2.35-.011-3.525,0-.873.011-1.384.45-1.378,1.14s.514,1.13,1.393,1.136q3.488.023,6.975,0c.871-.006,1.382-.464,1.378-1.15s-.511-1.115-1.393-1.126C311.951,211.57,310.8,211.581,309.651,211.581Zm-.055-3.175c1.174,0,2.349.006,3.523,0,.888-.006,1.384-.417,1.374-1.118a1.177,1.177,0,0,0-1.324-1.125q-3.56-.02-7.121,0a1.164,1.164,0,0,0-1.3,1.148c0,.674.49,1.086,1.323,1.093C307.247,208.414,308.422,208.406,309.6,208.407Z" transform="translate(-46.182 -4.522)" fill="#538db4"/>
      <path id="Trazado_617610" data-name="Trazado 617610" d="M218.845,175.116q-.146,1.841-.292,3.682-2.024.016-4.049.032c-1.187.008-1.508.325-1.508,1.512q0,18.308,0,36.616c0,1.172.382,1.553,1.576,1.569,1.324.018,2.649.024,3.973.036l.3,3.631c-2.8.009-5.6.029-8.4.019-.8,0-1.169-.418-1.2-1.218-.006-.149,0-.3,0-.449q0-21.9,0-43.795c0-1.4.263-1.668,1.654-1.665Q214.871,175.1,218.845,175.116Z" transform="translate(-8.992 -9.181)" fill="#427995"/>
      <path id="Trazado_617611" data-name="Trazado 617611" d="M245.278,422.4c.03,1.243-.539,2.041-1.671,2.1a44.749,44.749,0,0,1-4.847,0c-1.154-.064-1.718-.878-1.636-2.1Z" transform="translate(-31.288 -207.006)" fill="#427995"/>
      <path id="Trazado_617612" data-name="Trazado 617612" d="M502.076,422.329h8.119a1.634,1.634,0,0,1-1.415,2.088,47.707,47.707,0,0,1-5.237,0C502.6,424.369,502.058,423.5,502.076,422.329Z" transform="translate(-243.224 -206.945)" fill="#427995"/>
      <path id="Trazado_617613" data-name="Trazado 617613" d="M233.551,233.4c-1.324-.011-2.649-.018-3.973-.036-1.195-.016-1.576-.4-1.576-1.569q0-18.308,0-36.616c0-1.187.321-1.5,1.508-1.512q2.025-.014,4.049-.032c.35.008.7.022,1.05.022h35.943c1.479,0,1.727.252,1.727,1.748q0,18.125,0,36.25c0,1.386-.319,1.7-1.736,1.7q-18.009,0-36.018,0C234.2,233.363,233.875,233.388,233.551,233.4Zm.166-6.968h-3.436v4.633h3.443c.149.012.3.034.447.034q17.626,0,35.253,0c.19,0,.38-.033.553-.048v-4.642H234.315C234.116,226.41,233.916,226.425,233.717,226.433Zm-.019-30.494h-3.4v28.187h8.828a22.532,22.532,0,0,1-.847-2.54c-.329-1.557-.557-3.136-.8-4.71-.192-1.229.233-1.7,1.508-1.7q4.158-.008,8.316,0c.994,0,1.245.195,1.559,1.151a1.318,1.318,0,0,1-1.519,1.106c-2.471-.033-4.942-.012-7.5-.012.277,1.539.467,3.022.826,4.464a3.09,3.09,0,0,0,2.953,2.256q6.523.043,13.047,0a3.1,3.1,0,0,0,2.975-2.327c.34-1.421.531-2.878.8-4.392h-.9c-2.2,0-4.4-.023-6.6.012a1.317,1.317,0,0,1-1.519-1.106c.313-.957.563-1.144,1.561-1.152.475,0,.95,0,1.425,0,2.326,0,4.651-.007,6.976,0,1.068,0,1.607.436,1.438,1.342-.473,2.549-.441,5.219-1.762,7.611h8.916V195.9h-.424q-17.666,0-35.332,0C234.045,195.9,233.871,195.925,233.7,195.939Z" transform="translate(-23.997 -24.018)" fill="#020303"/>
      <path id="Trazado_617614" data-name="Trazado 617614" d="M500.518,201.447c0-2.1,0-4.194,0-6.291,0-1.219.359-1.582,1.557-1.586q3.339-.01,6.678,0c1.2,0,1.557.368,1.558,1.585q.007,6.291,0,12.582c0,1.23-.378,1.595-1.633,1.6q-3.264.009-6.528,0c-1.28,0-1.631-.366-1.633-1.673Q500.513,204.555,500.518,201.447Zm2.319-5.594v11.162h5.145V195.853Z" transform="translate(-241.976 -23.962)" fill="#020506"/>
      <path id="Trazado_617615" data-name="Trazado 617615" d="M510.348,292.079a4.887,4.887,0,1,1-4.848-4.893A4.924,4.924,0,0,1,510.348,292.079Zm-4.881,2.592a2.61,2.61,0,1,0-2.623-2.6A2.6,2.6,0,0,0,505.467,294.671Z" transform="translate(-242.022 -98.846)" fill="#020303"/>
      <path id="Trazado_617616" data-name="Trazado 617616" d="M505.55,380.713c1.15,0,2.3-.011,3.45,0,.881.011,1.389.436,1.393,1.126s-.507,1.144-1.378,1.15q-3.488.025-6.975,0c-.878-.006-1.387-.451-1.393-1.136s.505-1.129,1.378-1.14C503.2,380.7,504.375,380.714,505.55,380.713Z" transform="translate(-242.081 -173.654)" fill="#020506"/>
      <path id="Trazado_617617" data-name="Trazado 617617" d="M505.5,355.854c-1.174,0-2.349.007-3.523,0-.833-.007-1.318-.419-1.323-1.093a1.164,1.164,0,0,1,1.3-1.148q3.56-.023,7.121,0a1.177,1.177,0,0,1,1.324,1.125c.01.7-.486,1.112-1.374,1.118C507.852,355.86,506.678,355.854,505.5,355.854Z" transform="translate(-242.089 -151.969)" fill="#020303"/>
      <path id="Trazado_617618" data-name="Trazado 617618" d="M271.63,225.36c-.314-.957-.565-1.15-1.559-1.151q-4.158-.006-8.316,0c-1.275,0-1.7.474-1.508,1.7.246,1.574.474,3.153.8,4.71a22.525,22.525,0,0,0,.847,2.54h-5.422q0-14.094,0-28.187c.174-.014.347-.041.52-.041q17.666,0,35.332,0h.424v28.231h-8.916c1.322-2.391,1.289-5.061,1.762-7.611.168-.906-.37-1.337-1.438-1.342-2.325-.01-4.651,0-6.976,0-.475,0-.95,0-1.425,0-1,.008-1.248.195-1.561,1.152Zm-2.041-16.515a3.739,3.739,0,0,0-.743.328c-1.679,1.335-2.874,3.386-.712,5.7.2.219.426.422.647.624,1.275,1.164,1.283,1.422.081,2.619a2.581,2.581,0,0,0-.21.214,1.029,1.029,0,0,0-.01,1.431,1.072,1.072,0,0,0,1.486.21,3.512,3.512,0,0,0,.934-5.31c-.436-.54-.988-.987-1.463-1.5-.609-.655-.6-1.033.013-1.669.242-.252.6-.44.732-.735a1.678,1.678,0,0,0,.113-1.171C270.325,209.26,269.872,209.069,269.589,208.845Zm6.953,0a3.579,3.579,0,0,0-.788.336c-1.693,1.364-2.886,3.408-.639,5.75.173.18.357.35.541.519,1.347,1.23,1.351,1.39.066,2.718a1.114,1.114,0,0,0-.161,1.6,1.158,1.158,0,0,0,1.674.055,3.516,3.516,0,0,0,.306-5.692c-.387-.39-.794-.759-1.171-1.158a.874.874,0,0,1,.021-1.329c.273-.29.674-.508.834-.845a1.844,1.844,0,0,0,.147-1.238C277.277,209.262,276.824,209.073,276.542,208.845Z" transform="translate(-46.77 -33.053)" fill="#c8eaf9"/>
      <path id="Trazado_617619" data-name="Trazado 617619" d="M256.565,357.426c.2-.008.4-.023.6-.023h35.662v4.642c-.173.016-.363.048-.553.048q-17.626,0-35.253,0c-.149,0-.3-.022-.447-.034Q256.568,359.742,256.565,357.426Z" transform="translate(-46.845 -155.011)" fill="#3dc5ee"/>
      <path id="Trazado_617620" data-name="Trazado 617620" d="M296.165,307.009h2.563a1.317,1.317,0,0,0,1.519,1.106c2.2-.035,4.4-.012,6.6-.012h.9c-.269,1.514-.46,2.971-.8,4.392a3.1,3.1,0,0,1-2.975,2.327q-6.523.045-13.047,0a3.09,3.09,0,0,1-2.953-2.256c-.358-1.442-.549-2.925-.826-4.464,2.56,0,5.032-.021,7.5.012A1.318,1.318,0,0,0,296.165,307.009Z" transform="translate(-71.304 -114.703)" fill="#f07a79"/>
      <path id="Trazado_617621" data-name="Trazado 617621" d="M242.871,205.143q0,14.094,0,28.187h-3.405V205.143Z" transform="translate(-33.169 -33.222)" fill="#a0dcf2"/>
      <path id="Trazado_617622" data-name="Trazado 617622" d="M242.832,357.521q0,2.317.007,4.633H239.4v-4.633Z" transform="translate(-33.112 -155.106)" fill="#1492c6"/>
      <path id="Trazado_617623" data-name="Trazado 617623" d="M512.113,205h5.145v11.162h-5.145Z" transform="translate(-251.252 -33.106)" fill="#01c8f2"/>
      <path id="Trazado_617624" data-name="Trazado 617624" d="M514.544,303.726a2.61,2.61,0,1,1,2.611-2.617A2.6,2.6,0,0,1,514.544,303.726Z" transform="translate(-251.099 -107.901)" fill="#c6e8f6"/>
      <path id="Trazado_617625" data-name="Trazado 617625" d="M311.538,224.484c.283.225.735.416.869.739a1.678,1.678,0,0,1-.113,1.171c-.127.295-.49.483-.732.735-.612.636-.621,1.014-.013,1.669.475.511,1.026.958,1.463,1.5a3.512,3.512,0,0,1-.934,5.31,1.072,1.072,0,0,1-1.486-.21,1.029,1.029,0,0,1,.01-1.431,2.565,2.565,0,0,1,.21-.214c1.2-1.2,1.193-1.455-.081-2.619-.221-.2-.443-.406-.647-.624-2.163-2.31-.967-4.361.712-5.7A3.739,3.739,0,0,1,311.538,224.484Z" transform="translate(-88.718 -48.693)" fill="#020506"/>
      <path id="Trazado_617626" data-name="Trazado 617626" d="M346.13,224.488c.282.228.735.416.832.718a1.844,1.844,0,0,1-.147,1.238c-.161.337-.561.555-.834.845a.874.874,0,0,0-.021,1.329c.376.4.784.769,1.171,1.158a3.516,3.516,0,0,1-.306,5.692,1.158,1.158,0,0,1-1.674-.055,1.114,1.114,0,0,1,.161-1.6c1.285-1.328,1.281-1.488-.066-2.718-.184-.169-.368-.338-.541-.519-2.246-2.342-1.054-4.386.639-5.75A3.577,3.577,0,0,1,346.13,224.488Z" transform="translate(-116.358 -48.696)" fill="#020506"/>
    </g>
  </g>
</svg>
