<svg xmlns="http://www.w3.org/2000/svg" width="314.462" height="248.559" viewBox="0 0 314.462 248.559">
  <g id="Grupo_883403" data-name="Grupo 883403" transform="translate(-919.25 -4343.413)">
    <path id="Trazado_616826" data-name="Trazado 616826" d="M187.787,136.2V360.927H480.321" transform="translate(751.375 4207.214)" fill="none" stroke="#161615" stroke-miterlimit="10" stroke-width="1"/>
    <path id="Trazado_616827" data-name="Trazado 616827" d="M188.162,323.145s84.6,5.166,107.2-33.579c0,0,17.536-24.36,28.414-46.5l24.54-43.912s3.734-18.987,45.849-19.374h43.267s30.351-2.582,38.1,20.019l5.166,11.625" transform="translate(751.645 4238.539)" fill="none" stroke="#81ad20" stroke-miterlimit="10" stroke-width="3"/>
    <path id="Trazado_623934" data-name="Trazado 623934" d="M7.458,5.754H4.488V14H3.275V5.754H.311v-1H7.458ZM9.921,14H8.747V7.132H9.921ZM8.652,5.31a.7.7,0,0,1,.175-.482.655.655,0,0,1,.517-.2.666.666,0,0,1,.521.2.694.694,0,0,1,.178.482.671.671,0,0,1-.178.476.678.678,0,0,1-.521.19.667.667,0,0,1-.517-.19A.678.678,0,0,1,8.652,5.31Zm6,8.817a3,3,0,0,1-2.272-.917,3.4,3.4,0,0,1-.876-2.453v-.216a4.121,4.121,0,0,1,.39-1.825,3.045,3.045,0,0,1,1.092-1.257A2.745,2.745,0,0,1,14.5,7a2.572,2.572,0,0,1,2.082.882,3.82,3.82,0,0,1,.743,2.526V10.9H12.676a2.441,2.441,0,0,0,.594,1.641,1.866,1.866,0,0,0,1.444.625,2.045,2.045,0,0,0,1.054-.254,2.648,2.648,0,0,0,.755-.673l.717.559A2.884,2.884,0,0,1,14.65,14.127ZM14.5,7.97a1.566,1.566,0,0,0-1.193.517,2.515,2.515,0,0,0-.6,1.45h3.44V9.849a2.237,2.237,0,0,0-.482-1.387A1.475,1.475,0,0,0,14.5,7.97Zm5.288-.838.032.762A2.536,2.536,0,0,1,21.861,7a1.964,1.964,0,0,1,1.961,1.1,2.6,2.6,0,0,1,.892-.8,2.634,2.634,0,0,1,1.3-.3q2.26,0,2.3,2.393V14H27.136V9.468a1.577,1.577,0,0,0-.336-1.1A1.482,1.482,0,0,0,25.67,8a1.557,1.557,0,0,0-1.085.39,1.584,1.584,0,0,0-.5,1.051V14H22.9V9.5A1.31,1.31,0,0,0,21.436,8a1.571,1.571,0,0,0-1.581.984V14H18.681V7.132Zm16.091,3.51a4.113,4.113,0,0,1-.717,2.526,2.3,2.3,0,0,1-1.942.958,2.519,2.519,0,0,1-1.968-.793v3.307H30.082V7.132h1.073l.057.762A2.419,2.419,0,0,1,33.2,7a2.342,2.342,0,0,1,1.958.933,4.157,4.157,0,0,1,.72,2.6Zm-1.174-.133a3.035,3.035,0,0,0-.5-1.834A1.6,1.6,0,0,0,32.855,8a1.726,1.726,0,0,0-1.6.946v3.282a1.73,1.73,0,0,0,1.612.939,1.587,1.587,0,0,0,1.343-.67A3.312,3.312,0,0,0,34.709,10.509Zm2.355-.006a4.057,4.057,0,0,1,.4-1.815,2.96,2.96,0,0,1,1.1-1.244A3.007,3.007,0,0,1,40.181,7a2.9,2.9,0,0,1,2.269.971,3.736,3.736,0,0,1,.866,2.583v.083a4.092,4.092,0,0,1-.384,1.8,2.916,2.916,0,0,1-1.1,1.241,3.041,3.041,0,0,1-1.641.444,2.889,2.889,0,0,1-2.263-.971,3.718,3.718,0,0,1-.866-2.571Zm1.181.14a2.938,2.938,0,0,0,.53,1.834,1.8,1.8,0,0,0,2.841-.01,3.213,3.213,0,0,0,.527-1.965,2.933,2.933,0,0,0-.536-1.831,1.705,1.705,0,0,0-1.425-.7,1.686,1.686,0,0,0-1.4.692A3.189,3.189,0,0,0,38.245,10.642Z" transform="translate(1064.235 4575.332)" fill="#161615"/>
    <path id="Trazado_623932" data-name="Trazado 623932" d="M4.856,11.4H3.18L2.672,14H1.765l.508-2.6H.755v-.876H2.438l.438-2.253H1.238V7.4H3.047l.521-2.641h.908L3.955,7.4H5.63l.521-2.641h.914L6.544,7.4H7.839v.876H6.373l-.438,2.253H7.363V11.4H5.77L5.262,14H4.348Zm-1.511-.876H5.021l.438-2.253H3.783Zm8.48-.019a4.023,4.023,0,0,1,.749-2.542A2.369,2.369,0,0,1,14.536,7a2.382,2.382,0,0,1,1.911.825V4.25h1.174V14H16.542l-.057-.736a2.391,2.391,0,0,1-1.961.863,2.346,2.346,0,0,1-1.946-.978,4.069,4.069,0,0,1-.752-2.552ZM13,10.642a3.046,3.046,0,0,0,.482,1.828,1.56,1.56,0,0,0,1.333.66,1.713,1.713,0,0,0,1.631-1V8.973A1.726,1.726,0,0,0,14.828,8a1.567,1.567,0,0,0-1.346.667A3.354,3.354,0,0,0,13,10.642Zm9.293,3.485a3,3,0,0,1-2.272-.917,3.4,3.4,0,0,1-.876-2.453v-.216a4.121,4.121,0,0,1,.39-1.825,3.045,3.045,0,0,1,1.092-1.257A2.745,2.745,0,0,1,22.147,7a2.572,2.572,0,0,1,2.082.882,3.82,3.82,0,0,1,.743,2.526V10.9H20.319a2.441,2.441,0,0,0,.594,1.641,1.866,1.866,0,0,0,1.444.625,2.045,2.045,0,0,0,1.054-.254,2.648,2.648,0,0,0,.755-.673l.717.559A2.884,2.884,0,0,1,22.293,14.127ZM22.147,7.97a1.566,1.566,0,0,0-1.193.517,2.515,2.515,0,0,0-.6,1.45H23.8V9.849a2.237,2.237,0,0,0-.482-1.387A1.475,1.475,0,0,0,22.147,7.97Zm10.156,5.2a1.692,1.692,0,0,0,1.1-.381,1.34,1.34,0,0,0,.521-.952h1.111a2.13,2.13,0,0,1-.406,1.124,2.676,2.676,0,0,1-1,.851,2.885,2.885,0,0,1-1.323.317,2.829,2.829,0,0,1-2.231-.936,3.729,3.729,0,0,1-.828-2.561v-.2a4.135,4.135,0,0,1,.368-1.784,2.8,2.8,0,0,1,1.057-1.212A3,3,0,0,1,32.3,7a2.755,2.755,0,0,1,1.92.692,2.473,2.473,0,0,1,.816,1.8H33.922a1.618,1.618,0,0,0-.5-1.095A1.57,1.57,0,0,0,32.3,7.97a1.644,1.644,0,0,0-1.387.644,3.026,3.026,0,0,0-.492,1.863V10.7a2.966,2.966,0,0,0,.489,1.828A1.651,1.651,0,0,0,32.3,13.168Zm6.9.958a3,3,0,0,1-2.272-.917,3.4,3.4,0,0,1-.876-2.453v-.216a4.121,4.121,0,0,1,.39-1.825,3.045,3.045,0,0,1,1.092-1.257A2.745,2.745,0,0,1,39.057,7a2.572,2.572,0,0,1,2.082.882,3.82,3.82,0,0,1,.743,2.526V10.9H37.229a2.441,2.441,0,0,0,.594,1.641,1.866,1.866,0,0,0,1.444.625,2.045,2.045,0,0,0,1.054-.254,2.648,2.648,0,0,0,.755-.673l.717.559A2.884,2.884,0,0,1,39.2,14.127ZM39.057,7.97a1.566,1.566,0,0,0-1.193.517,2.515,2.515,0,0,0-.6,1.45h3.44V9.849a2.237,2.237,0,0,0-.482-1.387A1.475,1.475,0,0,0,39.057,7.97Zm.571-3.72H41.05l-1.7,1.866-.946,0ZM44.516,14H43.342V4.25h1.174Zm6.119-.679a2.494,2.494,0,0,1-2.012.806,2.135,2.135,0,0,1-1.673-.638A2.761,2.761,0,0,1,46.37,11.6V7.132h1.174v4.437q0,1.562,1.27,1.562a1.758,1.758,0,0,0,1.79-1v-5h1.174V14H50.661Zm4.2.679H53.663V4.25h1.174Zm6.119,0a2.467,2.467,0,0,1-.165-.724,2.62,2.62,0,0,1-1.955.851,2.424,2.424,0,0,1-1.666-.574A1.859,1.859,0,0,1,56.52,12.1a1.942,1.942,0,0,1,.816-1.666,3.846,3.846,0,0,1,2.295-.594h1.143V9.3a1.319,1.319,0,0,0-.368-.981,1.48,1.48,0,0,0-1.085-.365,1.712,1.712,0,0,0-1.054.317.935.935,0,0,0-.425.768H56.659a1.621,1.621,0,0,1,.365-.993,2.491,2.491,0,0,1,.99-.759A3.331,3.331,0,0,1,59.389,7a2.715,2.715,0,0,1,1.86.594,2.141,2.141,0,0,1,.7,1.635v3.161a3.865,3.865,0,0,0,.241,1.5V14Zm-1.949-.9a2.064,2.064,0,0,0,1.047-.286,1.728,1.728,0,0,0,.717-.743V10.667h-.92q-2.158,0-2.158,1.263a1.069,1.069,0,0,0,.368.863A1.415,1.415,0,0,0,59.008,13.1Zm8.779-.927a.864.864,0,0,0-.359-.74,3.452,3.452,0,0,0-1.25-.454,5.912,5.912,0,0,1-1.416-.457,2.014,2.014,0,0,1-.774-.635,1.518,1.518,0,0,1-.251-.876,1.782,1.782,0,0,1,.714-1.428A2.789,2.789,0,0,1,66.276,7a2.87,2.87,0,0,1,1.895.6A1.915,1.915,0,0,1,68.9,9.15H67.717a1.06,1.06,0,0,0-.409-.832,1.534,1.534,0,0,0-1.031-.349,1.606,1.606,0,0,0-1,.279.879.879,0,0,0-.362.73.712.712,0,0,0,.336.641,4.139,4.139,0,0,0,1.216.413,6.334,6.334,0,0,1,1.425.47,2.079,2.079,0,0,1,.809.657,1.615,1.615,0,0,1,.263.936,1.758,1.758,0,0,1-.736,1.476,3.089,3.089,0,0,1-1.911.555,3.459,3.459,0,0,1-1.46-.292,2.375,2.375,0,0,1-.993-.816,1.966,1.966,0,0,1-.359-1.133h1.174a1.216,1.216,0,0,0,.473.936,1.835,1.835,0,0,0,1.165.346,1.894,1.894,0,0,0,1.07-.27A.829.829,0,0,0,67.787,12.178Z" transform="translate(915 4487.408) rotate(-90)" fill="#161615"/>
    <rect id="Rectángulo_293817" data-name="Rectángulo 293817" width="79.43" height="23.894" rx="3.286" transform="translate(1033.57 4455.777)" fill="#148d80"/>
    <path id="Trazado_623933" data-name="Trazado 623933" d="M24.795,13h4.38v1h-5.6V4.758h1.225Zm6.862,1H30.482V7.132h1.174Zm-1.27-8.69a.7.7,0,0,1,.175-.482.655.655,0,0,1,.517-.2.666.666,0,0,1,.521.2.694.694,0,0,1,.178.482.671.671,0,0,1-.178.476.678.678,0,0,1-.521.19.667.667,0,0,1-.517-.19A.678.678,0,0,1,30.387,5.31Zm4.259,1.822L34.684,8A2.5,2.5,0,0,1,36.741,7q2.177,0,2.2,2.457V14H37.763V9.455a1.581,1.581,0,0,0-.34-1.1A1.361,1.361,0,0,0,36.385,8a1.7,1.7,0,0,0-1,.3,2.069,2.069,0,0,0-.673.8V14H33.535V7.132Zm8.912,7a3,3,0,0,1-2.272-.917,3.4,3.4,0,0,1-.876-2.453v-.216a4.121,4.121,0,0,1,.39-1.825,3.045,3.045,0,0,1,1.092-1.257A2.745,2.745,0,0,1,43.412,7a2.572,2.572,0,0,1,2.082.882,3.82,3.82,0,0,1,.743,2.526V10.9H41.584a2.441,2.441,0,0,0,.594,1.641,1.866,1.866,0,0,0,1.444.625,2.045,2.045,0,0,0,1.054-.254,2.648,2.648,0,0,0,.755-.673l.717.559A2.884,2.884,0,0,1,43.558,14.127ZM43.412,7.97a1.566,1.566,0,0,0-1.193.517,2.515,2.515,0,0,0-.6,1.45h3.44V9.849a2.237,2.237,0,0,0-.482-1.387A1.475,1.475,0,0,0,43.412,7.97ZM51.836,14a2.467,2.467,0,0,1-.165-.724,2.62,2.62,0,0,1-1.955.851,2.424,2.424,0,0,1-1.666-.574A1.859,1.859,0,0,1,47.4,12.1a1.942,1.942,0,0,1,.816-1.666,3.846,3.846,0,0,1,2.295-.594h1.143V9.3a1.319,1.319,0,0,0-.368-.981A1.48,1.48,0,0,0,50.2,7.951a1.712,1.712,0,0,0-1.054.317.935.935,0,0,0-.425.768H47.538a1.621,1.621,0,0,1,.365-.993,2.491,2.491,0,0,1,.99-.759A3.331,3.331,0,0,1,50.268,7a2.715,2.715,0,0,1,1.86.594,2.141,2.141,0,0,1,.7,1.635v3.161a3.865,3.865,0,0,0,.241,1.5V14Zm-1.949-.9a2.064,2.064,0,0,0,1.047-.286,1.728,1.728,0,0,0,.717-.743V10.667h-.92q-2.158,0-2.158,1.263a1.069,1.069,0,0,0,.368.863A1.415,1.415,0,0,0,49.887,13.1Zm6.056.9H54.768V4.25h1.174Z" transform="translate(1033.57 4459.516)" fill="#fff"/>
  </g>
</svg>
