<svg xmlns="http://www.w3.org/2000/svg" xmlns:xlink="http://www.w3.org/1999/xlink" width="133.722" height="137.678" viewBox="0 0 133.722 137.678">
  <defs>
    <clipPath id="clip-path">
      <circle id="Elipse_5245" data-name="Elipse 5245" cx="51.5" cy="51.5" r="51.5" transform="translate(0.357 0.357)" fill="#fff" stroke="#707070" stroke-width="1"/>
    </clipPath>
  </defs>
  <g id="Grupo_883427" data-name="Grupo 883427" transform="translate(-736.139 -6258.661)">
    <g id="Grupo_881794" data-name="Grupo 881794" transform="translate(-286 -60)">
      <g id="Elipse_5244" data-name="Elipse 5244" transform="translate(1026 6325)" fill="#fff" stroke="#148d80" stroke-width="8">
        <ellipse cx="60" cy="60.5" rx="60" ry="60.5" stroke="none"/>
        <ellipse cx="60" cy="60.5" rx="56" ry="56.5" fill="none"/>
      </g>
      <g id="Enmascarar_grupo_18" data-name="Enmascarar grupo 18" transform="translate(1034.643 6333.643)" clip-path="url(#clip-path)">
        <g id="Capa_1" data-name="Capa 1" transform="translate(8.089 10.224)">
          <g id="Grupo_881790" data-name="Grupo 881790" transform="translate(0 0)">
            <path id="Trazado_618917" data-name="Trazado 618917" d="M259.364,674.449h.977a2,2,0,0,1,1.168,1.626,10.25,10.25,0,0,1-.332.993,4.827,4.827,0,0,0,1.01,5.681q7.7,7.716,15.427,15.406a4.862,4.862,0,0,0,6.049.755,8.212,8.212,0,0,1,1.121-.436l1.621,1.062v1.14a5.923,5.923,0,0,1-4.2,2.115,8.078,8.078,0,0,1-6.7-2.124c-1.5,1.5-2.967,2.982-4.448,4.453-1.023,1.016-1.828,1.008-2.857-.021s-2.054-2.073-3.031-3.061l-5.245,5.243c.056.077.149.2.24.333,5.535,7.859,7.534,16.549,5.164,25.861-3.262,12.817-11.607,20.712-24.5,23.744-1.137.267-2.3.426-3.451.635h-5.7c-.8-.157-1.6-.335-2.411-.469a31.657,31.657,0,0,1-25.793-25.8c-.127-.752-.31-1.494-.466-2.241v-6.19a9.538,9.538,0,0,0,.291-1.117,31.57,31.57,0,0,1,23.656-26.465,1.68,1.68,0,0,1,2.312,1.032c.073,1.331-.263,1.783-1.58,2.127a28.366,28.366,0,1,0,33.164,16.746,26.056,26.056,0,0,0-3.271-5.86l-8.09,8.085c1.4.645,2.775,1.336,4.194,1.92a6.98,6.98,0,0,1,4.708,7.054,26.611,26.611,0,0,1-.317,3.48,23.78,23.78,0,1,1-23.993-27.7,7.012,7.012,0,0,1,7.223,4.933c.364.948.815,1.864,1.2,2.743l7.637-7.621a27.845,27.845,0,0,0-8.35-3.718c-1.226-.325-1.553-.764-1.584-2a1.714,1.714,0,0,1,2.381-1.154,31.378,31.378,0,0,1,9.923,4.534l5.409-5.406c-1.038-1.033-2.12-2.092-3.182-3.172a1.623,1.623,0,0,1-.021-2.562c.45-.47.915-.925,1.379-1.382q1.61-1.586,3.231-3.172a8,8,0,0,1-1.875-5.615C257.572,677.2,257.784,675.51,259.364,674.449Zm-19.23,38.3c-.77-1.725-1.454-3.373-2.234-4.974a3.4,3.4,0,0,0-3.336-2.045,27.71,27.71,0,0,0-3.639.327,20.523,20.523,0,1,0,24.217,20.214,3.523,3.523,0,0,0-2.078-3.328c-1.986-.974-4.006-1.881-6.1-2.857-.074.071-.272.252-.461.441-2.227,2.225-4.461,4.444-6.675,6.683a1.706,1.706,0,0,1-3.1-1.248q.025-4.4,0-8.794a2.317,2.317,0,0,1,.743-1.812C238.392,714.476,239.291,713.573,240.134,712.745ZM258.17,690.3l11.406,11.362,3.4-3.382-11.43-11.363Zm-13.7,22.784,2.284,2.436L262.577,699.7l-2.361-2.371Zm.01,4.785-2.438-2.558a5.839,5.839,0,0,1-.785.862,3.067,3.067,0,0,0-1.287,3.08,28.189,28.189,0,0,1,.022,3.063Z" transform="translate(-203 -674.449)" fill="#020102"/>
            <path id="Trazado_618918" data-name="Trazado 618918" d="M493.064,699.536l-1.621-1.062c0-7.137-.017-14.273.009-21.41,0-.769-.181-1.007-.979-1-7.435.03-14.87.016-22.306.016A2,2,0,0,0,467,674.449h26.064Z" transform="translate(-409.658 -674.449)" fill="#fefefe"/>
            <path id="Trazado_618919" data-name="Trazado 618919" d="M279.946,825.463c-.844.828-1.742,1.731-2.666,2.608a2.316,2.316,0,0,0-.743,1.812q.031,4.4,0,8.794a1.706,1.706,0,0,0,3.1,1.248c2.214-2.239,4.447-4.458,6.675-6.683.19-.189.387-.371.461-.441,2.094.977,4.114,1.883,6.1,2.858a3.523,3.523,0,0,1,2.078,3.328,20.531,20.531,0,1,1-24.217-20.214,27.731,27.731,0,0,1,3.639-.327,3.4,3.4,0,0,1,3.336,2.045C278.492,822.091,279.176,823.738,279.946,825.463Zm-14.012,6.321a6.772,6.772,0,1,0,6.7,6.835A6.759,6.759,0,0,0,265.934,831.784Zm20.2,13.2a1.639,1.639,0,0,0-1.611-1.6,1.659,1.659,0,0,0-1.633,1.662,1.622,1.622,0,0,0,3.244-.066Zm-11.658,7.552a1.6,1.6,0,0,0,1.571-1.631,1.624,1.624,0,1,0-1.571,1.631Z" transform="translate(-242.812 -787.167)" fill="#fd7d95"/>
            <path id="Trazado_618920" data-name="Trazado 618920" d="M248.414,774.938l3.631.515c.031,1.24.358,1.678,1.584,2a27.847,27.847,0,0,1,8.35,3.718l-7.637,7.621c-.388-.88-.838-1.795-1.2-2.743a7.011,7.011,0,0,0-7.223-4.933,23.792,23.792,0,1,0,23.993,27.7,26.607,26.607,0,0,0,.317-3.48,6.98,6.98,0,0,0-4.708-7.054c-1.419-.583-2.793-1.275-4.194-1.92l8.09-8.085a26.056,26.056,0,0,1,3.271,5.86,28.343,28.343,0,1,1-33.164-16.746c1.317-.344,1.653-.8,1.58-2.127l4.007-.332c.219,1.015.806,1.583,1.654,1.6C247.578,776.554,248.132,776.019,248.414,774.938Z" transform="translate(-214.842 -753.108)" fill="#fcd7d2"/>
            <path id="Trazado_618921" data-name="Trazado 618921" d="M469.363,681.881c7.435,0,14.87.014,22.306-.015.8,0,.982.235.979,1-.026,7.137-.012,14.273-.009,21.41a8.214,8.214,0,0,0-1.121.436,4.862,4.862,0,0,1-6.049-.755q-7.729-7.687-15.427-15.406a4.827,4.827,0,0,1-1.01-5.681A10.229,10.229,0,0,0,469.363,681.881Z" transform="translate(-410.854 -680.255)" fill="#e3e3f8"/>
            <path id="Trazado_618922" data-name="Trazado 618922" d="M457,735.223l3.378-3.382,11.43,11.363-3.4,3.382Z" transform="translate(-401.833 -719.375)" fill="#848cac"/>
            <path id="Trazado_618923" data-name="Trazado 618923" d="M393.929,795.554l15.746-15.749,2.361,2.371-15.822,15.813Z" transform="translate(-352.458 -756.921)" fill="#fefefe"/>
            <path id="Trazado_618924" data-name="Trazado 618924" d="M377.614,865.125l-4.488,4.448a28.189,28.189,0,0,0-.022-3.063,3.067,3.067,0,0,1,1.287-3.08,5.84,5.84,0,0,0,.785-.862Z" transform="translate(-336.133 -821.707)" fill="#fefefe"/>
            <path id="Trazado_618925" data-name="Trazado 618925" d="M345.651,769.071c-.282,1.08-.836,1.615-1.652,1.6-.848-.019-1.435-.587-1.654-1.6q.3-1.612,1.657-1.628C344.9,767.429,345.4,767.924,345.651,769.071Z" transform="translate(-312.079 -747.241)" fill="#060505"/>
            <path id="Trazado_618926" data-name="Trazado 618926" d="M284.8,879.867a6.772,6.772,0,1,1-6.84,6.7A6.748,6.748,0,0,1,284.8,879.867Zm-.023,3.257a3.515,3.515,0,1,0,3.469,3.536A3.491,3.491,0,0,0,284.779,883.124Z" transform="translate(-261.68 -835.249)" fill="#020102"/>
            <path id="Trazado_618927" data-name="Trazado 618927" d="M390.756,934.889a1.622,1.622,0,0,1-3.244.066,1.659,1.659,0,0,1,1.633-1.662A1.639,1.639,0,0,1,390.756,934.889Z" transform="translate(-347.435 -877.071)" fill="#060505"/>
            <path id="Trazado_618928" data-name="Trazado 618928" d="M342.736,963.795a1.616,1.616,0,0,1-1.675-1.535,1.624,1.624,0,1,1,3.246-.1A1.6,1.6,0,0,1,342.736,963.795Z" transform="translate(-311.072 -898.426)" fill="#060505"/>
            <path id="Trazado_618929" data-name="Trazado 618929" d="M296.521,894.863a3.515,3.515,0,1,1-3.56,3.446A3.486,3.486,0,0,1,296.521,894.863Z" transform="translate(-273.421 -846.988)" fill="#fbcdc3"/>
          </g>
        </g>
      </g>
    </g>
    <g id="Grupo_881810" data-name="Grupo 881810" transform="translate(736.139 6258.661)">
      <g id="Grupo_875403" data-name="Grupo 875403" transform="translate(0 0)">
        <path id="Trazado_612672" data-name="Trazado 612672" d="M742.946,514.331c15.253-33.089,52.448-49.655,87.048-37.717.7.215,2.633.982,3.358,1.27.627.219,1.584.654,2.2.943l2.177,1c1.036.48,2.151,1.161,3.18,1.679,1.222.651,2.931,1.753,4.117,2.466.595.4,2.339,1.623,2.964,2.049a69.019,69.019,0,0,1,24.933,77.8c-.3.742-.961,2.722-1.273,3.449-.239.552-.714,1.7-.954,2.259-.326.864-1.185,2.489-1.565,3.33-.5,1.034-1.2,2.227-1.738,3.244-.448.822-1.442,2.342-1.91,3.148-.464.623-1.605,2.427-2.086,3.035-.37.471-1.121,1.476-1.492,1.951-1.166,1.488-2.695,3.286-4,4.648-15.532,16.862-39.9,24.888-62.36,20.22a1.93,1.93,0,0,1,.587-3.811,72.6,72.6,0,0,0,18.194-.14c.795-.112,2.6-.435,3.353-.544.635-.153,2.636-.568,3.315-.725,2.373-.6,4.708-1.332,7.022-2.123,1.2-.492,2.482-.95,3.664-1.463.733-.324,2.371-1.111,3.067-1.421a66.411,66.411,0,0,0,13.995-9.36c.971-.8,2.406-2.143,3.317-3.042.454-.4,1.135-1.172,1.566-1.616,22.662-23.692,23.86-61.953,2.557-87-26.347-31.55-75.747-30.837-100.826,1.916a61.294,61.294,0,0,0-8.847,16.028,1.93,1.93,0,1,1-3.562-1.482Z" transform="translate(-742.764 -472.746)" fill="#fda829"/>
      </g>
    </g>
  </g>
</svg>
