<svg xmlns="http://www.w3.org/2000/svg" width="133.722" height="137.678" viewBox="0 0 133.722 137.678">
  <g id="Grupo_883421" data-name="Grupo 883421" transform="translate(-1104 -14542.322)">
    <circle id="Elipse_5214" data-name="Elipse 5214" cx="62.5" cy="62.5" r="62.5" transform="translate(1105 14547)" fill="#148d80"/>
    <g id="Grupo_877833" data-name="Grupo 877833" transform="translate(739.449 13706.744)">
      <path id="Trazado_617768" data-name="Trazado 617768" d="M458.452,908.523v2.336c.705,0,1.4-.006,2.094,0a1.207,1.207,0,0,1,1.395,1.233q1.148,9.116,2.292,18.231c.129,1.028-.343,1.548-1.4,1.557-.655.006-1.31,0-2.069,0,0,1.042,0,2.077,0,3.11,0,1.189-.376,1.561-1.571,1.561H397.062c-1.195,0-1.564-.372-1.567-1.564,0-1.016,0-2.031,0-3.108-.75,0-1.448.008-2.145,0a1.2,1.2,0,0,1-1.327-1.485q.66-5.392,1.346-10.781.473-3.762.952-7.523a1.208,1.208,0,0,1,1.4-1.231c.655-.008,1.311-.006,1.966-.009.021,0,.042-.017.1-.045v-2.283c-.712,0-1.431,0-2.15,0a3.506,3.506,0,1,1,.013-7.006c.7,0,1.4,0,2.182,0-.1-1.5.048-2.908,1.315-3.9a3.457,3.457,0,0,1,2.369-.764c2.1.1,3.115,1.492,3.35,4.668h9.24a1.046,1.046,0,0,0-.071-.22,5.913,5.913,0,0,1-.285-6.282c2.294-4.572,4.558-9.159,6.868-13.723A4.734,4.734,0,0,0,421.15,879c-.035-2.6-.013-5.195-.013-7.856-.457,0-.864.012-1.269,0a3.507,3.507,0,0,1-3.391-3.5,3.463,3.463,0,0,1,3.381-3.5q8.268-.04,16.535,0a3.462,3.462,0,0,1,3.391,3.487,3.506,3.506,0,0,1-3.381,3.5c-.406.014-.813,0-1.279,0,0,2.362.068,4.669-.025,6.97a7.8,7.8,0,0,0,.956,4.017c2.154,4.183,4.2,8.423,6.338,12.614a6.124,6.124,0,0,1-.28,6.719h9.329c0-.377-.009-.781,0-1.184a3.494,3.494,0,0,1,6.986-.015c.012.386,0,.773,0,1.248.746,0,1.464,0,2.182,0a3.506,3.506,0,1,1,.011,7.006C459.924,908.527,459.222,908.523,458.452,908.523Zm-2.383,1.014v-.97h-2.257v2.257h2.257Zm-54.9,1.287h1.284v-2.257H400.2v2.257Zm34.678-44.33q-7.866-.009-15.731-.014c-.82,0-1.152.321-1.285,1.157.124.884.462,1.173,1.412,1.173q7.892,0,15.783,0a2.349,2.349,0,0,0,.507-.026,1.124,1.124,0,0,0,.62-1.869C436.847,866.634,436.291,866.626,435.848,866.494Zm-38,66.551v1.133h60.54v-2.272h-1.126c-.169-.008-.339-.023-.508-.023q-29.168,0-58.335,0c-.187,0-.375.023-.571.036Zm62.474-29.175c-.17-.006-.339-.017-.509-.017H395.859c-.1,0-.194,0-.291,0-.755.037-1.084.352-1.213,1.16.13.921.462,1.174,1.56,1.174h64.437a3.662,3.662,0,0,0,.582-.016,1.114,1.114,0,0,0,.739-1.82C461.371,904.043,460.783,904.02,460.324,903.869Zm-2.62,9.349c-.169-.008-.339-.023-.508-.023q-30.043,0-60.087,0c-.19,0-.379.02-.585.032-.224,1.791-.448,3.549-.665,5.308q-.606,4.919-1.206,9.839l-.168,1.133h67.288l-2.035-16.289Zm-26.079-42.047h-8.156c0,2.947.021,5.837-.018,8.727a4,4,0,0,1-.4,1.657c-2.41,4.894-4.868,9.764-7.285,14.654a3.546,3.546,0,0,0,3.257,5.3q9.1.016,18.2-.009a7.564,7.564,0,0,0,1.4-.266,1.268,1.268,0,0,0,.279-.061,3.584,3.584,0,0,0,1.549-5.067c-2.426-4.877-4.872-9.744-7.282-14.628a3.648,3.648,0,0,1-.358-1.521c-.035-2.622-.016-5.246-.016-7.869v-.919Zm-26.789,39.645H451.4v-2.252H404.836Zm-2.345-9.325c-.058-.82.272-1.718-.639-2.138a1.45,1.45,0,0,0-1.2.087c-.764.5-.457,1.32-.462,2.052Zm51.282-.008H456.1c-.058-.779.275-1.648-.593-2.114a1.408,1.408,0,0,0-1.15,0C453.493,899.836,453.829,900.706,453.774,901.483Z" fill="#010101"/>
      <path id="Trazado_617769" data-name="Trazado 617769" d="M460.809,907.934a7.559,7.559,0,0,1-1.4.266q-9.1.027-18.2.009a3.545,3.545,0,0,1-3.257-5.3c2.417-4.89,4.875-9.76,7.285-14.654a4,4,0,0,0,.4-1.657c.039-2.889.018-5.779.018-8.727h8.156c0,2.821-.017,5.643.019,8.464a3.825,3.825,0,0,0,.369,1.59c2.394,4.861,4.822,9.7,7.241,14.554a4.58,4.58,0,0,1-.009,4.33C461.239,907.189,461.018,907.559,460.809,907.934Zm-9.352-18.409V882.56h-2.288c-.007.138-.016.233-.016.327q0,10.8,0,21.6c0,.1-.006.2,0,.292a1.064,1.064,0,0,0,1.058,1.084c1.181.043,2.364.012,3.568.012v-2.338h-2.265v-2.34h2.262v-2.339h-2.259v-2.34h2.255v-2.339h-2.252v-2.339h2.249v-2.313Z" transform="translate(-22.188 -6.697)" fill="#eaf1f6"/>
      <path id="Trazado_617770" data-name="Trazado 617770" d="M397.175,975.048q.6-4.919,1.206-9.839c.217-1.759.441-3.517.665-5.308.207-.012.4-.032.585-.032q30.043,0,60.087,0c.169,0,.339.015.508.023.629,5.018,1.257,10.037,1.9,15.156Zm33.479-1.165H459.42c1.178,0,1.643-.5,1.5-1.594q-.558-4.412-1.12-8.823c-.117-.922-.494-1.261-1.443-1.261q-27.71,0-55.419,0c-.948,0-1.324.338-1.44,1.263-.358,2.845-.7,5.692-1.075,8.535-.188,1.424.176,1.88,1.607,1.88Z" transform="translate(-2.523 -46.673)" fill="#afd2ef"/>
      <path id="Trazado_617771" data-name="Trazado 617771" d="M397.016,975.07h64.95c-.641-5.119-1.269-10.138-1.9-15.156H462.1l2.035,16.289H396.848Z" transform="translate(-2.364 -46.696)" fill="#96bee3"/>
      <path id="Trazado_617772" data-name="Trazado 617772" d="M462.565,941.671c.459.151,1.048.174,1.35.481a1.115,1.115,0,0,1-.74,1.82,3.676,3.676,0,0,1-.582.016H398.156c-1.1,0-1.431-.252-1.56-1.174l64.055.006a1.445,1.445,0,0,0,.291-.005C461.644,942.665,462.306,942.454,462.565,941.671Z" transform="translate(-2.241 -37.802)" fill="#3f5b6b"/>
      <path id="Trazado_617773" data-name="Trazado 617773" d="M462.565,941.653c-.259.783-.921.994-1.622,1.144a1.445,1.445,0,0,1-.291.005L396.6,942.8c.129-.808.458-1.123,1.213-1.16.1,0,.194,0,.291,0h63.956C462.225,941.635,462.395,941.647,462.565,941.653Z" transform="translate(-2.241 -37.784)" fill="#54747f"/>
      <path id="Trazado_617774" data-name="Trazado 617774" d="M462.829,996.378h1.126v2.272h-60.54v-1.133q29.376,0,58.752,0c.207,0,.415-.035.662-.057Z" transform="translate(-5.565 -64.472)" fill="#94a4a4"/>
      <path id="Trazado_617775" data-name="Trazado 617775" d="M462.829,996.356v1.085c-.248.022-.455.057-.662.057q-29.376,0-58.752,0V996.37c.2-.013.384-.036.571-.036q29.167,0,58.335,0C462.49,996.333,462.66,996.348,462.829,996.356Z" transform="translate(-5.565 -64.45)" fill="#bcc2c6"/>
      <path id="Trazado_617776" data-name="Trazado 617776" d="M476.312,907.934c.209-.375.43-.745.624-1.127a4.58,4.58,0,0,0,.009-4.33c-2.418-4.849-4.847-9.693-7.241-14.554a3.825,3.825,0,0,1-.369-1.59c-.036-2.821-.018-5.642-.019-8.464h1.168v.919c0,2.623-.019,5.246.016,7.869a3.65,3.65,0,0,0,.358,1.521c2.41,4.884,4.856,9.752,7.282,14.628a3.584,3.584,0,0,1-1.549,5.067A1.261,1.261,0,0,1,476.312,907.934Z" transform="translate(-37.691 -6.697)" fill="#cee0ed"/>
      <path id="Trazado_617777" data-name="Trazado 617777" d="M461.372,868.741c.443.132,1,.14,1.307.422a1.124,1.124,0,0,1-.62,1.869,2.35,2.35,0,0,1-.507.026q-7.892,0-15.783,0c-.951,0-1.288-.29-1.412-1.173,5.036,0,10.072.013,15.108,0A1.83,1.83,0,0,0,461.372,868.741Z" transform="translate(-25.525 -2.247)" fill="#3e5b6b"/>
      <path id="Trazado_617778" data-name="Trazado 617778" d="M461.372,868.728a1.83,1.83,0,0,1-1.908,1.142c-5.036.014-10.072,0-15.108,0,.134-.836.465-1.157,1.285-1.157Q453.507,868.712,461.372,868.728Z" transform="translate(-25.525 -2.234)" fill="#53747f"/>
      <path id="Trazado_617779" data-name="Trazado 617779" d="M410.227,934.91h-2.3c.005-.732-.3-1.551.462-2.052a1.449,1.449,0,0,1,1.2-.087C410.5,933.192,410.169,934.09,410.227,934.91Z" transform="translate(-7.736 -33.418)" fill="#b8bec2"/>
      <path id="Trazado_617780" data-name="Trazado 617780" d="M512.52,934.888c.055-.777-.28-1.647.588-2.113a1.407,1.407,0,0,1,1.15,0c.868.465.535,1.335.593,2.114Z" transform="translate(-58.746 -33.405)" fill="#b8bec2"/>
      <path id="Trazado_617781" data-name="Trazado 617781" d="M408.968,953.094h-.973v-2.257h2.256v.97Z" transform="translate(-7.798 -42.27)" fill="#bcc2c6"/>
      <path id="Trazado_617782" data-name="Trazado 617782" d="M513.586,953.094h-.973v-2.257h2.257v.97Z" transform="translate(-58.801 -42.27)" fill="#bcc2c6"/>
      <path id="Trazado_617783" data-name="Trazado 617783" d="M409.893,954.017l1.284-1.287v1.287Z" transform="translate(-8.723 -43.193)" fill="#95a5a5"/>
      <path id="Trazado_617784" data-name="Trazado 617784" d="M514.511,954.017l1.284-1.287v1.287Z" transform="translate(-59.726 -43.193)" fill="#95a5a5"/>
      <path id="Trazado_617785" data-name="Trazado 617785" d="M462.529,893.987h2.316V896.3H462.6v2.339h2.252v2.339h-2.255v2.339h2.259v2.339H462.59V908h2.265v2.339c-1.2,0-2.388.03-3.568-.012a1.064,1.064,0,0,1-1.058-1.084c-.009-.1,0-.195,0-.292q0-10.8,0-21.6c0-.094.009-.189.016-.327h2.288Z" transform="translate(-33.26 -11.16)"/>
      <path id="Trazado_617786" data-name="Trazado 617786" d="M433.7,976.1h-28.62c-1.431,0-1.795-.456-1.607-1.88.375-2.843.717-5.69,1.075-8.535.116-.925.492-1.263,1.44-1.263q27.71,0,55.419,0c.949,0,1.325.338,1.443,1.261q.56,4.411,1.12,8.823c.138,1.1-.326,1.593-1.5,1.594Zm-1.191-3.506v-5.8H406.749l-.7,5.8-.165,1.128h26.626Zm2.378-.005V973.7h26.623c-.3-2.347-.584-4.628-.874-6.921h-.865c-.121-.008-.242-.021-.363-.021q-12.008,0-24.015,0c-.161,0-.323.023-.506.037Z" transform="translate(-5.573 -48.895)" fill="#000101"/>
      <path id="Trazado_617787" data-name="Trazado 617787" d="M464.82,974.816v-5.794c.182-.014.344-.037.506-.037q12.008,0,24.015,0c.121,0,.242.014.363.021.241,1.907.483,3.813.736,5.81Z" transform="translate(-35.501 -51.117)" fill="#42a3da"/>
      <path id="Trazado_617788" data-name="Trazado 617788" d="M408.547,974.852l.7-5.8h25.765v5.8Zm8.944-1.2v-2.273h-4.57v2.273Zm2.419,0h4.6v-2.267h-4.6Zm11.605-2.257h-4.6v2.248h4.6Z" transform="translate(-8.067 -51.149)" fill="#56bfee"/>
      <path id="Trazado_617789" data-name="Trazado 617789" d="M464.82,974.838h25.62c-.253-2-.495-3.9-.736-5.81h.865c.29,2.293.577,4.573.874,6.921H464.82Z" transform="translate(-35.501 -51.139)" fill="#277cac"/>
      <path id="Trazado_617790" data-name="Trazado 617790" d="M408.39,980.372h26.461V981.5H408.225Z" transform="translate(-7.91 -56.669)" fill="#48b0df"/>
      <path id="Trazado_617791" data-name="Trazado 617791" d="M421.651,975.877h-4.57V973.6h4.57Z" transform="translate(-12.228 -53.37)"/>
      <path id="Trazado_617792" data-name="Trazado 617792" d="M430.719,975.875v-2.267h4.6v2.267Z" transform="translate(-18.876 -53.372)"/>
      <path id="Trazado_617793" data-name="Trazado 617793" d="M448.992,973.627v2.248h-4.6v-2.248Z" transform="translate(-25.544 -53.381)"/>
    </g>
    <g id="Grupo_881804" data-name="Grupo 881804" transform="translate(1104 14542.322)">
      <g id="Grupo_875403" data-name="Grupo 875403" transform="translate(0 0)">
        <path id="Trazado_612672" data-name="Trazado 612672" d="M742.946,514.331c15.253-33.089,52.448-49.655,87.048-37.717.7.215,2.633.982,3.358,1.27.627.219,1.584.654,2.2.943l2.177,1c1.036.48,2.151,1.161,3.18,1.679,1.222.651,2.931,1.753,4.117,2.466.595.4,2.339,1.623,2.964,2.049a69.019,69.019,0,0,1,24.933,77.8c-.3.742-.961,2.722-1.273,3.449-.239.552-.714,1.7-.954,2.259-.326.864-1.185,2.489-1.565,3.33-.5,1.034-1.2,2.227-1.738,3.244-.448.822-1.442,2.342-1.91,3.148-.464.623-1.605,2.427-2.086,3.035-.37.471-1.121,1.476-1.492,1.951-1.166,1.488-2.695,3.286-4,4.648-15.532,16.862-39.9,24.888-62.36,20.22a1.93,1.93,0,0,1,.587-3.811,72.6,72.6,0,0,0,18.194-.14c.795-.112,2.6-.435,3.353-.544.635-.153,2.636-.568,3.315-.725,2.373-.6,4.708-1.332,7.022-2.123,1.2-.492,2.482-.95,3.664-1.463.733-.324,2.371-1.111,3.067-1.421a66.411,66.411,0,0,0,13.995-9.36c.971-.8,2.406-2.143,3.317-3.042.454-.4,1.135-1.172,1.566-1.616,22.662-23.692,23.86-61.953,2.557-87-26.347-31.55-75.747-30.837-100.826,1.916a61.294,61.294,0,0,0-8.847,16.028,1.93,1.93,0,1,1-3.562-1.482Z" transform="translate(-742.764 -472.746)" fill="#fda829"/>
      </g>
    </g>
  </g>
</svg>
