<svg xmlns="http://www.w3.org/2000/svg" width="133.722" height="137.678" viewBox="0 0 133.722 137.678">
  <g id="Grupo_883412" data-name="Grupo 883412" transform="translate(-1104.278 -13637.472)">
    <circle id="Elipse_5206" data-name="Elipse 5206" cx="62.5" cy="62.5" r="62.5" transform="translate(1105 13643)" fill="#148d80"/>
    <g id="Grupo_877836" data-name="Grupo 877836" transform="translate(952.2 12975.477)">
      <path id="Trazado_617840" data-name="Trazado 617840" d="M189.517,763.022a8.15,8.15,0,0,1-6.81-1.735,8.244,8.244,0,0,1-.032-12.776,1.338,1.338,0,0,0,.531-1.18q-.023-13.318-.008-26.636a4.71,4.71,0,0,1,4.891-4.875c.317.014.631.078,1.013.127v-.8q0-7.769,0-15.538a5.924,5.924,0,0,1,6.287-6.291q22.075,0,44.149,0a5.924,5.924,0,0,1,6.27,6.309q0,30.373,0,60.746c0,3.883-2.481,6.351-6.378,6.351q-21.89,0-43.78.016A6.178,6.178,0,0,1,189.517,763.022Zm-2.809-44.428v-.006a2.1,2.1,0,0,0-1.148,1.934h1.187l1.129.06v2.355h-2.266v2.321h1.137l1.129.06v2.355h-2.267V730h1.135l1.131.062v2.354h-2.295v15.956a1.634,1.634,0,0,1-.923,1.6,6.072,6.072,0,0,0-.875.753l-.138.163h0a5.5,5.5,0,0,0-1.465,5.362c.679,3.016,3.9,5.137,6.662,4.426a5.533,5.533,0,0,0,4.922-5.044,5.583,5.583,0,0,0-2.525-5.617,1.958,1.958,0,0,1-.969-1.825c.043-2.588.016-5.177.016-7.766q0-9.837,0-19.674a2.325,2.325,0,0,0-3.4-2.287Zm8.3-22.888a3.484,3.484,0,0,0-3.539,3.475c-.026,2.681-.007,5.362,0,8.043a1.315,1.315,0,0,0,.059.273h3.484c.172.008.343.023.515.023h47.849a1.061,1.061,0,0,0,.063-.209q.006-3.809.007-7.618c0-2.613-1.4-4.012-4.007-4.012h-43.69C195.5,695.682,195.258,695.7,195.012,695.705Zm.454,62.726a9.217,9.217,0,0,1-3.714,3.782,9.537,9.537,0,0,0,.611.912,3.717,3.717,0,0,0,3.029,1.231q20.174-.015,40.348-.006c1.426,0,2.852.024,4.278-.009a3.509,3.509,0,0,0,3.406-3.551c.008-.172.023-.344.023-.516q0-24.856,0-49.711c0-.213-.025-.425-.041-.676h-47.8c-.2,0-.393.015-.589.022h-3.551c0,2.471,0,4.86.008,7.248a.97.97,0,0,0,.195.532,5.212,5.212,0,0,1,.986,3.255q-.022,13.2,0,26.4a1.523,1.523,0,0,0,.278.917c.646.767,1.356,1.48,2.042,2.214a8.307,8.307,0,0,1,1.181,4.8A27.773,27.773,0,0,1,195.466,758.432Z" fill="#010101"/>
      <path id="Trazado_617841" data-name="Trazado 617841" d="M257.367,777.378c.2-.008.393-.022.589-.022h47.8c.016.251.041.464.041.676q0,24.856,0,49.711c0,.172-.015.344-.023.516q-21.971,0-43.942-.023a4.571,4.571,0,0,1-2.189-.714,12.259,12.259,0,0,1-1.825-1.624,27.78,27.78,0,0,0,.694-3.151,8.307,8.307,0,0,0-1.181-4.8q.015-5.067.036-10.133a6.454,6.454,0,0,1,.116-.855,22.5,22.5,0,1,0,0-4.749,3.5,3.5,0,0,1-.115-.632Q257.359,789.479,257.367,777.378Z" transform="translate(-62.351 -67.466)" fill="#92a3ab"/>
      <path id="Trazado_617842" data-name="Trazado 617842" d="M257.5,705.346c.245-.008.491-.023.736-.023h43.69c2.609,0,4.007,1.4,4.007,4.012q0,3.809-.007,7.618a1.062,1.062,0,0,1-.063.209H258.016c-.172,0-.343-.015-.515-.023q0-1.16,0-2.32l1.137-.055v-7.1H257.5Q257.5,706.506,257.5,705.346Zm41.318,1.159a4.736,4.736,0,1,0,4.752,4.727A4.735,4.735,0,0,0,298.82,706.505Zm-16.517,4.75a3.541,3.541,0,1,0-3.592,3.537A3.556,3.556,0,0,0,282.3,711.255Zm9.451.009a3.541,3.541,0,1,0-3.6,3.527A3.558,3.558,0,0,0,291.754,711.264Zm-23.671,3.505v-7.03h-2.266v7.03Zm-7-7.061v7.04h2.276v-7.04Z" transform="translate(-62.489 -9.641)" fill="#92d1f3"/>
      <path id="Trazado_617843" data-name="Trazado 617843" d="M244.685,1023.466a12.263,12.263,0,0,0,1.825,1.624,4.57,4.57,0,0,0,2.189.714q21.971.057,43.942.023a3.509,3.509,0,0,1-3.406,3.551c-1.425.033-2.852.009-4.278.009q-20.174,0-40.348.006a3.717,3.717,0,0,1-3.029-1.231,9.531,9.531,0,0,1-.611-.912A9.217,9.217,0,0,0,244.685,1023.466Z" transform="translate(-49.219 -265.034)" fill="#657c89"/>
      <path id="Trazado_617844" data-name="Trazado 617844" d="M201.265,819.749a2.325,2.325,0,0,1,3.4,2.287q.009,9.837,0,19.674c0,2.589.027,5.178-.016,7.766a1.958,1.958,0,0,0,.969,1.825,5.583,5.583,0,0,1,2.525,5.617,5.533,5.533,0,0,1-4.922,5.044,7.139,7.139,0,0,1-5.631-7.417,20.385,20.385,0,0,1,.434-2.37h0l.138-.163a6.072,6.072,0,0,1,.875-.753,1.634,1.634,0,0,0,.923-1.6c1.074-.5,1.2-1.372,1.184-2.463-.058-4.5-.023-9-.023-13.493h1.133v-2.354l-1.131-.062q0-1.162,0-2.325h1.129V826.6l-1.129-.06v-2.321h1.129v-2.355l-1.129-.06-.038-1.934v.006Zm4.577,36.45a3.539,3.539,0,1,0-3.628,3.516A3.578,3.578,0,0,0,205.842,856.2Z" transform="translate(-14.385 -101.286)" fill="#db5d55"/>
      <path id="Trazado_617845" data-name="Trazado 617845" d="M243.181,807.056a6.454,6.454,0,0,0-.116.855q-.027,5.066-.036,10.133c-.686-.734-1.4-1.446-2.042-2.214a1.523,1.523,0,0,1-.278-.917q-.021-13.2,0-26.4a5.212,5.212,0,0,0-.986-3.255.97.97,0,0,1-.195-.532c-.013-2.388-.008-4.777-.008-7.248h3.551q0,12.1,0,24.2a3.5,3.5,0,0,0,.115.632Z" transform="translate(-48.052 -67.561)" fill="#647c89"/>
      <path id="Trazado_617846" data-name="Trazado 617846" d="M243.041,714.917q0,1.16,0,2.32h-3.484a1.317,1.317,0,0,1-.059-.273c0-2.681-.022-5.362,0-8.043a3.484,3.484,0,0,1,3.539-3.475q0,1.16,0,2.319l-1.14.057v7.1Z" transform="translate(-48.029 -9.741)" fill="#47a6eb"/>
      <path id="Trazado_617847" data-name="Trazado 617847" d="M210.839,891.554c0,4.5-.036,9,.023,13.493.014,1.091-.111,1.967-1.184,2.463V891.554Z" transform="translate(-24.098 -159.141)" fill="#b63831"/>
      <path id="Trazado_617848" data-name="Trazado 617848" d="M193.2,985.223a20.385,20.385,0,0,0-.434,2.37,7.139,7.139,0,0,0,5.631,7.417c-2.761.711-5.983-1.41-6.662-4.426A5.5,5.5,0,0,1,193.2,985.223Z" transform="translate(-9.554 -234.334)" fill="#b63831"/>
      <path id="Trazado_617849" data-name="Trazado 617849" d="M210.965,843.5v2.321h-1.137V843.5Z" transform="translate(-24.219 -120.568)" fill="#b63831"/>
      <path id="Trazado_617850" data-name="Trazado 617850" d="M210.96,867.515q0,1.162,0,2.325h-1.135v-2.325Z" transform="translate(-24.214 -139.843)" fill="#b63831"/>
      <path id="Trazado_617851" data-name="Trazado 617851" d="M210.722,821.458l.038,1.934h-1.187A2.1,2.1,0,0,1,210.722,821.458Z" transform="translate(-24.015 -102.87)" fill="#b63831"/>
      <path id="Trazado_617852" data-name="Trazado 617852" d="M200,984.4l-.138.163Z" transform="translate(-16.217 -233.671)" fill="#b63831"/>
      <path id="Trazado_617853" data-name="Trazado 617853" d="M215.574,820.828l-.172.13Z" transform="translate(-28.694 -102.365)" fill="#b63831"/>
      <path id="Trazado_617854" data-name="Trazado 617854" d="M258.094,826.208q0-2.375,0-4.749a22.507,22.507,0,1,1,0,4.749Zm7.5-15.883.005-.008a1.638,1.638,0,0,0-.224.186,19.527,19.527,0,0,0-4.639,17.186,19.907,19.907,0,0,0,23.011,15.969,18.792,18.792,0,0,0,10.375-5.185,3.529,3.529,0,0,0,.342-.276c4.947-5.087,7-11.164,5.645-18.138a19.922,19.922,0,0,0-23.907-15.891,18.9,18.9,0,0,0-10.4,5.916Z" transform="translate(-62.964 -86.713)" fill="#020203"/>
      <path id="Trazado_617855" data-name="Trazado 617855" d="M447.866,711.323a4.736,4.736,0,1,1-4.7,4.78A4.734,4.734,0,0,1,447.866,711.323Zm-.345,7.067a2.221,2.221,0,0,0,2.149-.791,2.046,2.046,0,0,0,.53-1.906Zm-1.912-2.065,2.553-2.569A2.172,2.172,0,0,0,445.608,716.325Z" transform="translate(-211.535 -14.458)" fill="#020203"/>
      <path id="Trazado_617856" data-name="Trazado 617856" d="M354.422,720.908a3.541,3.541,0,1,1-3.49-3.561A3.561,3.561,0,0,1,354.422,720.908Zm-3.509,1.169a1.182,1.182,0,1,0-1.209-1.133A1.187,1.187,0,0,0,350.913,722.077Z" transform="translate(-134.608 -19.294)" fill="#020203"/>
      <path id="Trazado_617857" data-name="Trazado 617857" d="M402.339,720.916a3.541,3.541,0,1,1-3.481-3.571A3.562,3.562,0,0,1,402.339,720.916Zm-3.56,1.159a1.183,1.183,0,1,0-1.158-1.184A1.188,1.188,0,0,0,398.779,722.076Z" transform="translate(-173.074 -19.293)" fill="#020203"/>
      <path id="Trazado_617858" data-name="Trazado 617858" d="M301.924,724.612h-2.266v-7.03h2.266Z" transform="translate(-96.331 -19.483)" fill="#010101"/>
      <path id="Trazado_617859" data-name="Trazado 617859" d="M275.673,717.425h2.276v7.04h-2.276Z" transform="translate(-77.077 -19.357)" fill="#010101"/>
      <path id="Trazado_617860" data-name="Trazado 617860" d="M252.86,724.357h-1.14v-7.1l1.14-.057H254v7.1Z" transform="translate(-57.848 -19.18)" fill="#010101"/>
      <path id="Trazado_617861" data-name="Trazado 617861" d="M210.672,991.057a3.539,3.539,0,1,1-3.488-3.579A3.584,3.584,0,0,1,210.672,991.057Zm-2.357-.052a1.181,1.181,0,1,0-1.143,1.2A1.2,1.2,0,0,0,208.315,991.005Z" transform="translate(-19.214 -236.144)" fill="#020203"/>
      <path id="Trazado_617862" data-name="Trazado 617862" d="M290.009,819.833a18.9,18.9,0,0,1,10.4-5.916,19.922,19.922,0,0,1,23.907,15.891c1.353,6.974-.7,13.05-5.645,18.138a3.525,3.525,0,0,1-.342.276c-1.194.411-2.368.894-3.586,1.212a27.524,27.524,0,0,1-3.038.459,17.036,17.036,0,0,0,5.311-3.669,2.186,2.186,0,0,0,.578-1.346q.053-11.283,0-22.566a2.139,2.139,0,0,0-.557-1.355,17.608,17.608,0,0,0-20.3-3.28,17.994,17.994,0,0,0-8.385,8.807c-.037-.162-.138-.339-.1-.482.395-1.564.811-3.123,1.221-4.684.11-.418.223-.836.334-1.253l-.005.008Z" transform="translate(-87.165 -96.461)" fill="#6fc2ef"/>
      <path id="Trazado_617863" data-name="Trazado 617863" d="M274.639,846.891c-.111.418-.224.835-.334,1.253-.411,1.56-.827,3.119-1.222,4.684-.036.143.065.32.1.482-.047.138-.087.28-.142.415a17.677,17.677,0,0,0,6.971,21.689,17.438,17.438,0,0,0,16.524,1.3,27.523,27.523,0,0,0,3.038-.459c1.218-.317,2.393-.8,3.586-1.212a18.792,18.792,0,0,1-10.375,5.185,19.907,19.907,0,0,1-23.011-15.969,19.527,19.527,0,0,1,4.639-17.186A1.638,1.638,0,0,1,274.639,846.891Z" transform="translate(-72.001 -123.287)" fill="#47a6eb"/>
      <path id="Trazado_617864" data-name="Trazado 617864" d="M296.349,845.712l-.211.241Z" transform="translate(-93.505 -122.34)" fill="#47a6eb"/>
      <path id="Trazado_617865" data-name="Trazado 617865" d="M465.236,736.176l2.68-2.7a2.046,2.046,0,0,1-.53,1.906A2.221,2.221,0,0,1,465.236,736.176Z" transform="translate(-229.25 -32.244)" fill="#8e9ea6"/>
      <path id="Trazado_617866" data-name="Trazado 617866" d="M455.282,726.059a2.172,2.172,0,0,1,2.553-2.569Z" transform="translate(-221.208 -24.192)" fill="#8e9ea6"/>
      <path id="Trazado_617867" data-name="Trazado 617867" d="M360.526,731.707a1.182,1.182,0,1,1,1.149-1.194A1.187,1.187,0,0,1,360.526,731.707Z" transform="translate(-144.222 -28.924)" fill="#449fe1"/>
      <path id="Trazado_617868" data-name="Trazado 617868" d="M408.4,731.7a1.183,1.183,0,1,1,1.2-1.143A1.184,1.184,0,0,1,408.4,731.7Z" transform="translate(-182.692 -28.919)" fill="#449fe1"/>
      <path id="Trazado_617869" data-name="Trazado 617869" d="M217.917,1000.627a1.181,1.181,0,1,1-1.18-1.164A1.2,1.2,0,0,1,217.917,1000.627Z" transform="translate(-28.817 -245.766)" fill="#f1f1f2"/>
      <path id="Trazado_617870" data-name="Trazado 617870" d="M306.245,859.438a17.438,17.438,0,0,1-16.524-1.3,17.677,17.677,0,0,1-6.971-21.689c.054-.136.095-.277.142-.415a17.994,17.994,0,0,1,8.385-8.807,17.608,17.608,0,0,1,20.3,3.28,2.139,2.139,0,0,1,.557,1.355q.051,11.283,0,22.565a2.186,2.186,0,0,1-.578,1.346A17.037,17.037,0,0,1,306.245,859.438Zm3.523-5.957a1.065,1.065,0,0,0,.02-.146c0-6.95.011-13.9-.014-20.85a1.389,1.389,0,0,0-.489-.9,14.909,14.909,0,0,0-14.6-3.16,14.264,14.264,0,0,0-8.091,5.94,3.306,3.306,0,0,0-.279.336,14.873,14.873,0,0,0-2.228,11.233,14.715,14.715,0,0,0,10.03,11.689c5.549,1.944,10.651.845,15.175-2.929A1.1,1.1,0,0,0,309.768,853.481Z" transform="translate(-81.707 -106.007)" fill="#020203"/>
      <path id="Trazado_617871" data-name="Trazado 617871" d="M305.933,843.951a14.264,14.264,0,0,1,8.091-5.94,14.909,14.909,0,0,1,14.6,3.16,1.389,1.389,0,0,1,.489.9c.025,6.95.017,13.9.014,20.85a1.071,1.071,0,0,1-.02.146,6.523,6.523,0,0,0-.628.186,16.415,16.415,0,0,1-10.069.891,16.2,16.2,0,0,1-9.341-5.878,15.889,15.889,0,0,1-3.537-9.937A42.2,42.2,0,0,1,305.933,843.951Zm4.6,3.77c.389.339.739.612,1.052.922,1.378,1.367,1.34,1.979.048,3.4a5.487,5.487,0,0,0-1.23,2.046c-.613,2.107.469,3.667,2.637,5.311.44-.452.887-.908,1.33-1.368a3.66,3.66,0,0,0,.229-.311c-.361-.341-.725-.668-1.071-1.013-1.27-1.268-1.272-1.965-.03-3.228a7.086,7.086,0,0,0,.682-.774,3.854,3.854,0,0,0,.131-4.5,24.842,24.842,0,0,0-2.017-2.261Zm10.066,9.946c-.544-.476-1.113-.91-1.6-1.42a1.606,1.606,0,0,1-.017-2.323c.277-.313.595-.59.867-.906a3.843,3.843,0,0,0,.453-4.657,22.68,22.68,0,0,0-2.048-2.4l-1.829,1.8c.3.232.588.427.845.656a8.883,8.883,0,0,1,.778.787,1.629,1.629,0,0,1,.009,2.273c-.273.316-.592.593-.867.907a3.9,3.9,0,0,0-.39,4.847,25.247,25.247,0,0,0,2.066,2.308c.455-.487.824-.881,1.193-1.276C320.182,858.12,320.313,857.975,320.6,857.667Zm5.918.007c-.536-.465-1.085-.882-1.564-1.37a1.627,1.627,0,0,1-.022-2.432c.265-.291.562-.553.819-.851a3.87,3.87,0,0,0,.424-4.723,23.086,23.086,0,0,0-2.032-2.34l-1.762,1.752c.523.493,1.046.941,1.516,1.439a1.639,1.639,0,0,1,.019,2.384c-.246.275-.528.517-.772.794a3.959,3.959,0,0,0-.92,3.911c.4,1.405,1.559,2.215,2.528,3.2Z" transform="translate(-101.043 -115.594)" fill="#db5d55"/>
      <path id="Trazado_617872" data-name="Trazado 617872" d="M296.152,870.984a42.2,42.2,0,0,0-.4,4.38,15.889,15.889,0,0,0,3.537,9.937,16.2,16.2,0,0,0,9.341,5.878,16.415,16.415,0,0,0,10.069-.891,6.525,6.525,0,0,1,.628-.186,1.1,1.1,0,0,1-.474,1.21c-4.524,3.774-9.625,4.873-15.175,2.929a14.715,14.715,0,0,1-10.03-11.689,14.873,14.873,0,0,1,2.228-11.233A3.3,3.3,0,0,1,296.152,870.984Z" transform="translate(-91.262 -142.628)" fill="#d2473c"/>
      <path id="Trazado_617873" data-name="Trazado 617873" d="M329.662,882.874l1.762-1.775a24.842,24.842,0,0,1,2.017,2.261,3.854,3.854,0,0,1-.131,4.5,7.086,7.086,0,0,1-.682.774c-1.242,1.263-1.24,1.96.03,3.228.346.345.71.672,1.071,1.013a3.66,3.66,0,0,1-.229.311c-.443.46-.89.917-1.33,1.368-2.168-1.644-3.25-3.2-2.637-5.311a5.487,5.487,0,0,1,1.23-2.046c1.292-1.421,1.329-2.033-.048-3.4C330.4,883.486,330.05,883.213,329.662,882.874Z" transform="translate(-120.176 -150.748)" fill="#020203"/>
      <path id="Trazado_617874" data-name="Trazado 617874" d="M363.7,892.887c-.282.308-.413.453-.546.6-.368.4-.737.789-1.193,1.276a25.247,25.247,0,0,1-2.066-2.308,3.9,3.9,0,0,1,.39-4.847c.276-.314.594-.591.867-.907a1.629,1.629,0,0,0-.009-2.273,8.883,8.883,0,0,0-.778-.787c-.256-.229-.542-.423-.845-.656l1.829-1.8a22.68,22.68,0,0,1,2.048,2.4,3.843,3.843,0,0,1-.453,4.657c-.272.317-.59.594-.867.906a1.606,1.606,0,0,0,.017,2.323C362.591,891.977,363.161,892.411,363.7,892.887Z" transform="translate(-144.153 -150.814)" fill="#020203"/>
      <path id="Trazado_617875" data-name="Trazado 617875" d="M393.721,892.876l-1.766,1.766c-.969-.987-2.125-1.8-2.528-3.2a3.959,3.959,0,0,1,.92-3.911c.244-.277.526-.519.772-.794a1.639,1.639,0,0,0-.019-2.384c-.471-.5-.993-.946-1.516-1.439l1.762-1.752a23.086,23.086,0,0,1,2.032,2.34,3.87,3.87,0,0,1-.424,4.723c-.257.3-.553.561-.819.851a1.627,1.627,0,0,0,.022,2.432C392.636,891.994,393.185,892.412,393.721,892.876Z" transform="translate(-168.251 -150.797)" fill="#020203"/>
    </g>
    <g id="Grupo_881797" data-name="Grupo 881797" transform="translate(1104.278 13637.472)">
      <g id="Grupo_875403" data-name="Grupo 875403" transform="translate(0 0)">
        <path id="Trazado_612672" data-name="Trazado 612672" d="M742.946,514.331c15.253-33.089,52.448-49.655,87.048-37.717.7.215,2.633.982,3.358,1.27.627.219,1.584.654,2.2.943l2.177,1c1.036.48,2.151,1.161,3.18,1.679,1.222.651,2.931,1.753,4.117,2.466.595.4,2.339,1.623,2.964,2.049a69.019,69.019,0,0,1,24.933,77.8c-.3.742-.961,2.722-1.273,3.449-.239.552-.714,1.7-.954,2.259-.326.864-1.185,2.489-1.565,3.33-.5,1.034-1.2,2.227-1.738,3.244-.448.822-1.442,2.342-1.91,3.148-.464.623-1.605,2.427-2.086,3.035-.37.471-1.121,1.476-1.492,1.951-1.166,1.488-2.695,3.286-4,4.648-15.532,16.862-39.9,24.888-62.36,20.22a1.93,1.93,0,0,1,.587-3.811,72.6,72.6,0,0,0,18.194-.14c.795-.112,2.6-.435,3.353-.544.635-.153,2.636-.568,3.315-.725,2.373-.6,4.708-1.332,7.022-2.123,1.2-.492,2.482-.95,3.664-1.463.733-.324,2.371-1.111,3.067-1.421a66.411,66.411,0,0,0,13.995-9.36c.971-.8,2.406-2.143,3.317-3.042.454-.4,1.135-1.172,1.566-1.616,22.662-23.692,23.86-61.953,2.557-87-26.347-31.55-75.747-30.837-100.826,1.916a61.294,61.294,0,0,0-8.847,16.028,1.93,1.93,0,1,1-3.562-1.482Z" transform="translate(-742.764 -472.746)" fill="#fda829"/>
      </g>
    </g>
  </g>
</svg>
