<svg xmlns="http://www.w3.org/2000/svg" width="133.722" height="137.678" viewBox="0 0 133.722 137.678">
  <g id="Grupo_883415" data-name="Grupo 883415" transform="translate(-1104.278 -13935.533)">
    <circle id="Elipse_5209" data-name="Elipse 5209" cx="62.5" cy="62.5" r="62.5" transform="translate(1105 13941)" fill="#148d80"/>
    <g id="Grupo_877823" data-name="Grupo 877823" transform="translate(934.761 13853.662)">
      <rect id="Rect치ngulo_293922" data-name="Rect치ngulo 293922" width="70.355" height="70.618" rx="13.728" transform="translate(197.097 117.428)" fill="#2d314c"/>
      <rect id="Rect치ngulo_293923" data-name="Rect치ngulo 293923" width="66.318" height="66.67" rx="12.95" transform="translate(199.291 119.622)" fill="#fff"/>
      <g id="Grupo_877822" data-name="Grupo 877822" transform="translate(197.1 111.63)">
        <path id="Trazado_617533" data-name="Trazado 617533" d="M267.463,166.262a10.418,10.418,0,0,1-.676,1.239,3.245,3.245,0,0,1-2.731,1.323c-.615.009-1.231,0-1.93,0v.71c0,1.485.008,2.97,0,4.455a1.05,1.05,0,0,1-1.17,1.193c-.137,0-.275,0-.412,0H204.034c-1.336,0-1.585-.252-1.585-1.6,0-1.55,0-3.1,0-4.779-2.292.2-4.438.061-5.338-2.538v-22.22a1.945,1.945,0,0,0,.169-.271,3.269,3.269,0,0,1,3.289-2.21q31.715,0,63.431,0a4.326,4.326,0,0,1,1.016.113,3.476,3.476,0,0,1,2.448,2.5ZM260,170.388v-1.476H204.577v4.134H260Zm-26.334-20.456c.274.008.548.022.822.022q9.13,0,18.26,0c.366,0,.733.01,1.1-.012a2.1,2.1,0,0,0,2.028-1.652c.125-1.528.034-3.074.034-4.641q-3.98,0-7.96,0-7.139.009-14.277.023c-.136-.011-.273-.032-.409-.032q-12.092,0-24.183,0c-.153,0-.307.022-.524.038,0,1.177.049,2.317-.012,3.451a2.578,2.578,0,0,0,2.868,2.852c7.19-.06,14.381-.022,21.572-.022C233.208,149.967,233.435,149.944,233.663,149.933Zm-27.235-6.251c-1.889,0-3.674,0-5.458,0-1.384,0-1.718.327-1.718,1.688q0,9.807,0,19.613c0,1.375.307,1.673,1.709,1.674l62.654.039c1.423,0,1.749-.32,1.749-1.722q0-9.807,0-19.613a4.21,4.21,0,0,0-.034-.683,1.077,1.077,0,0,0-1.053-1c-2.03-.037-4.062-.014-6.155-.014,0,1.31.005,2.562,0,3.813a4.459,4.459,0,0,1-4.577,4.618q-21.263.036-42.525.021a4.358,4.358,0,0,1-4.591-4.6C206.429,146.26,206.428,145.007,206.428,143.682Z" transform="translate(-197.111 -136.09)" fill="#2d314c"/>
        <path id="Trazado_617535" data-name="Trazado 617535" d="M310.393,346.681c0-2.88-.009-5.761.013-8.641a1.8,1.8,0,0,1,.289-1.015,1.012,1.012,0,0,1,1.75.361,2.3,2.3,0,0,1,.077.677c0,5.715.02,11.43,0,17.145a4.871,4.871,0,0,1-9.7.833,26.361,26.361,0,0,1-.049-2.809,1,1,0,0,1,1.062-1.086,1.037,1.037,0,0,1,1.039,1.122c.02.731-.008,1.463.01,2.194a2.771,2.771,0,0,0,2.789,2.716,2.732,2.732,0,0,0,2.711-2.719c.022-2.926.006-5.852.006-8.778Z" transform="translate(-283.448 -295.522)" fill="#2d314c"/>
        <path id="Trazado_617536" data-name="Trazado 617536" d="M422.892,346.75q0-4.214,0-8.427a3.854,3.854,0,0,1,.049-.749.957.957,0,0,1,.954-.826.974.974,0,0,1,1.067.775,2.817,2.817,0,0,1,.058.746c0,5.71,0,11.419.007,17.129a2.753,2.753,0,0,0,5.5.218c.025-.73,0-1.462.011-2.192s.4-1.186,1.027-1.2a1.008,1.008,0,0,1,1.077,1.139,16.734,16.734,0,0,1-.186,3.334,4.829,4.829,0,0,1-9.492-.7c-.133-2.574-.059-5.159-.074-7.739C422.889,347.755,422.892,347.253,422.892,346.75Z" transform="translate(-381.616 -295.597)" fill="#2d314c"/>
        <path id="Trazado_617537" data-name="Trazado 617537" d="M385.511,348.841q0,5.107,0,10.214a4.291,4.291,0,0,1-.014.616.98.98,0,0,1-1.027.912.97.97,0,0,1-1.033-.9,4.35,4.35,0,0,1-.016-.616q0-10.213,0-20.427a4.614,4.614,0,0,1,.014-.616.966.966,0,0,1,1.023-.909.978.978,0,0,1,1.038.9,3.861,3.861,0,0,1,.016.616Q385.512,343.734,385.511,348.841Z" transform="translate(-349.363 -295.899)" fill="#272c47"/>
        <path id="Trazado_617538" data-name="Trazado 617538" d="M215.994,153.041c0,1.325,0,2.578,0,3.83a4.358,4.358,0,0,0,4.591,4.6q21.262.036,42.525-.021a4.459,4.459,0,0,0,4.577-4.618c.007-1.252,0-2.5,0-3.813,2.093,0,4.124-.023,6.155.014a1.077,1.077,0,0,1,1.053,1,4.206,4.206,0,0,1,.034.683q0,9.807,0,19.613c0,1.4-.326,1.723-1.749,1.722l-62.654-.039c-1.4,0-1.709-.3-1.709-1.674q0-9.807,0-19.613c0-1.362.335-1.687,1.718-1.688C212.32,153.04,214.1,153.041,215.994,153.041Zm25.861,19.17v-.025q12.121,0,24.242,0a3.151,3.151,0,0,0,.751-.041.991.991,0,0,0,.829-1.033.972.972,0,0,0-.848-1.009,3.38,3.38,0,0,0-.682-.052q-24.277-.023-48.553-.039a3.285,3.285,0,0,0-.747.069.99.99,0,0,0-.843,1.084A1.036,1.036,0,0,0,217,172.2a4.609,4.609,0,0,0,.686.011Zm-.016-6.877v-.022H217.394c-.889,0-1.374.364-1.4,1.039-.023.708.475,1.1,1.406,1.116h.206l48.545-.031c1.025,0,1.531-.353,1.526-1.054s-.51-1.047-1.537-1.049H241.838Z" transform="translate(-206.677 -145.448)" fill="#dadaf4"/>
        <path id="Trazado_617539" data-name="Trazado 617539" d="M284.738,159.251c-.228.012-.456.034-.683.035-7.191,0-14.382-.037-21.572.022a2.578,2.578,0,0,1-2.868-2.852c.061-1.134.012-2.275.012-3.451.217-.016.371-.038.524-.038q12.092,0,24.183,0c.136,0,.273.021.409.032Q284.74,156.123,284.738,159.251Z" transform="translate(-248.185 -145.408)" fill="#dadaf4"/>
        <path id="Trazado_617540" data-name="Trazado 617540" d="M293.374,299.237V301.9H237.953c0-.893,0-1.776,0-2.658q13.083,0,26.165-.008Q278.746,299.229,293.374,299.237Z" transform="translate(-230.488 -264.939)" fill="#8d8db0"/>
        <path id="Trazado_617541" data-name="Trazado 617541" d="M397.084,159.285q0-3.128,0-6.255,7.138-.012,14.277-.023,3.98,0,7.96,0c0,1.567.091,3.113-.034,4.641a2.1,2.1,0,0,1-2.028,1.652c-.365.022-.732.012-1.1.012q-9.13,0-18.26,0C397.632,159.307,397.358,159.293,397.084,159.285Z" transform="translate(-360.532 -145.442)" fill="#fefefe"/>
        <path id="Trazado_617542" data-name="Trazado 617542" d="M293.374,292.674q-14.628,0-29.256-.008-13.083,0-26.165.008c0-.475,0-.949,0-1.476h55.421Z" transform="translate(-230.488 -258.375)" fill="#7b7b9d"/>
        <path id="Trazado_617543" data-name="Trazado 617543" d="M273.98,248.2H249.806a4.609,4.609,0,0,1-.686-.011,1.036,1.036,0,0,1-.993-1.036.99.99,0,0,1,.843-1.084,3.284,3.284,0,0,1,.747-.069q24.277.016,48.553.039a3.382,3.382,0,0,1,.682.052.972.972,0,0,1,.848,1.009.991.991,0,0,1-.829,1.033,3.151,3.151,0,0,1-.751.041q-12.121,0-24.242,0Z" transform="translate(-238.801 -221.441)" fill="#2d314c"/>
        <path id="Trazado_617544" data-name="Trazado 617544" d="M273.948,220.319h24.307c1.027,0,1.532.347,1.537,1.049s-.5,1.053-1.526,1.054l-48.545.031h-.206c-.932-.012-1.429-.407-1.406-1.116.022-.674.506-1.039,1.4-1.039h24.444Z" transform="translate(-238.786 -200.434)" fill="#272c47"/>
      </g>
    </g>
    <g id="Grupo_881798" data-name="Grupo 881798" transform="translate(1104.278 13935.533)">
      <g id="Grupo_875403" data-name="Grupo 875403" transform="translate(0 0)">
        <path id="Trazado_612672" data-name="Trazado 612672" d="M742.946,514.331c15.253-33.089,52.448-49.655,87.048-37.717.7.215,2.633.982,3.358,1.27.627.219,1.584.654,2.2.943l2.177,1c1.036.48,2.151,1.161,3.18,1.679,1.222.651,2.931,1.753,4.117,2.466.595.4,2.339,1.623,2.964,2.049a69.019,69.019,0,0,1,24.933,77.8c-.3.742-.961,2.722-1.273,3.449-.239.552-.714,1.7-.954,2.259-.326.864-1.185,2.489-1.565,3.33-.5,1.034-1.2,2.227-1.738,3.244-.448.822-1.442,2.342-1.91,3.148-.464.623-1.605,2.427-2.086,3.035-.37.471-1.121,1.476-1.492,1.951-1.166,1.488-2.695,3.286-4,4.648-15.532,16.862-39.9,24.888-62.36,20.22a1.93,1.93,0,0,1,.587-3.811,72.6,72.6,0,0,0,18.194-.14c.795-.112,2.6-.435,3.353-.544.635-.153,2.636-.568,3.315-.725,2.373-.6,4.708-1.332,7.022-2.123,1.2-.492,2.482-.95,3.664-1.463.733-.324,2.371-1.111,3.067-1.421a66.411,66.411,0,0,0,13.995-9.36c.971-.8,2.406-2.143,3.317-3.042.454-.4,1.135-1.172,1.566-1.616,22.662-23.692,23.86-61.953,2.557-87-26.347-31.55-75.747-30.837-100.826,1.916a61.294,61.294,0,0,0-8.847,16.028,1.93,1.93,0,1,1-3.562-1.482Z" transform="translate(-742.764 -472.746)" fill="#fda829"/>
      </g>
    </g>
  </g>
</svg>
