<svg xmlns="http://www.w3.org/2000/svg" xmlns:xlink="http://www.w3.org/1999/xlink" width="133.722" height="137.678" viewBox="0 0 133.722 137.678">
  <defs>
    <clipPath id="clip-path">
      <circle id="Elipse_5245" data-name="Elipse 5245" cx="51.5" cy="51.5" r="51.5" transform="translate(0.357 0.357)" fill="#fff" stroke="#707070" stroke-width="1"/>
    </clipPath>
  </defs>
  <g id="Grupo_883432" data-name="Grupo 883432" transform="translate(-737.139 -1387.661)">
    <g id="Grupo_881871" data-name="Grupo 881871" transform="translate(-285 -4931)">
      <g id="Elipse_5244" data-name="Elipse 5244" transform="translate(1026 6325)" fill="#fff" stroke="#148d80" stroke-width="8">
        <ellipse cx="60" cy="60.5" rx="60" ry="60.5" stroke="none"/>
        <ellipse cx="60" cy="60.5" rx="56" ry="56.5" fill="none"/>
      </g>
    </g>
    <g id="Grupo_881874" data-name="Grupo 881874" transform="translate(737.139 1387.661)">
      <g id="Grupo_875403" data-name="Grupo 875403" transform="translate(0 0)">
        <path id="Trazado_612672" data-name="Trazado 612672" d="M742.946,514.331c15.253-33.089,52.448-49.655,87.048-37.717.7.215,2.633.982,3.358,1.27.627.219,1.584.654,2.2.943l2.177,1c1.036.48,2.151,1.161,3.18,1.679,1.222.651,2.931,1.753,4.117,2.466.595.4,2.339,1.623,2.964,2.049a69.019,69.019,0,0,1,24.933,77.8c-.3.742-.961,2.722-1.273,3.449-.239.552-.714,1.7-.954,2.259-.326.864-1.185,2.489-1.565,3.33-.5,1.034-1.2,2.227-1.738,3.244-.448.822-1.442,2.342-1.91,3.148-.464.623-1.605,2.427-2.086,3.035-.37.471-1.121,1.476-1.492,1.951-1.166,1.488-2.695,3.286-4,4.648-15.532,16.862-39.9,24.888-62.36,20.22a1.93,1.93,0,0,1,.587-3.811,72.6,72.6,0,0,0,18.194-.14c.795-.112,2.6-.435,3.353-.544.635-.153,2.636-.568,3.315-.725,2.373-.6,4.708-1.332,7.022-2.123,1.2-.492,2.482-.95,3.664-1.463.733-.324,2.371-1.111,3.067-1.421a66.411,66.411,0,0,0,13.995-9.36c.971-.8,2.406-2.143,3.317-3.042.454-.4,1.135-1.172,1.566-1.616,22.662-23.692,23.86-61.953,2.557-87-26.347-31.55-75.747-30.837-100.826,1.916a61.294,61.294,0,0,0-8.847,16.028,1.93,1.93,0,1,1-3.562-1.482Z" transform="translate(-742.764 -472.746)" fill="#fda829"/>
      </g>
    </g>
    <g id="Grupo_881894" data-name="Grupo 881894" transform="translate(597.316 733.146)">
      <path id="Trazado_620130" data-name="Trazado 620130" d="M305.118,841.582a21,21,0,1,1-21.029-20.957A21.018,21.018,0,0,1,305.118,841.582Zm-2.471.028a18.531,18.531,0,1,0-18.533,18.479A18.544,18.544,0,0,0,302.647,841.61Z" transform="translate(-76.255 -104.669)"/>
      <path id="Trazado_620131" data-name="Trazado 620131" d="M183.144,720.888a16.032,16.032,0,1,1,16.069-16.025A16.076,16.076,0,0,1,183.144,720.888Zm.031-29.6A13.566,13.566,0,1,0,196.742,704.9,13.6,13.6,0,0,0,183.175,691.291Z" transform="translate(0 0)"/>
      <path id="Trazado_620132" data-name="Trazado 620132" d="M371.138,702.337a13.589,13.589,0,1,1,13.556,13.618A13.6,13.6,0,0,1,371.138,702.337Zm24.707.038A11.118,11.118,0,1,0,384.7,713.488,11.129,11.129,0,0,0,395.845,702.375Z" transform="translate(-162.04)"/>
      <path id="Trazado_620133" data-name="Trazado 620133" d="M312.178,851.125a18.531,18.531,0,1,1-18.491-18.518A18.548,18.548,0,0,1,312.178,851.125Zm-29.65-4.634a1.364,1.364,0,0,1,.183.12c1.187,1.644,2.367,3.293,3.56,4.933.753,1.035,1.66,1.027,2.417-.022,1.1-1.519,2.182-3.048,3.276-4.57a6.418,6.418,0,0,1,.448-.488c0,3.622,0,7.087,0,10.552,0,.942.429,1.455,1.2,1.477.8.022,1.267-.512,1.268-1.484,0-4.75,0-9.5.007-14.249a1.308,1.308,0,0,0-.879-1.453c-.708-.228-1.16.149-1.549.7q-2.25,3.172-4.525,6.328c-.14.2-.3.378-.487.611-1.719-2.4-3.382-4.71-5.036-7.029a1.246,1.246,0,0,0-1.442-.62,1.2,1.2,0,0,0-.911,1.271c0,4.878,0,9.756.007,14.634a1.182,1.182,0,0,0,1.221,1.3,1.2,1.2,0,0,0,1.238-1.358c.013-2.105,0-4.21,0-6.316ZM303.514,858.5c0,.747.056,1.415-.012,2.069a1.811,1.811,0,0,1-2.371,1.531,2.021,2.021,0,0,1-1.343-1.8,1.6,1.6,0,0,0-.807-1.054,1.333,1.333,0,0,0-1.227.261,2.024,2.024,0,0,0-.343,1.407,4.31,4.31,0,0,0,8.584-.517c.029-2.105.008-4.211.008-6.317,0-1.361.017-2.722-.006-4.083a1.228,1.228,0,0,0-1.967-1.116,1.213,1.213,0,0,1-.882.024,4.254,4.254,0,0,0-5.655,3.1,9.984,9.984,0,0,0-.126,2.3,4.3,4.3,0,0,0,4.2,4.2C302.177,858.518,302.794,858.5,303.514,858.5Z" transform="translate(-85.786 -114.184)" fill="#fff"/>
      <path id="Trazado_620134" data-name="Trazado 620134" d="M192.707,700.806A13.566,13.566,0,1,1,179.1,714.367,13.6,13.6,0,0,1,192.707,700.806Zm-9.9,13.5h0c0,1.131-.038,2.263.008,3.391a4.32,4.32,0,0,0,8.623.053,1.289,1.289,0,0,0-1.089-1.513,1.256,1.256,0,0,0-1.373,1.238,1.859,1.859,0,1,1-3.7-.258q-.012-2.852,0-5.7a1.858,1.858,0,1,1,3.7-.219,1.255,1.255,0,0,0,1.314,1.223,1.27,1.27,0,0,0,1.148-1.461,3.053,3.053,0,0,0-.023-.307,4.324,4.324,0,0,0-8.611.475C182.786,712.248,182.8,713.276,182.8,714.3Zm18.751,4.78-.222.129v-.92c0-1.693.018-3.386-.009-5.079a1.178,1.178,0,0,0-1.793-1.122,1.073,1.073,0,0,1-1.109.089,4.174,4.174,0,0,0-5.558,2.99,8.922,8.922,0,0,0,0,3.344,3.948,3.948,0,0,0,3.071,3.113A4.426,4.426,0,0,0,199.5,721c.765.58,1.544,1.077,2.433.57a1.33,1.33,0,0,0,.564-1.121A4.867,4.867,0,0,0,201.555,719.084Z" transform="translate(-9.532 -9.516)" fill="#fff"/>
      <path id="Trazado_620135" data-name="Trazado 620135" d="M405.377,711.891a11.118,11.118,0,1,1-11.093-11.085A11.132,11.132,0,0,1,405.377,711.891Zm-15.263,3.714c.154-.335.251-.567.363-.791,1.182-2.365,2.376-4.724,3.547-7.1.515-1.043.033-1.946-1.063-1.969-1.62-.034-3.243-.025-4.864,0a1.225,1.225,0,1,0,.024,2.449c.931.023,1.862.005,2.884.005-.175.367-.28.6-.394.825-1.182,2.364-2.378,4.722-3.545,7.094a1.239,1.239,0,0,0,1.189,1.944c1.544.02,3.088.015,4.633,0a1.2,1.2,0,0,0,1.36-1.238c-.006-.751-.508-1.208-1.378-1.221S391.122,715.605,390.114,715.605Zm5.381-1.83c0,.975-.011,1.95,0,2.925.013.861.482,1.363,1.235,1.36s1.217-.5,1.228-1.367c.014-1.1,0-2.207.006-3.31.007-.909.473-1.462,1.217-1.472s1.24.544,1.249,1.441c.011,1.1-.006,2.207.006,3.31.009.876.451,1.378,1.2,1.4.775.022,1.258-.5,1.267-1.406.012-1.154.016-2.309,0-3.464a3.7,3.7,0,0,0-4.83-3.577,1.235,1.235,0,0,1-.71-.006c-1.078-.4-1.848.092-1.866,1.243C395.483,711.825,395.5,712.8,395.5,713.775Z" transform="translate(-171.572 -9.516)" fill="#fff"/>
      <path id="Trazado_620136" data-name="Trazado 620136" d="M301.591,879.791v4.329c0,2.105.008,4.21,0,6.315a1.2,1.2,0,0,1-1.238,1.358,1.182,1.182,0,0,1-1.221-1.3c-.011-4.878-.005-9.756-.007-14.634a1.2,1.2,0,0,1,.911-1.271,1.246,1.246,0,0,1,1.442.62c1.653,2.32,3.317,4.632,5.036,7.029.187-.233.347-.415.487-.611q2.267-3.161,4.525-6.328c.389-.548.841-.925,1.549-.7a1.308,1.308,0,0,1,.879,1.453c-.01,4.75,0,9.5-.007,14.249,0,.972-.47,1.507-1.268,1.484-.769-.022-1.2-.534-1.2-1.477-.005-3.465,0-6.931,0-10.553a6.418,6.418,0,0,0-.448.488c-1.095,1.522-2.179,3.051-3.276,4.57-.757,1.048-1.664,1.057-2.417.022-1.193-1.64-2.373-3.289-3.56-4.933A1.354,1.354,0,0,0,301.591,879.791Z" transform="translate(-104.848 -147.484)"/>
      <path id="Trazado_620137" data-name="Trazado 620137" d="M389.3,920.4c-.72,0-1.336.016-1.952,0a4.3,4.3,0,0,1-4.2-4.2,9.986,9.986,0,0,1,.126-2.3,4.253,4.253,0,0,1,5.655-3.1,1.214,1.214,0,0,0,.882-.024,1.228,1.228,0,0,1,1.967,1.116c.022,1.36.006,2.722.006,4.083,0,2.106.021,4.212-.008,6.317a4.31,4.31,0,0,1-8.584.518,2.025,2.025,0,0,1,.343-1.407,1.332,1.332,0,0,1,1.227-.261,1.6,1.6,0,0,1,.807,1.054,2.021,2.021,0,0,0,1.343,1.8,1.811,1.811,0,0,0,2.371-1.531C389.36,921.815,389.3,921.148,389.3,920.4Zm.007-2.47c0-1.14.048-2.188-.013-3.231a1.833,1.833,0,0,0-2.161-1.665c-1.12.217-1.558,1.041-1.521,2.866a1.9,1.9,0,0,0,1.615,2.017,1.033,1.033,0,0,0,.153.012Z" transform="translate(-171.576 -176.083)"/>
      <path id="Trazado_620138" data-name="Trazado 620138" d="M197.068,738.095c0-1.028-.018-2.056,0-3.083a4.324,4.324,0,0,1,8.611-.475,3.062,3.062,0,0,1,.023.307,1.271,1.271,0,0,1-1.148,1.461,1.255,1.255,0,0,1-1.314-1.223,1.858,1.858,0,1,0-3.7.219q-.014,2.852,0,5.7a1.859,1.859,0,1,0,3.7.258,1.256,1.256,0,0,1,1.373-1.238,1.289,1.289,0,0,1,1.089,1.513,4.32,4.32,0,0,1-8.623-.053c-.047-1.129-.008-2.261-.008-3.391Z" transform="translate(-23.796 -33.307)"/>
      <path id="Trazado_620139" data-name="Trazado 620139" d="M254.065,761.866a4.868,4.868,0,0,1,.946,1.37,1.329,1.329,0,0,1-.564,1.121c-.889.506-1.668.01-2.433-.57a4.425,4.425,0,0,1-3.566.621,3.948,3.948,0,0,1-3.071-3.113,8.922,8.922,0,0,1,0-3.344,4.174,4.174,0,0,1,5.558-2.989,1.073,1.073,0,0,0,1.109-.089A1.179,1.179,0,0,1,253.835,756c.027,1.692.008,3.386.009,5.079V762Zm-6.39-2.232h-.007c0,.179-.006.358,0,.537a1.85,1.85,0,1,0,3.7.01,11.058,11.058,0,0,0-.009-1.3,1.844,1.844,0,0,0-3.679-.01C247.655,759.121,247.675,759.379,247.675,759.635Z" transform="translate(-62.042 -52.298)"/>
      <path id="Trazado_620140" data-name="Trazado 620140" d="M404.445,734.59c1.008,0,1.882-.01,2.756,0s1.372.47,1.378,1.221a1.2,1.2,0,0,1-1.36,1.238c-1.544.014-3.089.019-4.633,0a1.239,1.239,0,0,1-1.189-1.944c1.167-2.372,2.362-4.73,3.545-7.094.114-.227.219-.457.394-.825-1.022,0-1.953.018-2.884-.005a1.225,1.225,0,1,1-.024-2.449c1.621-.024,3.244-.033,4.864,0,1.1.023,1.578.926,1.063,1.969-1.17,2.371-2.364,4.73-3.547,7.1C404.7,734.023,404.6,734.255,404.445,734.59Z" transform="translate(-185.903 -28.5)"/>
      <path id="Trazado_620141" data-name="Trazado 620141" d="M443.136,747.15c0-.975-.012-1.95,0-2.925.018-1.151.788-1.644,1.866-1.243a1.234,1.234,0,0,0,.71.006,3.7,3.7,0,0,1,4.83,3.577c.017,1.154.012,2.309,0,3.464-.009.906-.492,1.428-1.267,1.406-.746-.021-1.188-.522-1.2-1.4-.012-1.1,0-2.207-.006-3.31-.009-.9-.5-1.451-1.249-1.441s-1.21.563-1.217,1.473c-.009,1.1.008,2.207-.006,3.31-.011.865-.476,1.365-1.228,1.367s-1.222-.5-1.235-1.36C443.125,749.1,443.136,748.125,443.136,747.15Z" transform="translate(-219.213 -42.891)"/>
      <path id="Trazado_620142" data-name="Trazado 620142" d="M398.829,927.39H396.9a1.024,1.024,0,0,1-.153-.012,1.9,1.9,0,0,1-1.615-2.017c-.037-1.825.4-2.65,1.521-2.866a1.833,1.833,0,0,1,2.161,1.665C398.877,925.2,398.829,926.25,398.829,927.39Z" transform="translate(-181.095 -185.542)" fill="#fff"/>
      <path id="Trazado_620143" data-name="Trazado 620143" d="M257.117,769.2c0-.256-.02-.513,0-.767a1.844,1.844,0,0,1,3.679.01,11.051,11.051,0,0,1,.009,1.3,1.85,1.85,0,1,1-3.7-.01c-.007-.179,0-.358,0-.537Z" transform="translate(-71.484 -61.869)" fill="#fff"/>
    </g>
  </g>
</svg>
