<svg xmlns="http://www.w3.org/2000/svg" width="133.722" height="137.678" viewBox="0 0 133.722 137.678">
  <g id="Grupo_883431" data-name="Grupo 883431" transform="translate(-368 -1386.661)">
    <g id="Elipse_5266" data-name="Elipse 5266" transform="translate(371 1394)" fill="#fff" stroke="#148d80" stroke-width="8">
      <circle cx="60.5" cy="60.5" r="60.5" stroke="none"/>
      <circle cx="60.5" cy="60.5" r="56.5" fill="none"/>
    </g>
    <g id="Grupo_881873" data-name="Grupo 881873" transform="translate(368 1386.661)">
      <g id="Grupo_875403" data-name="Grupo 875403" transform="translate(0 0)">
        <path id="Trazado_612672" data-name="Trazado 612672" d="M742.946,514.331c15.253-33.089,52.448-49.655,87.048-37.717.7.215,2.633.982,3.358,1.27.627.219,1.584.654,2.2.943l2.177,1c1.036.48,2.151,1.161,3.18,1.679,1.222.651,2.931,1.753,4.117,2.466.595.4,2.339,1.623,2.964,2.049a69.019,69.019,0,0,1,24.933,77.8c-.3.742-.961,2.722-1.273,3.449-.239.552-.714,1.7-.954,2.259-.326.864-1.185,2.489-1.565,3.33-.5,1.034-1.2,2.227-1.738,3.244-.448.822-1.442,2.342-1.91,3.148-.464.623-1.605,2.427-2.086,3.035-.37.471-1.121,1.476-1.492,1.951-1.166,1.488-2.695,3.286-4,4.648-15.532,16.862-39.9,24.888-62.36,20.22a1.93,1.93,0,0,1,.587-3.811,72.6,72.6,0,0,0,18.194-.14c.795-.112,2.6-.435,3.353-.544.635-.153,2.636-.568,3.315-.725,2.373-.6,4.708-1.332,7.022-2.123,1.2-.492,2.482-.95,3.664-1.463.733-.324,2.371-1.111,3.067-1.421a66.411,66.411,0,0,0,13.995-9.36c.971-.8,2.406-2.143,3.317-3.042.454-.4,1.135-1.172,1.566-1.616,22.662-23.692,23.86-61.953,2.557-87-26.347-31.55-75.747-30.837-100.826,1.916a61.294,61.294,0,0,0-8.847,16.028,1.93,1.93,0,1,1-3.562-1.482Z" transform="translate(-742.764 -472.746)" fill="#fda829"/>
      </g>
    </g>
    <g id="Capa_1" data-name="Capa 1" transform="translate(111.415 761.389)">
      <g id="Grupo_881893" data-name="Grupo 881893" transform="translate(293.171 657.449)">
        <path id="Trazado_620123" data-name="Trazado 620123" d="M316.481,728.773c-.615-.133-1.225-.289-1.844-.4A26.018,26.018,0,0,1,298,687.656c6.5-9.554,12.914-19.173,19.375-28.756.349-.517.793-.969,1.193-1.451h.973a11.1,11.1,0,0,1,1.085,1.2c3.694,5.469,7.37,10.949,11.1,16.5.329-.482.637-.926.938-1.373.893-1.325,1.777-2.656,2.678-3.976a1.4,1.4,0,0,1,2.535,0c3.069,4.55,6.166,9.081,9.177,13.67a12.267,12.267,0,0,1-1.691,15.328,1.615,1.615,0,0,0-.506,1.455,26,26,0,0,1-23.236,28.388.939.939,0,0,0-.274.131Zm2.6-67.415c-.208.3-.355.512-.5.723-6.1,9.075-12.175,18.172-18.327,27.214a23.2,23.2,0,0,0-3.952,17.5c2.147,12.775,14.845,21.509,27.405,18.69,9.143-2.053,15.041-7.761,17.717-16.756a21.243,21.243,0,0,0,.723-7.546c-.229.1-.394.174-.559.245a12.382,12.382,0,0,1-15.3-18.17c1.124-1.674,2.239-3.353,3.388-5.01a.861.861,0,0,0,.009-1.152q-4.72-6.962-9.4-13.953C319.9,662.57,319.517,662,319.086,661.358Zm17.528,11.618c-.106.128-.186.207-.247.3-2.628,3.9-5.285,7.789-7.868,11.722a9.117,9.117,0,0,0-1.263,7.076,9.582,9.582,0,1,0,17.3-7.381q-3.741-5.571-7.491-11.137C336.915,673.369,336.774,673.192,336.614,672.976Z" transform="translate(-293.171 -657.449)" fill="#010203"/>
        <path id="Trazado_620124" data-name="Trazado 620124" d="M320.384,663.179c.432.639.819,1.212,1.206,1.785q4.693,6.979,9.4,13.953a.861.861,0,0,1-.009,1.152c-1.149,1.656-2.264,3.336-3.388,5.01a12.382,12.382,0,0,0,15.3,18.17c.165-.071.33-.145.559-.245a21.243,21.243,0,0,1-.723,7.546c-2.676,8.995-8.575,14.7-17.717,16.756-12.56,2.82-25.258-5.914-27.405-18.69a23.2,23.2,0,0,1,3.952-17.5c6.152-9.042,12.223-18.14,18.327-27.214C320.029,663.691,320.176,663.483,320.384,663.179Zm-20.115,41.779a19.184,19.184,0,0,0,13.213,18.271,1.391,1.391,0,0,0,1.968-.832c.264-.815-.147-1.5-1.133-1.825a16.076,16.076,0,0,1-5.585-3.15,16.366,16.366,0,0,1-2.676-21.834c.65-.935.6-1.749-.132-2.256-.716-.495-1.517-.252-2.161.667A19.07,19.07,0,0,0,300.269,704.958ZM318.423,724.5a1.386,1.386,0,1,0,.017-2.772,1.386,1.386,0,0,0-.017,2.772Z" transform="translate(-294.469 -659.27)" fill="#a2def9"/>
        <path id="Trazado_620125" data-name="Trazado 620125" d="M352.375,680.208c.16.216.3.392.427.579q3.748,5.567,7.491,11.137A9.587,9.587,0,1,1,343,699.3a9.117,9.117,0,0,1,1.263-7.076c2.583-3.934,5.24-7.819,7.868-11.722C352.189,680.415,352.268,680.336,352.375,680.208Zm-7.738,16.283a7.85,7.85,0,0,0,3.292,6.709,1.368,1.368,0,0,0,1.972-.235,1.408,1.408,0,0,0-.331-2.019c-2.051-1.711-2.54-3.4-1.713-5.9a1.407,1.407,0,0,0-.794-1.883,1.336,1.336,0,0,0-1.776.876C344.972,694.969,344.778,695.943,344.637,696.491Zm7.739,8.3a1.411,1.411,0,0,0,1.419-1.4A1.379,1.379,0,0,0,352.437,702a1.364,1.364,0,0,0-1.414,1.39A1.392,1.392,0,0,0,352.376,704.789Z" transform="translate(-308.931 -664.681)" fill="#4595e4"/>
        <path id="Trazado_620126" data-name="Trazado 620126" d="M301.672,718.884a19.07,19.07,0,0,1,3.493-10.96c.644-.918,1.446-1.161,2.161-.667.735.508.783,1.321.132,2.256a16.366,16.366,0,0,0,2.676,21.834,16.076,16.076,0,0,0,5.585,3.15c.985.327,1.4,1.01,1.133,1.825a1.391,1.391,0,0,1-1.968.832,19.184,19.184,0,0,1-13.213-18.271Z" transform="translate(-295.872 -673.196)" fill="#010203"/>
        <path id="Trazado_620127" data-name="Trazado 620127" d="M327.644,751.768a1.386,1.386,0,0,1,.017-2.772,1.386,1.386,0,1,1-.017,2.772Z" transform="translate(-303.69 -686.538)" fill="#040506"/>
        <path id="Trazado_620128" data-name="Trazado 620128" d="M345.505,702.481c.141-.548.335-1.522.65-2.455a1.336,1.336,0,0,1,1.776-.876,1.407,1.407,0,0,1,.794,1.883c-.827,2.5-.338,4.192,1.713,5.9a1.408,1.408,0,0,1,.331,2.019,1.368,1.368,0,0,1-1.972.235A7.85,7.85,0,0,1,345.505,702.481Z" transform="translate(-309.8 -670.671)" fill="#010203"/>
        <path id="Trazado_620129" data-name="Trazado 620129" d="M356.219,714.94a1.392,1.392,0,0,1-1.353-1.395,1.364,1.364,0,0,1,1.414-1.39,1.379,1.379,0,0,1,1.358,1.381A1.411,1.411,0,0,1,356.219,714.94Z" transform="translate(-312.774 -674.832)" fill="#010203"/>
      </g>
    </g>
  </g>
</svg>
